<svg width="70" height="70" viewBox="0 0 70 70" fill="none" xmlns="http://www.w3.org/2000/svg">
<mask id="mask0_1970_2690" style="mask-type:luminance" maskUnits="userSpaceOnUse" x="5" y="5" width="60" height="60">
<path d="M5 5H65V65H5V5Z" fill="white"/>
</mask>
<g mask="url(#mask0_1970_2690)">
<path d="M35 51.4062C35.6469 51.4062 36.1719 51.9312 36.1719 52.5781C36.1719 53.2249 35.6469 53.7499 35 53.7499C34.3531 53.7499 33.8281 53.2249 33.8281 52.5781C33.8281 51.9312 34.3531 51.4062 35 51.4062Z" fill="#1661BE"/>
<path fill-rule="evenodd" clip-rule="evenodd" d="M47.0703 42.0312C47.0703 45.9139 50.2188 49.0624 54.1016 49.0624C57.9843 49.0624 61.1328 45.9139 61.1328 42.0312C61.1328 38.1484 57.9843 34.9999 54.1016 34.9999C50.2188 34.9999 47.0703 38.1484 47.0703 42.0312ZM54.1016 46.7187C51.5132 46.7187 49.4141 44.6195 49.4141 42.0312C49.4141 39.4429 51.5132 37.3437 54.1016 37.3437C56.6899 37.3437 58.7891 39.4429 58.7891 42.0312C58.7891 44.6195 56.6899 46.7187 54.1016 46.7187Z" fill="#1661BE"/>
<path fill-rule="evenodd" clip-rule="evenodd" d="M5 61.9532C5 62.6005 5.52467 63.1251 6.17188 63.1251H22.1094C22.7566 63.1251 23.2813 62.6005 23.2813 61.9532C23.2813 61.306 22.7566 60.7814 22.1094 60.7814H7.34375V59.6095C7.34375 55.1344 11.3118 51.4064 15.8984 51.4064C18.714 51.4064 21.4934 52.814 22.9534 54.8809C23.3268 55.4095 24.058 55.5354 24.5866 55.162C25.1153 54.7886 25.2411 54.0574 24.8677 53.5287C22.9339 50.791 19.4133 49.0626 15.8984 49.0626C10.1304 49.0626 5 53.7299 5 59.6095V61.9532Z" fill="#1661BE"/>
<path fill-rule="evenodd" clip-rule="evenodd" d="M46.7187 61.9531C46.7187 62.6003 47.2434 63.1249 47.8906 63.1249H63.8281C64.4753 63.1249 65 62.6003 65 61.9531V59.6093C65 53.7297 59.8696 49.0624 54.1016 49.0624C50.5867 49.0624 47.0661 50.7908 45.1323 53.5285C44.7589 54.0572 44.8847 54.7884 45.4134 55.1618C45.942 55.5352 46.6732 55.4094 47.0466 54.8807C48.5066 52.8138 51.286 51.4062 54.1016 51.4062C58.6882 51.4062 62.6563 55.1342 62.6563 59.6093V60.7812H47.8906C47.2434 60.7812 46.7187 61.3059 46.7187 61.9531Z" fill="#1661BE"/>
<path fill-rule="evenodd" clip-rule="evenodd" d="M8.86719 42.0312C8.86719 45.9139 12.0157 49.0624 15.8984 49.0624C19.7812 49.0624 22.9297 45.9139 22.9297 42.0312C22.9297 38.1484 19.7812 34.9999 15.8984 34.9999C12.0157 34.9999 8.86719 38.1484 8.86719 42.0312ZM15.8984 46.7187C13.3101 46.7187 11.2109 44.6195 11.2109 42.0312C11.2109 39.4429 13.3101 37.3437 15.8984 37.3437C18.4868 37.3437 20.5859 39.4429 20.5859 42.0312C20.5859 44.6195 18.4868 46.7187 15.8984 46.7187Z" fill="#1661BE"/>
<path fill-rule="evenodd" clip-rule="evenodd" d="M25.625 37.3437C25.625 42.5214 29.8223 46.7187 35 46.7187C40.1777 46.7187 44.375 42.5214 44.375 37.3437C44.375 32.166 40.1777 27.9687 35 27.9687C29.8223 27.9687 25.625 32.166 25.625 37.3437ZM35 44.3749C31.1167 44.3749 27.9687 41.2269 27.9687 37.3437C27.9687 33.4604 31.1167 30.3124 35 30.3124C38.8833 30.3124 42.0312 33.4604 42.0312 37.3437C42.0312 41.2269 38.8833 44.3749 35 44.3749Z" fill="#1661BE"/>
<path fill-rule="evenodd" clip-rule="evenodd" d="M29.2007 24.6429C29.5616 24.9051 30.04 24.9396 30.4348 24.7321L34.958 22.3539C35.9755 22.8887 36.8398 23.343 37.7545 23.8239C38.2983 24.1098 38.86 24.405 39.4822 24.7321C39.8771 24.9397 40.3556 24.9051 40.7164 24.6428C41.0773 24.3805 41.258 23.9362 41.1825 23.4965L40.3175 18.459L43.9777 14.8919C44.2972 14.5805 44.4122 14.1148 44.2743 13.6905C44.1364 13.2662 43.7696 12.957 43.3281 12.8929L38.2734 12.1592L36.0106 7.53195C35.8139 7.12986 35.4054 6.8749 34.9578 6.8749C34.5103 6.8749 34.1017 7.12986 33.9051 7.53195L31.6422 12.1592L26.5875 12.8929C26.1461 12.957 25.7793 13.2662 25.6414 13.6905C25.5035 14.1148 25.6185 14.5805 25.938 14.8919L29.5983 18.4591L28.7345 23.4968C28.6591 23.9364 28.8398 24.3807 29.2007 24.6429ZM38.4706 21.5525C37.5329 21.0595 36.6192 20.5792 35.503 19.9926C35.1616 19.8132 34.7538 19.8133 34.4125 19.9927L31.4458 21.5526L32.0125 18.248C32.0777 17.8678 31.9516 17.4799 31.6754 17.2107L29.2748 14.8711L32.5914 14.3897C32.9747 14.3341 33.3057 14.0927 33.4758 13.7448L34.9578 10.7143L36.4399 13.7448C36.61 14.0927 36.941 14.3341 37.3243 14.3897L40.6409 14.8711L38.2403 17.2107C37.964 17.4799 37.838 17.868 37.9033 18.2482L38.4706 21.5525Z" fill="#1661BE"/>
<path fill-rule="evenodd" clip-rule="evenodd" d="M50.5392 30.6475C50.9 30.9097 51.3783 30.9444 51.7732 30.737L54.8374 29.1272L57.9006 30.7369C58.2954 30.9444 58.7738 30.9097 59.1346 30.6475C59.4955 30.3853 59.6762 29.941 59.6007 29.5014L59.0158 26.0913L61.4938 23.6748C61.8132 23.3634 61.9281 22.8978 61.7902 22.4736C61.6523 22.0494 61.2855 21.7402 60.8441 21.6761L57.4194 21.1788L55.8885 18.0752C55.6912 17.6752 55.2838 17.4218 54.8377 17.4218C54.3916 17.4217 53.9841 17.675 53.7867 18.075L52.2547 21.1787L48.8297 21.6761C48.3883 21.7402 48.0215 22.0494 47.8836 22.4736C47.7457 22.8978 47.8606 23.3635 48.1799 23.6749L50.6581 26.0913L50.0732 29.5014C49.9978 29.941 50.1784 30.3853 50.5392 30.6475ZM52.7844 27.5582L53.0722 25.8804C53.1374 25.5004 53.0115 25.1125 52.7354 24.8433L51.516 23.6544L53.2013 23.4096C53.583 23.3542 53.913 23.1145 54.0837 22.7686L54.8372 21.242L55.5901 22.7683C55.7608 23.1143 56.0908 23.3542 56.4726 23.4096L58.1578 23.6544L56.9385 24.8433C56.6624 25.1126 56.5365 25.5004 56.6017 25.8804L56.8894 27.5578L55.3827 26.7661C55.0414 26.5867 54.6338 26.5867 54.2925 26.766L52.7844 27.5582Z" fill="#1661BE"/>
<path fill-rule="evenodd" clip-rule="evenodd" d="M10.6954 30.6475C11.0562 30.9097 11.5346 30.9444 11.9294 30.737L14.9937 29.1272L18.0569 30.7369C18.4517 30.9444 18.9301 30.9097 19.2909 30.6475C19.6517 30.3853 19.8324 29.941 19.757 29.5014L19.1721 26.0913L21.6502 23.6749C21.9696 23.3635 22.0844 22.8978 21.9465 22.4736C21.8086 22.0494 21.4419 21.7402 21.0005 21.6761L17.5756 21.1788L16.0448 18.0752C15.8474 17.6752 15.44 17.4218 14.9939 17.4218C14.5478 17.4217 14.1404 17.675 13.9429 18.075L12.411 21.1787L8.98592 21.6761C8.5445 21.7402 8.17775 22.0494 8.03986 22.4736C7.90197 22.8978 8.01685 23.3635 8.3362 23.6749L10.8143 26.0913L10.2294 29.5014C10.154 29.941 10.3347 30.3853 10.6954 30.6475ZM12.9407 27.5582L13.2285 25.8804C13.2937 25.5004 13.1677 25.1125 12.8916 24.8433L11.6723 23.6544L13.3575 23.4096C13.7392 23.3542 14.0692 23.1145 14.2399 22.7686L14.9934 21.242L15.7463 22.7683C15.917 23.1143 16.2471 23.3542 16.6289 23.4096L18.3141 23.6544L17.0948 24.8433C16.8187 25.1125 16.6927 25.5004 16.7579 25.8804L17.0456 27.5578L15.5389 26.7661C15.1977 26.5867 14.7901 26.5867 14.4488 26.766L12.9407 27.5582Z" fill="#1661BE"/>
<path fill-rule="evenodd" clip-rule="evenodd" d="M20.9375 61.9531C20.9375 62.6003 21.4622 63.1249 22.1094 63.1249H47.8906C48.5378 63.1249 49.0625 62.6003 49.0625 61.9531V60.7812C49.0625 58.1623 48.3452 55.7075 47.097 53.6061L47.0967 53.6056C46.4946 52.5933 45.7701 51.6643 44.9437 50.8379C42.4007 48.2936 38.8833 46.7187 35 46.7187C29.8529 46.7187 25.3533 49.4849 22.9033 53.6057L22.903 53.6061C21.6548 55.7075 20.9375 58.1623 20.9375 60.7812V61.9531ZM23.2812 60.7812C23.2812 58.5956 23.8787 56.5529 24.9178 54.8035C24.9179 54.8034 24.918 54.8033 24.9181 54.8031C26.9634 51.3633 30.7137 49.0624 35 49.0624C38.237 49.0624 41.1649 50.3726 43.286 52.4948L43.2862 52.495C43.9761 53.1849 44.5804 53.9598 45.0822 54.8036C46.1213 56.553 46.7187 58.5956 46.7187 60.7812H23.2812Z" fill="#1661BE"/>
<path fill-rule="evenodd" clip-rule="evenodd" d="M42.9146 58.3237C43.499 58.0455 43.7473 57.3463 43.4691 56.7619C42.7269 55.2024 41.5666 53.8808 40.1353 52.9404C39.5944 52.585 38.8678 52.7354 38.5124 53.2764C38.157 53.8173 38.3074 54.5439 38.8484 54.8992C39.9249 55.6065 40.7966 56.6005 41.3528 57.7692C41.631 58.3535 42.3302 58.6018 42.9146 58.3237Z" fill="#1661BE"/>
</g>
</svg>
