<svg width="70" height="70" viewBox="0 0 70 70" fill="none" xmlns="http://www.w3.org/2000/svg">
<g clip-path="url(#clip0_1970_2693)">
<path d="M45.0727 43.4793C43.6511 43.4793 42.4946 42.4782 42.4946 41.2479C42.4946 40.0174 43.6511 39.0164 45.0727 39.0164C46.4943 39.0164 47.6509 40.0174 47.6509 41.2479C47.6509 41.895 48.1756 42.4198 48.8227 42.4198C49.4698 42.4198 49.9946 41.895 49.9946 41.2479C49.9946 39.1004 48.3945 37.2948 46.2446 36.8047V36.1952C46.2446 35.5481 45.7199 35.0234 45.0727 35.0234C44.4256 35.0234 43.9009 35.5481 43.9009 36.1952V36.8047C41.751 37.2948 40.1509 39.1004 40.1509 41.2479C40.1509 43.7706 42.3588 45.823 45.0727 45.823C46.4943 45.823 47.6509 46.824 47.6509 48.0545C47.6509 49.285 46.4943 50.286 45.0727 50.286C43.6511 50.286 42.4946 49.285 42.4946 48.0545C42.4946 47.4074 41.9699 46.8826 41.3228 46.8826C40.6756 46.8826 40.1509 47.4074 40.1509 48.0545C40.1509 50.2019 41.751 52.0076 43.9009 52.4976V53.0039C43.9009 53.651 44.4256 54.1758 45.0727 54.1758C45.7199 54.1758 46.2446 53.651 46.2446 53.0039V52.4976C48.3945 52.0076 49.9946 50.2019 49.9946 48.0545C49.9946 45.5317 47.7867 43.4793 45.0727 43.4793Z" fill="#1661BE"/>
<path d="M57.9081 36.5087C56.3773 34.1234 54.2206 32.2146 51.6712 30.9891C51.0877 30.7085 50.3875 30.9542 50.1072 31.5375C49.8268 32.1209 50.0723 32.821 50.6556 33.1014C55.0983 35.237 57.9688 39.8002 57.9688 44.7265C57.9688 46.8344 57.4492 48.925 56.4664 50.7723C56.1624 51.3436 56.3791 52.0533 56.9505 52.3573C57.1258 52.4505 57.3142 52.4948 57.4998 52.4948C57.9191 52.4948 58.3247 52.2691 58.5354 51.8731C59.698 49.6883 60.3126 47.2169 60.3126 44.7265C60.3126 41.8015 59.4811 38.9598 57.9081 36.5087Z" fill="#1661BE"/>
<path d="M46.9148 29.4922L46.8359 29.4921C46.1888 29.4921 45.6641 30.0168 45.6641 30.664C45.6641 31.3112 46.1888 31.8359 46.8359 31.8359L46.9038 31.836C46.9057 31.836 46.9074 31.836 46.9094 31.836C47.5541 31.836 48.0781 31.315 48.0812 30.6696C48.0841 30.0224 47.5619 29.4953 46.9148 29.4922Z" fill="#1661BE"/>
<path d="M39.5006 56.3515C35.058 54.2158 32.1875 49.6527 32.1875 44.7265C32.1875 42.6185 32.7071 40.528 33.69 38.6806C33.9939 38.1094 33.7773 37.3997 33.2059 37.0957C32.6347 36.7917 31.9248 37.0084 31.6209 37.5798C30.4583 39.7647 29.8438 42.236 29.8438 44.7265C29.8438 47.6514 30.6752 50.493 32.2482 52.9442C33.779 55.3296 35.9357 57.2383 38.4851 58.464C38.6489 58.5427 38.8218 58.5799 38.9921 58.5799C39.4285 58.5799 39.8473 58.3351 40.0491 57.9155C40.3293 57.3322 40.0839 56.632 39.5006 56.3515Z" fill="#1661BE"/>
<path d="M43.3207 57.6171L43.2528 57.6168C42.6027 57.6157 42.0786 58.1358 42.0757 58.7832C42.0726 59.4304 42.5951 59.9575 43.2422 59.9606L43.3207 59.9608C43.9678 59.9608 44.4926 59.436 44.4926 58.7889C44.4926 58.1418 43.9678 57.6171 43.3207 57.6171Z" fill="#1661BE"/>
<path d="M50.3994 25.5273C50.2568 25.1874 50.0821 24.8672 49.8787 24.5701H52.9296C55.9019 24.5701 58.3202 22.1518 58.3202 19.1795C58.3202 16.2071 55.9019 13.7889 52.9296 13.7889H43.5452C44.1418 12.9214 44.4921 11.872 44.4921 10.742C44.4921 7.76966 42.0738 5.35138 39.1015 5.35138H10.3906C7.41828 5.35138 5 7.76966 5 10.742C5 13.7143 7.41828 16.1326 10.3906 16.1326H19.775C19.1784 17 18.8281 18.0494 18.8281 19.1795C18.8281 20.3095 19.1783 21.3589 19.775 22.2263H16.7187C13.7464 22.2263 11.3281 24.6446 11.3281 27.617C11.3281 29.324 12.1266 30.8473 13.3689 31.8357C12.1266 32.8241 11.3281 34.3474 11.3281 36.0544C11.3281 37.7615 12.1266 39.2848 13.3689 40.2732C12.1266 41.2615 11.3281 42.7849 11.3281 44.4919C11.3281 46.199 12.1266 47.7223 13.3689 48.7107C12.1266 49.699 11.3281 51.2224 11.3281 52.9294C11.3281 55.9018 13.7464 58.32 16.7187 58.32H30.5292C34.1674 62.2115 39.3431 64.6483 45.0782 64.6483C56.0631 64.6483 65 55.7113 65 44.7264C65 35.5838 58.809 27.8611 50.3994 25.5273ZM52.9296 16.1326C54.6097 16.1326 55.9765 17.4995 55.9765 19.1795C55.9765 20.8595 54.6097 22.2263 52.9296 22.2263H45.4296H24.2187C22.5386 22.2263 21.1718 20.8595 21.1718 19.1795C21.1718 17.4995 22.5386 16.1326 24.2187 16.1326H52.9296ZM10.3906 13.7889C8.7105 13.7889 7.34375 12.422 7.34375 10.742C7.34375 9.062 8.7105 7.69513 10.3906 7.69513H39.1015C40.7816 7.69513 42.1484 9.062 42.1484 10.742C42.1484 12.422 40.7816 13.7889 39.1015 13.7889H10.3906ZM16.7187 24.5701H45.4296C45.9016 24.5701 46.3536 24.6798 46.7591 24.8762C46.2048 24.8297 45.6444 24.8046 45.0782 24.8046C39.5768 24.8046 34.5893 27.0463 30.9807 30.6638H16.7187C15.0387 30.6638 13.6719 29.297 13.6719 27.617C13.6719 25.937 15.0387 24.5701 16.7187 24.5701ZM16.7187 33.0076H28.9783C27.648 34.8302 26.6194 36.8859 25.9662 39.1013H16.7187C15.0386 39.1013 13.6719 37.7346 13.6719 36.0544C13.6719 34.3745 15.0386 33.0076 16.7187 33.0076ZM16.7187 41.4451H25.4281C25.2503 42.513 25.1563 43.6088 25.1563 44.7264C25.1563 45.681 25.2254 46.6197 25.3558 47.5388H16.7187C15.0386 47.5388 13.6719 46.172 13.6719 44.4919C13.6719 42.8118 15.0386 41.4451 16.7187 41.4451ZM16.7187 55.9763C15.0386 55.9763 13.6719 54.6095 13.6719 52.9294C13.6719 51.2493 15.0386 49.8825 16.7187 49.8825H25.8343C26.4256 52.0872 27.3862 54.1418 28.6459 55.9763H16.7187ZM45.0782 62.3045C35.3856 62.3045 27.5001 54.419 27.5001 44.7264C27.5001 35.0339 35.3856 27.1483 45.0782 27.1483C54.7707 27.1483 62.6563 35.0339 62.6563 44.7264C62.6563 54.419 54.7707 62.3045 45.0782 62.3045Z" fill="#1661BE"/>
</g>
<defs>
<clipPath id="clip0_1970_2693">
<rect width="60" height="60" fill="white" transform="translate(5 5)"/>
</clipPath>
</defs>
</svg>
