<svg width="70" height="70" viewBox="0 0 70 70" fill="none" xmlns="http://www.w3.org/2000/svg">
<g clip-path="url(#clip0_1970_2691)">
<path d="M61.0628 35.0074C62.3254 32.4906 63.3192 29.9605 64.009 27.4676C66.1719 19.6563 65.1246 13.1153 61.0592 9.05033C56.9942 4.98538 50.4532 3.93756 42.642 6.1005C40.149 6.79035 37.6189 7.78461 35.1021 9.04667C31.971 7.47516 28.8353 6.32526 25.8141 5.66288C18.7966 4.12479 12.8818 5.32779 9.1597 9.05033C6.77063 11.4394 5.38498 14.7962 5.15335 18.7581C4.94507 22.3223 5.66742 26.4124 7.24167 30.6257C5.94895 31.6479 5.11719 33.2281 5.11719 35.0001C5.11719 36.7721 5.94895 38.3523 7.24167 39.3745C5.66742 43.5877 4.94507 47.6783 5.15335 51.242C5.38544 55.2039 6.77063 58.5607 9.1597 60.9498C11.8276 63.6181 15.5707 64.9937 20.092 64.9937C20.9998 64.9937 21.9391 64.9383 22.9077 64.8266C26.7845 64.3794 30.9268 63.0587 35.1081 60.9562C37.623 62.2174 40.1513 63.2102 42.642 63.8996C45.3002 64.6357 47.8115 65.0001 50.1282 65.0001C54.6184 65.0001 58.3776 63.6314 61.0592 60.9498C64.7817 57.2277 65.9847 51.313 64.4466 44.295C63.7843 41.2742 62.6343 38.1385 61.0628 35.0074ZM43.1116 7.79743C50.2852 5.81119 56.2169 6.69834 59.8141 10.2954C63.4112 13.8926 64.2983 19.8243 62.3121 26.9979C61.7559 29.0075 60.9919 31.0445 60.0416 33.0797C58.3387 30.026 56.2444 27.0002 53.8178 24.114C54.5612 23.1664 55.0062 21.9739 55.0062 20.6789C55.0062 19.4269 54.601 18.2441 53.8338 17.258L52.4441 18.3388C52.9687 19.0131 53.2456 19.8224 53.2456 20.6789C53.2456 22.7828 51.534 24.4939 49.4306 24.4939C47.3272 24.4939 45.6156 22.7828 45.6156 20.6789C45.6156 18.575 47.3272 16.8639 49.4306 16.8639C50.1172 16.8639 50.7906 17.0479 51.377 17.3967L52.277 15.8834C51.4182 15.373 50.434 15.1029 49.4306 15.1029C48.1356 15.1029 46.9431 15.5483 45.996 16.2917C43.1093 13.8651 40.0835 11.7708 37.0298 10.0675C39.065 9.11762 41.102 8.35361 43.1116 7.79743ZM10.4048 10.2954C15.1651 5.53516 23.8938 5.71277 33.1818 10.0624C28.6476 12.5911 24.2005 15.9772 20.1433 20.0339C17.1349 23.0424 14.4872 26.2737 12.2629 29.647C11.7616 29.5014 11.2343 29.424 10.6932 29.424C10.0272 29.424 9.38859 29.5421 8.79578 29.7568C5.74524 21.4425 6.31653 14.3833 10.4048 10.2954ZM20.1378 63.2267C16.1548 63.2267 12.7687 62.0686 10.4044 59.7047C6.31653 55.6169 5.74478 48.5581 8.79578 40.2433C9.38859 40.4584 10.0272 40.5761 10.6932 40.5761C11.2375 40.5761 11.763 40.496 12.2611 40.35C14.4853 43.7246 17.134 46.9569 20.1433 49.9662C24.1991 54.0215 28.6449 57.4067 33.1777 59.9354C28.5218 62.1144 24.0425 63.2272 20.1378 63.2267ZM35.1044 58.9773C30.3487 56.4793 25.6525 52.9847 21.3884 48.7211C18.5233 45.8555 15.996 42.7848 13.8651 39.5823C15.3162 38.5747 16.2688 36.897 16.2688 35.0005C16.2688 34.8353 16.2619 34.6682 16.2473 34.5039L14.4931 34.659C14.5032 34.7716 14.5082 34.8861 14.5082 35.0001C14.5082 37.104 12.7966 38.8151 10.6932 38.8151C8.58979 38.8151 6.87821 37.104 6.87821 35.0001C6.87821 32.8962 8.58979 31.1851 10.6932 31.1851C12.1462 31.1851 13.454 31.9926 14.1058 33.2921L15.6796 32.503C15.2493 31.6447 14.6222 30.9337 13.8687 30.4114C15.9992 27.2117 18.5251 24.1424 21.3884 21.279C25.6534 17.0141 30.3514 13.5186 35.1085 11.0205C38.3463 12.7248 41.6221 14.9221 44.7957 17.5831C44.2016 18.4693 43.8546 19.534 43.8546 20.6789C43.8546 23.7533 46.3563 26.2545 49.4306 26.2545C50.5755 26.2545 51.6402 25.9075 52.5265 25.3133C55.1874 28.487 57.3843 31.7632 59.0885 35.0005C56.5905 39.7576 53.095 44.4556 48.8305 48.7211C48.3613 49.1898 47.8792 49.6558 47.3922 50.1122C46.4203 49.2901 45.1656 48.793 43.796 48.793C42.544 48.793 41.3611 49.1985 40.3751 49.9653L41.4563 51.3551C42.1302 50.8309 42.9395 50.554 43.796 50.5535C45.8994 50.5535 47.611 52.2651 47.611 54.3685C47.611 56.4724 45.8994 58.1835 43.796 58.1835C41.6926 58.1835 39.981 56.4724 39.981 54.3685C39.981 53.6819 40.165 53.009 40.5138 52.4226L39.0004 51.5222C38.49 52.3809 38.2199 53.3651 38.2199 54.3685C38.2199 55.252 38.4273 56.087 38.7944 56.8299C37.5608 57.6173 36.3285 58.3332 35.1044 58.9773ZM59.8141 59.7047C56.2169 63.3023 50.2852 64.1889 43.1116 62.2032C41.1034 61.647 39.0682 60.8839 37.0343 59.9345C37.9618 59.4163 38.8897 58.8601 39.8148 58.2678C40.8278 59.3014 42.2377 59.9446 43.796 59.9446C46.8703 59.9446 49.372 57.4433 49.372 54.369C49.372 53.2983 49.068 52.2981 48.543 51.4475C49.0621 50.9618 49.5757 50.4656 50.0751 49.9662C54.1323 45.9086 57.5179 41.4614 60.0471 36.9273C64.3967 46.2157 64.5744 54.9444 59.8141 59.7047Z" fill="#1661BE"/>
<path d="M49.548 44.0977H47.7288V39.6615C47.7288 37.6995 46.41 35.9572 44.5217 35.4244L43.8634 35.239L43.3855 36.9337L44.0438 37.1195C45.1763 37.439 45.9678 38.4841 45.9678 39.6615V44.0977H42.7982V41.6912H41.0377V44.0977H33.1138V45.8582H49.548V44.0977Z" fill="#1661BE"/>
<path d="M38.0211 35.4207L41.6905 36.4562L42.1689 34.7611L38.5722 33.7467V31.4084C40.2005 30.2979 41.2721 28.4288 41.2721 26.3135V23.7308C41.2721 20.3328 38.5077 17.5679 35.1092 17.5679C31.7113 17.5679 28.9464 20.3328 28.9464 23.7308V26.3135C28.9464 28.4288 30.018 30.2979 31.6463 31.4084V33.7467L25.6971 35.4244C23.8089 35.9572 22.4901 37.6995 22.4901 39.6615V44.0977H20.6709V45.8582H31.3528V44.0977H29.1812V41.6912H27.4206V44.0977H24.2511V39.6615C24.2511 38.4841 25.0425 37.439 26.1751 37.1195L32.1974 35.4212C32.939 36.2324 33.9863 36.7025 35.1092 36.7025C36.2321 36.7025 37.28 36.2319 38.0211 35.4207ZM35.1092 19.329C37.5363 19.329 39.5111 21.3037 39.5111 23.7313V24.7118L37.6604 22.2637H30.9596C31.5652 20.5558 33.1962 19.329 35.1092 19.329ZM30.7074 26.3135V24.0247H36.7842L39.3651 27.4378C38.8666 29.3224 37.1477 30.7154 35.1092 30.7154C32.6822 30.7154 30.7074 28.7406 30.7074 26.3135ZM33.4073 34.1289V32.2352C33.9479 32.3913 34.5187 32.4764 35.1092 32.4764C35.6998 32.4764 36.2701 32.3913 36.8112 32.2352V34.1289C36.3974 34.6412 35.7776 34.9415 35.1092 34.9415C34.4409 34.9415 33.8206 34.6412 33.4073 34.1289Z" fill="#1661BE"/>
<path d="M39.7595 39.5699L37.2793 38.8705L37.7577 37.1758L40.2374 37.8753L39.7595 39.5699Z" fill="#1661BE"/>
<path d="M43.6247 38.8279L43.1463 40.5225L41.4517 40.0446L41.93 38.35L43.6247 38.8279Z" fill="#1661BE"/>
<path d="M48.5503 19.7986H50.3109V21.5597H48.5503V19.7986Z" fill="#1661BE"/>
<path d="M42.9155 53.4887H44.6761V55.2493H42.9155V53.4887Z" fill="#1661BE"/>
<path d="M9.8125 34.1198H11.5735V35.8803H9.8125V34.1198Z" fill="#1661BE"/>
</g>
<defs>
<clipPath id="clip0_1970_2691">
<rect width="60" height="60" fill="white" transform="translate(5 5)"/>
</clipPath>
</defs>
</svg>
