<svg width="70" height="70" viewBox="0 0 70 70" fill="none" xmlns="http://www.w3.org/2000/svg">
<g clip-path="url(#clip0_1970_2689)">
<mask id="mask0_1970_2689" style="mask-type:luminance" maskUnits="userSpaceOnUse" x="5" y="4" width="60" height="61">
<path d="M5 4.99989H65V64.9999H5V4.99989Z" fill="white"/>
</mask>
<g mask="url(#mask0_1970_2689)">
<path d="M37.212 60.4004C38.0042 61.1434 37.6165 62.4387 36.8577 63.1982C36.0019 64.0551 34.6281 64.0216 33.7424 63.1951L31.6299 61.2205" stroke="#1661BE" stroke-width="2.7657" stroke-miterlimit="10" stroke-linecap="round" stroke-linejoin="round"/>
<path d="M29.7477 57.7764C29.9684 57.5756 30.1891 57.4183 30.4095 57.3046C32.5155 56.1802 34.3539 58.7738 32.7326 60.2296L31.165 61.6388C28.8987 63.6735 26.4419 60.7583 28.2569 59.1218" stroke="#1661BE" stroke-width="2.7657" stroke-miterlimit="10" stroke-linecap="round" stroke-linejoin="round"/>
<path d="M39.271 44.4963L47.5874 51.8927C50.93 54.8647 47.3736 58.3823 44.4754 55.2062" stroke="#1661BE" stroke-width="2.7657" stroke-miterlimit="10" stroke-linecap="round" stroke-linejoin="round"/>
<path d="M40.0127 50.7949L44.4752 55.2062C45.3376 56.0562 45.3309 57.4685 44.4752 58.3254C43.6195 59.1821 42.0918 59.1955 41.2529 58.3219L41.0322 58.0944" stroke="#1661BE" stroke-width="2.7657" stroke-miterlimit="10" stroke-linecap="round" stroke-linejoin="round"/>
<path d="M37.7999 54.8279L41.0623 58.0944C42.6066 59.6441 40.4473 63.4393 37.5358 60.7049L36.1387 59.3897" stroke="#1661BE" stroke-width="2.7657" stroke-miterlimit="10" stroke-linecap="round" stroke-linejoin="round"/>
<path d="M62.8394 39.5798L53.206 27.24C52.4605 26.2827 51.06 26.102 50.0939 26.8351L43.7897 31.6409C42.8239 32.3772 42.6433 33.7597 43.392 34.7168L53.0221 47.0565C53.7708 48.0138 55.1714 48.1945 56.1341 47.4582L62.4416 42.6555C63.4077 41.9192 63.5848 40.537 62.8394 39.5798Z" stroke="#1661BE" stroke-width="2.7657" stroke-miterlimit="10" stroke-linecap="round" stroke-linejoin="round"/>
<path d="M52.5343 46.4342C51.1537 48.9978 50.7828 49.3658 47.5872 51.8928M39.2707 44.4964L36.874 42.3141L33.0333 44.2185C29.8077 45.6441 26.2445 41.6514 31.3822 38.3181L35.0958 35.9083C37.6595 34.2416 40.297 34.3151 43.3854 34.7101" stroke="#1661BE" stroke-width="2.7657" stroke-miterlimit="10" stroke-linecap="round" stroke-linejoin="round"/>
<path d="M16.7515 47.7761L18.7236 50.4771M34.6078 36.2229L26.7292 35.018" stroke="#1661BE" stroke-width="2.7657" stroke-miterlimit="10" stroke-linecap="round" stroke-linejoin="round"/>
<path d="M25.2182 50.4033C27.742 48.1743 30.436 51.5513 28.4607 53.2916L24.7236 56.5784C22.6913 58.3723 20.0573 55.1827 21.7586 53.5426C22.0695 53.2449 21.8856 53.4123 21.9559 53.3487C22.0294 53.2851 25.2182 50.4033 25.2182 50.4033Z" stroke="#1661BE" stroke-width="2.7657" stroke-miterlimit="10" stroke-linecap="round" stroke-linejoin="round"/>
<path d="M18.7239 50.477L22.715 46.9294C25.2353 44.6937 27.8759 48.0038 25.9238 49.7674L25.2186 50.4033L21.515 53.7435C19.4259 55.6311 16.7752 52.2074 18.7239 50.477Z" stroke="#1661BE" stroke-width="2.7657" stroke-miterlimit="10" stroke-linecap="round" stroke-linejoin="round"/>
<path d="M28.2134 53.5093C30.7337 51.2768 33.3344 54.5402 31.3823 56.3039L27.9326 59.4164C25.9539 61.2036 22.9823 58.1146 25.2152 56.1466L25.6096 55.8018" stroke="#1661BE" stroke-width="2.7657" stroke-miterlimit="10" stroke-linecap="round" stroke-linejoin="round"/>
<path d="M22.5508 17.7617C22.5508 22.1694 25.0076 26.0051 28.6244 27.9661C30.2622 28.8498 32.134 29.3552 34.1263 29.3552C40.5208 29.3552 45.705 24.1642 45.705 17.7617C45.705 13.133 42.9909 9.13358 39.07 7.27956C37.5726 6.56999 35.8946 6.17179 34.1263 6.17179C27.7318 6.17179 22.5508 11.3626 22.5508 17.7617Z" stroke="#1661BE" stroke-width="2.7657" stroke-miterlimit="10" stroke-linecap="round" stroke-linejoin="round"/>
<path d="M37.8269 19.4753C37.8269 20.389 37.5629 21.1219 37.0348 21.6743C36.5099 22.2265 35.8682 22.5913 35.1194 22.7652V24.4287C35.1194 24.9975 34.6348 25.4661 34.0632 25.4661C33.4948 25.4661 33.0303 24.9975 33.0303 24.4287V22.7753C32.5622 22.6714 32.1412 22.4974 31.7634 22.2566C31.3757 22.0089 31.1049 21.7914 30.9544 21.6037L30.7238 21.306C29.7679 20.0543 31.3456 18.7157 32.2614 19.6794C32.3751 19.7966 32.4922 19.9372 32.6258 20.0878C33.0103 20.5162 33.5718 20.5832 34.0298 20.5832C34.8954 20.5832 35.33 20.2249 35.33 19.5088C35.33 19.2511 35.1661 19.0536 34.8386 18.913C34.5111 18.7692 34.1132 18.6453 33.642 18.5314C33.174 18.421 32.706 18.2705 32.2381 18.083C31.7669 17.8957 31.369 17.5741 31.0414 17.1158C30.7138 16.6573 30.5501 16.0784 30.5501 15.3719C30.5501 14.6693 30.774 14.0401 31.2153 13.471C31.6531 12.9122 32.2849 12.534 33.0469 12.3833V10.9644C33.0469 10.3953 33.515 9.92695 34.0832 9.92695C34.6547 9.92695 35.1194 10.3953 35.1194 10.9644V11.3994V12.4001C35.4469 12.4704 35.7478 12.5675 36.0152 12.698C36.286 12.8285 36.4731 12.9323 36.5801 13.0159L36.7373 13.1565C38.0976 14.1773 36.784 15.9846 35.6108 14.9973C34.8153 14.3278 33.0103 14.1773 33.0103 15.4089C33.0103 15.6667 33.1306 15.8741 33.3713 16.0349C33.6119 16.1919 33.906 16.299 34.257 16.3494C34.6113 16.4028 34.9958 16.49 35.4169 16.6138C35.8415 16.7375 36.2259 16.8813 36.5801 17.0455C36.9311 17.2094 37.2253 17.5005 37.466 17.9156C37.7067 18.3341 37.8269 18.8528 37.8269 19.4753Z" fill="#1661BE"/>
<path d="M11.6475 34.3018L11.6621 34.2834" stroke="#1661BE" stroke-width="2.7657" stroke-miterlimit="10" stroke-linecap="round" stroke-linejoin="round"/>
<path d="M14.4953 30.6537L16.7917 27.7119C17.5404 26.7547 18.9411 26.574 19.9036 27.3101L26.2114 32.1128C27.1771 32.8492 27.3544 34.2315 26.6091 35.1888L16.9756 47.5284C16.2302 48.4856 14.8297 48.6663 13.8636 47.9334L7.55934 43.1273C6.59336 42.391 6.41277 41.0088 7.1616 40.0516L8.79953 37.9532" stroke="#1661BE" stroke-width="2.7657" stroke-miterlimit="10" stroke-linecap="round" stroke-linejoin="round"/>
</g>
</g>
<defs>
<clipPath id="clip0_1970_2689">
<rect width="60" height="60" fill="white" transform="translate(5 5)"/>
</clipPath>
</defs>
</svg>
