<svg width="70" height="70" viewBox="0 0 70 70" fill="none" xmlns="http://www.w3.org/2000/svg">
<g clip-path="url(#clip0_1970_3129)">
<path d="M63.1542 16.963C60.0802 16.729 44.3482 15.085 36.5272 5.71102C36.1498 5.25808 35.5898 4.99734 35.0002 5.00002C34.4111 4.99849 33.8517 5.25859 33.4732 5.71002C30.2362 9.60002 25.3002 12.6 18.8062 14.642C14.9155 15.8468 10.9052 16.6247 6.84621 16.962C5.79328 17.0432 4.98494 17.9291 5.00021 18.985C5.29421 35.244 13.1422 57.019 34.2902 64.873C34.7485 65.0437 35.2529 65.0437 35.7112 64.873C56.8582 57.018 64.7112 35.244 65.0002 18.986C65.0155 17.9301 64.2071 17.0442 63.1542 16.963ZM34.9862 63C14.7812 55.494 7.28221 34.579 7.00021 18.956C11.2103 18.6067 15.3698 17.7999 19.4052 16.55C26.2732 14.391 31.5232 11.174 34.9912 6.99102C43.3242 16.98 59.7792 18.711 63.0002 18.957C62.7152 34.586 55.2152 55.5 34.9862 63Z" fill="white"/>
<path d="M11.2002 22.5C14.3879 22.038 17.534 21.3248 20.6092 20.367C23.3214 19.5274 25.9527 18.4457 28.4712 17.135C28.96 16.8771 29.1472 16.2718 28.8892 15.783C28.6313 15.2942 28.026 15.1071 27.5372 15.365C25.1265 16.6209 22.6073 17.6565 20.0102 18.459C17.0359 19.3849 13.9931 20.0747 10.9102 20.522C9.86144 20.6768 9.11565 21.6231 9.21023 22.679C9.60243 26.9882 10.5123 31.2345 11.9202 35.326C12.1075 35.8372 12.6694 36.1047 13.1843 35.9277C13.6991 35.7507 13.9778 35.1943 13.8112 34.676C12.4555 30.7368 11.5788 26.6487 11.2002 22.5Z" fill="white"/>
<path d="M41.5332 17.134C44.0531 18.4454 46.6861 19.5268 49.4002 20.365C52.472 21.3247 55.6153 22.0386 58.8002 22.5C58.4231 26.6498 57.5471 30.7389 56.1912 34.679C56.0667 35.019 56.1356 35.3997 56.3714 35.6744C56.6073 35.9492 56.9732 36.0749 57.3281 36.0033C57.683 35.9316 57.9715 35.6737 58.0822 35.329C59.4932 31.2365 60.4058 26.9889 60.8002 22.678C60.8948 21.6221 60.149 20.6758 59.1002 20.521C56.0173 20.0736 52.9745 19.3834 50.0002 18.457C47.4032 17.6547 44.884 16.6195 42.4732 15.364C41.9845 15.1061 41.3791 15.2933 41.1212 15.782C40.8633 16.2708 41.0505 16.8761 41.5392 17.134H41.5332Z" fill="white"/>
<path d="M32.938 14.2C31.6243 16.5922 30.9564 19.2852 31 22.014V26.394L30.106 26.841C29.4262 27.177 28.9971 27.8708 29 28.629V30.437L19 36.266V35C19 34.4477 18.5523 34 18 34C17.4477 34 17 34.4477 17 35V43C16.9983 43.5523 17.4447 44.0014 17.997 44.003C18.5493 44.0047 18.9983 43.5583 19 43.006H29V44.523L24.749 47.923C24.2749 48.3019 23.9993 48.8761 24 49.483V51C24 52.1046 24.8954 53 26 53H31.279L31.596 53.948C32.004 55.173 33.1499 55.9995 34.441 56H35.559C36.8484 55.9979 37.9921 55.1722 38.4 53.949L38.721 53H44C45.1046 53 46 52.1046 46 51V49.483C46.001 48.8751 45.7245 48.2999 45.249 47.921L41 44.523V43.006H51C51.0011 43.3633 51.1927 43.6928 51.5026 43.8706C51.8125 44.0483 52.1937 44.0471 52.5026 43.8676C52.8115 43.688 53.0011 43.3573 53 43V35C53 34.4477 52.5523 34 52 34C51.4477 34 51 34.4477 51 35V36.266L41 30.437V28.629C41.0038 27.8722 40.5773 27.1789 39.9 26.841L39 26.4V22.014C39.0444 19.2833 38.3764 16.588 37.062 14.194C36.6383 13.4552 35.8517 12.9995 35 12.9995C34.1483 12.9995 33.3617 13.4552 32.938 14.194V14.2ZM37 22.014V26.4C36.9964 27.1568 37.4229 27.85 38.1 28.188L39 28.634V35C39 35.5523 39.4477 36 40 36C40.5523 36 41 35.5523 41 35V32.752L51 38.581V41.006H41V39C41 38.4477 40.5523 38 40 38C39.4477 38 39 38.4477 39 39V45C39.0001 45.304 39.1385 45.5914 39.376 45.781L44 49.483V51H38C37.5698 51.0004 37.188 51.2758 37.052 51.684L36.508 53.315C36.3719 53.7236 35.9896 53.9991 35.559 53.999H34.441C34.0104 53.9991 33.6281 53.7236 33.492 53.315L32.948 51.684C32.812 51.2758 32.4302 51.0004 32 51H26V49.483L30.625 45.783C30.8627 45.5927 31.0007 45.3045 31 45V39C31 38.4477 30.5523 38 30 38C29.4477 38 29 38.4477 29 39V41.006H19V38.581L29 32.752V35C29 35.5523 29.4477 36 30 36C30.5523 36 31 35.5523 31 35V28.63L31.894 28.183C32.5718 27.8475 33.0005 27.1564 33 26.4V22.014C32.9553 19.6306 33.5334 17.2767 34.677 15.185C34.7444 15.0707 34.8673 15.0005 35 15.0005C35.1327 15.0005 35.2556 15.0707 35.323 15.185C36.4664 17.2768 37.0444 19.6306 37 22.014Z" fill="white"/>
</g>
<defs>
<clipPath id="clip0_1970_3129">
<rect width="60" height="60" fill="white" transform="translate(5 5)"/>
</clipPath>
</defs>
</svg>
