<svg width="70" height="70" viewBox="0 0 70 70" fill="none" xmlns="http://www.w3.org/2000/svg">
<path d="M19 58.0005H17V60.0005H19V58.0005Z" fill="white"/>
<path d="M53 58.0005H51V60.0005H53V58.0005Z" fill="white"/>
<path d="M51.9936 42.7201C50.229 41.596 48.1801 40.9994 46.088 41.0004H35.7035C33.756 41.0009 31.8434 41.518 30.1609 42.4988L20.4961 48.1366C20.3063 48.2473 20.1583 48.4175 20.0748 48.6208C19.9914 48.8241 19.9773 49.0492 20.0347 49.2613C20.092 49.4735 20.2176 49.6608 20.3921 49.7944C20.5666 49.928 20.7802 50.0004 21 50.0004H49.8736C50.7283 50.0004 51.5599 49.7231 52.2436 49.2101C52.9272 48.6971 53.426 47.9762 53.6649 47.1556C53.9039 46.335 53.8702 45.459 53.5688 44.6592C53.2674 43.8594 52.7147 43.1789 51.9936 42.7201ZM40 48.0004H24.6989L31.1686 44.2263C32.5452 43.4239 34.11 43.0008 35.7035 43.0004H40V48.0004ZM51.7447 46.5964C51.6355 47.0063 51.3916 47.3677 51.0522 47.6223C50.7129 47.877 50.2977 48.0101 49.8736 48.0004H42V43.0004H46.088C47.7998 42.9996 49.4762 43.4878 50.9199 44.4075C51.283 44.6269 51.5617 44.9621 51.7113 45.3591C51.8609 45.7561 51.8727 46.1919 51.7447 46.5964Z" fill="white"/>
<path d="M40.0005 52.0005H36.0005V54.0005H40.0005V52.0005Z" fill="white"/>
<path d="M62.5883 43.6984L59.366 43.0539L52.8397 39.1381C50.5084 37.7395 47.8409 37.0007 45.1223 37.0005H35.5481C33.0534 37.0024 30.5984 37.6246 28.4039 38.8112L11.3947 48.0245C10.0538 48.7526 8.87867 49.751 7.94357 50.9567C7.00847 52.1623 6.33378 53.5489 5.96217 55.0287L5.02986 58.7579C4.993 58.9054 4.99023 59.0593 5.02175 59.2079C5.05328 59.3566 5.11827 59.4961 5.2118 59.6159C5.30532 59.7357 5.42492 59.8326 5.5615 59.8992C5.69808 59.9658 5.84805 60.0005 6.00002 60.0005H12.0849C12.321 61.3985 13.0446 62.6677 14.1274 63.583C15.2102 64.4983 16.5822 65.0005 18 65.0005C19.4178 65.0005 20.7898 64.4983 21.8726 63.583C22.9554 62.6677 23.679 61.3985 23.9151 60.0005H46.0849C46.321 61.3985 47.0446 62.6677 48.1274 63.583C49.2102 64.4983 50.5822 65.0005 52 65.0005C53.4178 65.0005 54.7898 64.4983 55.8726 63.583C56.9554 62.6677 57.679 61.3985 57.9151 60.0005H58C59.8559 59.9984 61.6351 59.2602 62.9474 57.9479C64.2597 56.6356 64.9979 54.8564 65 53.0005V46.6401C64.9985 45.947 64.7576 45.2756 64.3182 44.7396C63.8787 44.2036 63.2677 43.8358 62.5883 43.6984ZM11.7339 50.1513C11.9052 50.3353 12.0004 50.5775 12 50.8289V51.0005C11.9997 51.2656 11.8943 51.5198 11.7068 51.7073C11.5193 51.8947 11.2651 52.0002 11 52.0005H9.67207C10.2599 51.2815 10.9554 50.6577 11.7339 50.1513ZM18 63.0005C17.2089 63.0005 16.4355 62.7659 15.7777 62.3264C15.1199 61.8868 14.6072 61.2621 14.3045 60.5312C14.0017 59.8003 13.9225 58.996 14.0769 58.2201C14.2312 57.4442 14.6122 56.7315 15.1716 56.1721C15.731 55.6126 16.4437 55.2317 17.2197 55.0773C17.9956 54.923 18.7998 55.0022 19.5307 55.305C20.2617 55.6077 20.8864 56.1204 21.3259 56.7782C21.7654 57.436 22 58.2094 22 59.0005C21.9988 60.061 21.577 61.0777 20.8271 61.8276C20.0772 62.5775 19.0605 62.9993 18 63.0005ZM52 63.0005C51.2089 63.0005 50.4355 62.7659 49.7777 62.3264C49.1199 61.8868 48.6072 61.2621 48.3045 60.5312C48.0017 59.8003 47.9225 58.996 48.0769 58.2201C48.2312 57.4442 48.6122 56.7315 49.1716 56.1721C49.731 55.6126 50.4437 55.2317 51.2196 55.0773C51.9956 54.923 52.7998 55.0022 53.5307 55.305C54.2616 55.6077 54.8864 56.1204 55.3259 56.7782C55.7654 57.436 56 58.2094 56 59.0005C55.9988 60.061 55.577 61.0777 54.8271 61.8276C54.0772 62.5775 53.0605 62.9993 52 63.0005ZM63 53.0005C62.9985 54.3261 62.4712 55.597 61.5339 56.5344C60.5965 57.4717 59.3256 57.999 58 58.0005H57.9151C57.679 56.6025 56.9554 55.3332 55.8726 54.4179C54.7898 53.5027 53.4178 53.0005 52 53.0005C50.5822 53.0005 49.2102 53.5027 48.1274 54.4179C47.0446 55.3332 46.321 56.6025 46.0849 58.0005H23.9151C23.679 56.6025 22.9554 55.3332 21.8726 54.4179C20.7898 53.5027 19.4178 53.0005 18 53.0005C16.5822 53.0005 15.2102 53.5027 14.1274 54.4179C13.0446 55.3332 12.321 56.6025 12.0849 58.0005H7.28078L7.90248 55.5138C8.03334 54.9946 8.21053 54.4881 8.43192 54.0005H11C11.7954 53.9996 12.5579 53.6832 13.1204 53.1208C13.6828 52.5584 13.9991 51.7959 14 51.0005V50.8289C14.0016 50.2351 13.8257 49.6545 13.4948 49.1614L29.3565 40.5697C31.2584 39.5414 33.3861 39.0021 35.5481 39.0005H45.1223C47.4784 39.0006 49.7903 39.641 51.8107 40.8531L58.4855 44.858C58.5838 44.9169 58.6915 44.9586 58.8039 44.9811L61.1383 45.448L59.8787 46.7076C59.5993 46.9855 59.3777 47.3161 59.2269 47.6802C59.076 48.0444 58.9989 48.4348 59 48.8289V49.0005C59.0009 49.7959 59.3172 50.5584 59.8797 51.1208C60.4421 51.6832 61.2046 51.9996 62 52.0005H63V53.0005ZM63 50.0005H62C61.7349 50.0002 61.4807 49.8947 61.2932 49.7073C61.1058 49.5198 61.0003 49.2656 61 49.0005V48.8289C60.9996 48.6975 61.0253 48.5674 61.0756 48.446C61.1259 48.3246 61.1998 48.2144 61.2929 48.1218L62.9781 46.4366C62.9924 46.5035 62.9997 46.5717 63 46.6401V50.0005Z" fill="white"/>
<path d="M33.9995 10.8284V35.0004H35.9995V10.8284C36.6667 10.5925 37.2291 10.1284 37.5871 9.51795C37.9452 8.90753 38.076 8.19019 37.9563 7.49269C37.8366 6.7952 37.4742 6.16246 36.9332 5.70632C36.3921 5.25018 35.7072 5 34.9995 5C34.2918 5 33.6069 5.25018 33.0659 5.70632C32.5248 6.16246 32.1624 6.7952 32.0427 7.49269C31.9231 8.19019 32.0538 8.90753 32.4119 9.51795C32.77 10.1284 33.3323 10.5925 33.9995 10.8284ZM34.9995 7.00044C35.1973 7.00044 35.3906 7.05909 35.5551 7.16897C35.7195 7.27885 35.8477 7.43503 35.9234 7.61776C35.9991 7.80048 36.0189 8.00155 35.9803 8.19553C35.9417 8.38951 35.8465 8.56769 35.7066 8.70755C35.5668 8.8474 35.3886 8.94264 35.1946 8.98122C35.0006 9.01981 34.7996 9.00001 34.6168 8.92432C34.4341 8.84863 34.2779 8.72046 34.168 8.55601C34.0582 8.39156 33.9995 8.19822 33.9995 8.00044C33.9998 7.73532 34.1053 7.48114 34.2927 7.29367C34.4802 7.1062 34.7344 7.00074 34.9995 7.00044Z" fill="white"/>
<path d="M26.0005 13.8284V25.0004C26.0005 25.1318 26.0264 25.2618 26.0766 25.3831C26.1269 25.5044 26.2005 25.6147 26.2934 25.7075L29.0005 28.4147V36.0004H31.0005V28.0004C31.0005 27.8691 30.9746 27.7391 30.9244 27.6178C30.8741 27.4964 30.8004 27.3862 30.7076 27.2933L28.0005 24.5862V13.8284C28.6677 13.5925 29.23 13.1284 29.5881 12.5179C29.9462 11.9075 30.077 11.1902 29.9573 10.4927C29.8376 9.7952 29.4752 9.16246 28.9342 8.70632C28.3931 8.25018 27.7082 8 27.0005 8C26.2928 8 25.6079 8.25018 25.0668 8.70632C24.5258 9.16246 24.1634 9.7952 24.0437 10.4927C23.924 11.1902 24.0548 11.9075 24.4129 12.5179C24.7709 13.1284 25.3333 13.5925 26.0005 13.8284ZM27.0005 10.0004C27.1983 10.0004 27.3916 10.0591 27.5561 10.169C27.7205 10.2789 27.8487 10.435 27.9244 10.6178C28.0001 10.8005 28.0199 11.0015 27.9813 11.1955C27.9427 11.3895 27.8475 11.5677 27.7076 11.7075C27.5677 11.8474 27.3896 11.9426 27.1956 11.9812C27.0016 12.0198 26.8005 12 26.6178 11.9243C26.4351 11.8486 26.2789 11.7205 26.169 11.556C26.0591 11.3916 26.0005 11.1982 26.0005 11.0004C26.0008 10.7353 26.1063 10.4811 26.2937 10.2937C26.4812 10.1062 26.7354 10.0007 27.0005 10.0004Z" fill="white"/>
<path d="M14 17.0004C14.4474 17.0009 14.8892 16.9007 15.2926 16.7072L22 23.4147V39.0004H24V23.0004C24 22.8691 23.9741 22.7391 23.9239 22.6177C23.8736 22.4964 23.8 22.3862 23.7071 22.2933L16.7068 15.293C16.987 14.7062 17.0689 14.0441 16.9401 13.4067C16.8113 12.7693 16.4789 12.1909 15.9929 11.7588C15.5069 11.3267 14.8936 11.0643 14.2455 11.011C13.5973 10.9577 12.9494 11.1165 12.3994 11.4635C11.8493 11.8104 11.4269 12.3267 11.1958 12.9346C10.9647 13.5425 10.9374 14.209 11.118 14.8337C11.2986 15.4585 11.6773 16.0076 12.1971 16.3984C12.717 16.7892 13.3497 17.0005 14 17.0004ZM14 13.0004C14.1978 13.0004 14.3911 13.0591 14.5556 13.1689C14.72 13.2788 14.8482 13.435 14.9239 13.6177C14.9996 13.8005 15.0194 14.0015 14.9808 14.1955C14.9422 14.3895 14.847 14.5677 14.7071 14.7075C14.5673 14.8474 14.3891 14.9426 14.1951 14.9812C14.0011 15.0198 13.8 15 13.6173 14.9243C13.4346 14.8486 13.2784 14.7204 13.1685 14.556C13.0587 14.3915 13 14.1982 13 14.0004C13.0003 13.7353 13.1058 13.4811 13.2932 13.2936C13.4807 13.1062 13.7349 13.0007 14 13.0004Z" fill="white"/>
<path d="M10 27.0004C10.4474 27.0008 10.8892 26.9006 11.2926 26.7072L16 31.4145V43.0003H18V31.0004C18 30.869 17.9741 30.739 17.9239 30.6177C17.8736 30.4963 17.8 30.3861 17.7071 30.2933L12.7068 25.293C12.987 24.7061 13.0689 24.0441 12.9401 23.4066C12.8113 22.7692 12.4789 22.1909 11.9929 21.7588C11.5069 21.3267 10.8936 21.0642 10.2455 21.0109C9.59732 20.9577 8.94942 21.1165 8.39938 21.4634C7.84934 21.8104 7.42694 22.3267 7.19582 22.9345C6.96471 23.5424 6.93739 24.2089 7.118 24.8337C7.2986 25.4584 7.67733 26.0075 8.19714 26.3983C8.71695 26.7891 9.34968 27.0004 10 27.0004ZM10 23.0004C10.1978 23.0004 10.3911 23.059 10.5556 23.1689C10.72 23.2788 10.8482 23.4349 10.9239 23.6177C10.9996 23.8004 11.0194 24.0015 10.9808 24.1954C10.9422 24.3894 10.847 24.5676 10.7071 24.7075C10.5673 24.8473 10.3891 24.9426 10.1951 24.9811C10.0011 25.0197 9.80005 24.9999 9.61732 24.9242C9.4346 24.8485 9.27842 24.7204 9.16854 24.5559C9.05865 24.3915 9.00001 24.1981 9.00001 24.0004C9.00031 23.7352 9.10576 23.4811 9.29323 23.2936C9.4807 23.1061 9.73488 23.0007 10 23.0004Z" fill="white"/>
<path d="M8 40.6538C8.35834 40.654 8.71379 40.5897 9.04934 40.464L13.2929 44.7076L14.7071 43.2934L10.5859 39.1721C10.9203 38.6019 11.057 37.9371 10.9747 37.2811C10.8923 36.6252 10.5955 36.0148 10.1304 35.545C9.66529 35.0751 9.05798 34.7721 8.40289 34.6831C7.7478 34.5941 7.08165 34.724 6.50803 35.0527C5.93441 35.3813 5.48547 35.8903 5.23102 36.5005C4.97658 37.1107 4.93088 37.7879 5.10105 38.4267C5.27121 39.0655 5.6477 39.6303 6.17197 40.033C6.69623 40.4358 7.33889 40.654 8 40.6538ZM8 36.6538C8.19778 36.6538 8.39112 36.7124 8.55557 36.8223C8.72002 36.9322 8.84819 37.0884 8.92388 37.2711C8.99957 37.4538 9.01937 37.6549 8.98079 37.8489C8.9422 38.0429 8.84696 38.2211 8.70711 38.3609C8.56726 38.5008 8.38907 38.596 8.19509 38.6346C8.00111 38.6732 7.80004 38.6534 7.61732 38.5777C7.43459 38.502 7.27841 38.3738 7.16853 38.2094C7.05865 38.0449 7 37.8516 7 37.6538C7.00031 37.3887 7.10576 37.1345 7.29323 36.947C7.4807 36.7596 7.73488 36.6541 8 36.6538Z" fill="white"/>
<path d="M41.0005 28.4147L43.7076 25.7075C43.8004 25.6147 43.8741 25.5044 43.9244 25.3831C43.9746 25.2618 44.0005 25.1318 44.0005 25.0004V13.8284C44.6677 13.5925 45.23 13.1284 45.5881 12.5179C45.9462 11.9075 46.077 11.1902 45.9573 10.4927C45.8376 9.7952 45.4752 9.16246 44.9341 8.70632C44.3931 8.25018 43.7082 8 43.0005 8C42.2928 8 41.6079 8.25018 41.0668 8.70632C40.5258 9.16246 40.1634 9.7952 40.0437 10.4927C39.924 11.1902 40.0548 11.9075 40.4129 12.5179C40.7709 13.1284 41.3333 13.5925 42.0005 13.8284V24.5862L39.2934 27.2933C39.2005 27.3862 39.1269 27.4964 39.0766 27.6177C39.0263 27.7391 39.0005 27.8691 39.0005 28.0004V35.0004H41.0005V28.4147ZM43.0005 10.0004C43.1983 10.0004 43.3916 10.0591 43.5561 10.169C43.7205 10.2789 43.8487 10.435 43.9244 10.6178C44.0001 10.8005 44.0199 11.0015 43.9813 11.1955C43.9427 11.3895 43.8474 11.5677 43.7076 11.7075C43.5677 11.8474 43.3896 11.9426 43.1956 11.9812C43.0016 12.0198 42.8005 12 42.6178 11.9243C42.4351 11.8486 42.2789 11.7205 42.169 11.556C42.0591 11.3916 42.0005 11.1982 42.0005 11.0004C42.0008 10.7353 42.1062 10.4811 42.2937 10.2937C42.4812 10.1062 42.7354 10.0007 43.0005 10.0004Z" fill="white"/>
<path d="M46 23.0003V35.0003H48V23.4145L54.7074 16.7071C55.3462 17.0123 56.0723 17.0819 56.7575 16.9034C57.4426 16.725 58.0426 16.3101 58.4514 15.732C58.8602 15.154 59.0515 14.45 58.9914 13.7446C58.9314 13.0392 58.6239 12.3777 58.1232 11.8771C57.6226 11.3764 56.9611 11.0689 56.2557 11.0089C55.5502 10.9488 54.8463 11.1401 54.2683 11.5489C53.6902 11.9577 53.2753 12.5577 53.0969 13.2428C52.9184 13.9279 52.988 14.6541 53.2932 15.2929L46.2929 22.2932C46.2 22.3861 46.1264 22.4963 46.0761 22.6176C46.0259 22.7389 46 22.869 46 23.0003ZM56 13.0003C56.1978 13.0003 56.3911 13.0589 56.5556 13.1688C56.72 13.2787 56.8482 13.4349 56.9239 13.6176C56.9996 13.8003 57.0194 14.0014 56.9808 14.1954C56.9422 14.3894 56.847 14.5675 56.7071 14.7074C56.5673 14.8473 56.3891 14.9425 56.1951 14.9811C56.0011 15.0197 55.8 14.9999 55.6173 14.9242C55.4346 14.8485 55.2784 14.7203 55.1685 14.5559C55.0586 14.3914 55 14.1981 55 14.0003C55.0003 13.7352 55.1058 13.481 55.2932 13.2935C55.4807 13.1061 55.7349 13.0006 56 13.0003Z" fill="white"/>
<path d="M57 24.0005C56.9995 24.4479 57.0997 24.8897 57.2932 25.2931L52.2929 30.2934C52.2 30.3862 52.1264 30.4965 52.0761 30.6178C52.0259 30.7391 52 30.8692 52 31.0005V37.0005H54V31.4147L58.7074 26.7073C59.2942 26.9875 59.9563 27.0694 60.5937 26.9406C61.2312 26.8118 61.8095 26.4794 62.2416 25.9934C62.6737 25.5074 62.9361 24.8941 62.9894 24.2459C63.0427 23.5978 62.8839 22.9499 62.5369 22.3999C62.19 21.8498 61.6737 21.4274 61.0658 21.1963C60.4579 20.9652 59.7914 20.9379 59.1667 21.1185C58.5419 21.2991 57.9928 21.6778 57.602 22.1976C57.2112 22.7174 56.9999 23.3502 57 24.0005ZM60 23.0005C60.1978 23.0005 60.3911 23.0591 60.5556 23.169C60.72 23.2789 60.8482 23.4351 60.9239 23.6178C60.9996 23.8005 61.0194 24.0016 60.9808 24.1956C60.9422 24.3896 60.847 24.5677 60.7071 24.7076C60.5673 24.8475 60.3891 24.9427 60.1951 24.9813C60.0011 25.0199 59.8 25.0001 59.6173 24.9244C59.4346 24.8487 59.2784 24.7205 59.1685 24.5561C59.0586 24.3916 59 24.1983 59 24.0005C59.0003 23.7354 59.1058 23.4812 59.2932 23.2937C59.4807 23.1063 59.7349 23.0008 60 23.0005Z" fill="white"/>
<path d="M59.0001 34.0004C58.9996 34.5146 59.1322 35.0201 59.3849 35.4679L56.3257 38.262L57.6744 39.7388L60.9017 36.7913C61.4984 37.026 62.1546 37.0633 62.7741 36.8977C63.3936 36.7321 63.9437 36.3724 64.3437 35.8712C64.7437 35.3701 64.9727 34.754 64.9969 34.1132C65.0211 33.4725 64.8394 32.8408 64.4783 32.3109C64.1172 31.781 63.5959 31.3808 62.9907 31.1689C62.3855 30.957 61.7283 30.9447 61.1156 31.1336C60.5028 31.3226 59.9668 31.703 59.5861 32.2189C59.2053 32.7348 58.9999 33.3592 59.0001 34.0004ZM63.0001 34.0004C63.0001 34.1982 62.9414 34.3915 62.8315 34.556C62.7216 34.7204 62.5655 34.8486 62.3827 34.9243C62.2 35 61.9989 35.0198 61.805 34.9812C61.611 34.9426 61.4328 34.8474 61.2929 34.7075C61.1531 34.5677 61.0579 34.3895 61.0193 34.1955C60.9807 34.0015 61.0005 33.8005 61.0762 33.6177C61.1519 33.435 61.28 33.2788 61.4445 33.169C61.6089 33.0591 61.8023 33.0004 62.0001 33.0004C62.2652 33.0007 62.5194 33.1062 62.7068 33.2937C62.8943 33.4811 62.9998 33.7353 63.0001 34.0004Z" fill="white"/>
</svg>
