<svg width="70" height="70" viewBox="0 0 70 70" fill="none" xmlns="http://www.w3.org/2000/svg">
<path d="M63.0789 8H6.9451C4.76966 8 3 9.76966 3 11.945V50.0359C3 52.2112 4.76966 53.9809 6.9451 53.9809H25.9305L25.1626 60.1243H21.9809C21.4628 60.1243 21.043 60.5442 21.043 61.0621C21.043 61.5801 21.4628 62 21.9809 62H48.0431C48.5612 62 48.981 61.5801 48.981 61.0621C48.981 60.5442 48.5612 60.1243 48.0431 60.1243H44.8616L44.0935 53.9809H63.0789C65.2542 53.9809 67.024 52.2112 67.024 50.0359V11.945C67.024 9.76966 65.2543 8 63.0789 8ZM27.0529 60.1243L27.8209 53.9809H31.2726L31.6112 55.3351C32.0021 56.8986 33.4007 57.9904 35.0121 57.9904C36.6236 57.9904 38.0221 56.8986 38.413 55.3351L38.7517 53.9809H42.2033L42.9711 60.1243H27.0529ZM33.206 53.9809H36.8179L36.5931 54.8802C36.4114 55.6071 35.7613 56.1147 35.0119 56.1147C34.2625 56.1147 33.6125 55.607 33.4307 54.8802L33.206 53.9809ZM65.1483 50.0359C65.1483 51.1769 64.22 52.1052 63.0789 52.1052H6.9451C5.80405 52.1052 4.8757 51.1769 4.8757 50.0359V11.945C4.8757 10.8039 5.80405 9.8757 6.9451 9.8757H63.0789C64.22 9.8757 65.1483 10.8039 65.1483 11.945V50.0359Z" fill="white"/>
<path d="M56.0614 12.0096H7.94664C7.42857 12.0096 7.00879 12.4294 7.00879 12.9475V49.0335C7.00879 49.5516 7.42857 49.9714 7.94664 49.9714H9.95152C10.4696 49.9714 10.8894 49.5516 10.8894 49.0335C10.8895 48.5156 10.4696 48.0957 9.95164 48.0957H8.88462V13.8853H56.0614C56.5795 13.8853 56.9993 13.4654 56.9993 12.9475C56.9993 12.4294 56.5795 12.0096 56.0614 12.0096Z" fill="white"/>
<path d="M62.0761 12.0096H60.0712C59.5531 12.0096 59.1334 12.4294 59.1334 12.9475C59.1334 13.4654 59.5531 13.8853 60.0712 13.8853H61.1382V48.0957H13.9613C13.4432 48.0957 13.0234 48.5156 13.0234 49.0335C13.0234 49.5516 13.4432 49.9714 13.9613 49.9714H62.076C62.594 49.9714 63.0138 49.5516 63.0138 49.0335V12.9475C63.0139 12.4294 62.594 12.0096 62.0761 12.0096Z" fill="white"/>
<path d="M47.7789 22.3933C47.6104 22.1778 47.3562 22.0468 47.0831 22.0344L25.0305 21.0319C25.0133 21.0311 24.9964 21.0307 24.979 21.031C24.8485 20.6025 24.5726 20.2308 24.1992 19.9817L21.4986 18.1813C21.0677 17.8941 20.4853 18.0105 20.1981 18.4415C19.9109 18.8726 20.0273 19.4548 20.4582 19.742L23.1587 21.5422C23.1715 21.5507 23.1808 21.5636 23.1851 21.5783L26.625 33.618C26.7323 33.9934 26.9089 34.3307 27.1356 34.6221L25.877 37.1393C25.574 37.7451 25.6057 38.4508 25.9619 39.027C26.0911 39.2359 26.2549 39.4139 26.4431 39.5564C26.1967 39.9865 26.055 40.4839 26.055 41.0141C26.055 42.6367 27.3752 43.9567 28.9976 43.9567C30.6201 43.9567 31.9402 42.6366 31.9402 41.0141C31.9402 40.6378 31.8685 40.2782 31.7392 39.9472H40.2895C40.1602 40.2782 40.0884 40.6378 40.0884 41.0141C40.0884 42.6367 41.4086 43.9567 43.031 43.9567C44.6535 43.9567 45.9736 42.6366 45.9736 41.0141C45.9736 40.5434 45.862 40.0986 45.6646 39.7037C45.854 39.5322 45.9736 39.2851 45.9736 39.0094C45.9736 38.4914 45.5539 38.0715 45.0358 38.0715H27.612C27.5986 38.0715 27.576 38.0715 27.5571 38.0409C27.5382 38.0104 27.5484 37.9902 27.5544 37.9781L28.7138 35.6594C28.9498 35.72 29.1956 35.7528 29.4472 35.7528C29.5631 35.7528 29.6802 35.7459 29.7979 35.7321L42.9761 34.1818C44.6781 33.9815 46.0475 32.718 46.3837 31.0374L47.96 23.1552C48.0137 22.8869 47.9475 22.6087 47.7789 22.3933ZM43.0308 39.9475C43.6191 39.9475 44.0977 40.4261 44.0977 41.0144C44.0977 41.6027 43.6191 42.0813 43.0308 42.0813C42.4424 42.0813 41.9639 41.6027 41.9639 41.0144C41.9639 40.426 42.4424 39.9475 43.0308 39.9475ZM28.9974 39.9475C29.5857 39.9475 30.0643 40.426 30.0643 41.0144C30.0643 41.6027 29.5857 42.0813 28.9974 42.0813C28.409 42.0813 27.9305 41.6027 27.9305 41.0144C27.9305 40.426 28.409 39.9475 28.9974 39.9475ZM26.6975 27.0454L25.5222 22.932L29.2717 23.1024L29.9219 27.0454H26.6975ZM29.5789 33.8693C29.0559 33.9308 28.5726 33.6083 28.4283 33.1028L27.2335 28.9211H30.2311L31.019 33.6999L29.5789 33.8693ZM35.0763 33.2226L32.884 33.4805L32.1323 28.9212H35.0763V33.2226ZM35.0763 27.0454H31.823L31.1872 23.1896L35.0763 23.3664V27.0454ZM39.8258 32.6637L36.952 33.0019V28.9211H40.1646L39.8258 32.6637ZM40.3344 27.0454H36.952V23.4515L40.6445 23.6193L40.3344 27.0454ZM44.5442 30.6697C44.3679 31.5511 43.6496 32.2139 42.7569 32.319L41.7294 32.4399L42.0479 28.9212H44.8939L44.5442 30.6697ZM45.2691 27.0454H42.2178L42.5202 23.7046L45.9065 23.8586L45.2691 27.0454Z" fill="white"/>
</svg>
