<svg width="70" height="70" viewBox="0 0 70 70" fill="none" xmlns="http://www.w3.org/2000/svg">
<path d="M39.2188 29.6094H30.7812C30.134 29.6094 29.6094 30.1341 29.6094 30.7812V39.2188C29.6094 39.8659 30.134 40.3906 30.7812 40.3906H39.2188C39.866 40.3906 40.3906 39.8659 40.3906 39.2188V30.7812C40.3906 30.1341 39.866 29.6094 39.2188 29.6094ZM38.0469 38.0469H31.9531V31.9531H38.0469V38.0469Z" fill="white"/>
<path d="M61.0156 11.3281C58.8186 11.3281 57.0312 13.1155 57.0312 15.3125C57.0312 17.5095 58.8186 19.2969 61.0156 19.2969C63.2127 19.2969 65 17.5095 65 15.3125C65 13.1155 63.2127 11.3281 61.0156 11.3281ZM61.0156 16.9531C60.1109 16.9531 59.375 16.2172 59.375 15.3125C59.375 14.4078 60.1109 13.6719 61.0156 13.6719C61.9203 13.6719 62.6562 14.4078 62.6562 15.3125C62.6562 16.2172 61.9203 16.9531 61.0156 16.9531Z" fill="white"/>
<path d="M54.9911 14.4804C54.7731 14.2626 54.4708 14.1371 54.1626 14.1371C53.8532 14.1371 53.5509 14.2625 53.3329 14.4804C53.1149 14.6984 52.9907 15.0008 52.9907 15.309C52.9907 15.6172 53.1149 15.9195 53.3329 16.1375C53.5521 16.3553 53.8532 16.4808 54.1626 16.4808C54.4708 16.4808 54.7731 16.3554 54.9911 16.1375C55.2091 15.9195 55.3345 15.6172 55.3345 15.309C55.3345 15.0008 55.2091 14.6984 54.9911 14.4804Z" fill="white"/>
<path d="M53.6956 36.1719C54.1973 37.7988 55.7146 38.9844 57.5039 38.9844C59.7009 38.9844 61.4882 37.197 61.4882 35C61.4882 32.803 59.7008 31.0156 57.5039 31.0156C55.7145 31.0156 54.1972 32.2012 53.6956 33.8281H46.4846V24.6875C46.4846 24.0404 45.9599 23.5156 45.3127 23.5156H43.4377V16.4809H50.0028C50.65 16.4809 51.1747 15.9561 51.1747 15.309C51.1747 14.6619 50.65 14.1371 50.0028 14.1371H42.2658C41.6186 14.1371 41.094 14.6619 41.094 15.309V23.5156H36.1721V16.3047C37.7989 15.803 38.9846 14.2858 38.9846 12.4965C38.9846 10.2995 37.1972 8.51211 35.0002 8.51211C32.8032 8.51211 31.0158 10.2995 31.0158 12.4965C31.0158 14.2858 32.2015 15.8032 33.8283 16.3047V23.5156H24.6877C24.0405 23.5156 23.5158 24.0404 23.5158 24.6875V26.5625H16.481V12.7937C18.1096 12.2932 19.2971 10.775 19.2971 8.98438C19.2971 6.78734 17.5097 5 15.3127 5C13.1157 5 11.3283 6.78734 11.3283 8.98438C11.3283 10.7724 12.5123 12.2888 14.1372 12.7916V27.7344C14.1372 28.3815 14.6619 28.9062 15.3091 28.9062H23.5158V33.8281H16.3048C15.8031 32.2012 14.2858 31.0156 12.4966 31.0156C10.2996 31.0156 8.51221 32.803 8.51221 35C8.51221 37.197 10.2996 38.9844 12.4966 38.9844C14.2859 38.9844 15.8033 37.7988 16.3048 36.1719H23.5158V45.3125C23.5158 45.9596 24.0405 46.4844 24.6877 46.4844H26.5627V53.5191H19.9976C19.3504 53.5191 18.8258 54.0439 18.8258 54.691C18.8258 55.3381 19.3504 55.8629 19.9976 55.8629H27.7346C28.3818 55.8629 28.9065 55.3381 28.9065 54.691V46.4844H33.8283V53.6953C32.2015 54.197 31.0158 55.7142 31.0158 57.5035C31.0158 59.7005 32.8032 61.4879 35.0002 61.4879C37.1972 61.4879 38.9846 59.7005 38.9846 57.5035C38.9846 55.7142 37.7989 54.1968 36.1721 53.6953V46.4844H45.3127C45.9599 46.4844 46.4846 45.9596 46.4846 45.3125V43.4375H53.5195V57.2063C51.8908 57.7068 50.7033 59.225 50.7033 61.0156C50.7033 63.2127 52.4907 65 54.6877 65C56.8848 65 58.6721 63.2127 58.6721 61.0156C58.6721 59.2276 57.4881 57.7112 55.8632 57.2084V42.2656C55.8632 41.6185 55.3386 41.0938 54.6914 41.0938H46.4846V36.1719H53.6956ZM57.5039 33.3594C58.4085 33.3594 59.1445 34.0953 59.1445 35C59.1445 35.9047 58.4084 36.6406 57.5039 36.6406C56.5992 36.6406 55.8632 35.9047 55.8632 35C55.8632 34.0953 56.5992 33.3594 57.5039 33.3594ZM15.3127 10.625C14.408 10.625 13.6721 9.88906 13.6721 8.98438C13.6721 8.07969 14.408 7.34375 15.3127 7.34375C16.2174 7.34375 16.9533 8.07969 16.9533 8.98438C16.9533 9.88906 16.2174 10.625 15.3127 10.625ZM12.4966 36.6406C11.5919 36.6406 10.856 35.9047 10.856 35C10.856 34.0953 11.5919 33.3594 12.4966 33.3594C13.4013 33.3594 14.1372 34.0953 14.1372 35C14.1372 35.9047 13.4013 36.6406 12.4966 36.6406ZM33.3596 12.4965C33.3596 11.5918 34.0955 10.8559 35.0002 10.8559C35.9049 10.8559 36.6408 11.5918 36.6408 12.4965C36.6408 13.4012 35.9049 14.1371 35.0002 14.1371C34.0955 14.1371 33.3596 13.4012 33.3596 12.4965ZM36.6408 57.5035C36.6408 58.4082 35.9049 59.1441 35.0002 59.1441C34.0955 59.1441 33.3596 58.4082 33.3596 57.5035C33.3596 56.5988 34.0955 55.8629 35.0002 55.8629C35.9049 55.8629 36.6408 56.5988 36.6408 57.5035ZM44.1408 44.1406H25.8596V25.8594H44.1408V44.1406ZM54.6877 59.375C55.5924 59.375 56.3283 60.1109 56.3283 61.0156C56.3283 61.9203 55.5924 62.6562 54.6877 62.6562C53.783 62.6562 53.0471 61.9203 53.0471 61.0156C53.0471 60.1109 53.783 59.375 54.6877 59.375Z" fill="white"/>
<path d="M8.98438 50.7031C6.78734 50.7031 5 52.4905 5 54.6875C5 56.8845 6.78734 58.6719 8.98438 58.6719C11.1814 58.6719 12.9688 56.8845 12.9688 54.6875C12.9688 52.4905 11.1814 50.7031 8.98438 50.7031ZM8.98438 56.3281C8.07969 56.3281 7.34375 55.5922 7.34375 54.6875C7.34375 53.7828 8.07969 53.0469 8.98438 53.0469C9.88906 53.0469 10.625 53.7828 10.625 54.6875C10.625 55.5922 9.88906 56.3281 8.98438 56.3281Z" fill="white"/>
<path d="M16.6684 53.8625C16.4504 53.6446 16.148 53.5192 15.8398 53.5192C15.5316 53.5192 15.2293 53.6444 15.0113 53.8625C14.7934 54.0804 14.668 54.3827 14.668 54.691C14.668 54.9992 14.7934 55.3016 15.0113 55.5194C15.2293 55.7374 15.5316 55.8629 15.8398 55.8629C16.148 55.8629 16.4504 55.7375 16.6684 55.5194C16.8863 55.3016 17.0117 54.9992 17.0117 54.691C17.0117 54.3827 16.8863 54.0804 16.6684 53.8625Z" fill="white"/>
</svg>
