<svg width="70" height="70" viewBox="0 0 70 70" fill="none" xmlns="http://www.w3.org/2000/svg">
<g clip-path="url(#clip0_1970_2692)">
<path d="M65.8915 55.575C65.61 54.22 64.8135 53.0623 63.6485 52.3148C62.4834 51.5677 61.0996 51.3265 59.7501 51.635L53.4962 53.0669V50.5103C54.7504 49.3288 56.0564 47.7862 56.9852 46.3762C58.614 43.9039 59.7666 41.1889 60.4111 38.3082C61.1774 34.8809 61.1939 31.2527 60.4583 27.8144C60.3228 27.1818 59.6998 26.778 59.0672 26.914C58.4341 27.049 58.0312 27.672 58.1663 28.3051C58.8319 31.4147 58.8172 34.6969 58.1237 37.7964C57.5414 40.3992 56.4996 42.8524 55.0279 45.0867C54.5916 45.7491 54.0624 46.444 53.4962 47.1077V34.1183C53.4962 33.471 52.9716 32.9464 52.3243 32.9464H43.0541V20.432C43.0541 19.7866 42.5318 19.2625 41.8864 19.2602L31.4443 19.2249C31.443 19.2249 31.442 19.2249 31.4407 19.2249C31.1303 19.2249 30.8328 19.3476 30.6135 19.5669C30.3928 19.7866 30.2688 20.0851 30.2688 20.3968V26.9066H20.9972C20.3504 26.9066 19.8254 27.4312 19.8254 28.0785V39.6833H17.2143V38.0916C17.2143 37.4448 16.6897 36.9202 16.0424 36.9202H14.8403C14.6357 35.7937 14.5171 34.6493 14.4892 33.5067C14.4206 30.7285 14.8609 28.0103 15.7975 25.4267C16.0159 24.8243 16.264 24.2237 16.5345 23.6423C16.8078 23.0555 16.5533 22.3583 15.9669 22.085C15.38 21.8127 14.6829 22.0663 14.41 22.6531C14.1102 23.2967 13.8355 23.9614 13.5943 24.6279C12.5579 27.4866 12.0709 30.4937 12.1459 33.5644C12.1739 34.6868 12.281 35.8101 12.4627 36.9202H7.17187C6.5246 36.9202 6 37.4448 6 38.0921V58.6905C6 59.3378 6.5246 59.8624 7.17187 59.8624H16.0424C16.6897 59.8624 17.2143 59.3378 17.2143 58.6905V57.5763H21.6226L39.4795 64.5801C41.1466 65.2343 42.893 65.5634 44.6485 65.5634C45.819 65.5634 46.9946 65.4169 48.1522 65.1226L62.1484 61.5653C64.8052 60.8901 66.4491 58.2589 65.8915 55.575ZM51.1529 35.2901V53.6034L48.0199 54.3207C47.683 54.3976 47.3425 54.4585 47 54.5061C45.6945 54.686 44.3624 54.648 43.0706 54.3921C43.0651 54.3908 43.0596 54.3899 43.0541 54.3885V52.6114C43.9477 51.2784 44.2439 49.5884 43.7756 48.0457C43.6451 47.6154 43.4597 47.2002 43.224 46.8171C43.1704 46.7301 43.1146 46.645 43.0564 46.5616C43.056 46.5603 43.055 46.5593 43.0541 46.558V35.2897H51.1529V35.2901ZM32.6125 21.5728L40.7108 21.5998V44.6967L36.1849 42.8235L32.6125 41.3445V21.5728ZM22.1691 29.2504H30.2674V40.3736L28.814 39.7721C28.6717 39.713 28.5192 39.6828 28.3659 39.6828H22.1691V29.2504ZM14.8705 57.5187H8.34375V39.2635H13.8726C13.8749 39.2635 13.8777 39.264 13.8804 39.264C13.8827 39.264 13.8845 39.2635 13.8868 39.2635H14.8705V57.5187ZM61.5711 59.2939L47.575 62.8512C45.1589 63.465 42.6554 63.308 40.335 62.3984L22.2721 55.3136C22.1357 55.2601 21.9906 55.2331 21.8441 55.2331H17.2143V42.027H28.1324L35.7148 45.1655L39.864 46.883C41.332 47.4918 42.0347 49.2139 41.4327 50.6801C41.3119 50.9745 41.1622 51.2542 40.9635 51.5037C40.2297 52.4297 39.0217 52.838 37.8919 52.5634C37.8828 52.5611 37.8736 52.5588 37.8645 52.5565C37.7967 52.5396 37.7294 52.5199 37.6626 52.4979L29.7776 49.4666C29.7135 49.4419 29.6797 49.4291 29.6797 49.4291C29.0759 49.1965 28.3979 49.4982 28.1654 50.1024C27.9333 50.7062 28.2345 51.3846 28.8387 51.6167C28.8387 51.6167 33.2845 53.326 36.6747 54.6334C36.7429 54.6599 36.8107 54.6847 36.8789 54.7075L39.4822 55.7087C40.2691 56.0113 41.0523 56.3125 41.8713 56.5217C43.262 56.8769 44.7053 57.0197 46.139 56.9414C46.9474 56.8975 47.7544 56.7858 48.5436 56.6054L52.5861 55.6803C52.5903 55.6794 52.5944 55.6775 52.5985 55.6766L60.2734 53.9197C61.0035 53.7526 61.7529 53.8831 62.3827 54.2873C63.0135 54.692 63.4443 55.3187 63.5967 56.052C63.8988 57.5045 63.009 58.9286 61.5711 59.2939Z" fill="white"/>
<path d="M20.9856 16.8583C21.2658 16.8583 21.5468 16.7585 21.7707 16.5561C23.8617 14.6674 26.3588 13.1609 28.9933 12.1992C31.8474 11.1573 34.9762 10.7128 38.0419 10.9142C40.2359 11.0584 42.3856 11.5267 44.4309 12.3058C45.0351 12.5361 45.7126 12.233 45.9429 11.6279C46.1736 11.0232 45.8701 10.3461 45.2649 10.1159C43.0017 9.25345 40.6232 8.73526 38.1957 8.5755C34.8073 8.35302 31.3471 8.84466 28.1894 9.99777C25.2749 11.0616 22.5123 12.7283 20.2001 14.8166C19.7194 15.2506 19.6819 15.9917 20.1159 16.4719C20.347 16.7283 20.6656 16.8583 20.9856 16.8583Z" fill="white"/>
<path d="M47.5883 25.2216C47.8103 25.4143 48.0841 25.5086 48.3565 25.5086C48.6838 25.5086 49.0097 25.3722 49.2418 25.1058L58.8832 14.0073C59.308 13.5189 59.2558 12.7787 58.7674 12.3543C58.2785 11.93 57.5387 11.9817 57.1144 12.4702L47.4725 23.5686C47.0477 24.0571 47.0999 24.7973 47.5883 25.2216Z" fill="white"/>
<path d="M56.2287 20.2114C54.6064 20.2114 53.2866 21.5312 53.2866 23.1535C53.2866 24.7758 54.6064 26.0955 56.2287 26.0955C57.851 26.0955 59.1707 24.7753 59.1707 23.1535C59.1707 21.5312 57.851 20.2114 56.2287 20.2114ZM56.2287 23.7518C55.8986 23.7518 55.6304 23.4835 55.6304 23.1535C55.6304 22.8239 55.8986 22.5552 56.2287 22.5552C56.5583 22.5552 56.827 22.8239 56.827 23.1535C56.827 23.4835 56.5583 23.7518 56.2287 23.7518Z" fill="white"/>
<path d="M49.7209 17.6026C51.3432 17.6026 52.6629 16.2829 52.6629 14.6606C52.6629 13.0382 51.3432 11.7185 49.7209 11.7185C48.0985 11.7185 46.7788 13.0382 46.7788 14.6606C46.7788 16.2829 48.0985 17.6026 49.7209 17.6026ZM49.7209 14.0618C50.0509 14.0618 50.3192 14.3305 50.3192 14.6606C50.3192 14.9901 50.0509 15.2588 49.7209 15.2588C49.3908 15.2588 49.1226 14.9901 49.1226 14.6606C49.1226 14.3305 49.3908 14.0618 49.7209 14.0618Z" fill="white"/>
<path d="M16.8195 19.6122C17.0072 20.0626 17.4691 20.3602 17.9584 20.3345C18.4423 20.3094 18.8661 19.9821 19.0158 19.5225C19.1669 19.0588 19.0021 18.5305 18.6144 18.2343C18.2193 17.9331 17.6645 17.9144 17.2507 18.1895C16.7916 18.4948 16.6075 19.1036 16.8195 19.6122Z" fill="white"/>
</g>
<defs>
<clipPath id="clip0_1970_2692">
<rect width="60" height="60" fill="white" transform="translate(6 7)"/>
</clipPath>
</defs>
</svg>
