<svg width="70" height="70" viewBox="0 0 70 70" fill="none" xmlns="http://www.w3.org/2000/svg">
<path d="M60 30C58.4302 29.9961 56.9517 30.7388 56.0171 32H51.7168C51.2871 29.5913 50.3384 27.3052 48.937 25.2998L51.981 22.2568C54.1113 22.561 56.1978 21.4683 57.1602 19.543C58.1226 17.6182 57.7451 15.2935 56.2231 13.7715C54.7017 12.25 52.377 11.8726 50.4517 12.835C48.5269 13.7974 47.4336 15.8833 47.7378 18.0142L44.7002 21.0591C42.6948 19.6577 40.4087 18.709 38 18.2788V13.979C39.2603 13.0449 40.0024 11.5684 40 10C40 7.23877 37.7612 5 35 5C32.2388 5 30 7.23877 30 10C29.9961 11.5698 30.7388 13.0483 32 13.9829V18.2832C29.5913 18.7129 27.3052 19.6616 25.2998 21.063L22.2568 18.019C22.561 15.8887 21.4683 13.8022 19.543 12.8398C17.6182 11.8774 15.2935 12.2549 13.7715 13.7769C12.25 15.2983 11.8726 17.623 12.835 19.5483C13.7974 21.4731 15.8833 22.5664 18.0142 22.2622L21.0591 25.2998C19.6577 27.3052 18.709 29.5913 18.2788 32H13.979C13.0449 30.7397 11.5684 29.9976 10 30C7.23877 30 5 32.2388 5 35C5 37.7612 7.23877 40 10 40C11.5698 40.0039 13.0483 39.2612 13.9829 38H18.2832C18.7129 40.4087 19.6616 42.6948 21.063 44.7002L18.019 47.7432C15.8887 47.439 13.8022 48.5317 12.8398 50.457C11.8774 52.3818 12.2549 54.7065 13.7769 56.2285C15.2983 57.75 17.623 58.1274 19.5483 57.165C21.4731 56.2026 22.5664 54.1167 22.2622 51.9858L25.2998 48.9409C27.3052 50.3423 29.5913 51.291 32 51.7212V56.021C30.7397 56.9551 29.9976 58.4316 30 60C30 62.7612 32.2388 65 35 65C37.7612 65 40 62.7612 40 60C40.0039 58.4302 39.2612 56.9517 38 56.0171V51.7168C40.4087 51.2871 42.6948 50.3384 44.7002 48.937L47.7432 51.981C47.439 54.1113 48.5317 56.1978 50.457 57.1602C52.3818 58.1226 54.7065 57.7451 56.2285 56.2231C57.75 54.7017 58.1274 52.377 57.165 50.4517C56.2026 48.5269 54.1167 47.4336 51.9858 47.7378L48.9409 44.7002C50.3423 42.6948 51.291 40.4087 51.7212 38H56.021C56.9551 39.2603 58.4316 40.0024 60 40C62.7612 40 65 37.7612 65 35C65 32.2388 62.7612 30 60 30ZM60 38C58.9297 37.9971 57.9429 37.4224 57.4121 36.4932C57.2324 36.1875 56.9043 36 56.5498 36H50.8599C50.355 36.0005 49.9297 36.377 49.8682 36.8779C49.583 39.1597 48.7725 41.3438 47.5 43.2588L46.019 41.7778L44.604 43.1919L50.9468 49.5342C51.1987 49.7856 51.5649 49.8848 51.9092 49.7939C53.2183 49.439 54.6025 50.0098 55.2812 51.1846C55.9595 52.3594 55.7622 53.8433 54.7998 54.7998C53.6128 55.9331 51.7451 55.9331 50.5581 54.7998C49.8022 54.0449 49.5107 52.9419 49.7949 51.9121C49.8857 51.5679 49.7866 51.2017 49.5352 50.9502L43.1929 44.6069L41.7788 46.022L43.2588 47.5C41.3438 48.772 39.1597 49.5815 36.8779 49.8662C36.376 49.9277 35.999 50.3545 36 50.8599V56.5498C36 56.9043 36.1875 57.2324 36.4932 57.4121C37.6719 58.0884 38.249 59.4731 37.8989 60.7866C37.5488 62.1001 36.3594 63.0142 35 63.0142C33.6406 63.0142 32.4512 62.1001 32.1011 60.7866C31.751 59.4731 32.3281 58.0884 33.5068 57.4121C33.8125 57.2324 34 56.9043 34 56.5498V50.8599C33.9995 50.355 33.623 49.9297 33.1221 49.8682C30.8403 49.583 28.6562 48.7725 26.7412 47.5L28.2222 46.019L26.8081 44.604L20.4658 50.9468C20.2144 51.1987 20.1152 51.5649 20.2061 51.9092C20.4902 52.939 20.1987 54.042 19.4429 54.7969C18.2559 55.9302 16.3882 55.9302 15.2012 54.7969C14.2378 53.8418 14.0386 52.3569 14.7168 51.1821C15.395 50.0068 16.7798 49.436 18.0889 49.792C18.4331 49.8828 18.7993 49.7837 19.0508 49.5322L25.394 43.1899L23.979 41.7759L22.5 43.2588C21.228 41.3438 20.4185 39.1597 20.1338 36.8779C20.0723 36.376 19.6455 35.999 19.1401 36H13.4502C13.0957 36 12.7676 36.1875 12.5879 36.4932C11.9116 37.6719 10.5269 38.249 9.21338 37.8989C7.8999 37.5488 6.98584 36.3594 6.98584 35C6.98584 33.6406 7.8999 32.4512 9.21338 32.1011C10.5269 31.751 11.9116 32.3281 12.5879 33.5068C12.7676 33.8125 13.0957 34 13.4502 34H19.1401C19.645 33.9995 20.0703 33.623 20.1318 33.1221C20.417 30.8403 21.2275 28.6562 22.5 26.7412L23.981 28.2222L25.396 26.8081L19.0532 20.4658C18.8013 20.2144 18.4351 20.1152 18.0908 20.2061C16.7847 20.5542 15.4077 19.9829 14.7314 18.8125C14.0552 17.6421 14.2485 16.1636 15.2031 15.2061C16.3901 14.0732 18.2578 14.0732 19.4448 15.2061C20.2007 15.9609 20.4922 17.064 20.208 18.0942C20.1172 18.438 20.2163 18.8042 20.4678 19.0562L26.8101 25.3989L28.2241 23.9839L26.7412 22.5C28.6562 21.228 30.8403 20.4185 33.1221 20.1338C33.624 20.0723 34.001 19.6455 34 19.1401V13.4502C34 13.0957 33.8125 12.7676 33.5068 12.5879C32.3281 11.9116 31.751 10.5269 32.1011 9.21338C32.4512 7.8999 33.6406 6.98584 35 6.98584C36.3594 6.98584 37.5488 7.8999 37.8989 9.21338C38.249 10.5269 37.6719 11.9116 36.4932 12.5879C36.1875 12.7676 36 13.0957 36 13.4502V19.1401C36.0005 19.645 36.377 20.0703 36.8779 20.1318C39.1597 20.417 41.3438 21.2275 43.2588 22.5L41.7778 23.981L43.1919 25.396L49.5342 19.0532C49.7856 18.8013 49.8848 18.4351 49.7939 18.0908C49.5098 17.061 49.8013 15.958 50.5571 15.2031C51.7441 14.0698 53.6118 14.0698 54.7988 15.2031C55.7573 16.1592 55.9526 17.6401 55.2754 18.8125C54.5986 19.9844 53.2183 20.5552 51.9111 20.2031C51.5669 20.1108 51.1997 20.21 50.9492 20.4629L44.606 26.8052L46.021 28.2192L47.5 26.7412C48.772 28.6562 49.5815 30.8403 49.8662 33.1221C49.9277 33.624 50.3545 34.001 50.8599 34H56.5498C56.9043 34 57.2324 33.8125 57.4121 33.5068C58.1392 32.248 59.666 31.6929 61.0317 32.1914C62.3979 32.6899 63.2085 34.0972 62.9541 35.5288C62.7002 36.9604 61.4541 38.0024 60 38Z" fill="white"/>
<path d="M35 23C32.791 23 31 24.791 31 27C31 29.209 32.791 31 35 31C37.209 31 39 29.209 39 27C39 24.791 37.209 23 35 23ZM35 29C33.8955 29 33 28.1045 33 27C33 25.8955 33.8955 25 35 25C36.1045 25 37 25.8955 37 27C37 28.1045 36.1045 29 35 29Z" fill="white"/>
<path d="M35 39C32.791 39 31 40.791 31 43C31 45.209 32.791 47 35 47C37.209 47 39 45.209 39 43C39 40.791 37.209 39 35 39ZM35 45C33.8955 45 33 44.1045 33 43C33 41.8955 33.8955 41 35 41C36.1045 41 37 41.8955 37 43C37 44.1045 36.1045 45 35 45Z" fill="white"/>
<path d="M26 31C23.791 31 22 32.791 22 35C22 37.209 23.791 39 26 39C28.209 39 30 37.209 30 35C30 32.791 28.209 31 26 31ZM26 37C24.8955 37 24 36.1045 24 35C24 33.8955 24.8955 33 26 33C27.1045 33 28 33.8955 28 35C28 36.1045 27.1045 37 26 37Z" fill="white"/>
<path d="M44 31C41.791 31 40 32.791 40 35C40 37.209 41.791 39 44 39C46.209 39 48 37.209 48 35C48 32.791 46.209 31 44 31ZM44 37C42.8955 37 42 36.1045 42 35C42 33.8955 42.8955 33 44 33C45.1045 33 46 33.8955 46 35C46 36.1045 45.1045 37 44 37Z" fill="white"/>
</svg>
