<svg width="70" height="70" viewBox="0 0 70 70" fill="none" xmlns="http://www.w3.org/2000/svg">
<path d="M54.2505 65H16.7505C16.0605 65 15.5005 64.44 15.5005 63.75V11.25C15.5005 10.56 16.0605 10 16.7505 10H54.2505C54.9405 10 55.5005 10.56 55.5005 11.25V63.75C55.5005 64.44 54.9405 65 54.2505 65ZM18.0005 62.5H53.0005V12.5H18.0005V62.5Z" fill="white"/>
<path d="M49.2505 12.5C48.5605 12.5 48.0005 11.94 48.0005 11.25V7.5H40.5005V11.25C40.5005 11.94 39.9405 12.5 39.2505 12.5C38.5605 12.5 38.0005 11.94 38.0005 11.25V6.25C38.0005 5.56 38.5605 5 39.2505 5H49.2505C49.9405 5 50.5005 5.56 50.5005 6.25V11.25C50.5005 11.94 49.9405 12.5 49.2505 12.5Z" fill="white"/>
<path d="M56.75 12.5H14.25C13.56 12.5 13 11.94 13 11.25C13 10.56 13.56 10 14.25 10H56.75C57.44 10 58 10.56 58 11.25C58 11.94 57.44 12.5 56.75 12.5Z" fill="white"/>
<path d="M56.75 65H14.25C13.56 65 13 64.44 13 63.75C13 63.06 13.56 62.5 14.25 62.5H56.75C57.44 62.5 58 63.06 58 63.75C58 64.44 57.44 65 56.75 65Z" fill="white"/>
<path d="M56.75 25H14.25C13.56 25 13 24.44 13 23.75C13 23.06 13.56 22.5 14.25 22.5H56.75C57.44 22.5 58 23.06 58 23.75C58 24.44 57.44 25 56.75 25Z" fill="white"/>
<path d="M56.75 52.5H14.25C13.56 52.5 13 51.94 13 51.25C13 50.56 13.56 50 14.25 50H56.75C57.44 50 58 50.56 58 51.25C58 51.94 57.44 52.5 56.75 52.5Z" fill="white"/>
<path d="M35.5 47.4999C31.8925 47.4999 28 45.0324 28 41.0424C28 37.6574 33.43 30.6049 34.5175 29.2249C34.99 28.6249 36.0075 28.6249 36.48 29.2249C37.57 30.6049 43 37.6549 43 41.0424C43 45.0324 39.1075 47.4999 35.5 47.4999ZM35.5 32.0574C33.17 35.1974 30.5 39.4224 30.5 41.0424C30.5 43.4874 33.095 44.9999 35.5 44.9999C37.905 44.9999 40.5 43.4874 40.5 41.0424C40.5 39.4249 37.83 35.1974 35.5 32.0574Z" fill="white"/>
</svg>
