<svg width="70" height="70" viewBox="0 0 70 70" fill="none" xmlns="http://www.w3.org/2000/svg">
<path d="M50.7544 41.1533L50.5753 40.5774C49.9483 38.5625 48.0662 37.0964 45.8498 37.0964H36.5876C36.1707 37.0964 35.8726 37.011 35.5185 36.7925C35.2814 36.6462 35.0048 36.4301 34.6364 36.1423C34.5079 36.0419 34.3681 35.9327 34.2149 35.8147L34.2065 35.8082L34.1986 35.8013C29.676 31.8587 22.8819 31.8712 18.373 35.839C18.373 35.839 18.373 35.839 18.373 35.839L14.9686 38.8361L14.7872 38.9958L14.5736 38.8828C13.1429 38.1255 11.4751 38.1071 10.0377 38.8253C10.0377 38.8253 10.0377 38.8253 10.0377 38.8253L6.13313 40.777C5.43363 41.1272 5.15042 41.9776 5.49953 42.6772L50.7544 41.1533ZM50.7544 41.1533L51.1655 40.712L56.3558 35.1403C56.3558 35.1403 56.3558 35.1403 56.3558 35.1403C58.3045 33.049 61.2774 33.1727 63.1688 34.7315C65.2255 36.4299 65.4736 39.4294 63.9355 41.4784L63.9355 41.4785L55.4583 52.7821L55.7383 52.9921L55.4583 52.7821C53.2029 55.7899 49.6091 57.5863 45.8497 57.5863H24.9825H24.6201L24.6327 57.9485C24.6976 59.8162 23.6966 61.6495 21.8996 62.5474L21.8994 62.5475L17.9949 64.5004C17.2952 64.8496 16.4447 64.5664 16.0944 63.8669L5.49963 42.6774L50.7544 41.1533ZM20.6327 60.015L20.6328 60.015C21.6778 59.4918 22.1011 58.2223 21.5792 57.1772L21.5791 57.177L14.1427 42.3042C13.6194 41.2575 12.3497 40.8358 11.3047 41.3576L11.3045 41.3577L8.97834 42.5207L8.66527 42.6772L8.82181 42.9903L17.838 61.0216L17.9946 61.3347L18.3077 61.1781L20.6327 60.015ZM23.4369 54.5611L23.5337 54.7546H23.75H45.8498C48.724 54.7546 51.4683 53.3831 53.1931 51.0829L61.6698 39.7797C62.3132 38.924 62.2271 37.6696 61.3841 36.9316L61.3841 36.9315C60.5914 36.2379 59.2836 36.1523 58.4277 37.0705L58.4277 37.0706L50.6534 45.4158L50.6533 45.4159C49.7213 46.4171 48.4014 46.9913 47.0329 46.9913H36.8311C36.0498 46.9913 35.4153 46.3569 35.4153 45.5755C35.4153 44.7942 36.0497 44.1597 36.8311 44.1597H45.8497C47.0165 44.1597 47.9655 43.2107 47.9655 42.0439C47.9655 40.8771 47.0166 39.9281 45.8497 39.9281H36.5874C35.9881 39.9281 35.4142 39.8519 34.7583 39.5767C34.0966 39.2991 33.3343 38.8116 32.3724 37.9647L32.3723 37.9646C28.9145 34.9229 23.7015 34.9229 20.2437 37.9646L20.2437 37.9647L16.9016 40.9065L16.6992 41.0846L16.8198 41.3257L23.4369 54.5611Z" fill="white" stroke="#2A6FC4" stroke-width="0.7"/>
<path d="M41.8764 16.8084L41.5658 17.1342L41.9581 17.355C45.1398 19.1457 47.2655 22.5605 47.2656 26.4253V28.1911C47.2656 28.9724 46.6312 29.6069 45.8498 29.6069H28.0739C27.2925 29.6069 26.6581 28.9724 26.6581 28.1911V26.4253C26.6581 22.4871 28.9015 19.1234 32.0298 17.3694L32.429 17.1456L32.1085 16.819C30.8691 15.556 30.1897 13.9164 30.1897 12.181C30.1897 8.48122 33.3209 5.35 37.0207 5.35C40.7413 5.35 43.7339 8.4784 43.7339 12.181C43.7339 13.9741 43.0262 15.6026 41.8764 16.8084ZM29.4897 26.4253V26.7753H29.8397H44.0839H44.4339V26.4253C44.4339 22.2773 41.1136 18.8943 37.0207 18.8943C32.9343 18.8943 29.4897 22.3389 29.4897 26.4253ZM40.9023 12.1811C40.9023 10.021 39.1389 8.18173 37.0207 8.18173C34.8838 8.18173 33.0213 10.0442 33.0213 12.1811C33.0213 14.2993 34.8606 16.0627 37.0207 16.0627C39.1611 16.0627 40.9023 14.3215 40.9023 12.1811Z" fill="white" stroke="#2A6FC4" stroke-width="0.7"/>
</svg>
