<svg width="70" height="70" viewBox="0 0 70 70" fill="none" xmlns="http://www.w3.org/2000/svg">
<path d="M64 22H6C5.448 22 5 21.553 5 21C5 18.153 6.108 15.477 8.121 13.465C9.333 12.253 10 10.643 10 8.929V7.896C10 6.3 11.299 5 12.896 5H57.104C58.701 5 60 6.3 60 7.896V8.928C60 10.642 60.667 12.252 61.879 13.464C63.892 15.477 65 18.153 65 21C65 21.553 64.552 22 64 22ZM7.057 20H62.944C62.723 18.065 61.862 16.275 60.465 14.879C58.875 13.289 58 11.176 58 8.929V7.896C58 7.402 57.598 7 57.104 7H12.896C12.402 7 12 7.402 12 7.896V8.928C12 11.175 11.125 13.288 9.536 14.878C8.138 16.275 7.278 18.065 7.057 20Z" fill="white"/>
<path d="M16 22C15.448 22 15 21.553 15 21V19.915C15 17.827 15.568 15.776 16.643 13.985C17.531 12.505 18 10.811 18 9.085V6C18 5.447 18.448 5 19 5C19.552 5 20 5.447 20 6V9.085C20 11.173 19.432 13.224 18.357 15.015C17.469 16.495 17 18.19 17 19.915V21C17 21.553 16.552 22 16 22Z" fill="white"/>
<path d="M26 22C25.448 22 25 21.553 25 21V19.55C25 17.793 25.175 16.028 25.52 14.304C25.838 12.709 26 11.076 26 9.45V6C26 5.447 26.448 5 27 5C27.552 5 28 5.447 28 6V9.45C28 11.207 27.825 12.972 27.48 14.696C27.162 16.291 27 17.924 27 19.55V21C27 21.553 26.552 22 26 22Z" fill="white"/>
<path d="M35 22C34.448 22 34 21.553 34 21V6C34 5.447 34.448 5 35 5C35.552 5 36 5.447 36 6V21C36 21.553 35.552 22 35 22Z" fill="white"/>
<path d="M44 22C43.448 22 43 21.553 43 21V19.55C43 17.924 42.838 16.291 42.52 14.696C42.175 12.973 42 11.207 42 9.45V6C42 5.447 42.448 5 43 5C43.552 5 44 5.447 44 6V9.45C44 11.076 44.162 12.709 44.48 14.304C44.825 16.027 45 17.793 45 19.55V21C45 21.553 44.552 22 44 22Z" fill="white"/>
<path d="M54 22C53.448 22 53 21.553 53 21V19.915C53 18.189 52.531 16.495 51.643 15.015C50.568 13.224 50 11.173 50 9.085V6C50 5.447 50.448 5 51 5C51.552 5 52 5.447 52 6V9.085C52 10.811 52.469 12.505 53.357 13.985C54.432 15.776 55 17.827 55 19.915V21C55 21.553 54.552 22 54 22Z" fill="white"/>
<path d="M11.5 28H10.5C7.467 28 5 25.532 5 22.5V21C5 20.447 5.448 20 6 20H16C16.552 20 17 20.447 17 21V22.5C17 25.532 14.533 28 11.5 28ZM7 22V22.5C7 24.43 8.57 26 10.5 26H11.5C13.43 26 15 24.43 15 22.5V22H7Z" fill="white"/>
<path d="M21.5 28H20.5C17.467 28 15 25.532 15 22.5V21C15 20.447 15.448 20 16 20H26C26.552 20 27 20.447 27 21V22.5C27 25.532 24.533 28 21.5 28ZM17 22V22.5C17 24.43 18.57 26 20.5 26H21.5C23.43 26 25 24.43 25 22.5V22H17Z" fill="white"/>
<path d="M49.5 28H48.5C45.467 28 43 25.532 43 22.5V21C43 20.447 43.448 20 44 20H54C54.552 20 55 20.447 55 21V22.5C55 25.532 52.533 28 49.5 28ZM45 22V22.5C45 24.43 46.57 26 48.5 26H49.5C51.43 26 53 24.43 53 22.5V22H45Z" fill="white"/>
<path d="M59.5 28H58.5C55.467 28 53 25.532 53 22.5V21C53 20.447 53.448 20 54 20H64C64.552 20 65 20.447 65 21V22.5C65 25.532 62.533 28 59.5 28ZM55 22V22.5C55 24.43 56.57 26 58.5 26H59.5C61.43 26 63 24.43 63 22.5V22H55Z" fill="white"/>
<path d="M30.5 28C27.467 28 25 25.532 25 22.5V21C25 20.447 25.448 20 26 20H35C35.552 20 36 20.447 36 21V22.5C36 25.532 33.533 28 30.5 28ZM27 22V22.5C27 24.43 28.57 26 30.5 26C32.43 26 34 24.43 34 22.5V22H27Z" fill="white"/>
<path d="M39.5 28C36.467 28 34 25.532 34 22.5V21C34 20.447 34.448 20 35 20H44C44.552 20 45 20.447 45 21V22.5C45 25.532 42.533 28 39.5 28ZM36 22V22.5C36 24.43 37.57 26 39.5 26C41.43 26 43 24.43 43 22.5V22H36Z" fill="white"/>
<path d="M61 65H9C8.448 65 8 64.553 8 64V26.725C8 26.4 8.158 26.096 8.423 25.909C8.689 25.721 9.028 25.674 9.334 25.783C9.748 25.929 10.129 26 10.5 26H11.5C12.967 26 14.286 25.062 14.782 23.665C14.924 23.267 15.301 23 15.724 23H16.275C16.698 23 17.076 23.267 17.217 23.665C17.714 25.062 19.033 26 20.5 26H21.5C22.967 26 24.286 25.062 24.782 23.665C24.924 23.267 25.301 23 25.724 23H26.275C26.698 23 27.076 23.267 27.217 23.665C27.714 25.062 29.033 26 30.5 26C31.967 26 33.286 25.062 33.782 23.665C33.924 23.267 34.301 23 34.724 23H35.275C35.698 23 36.076 23.267 36.217 23.665C36.714 25.062 38.033 26 39.5 26C40.967 26 42.286 25.062 42.782 23.665C42.924 23.267 43.301 23 43.724 23H44.275C44.698 23 45.076 23.267 45.217 23.665C45.714 25.062 47.033 26 48.5 26H49.5C50.967 26 52.286 25.062 52.782 23.665C52.924 23.267 53.301 23 53.724 23H54.275C54.698 23 55.076 23.267 55.217 23.665C55.714 25.062 57.033 26 58.5 26H59.5C59.871 26 60.252 25.929 60.666 25.782C60.972 25.672 61.312 25.72 61.577 25.908C61.842 26.096 62 26.399 62 26.725V64C62 64.553 61.552 65 61 65ZM10 63H60V27.975C59.833 27.991 59.667 28 59.5 28H58.5C56.683 28 55.01 27.089 54 25.634C52.99 27.089 51.317 28 49.5 28H48.5C46.683 28 45.01 27.089 44 25.634C42.99 27.089 41.317 28 39.5 28C37.683 28 36.01 27.089 35 25.634C33.99 27.089 32.317 28 30.5 28C28.683 28 27.01 27.089 26 25.634C24.99 27.089 23.317 28 21.5 28H20.5C18.683 28 17.01 27.089 16 25.634C14.99 27.089 13.317 28 11.5 28H10.5C10.333 28 10.167 27.991 10 27.975V63Z" fill="white"/>
<path d="M29 65H13C12.448 65 12 64.553 12 64V32C12 31.447 12.448 31 13 31H29C29.552 31 30 31.447 30 32V64C30 64.553 29.552 65 29 65ZM14 63H28V33H14V63Z" fill="white"/>
<path d="M15 40H13C12.448 40 12 39.553 12 39C12 38.447 12.448 38 13 38H15C15.552 38 16 38.447 16 39C16 39.553 15.552 40 15 40Z" fill="white"/>
<path d="M15 58H13C12.448 58 12 57.553 12 57C12 56.447 12.448 56 13 56H15C15.552 56 16 56.447 16 57C16 57.553 15.552 58 15 58Z" fill="white"/>
<path d="M57 61H33C32.448 61 32 60.553 32 60V31C32 30.447 32.448 30 33 30H57C57.552 30 58 30.447 58 31V60C58 60.553 57.552 61 57 61ZM34 59H56V32H34V59Z" fill="white"/>
<path d="M25 51C24.448 51 24 50.553 24 50V48H22C21.448 48 21 47.553 21 47C21 46.447 21.448 46 22 46H25C25.552 46 26 46.447 26 47V50C26 50.553 25.552 51 25 51Z" fill="white"/>
<path d="M64 65H6C5.448 65 5 64.553 5 64C5 63.447 5.448 63 6 63H64C64.552 63 65 63.447 65 64C65 64.553 64.552 65 64 65Z" fill="white"/>
<path d="M44.9997 57C42.2287 57 40.3307 56.429 39.1997 55.253C37.9057 53.907 37.9737 52.131 38.0187 50.955L38.0317 50.55C38.0597 49.247 38.5387 48.006 39.4177 46.96C40.9457 45.141 41.4447 43.436 40.8597 42.03C40.1207 40.253 40.0567 38.476 40.6737 36.892C41.3257 35.22 42.2327 34.356 42.3337 34.263C42.6257 33.995 43.0497 33.925 43.4127 34.083C43.7757 34.243 44.0107 34.603 44.0107 34.999C44.0107 36.86 44.5807 37.834 45.0007 38.298C45.4147 37.838 45.9867 36.864 45.9867 34.999C45.9867 34.603 46.2217 34.243 46.5847 34.083C46.9477 33.924 47.3707 33.994 47.6637 34.263C47.7647 34.356 48.6717 35.22 49.3237 36.892C49.9417 38.476 49.8777 40.252 49.1377 42.03C48.5537 43.435 49.0527 45.14 50.5807 46.96C51.4587 48.006 51.9387 49.247 51.9657 50.55L51.9787 50.955C52.0237 52.131 52.0927 53.907 50.7977 55.253C49.6687 56.429 47.7707 57 44.9997 57ZM42.4637 37.827C42.0337 39.136 42.3517 40.407 42.7077 41.263C43.3287 42.755 43.5267 45.178 40.9497 48.247C40.3667 48.939 40.0497 49.751 40.0327 50.593L40.0187 51.032C39.9787 52.065 39.9377 53.134 40.6417 53.866C41.3647 54.618 42.8317 55 44.9997 55C47.1677 55 48.6347 54.618 49.3587 53.866C50.0627 53.134 50.0217 52.065 49.9817 51.032L49.9677 50.593C49.9497 49.751 49.6327 48.94 49.0507 48.247C46.4737 45.178 46.6717 42.755 47.2927 41.263C47.6477 40.408 47.9667 39.136 47.5367 37.827C46.8197 39.805 45.4947 40.439 45.4187 40.474C45.1537 40.595 44.8487 40.595 44.5837 40.474C44.5057 40.439 43.1807 39.805 42.4637 37.827Z" fill="white"/>
<path d="M45 61C44.448 61 44 60.553 44 60V56C44 55.447 44.448 55 45 55C45.552 55 46 55.447 46 56V60C46 60.553 45.552 61 45 61Z" fill="white"/>
</svg>
