<svg width="70" height="70" viewBox="0 0 70 70" fill="none" xmlns="http://www.w3.org/2000/svg">
<path d="M45.6465 23.1822C44.9997 23.1822 44.4746 23.7059 44.4746 24.3536C44.4746 25.0009 44.9997 25.5256 45.6465 25.5256C46.2947 25.5256 46.8184 25.0009 46.8184 24.3536C46.8184 23.7059 46.2947 23.1822 45.6465 23.1822Z" fill="white"/>
<path d="M24.3536 44.4747C23.7053 44.4747 23.1816 44.9998 23.1816 45.6466C23.1816 46.2949 23.7053 46.8186 24.3536 46.8186C25.0004 46.8186 25.5255 46.2949 25.5255 45.6466C25.5255 44.9998 25.0004 44.4747 24.3536 44.4747Z" fill="white"/>
<path d="M63.5438 12.2097C63.1483 12.1176 62.7326 12.2371 62.447 12.5255L57.5886 17.4224H55.2594L52.6954 14.7659V12.4042L57.4842 7.54398C57.7676 7.2565 57.8829 6.84312 57.7891 6.44989C57.6957 6.05712 57.4064 5.74034 57.0237 5.61124C55.8206 5.20565 54.5618 5.00011 53.2813 5.00011C49.4644 5.00011 45.9967 6.77995 43.7674 9.88323C41.6808 12.7883 41.0376 16.3484 41.9591 19.7557L33.3268 28.388L18.9453 13.9735V11.1444C18.9453 10.7329 18.7292 10.3511 18.3763 10.1396L10.09 5.1672C9.62859 4.89024 9.03851 4.96303 8.65856 5.34344L5.34425 8.6573C4.96429 9.03771 4.89151 9.62779 5.168 10.0892L10.1395 18.3755C10.351 18.7284 10.7323 18.944 11.1438 18.9445L13.972 18.9454L28.3549 33.3599L19.7555 41.9592C16.3483 41.0382 12.7863 41.6823 9.87991 43.7702C6.77847 45.9982 5 49.465 5 53.2819C5 54.5619 5.20554 55.8212 5.61113 57.0238C5.74068 57.4088 6.06067 57.6995 6.45619 57.791C6.85217 57.883 7.26737 57.7636 7.55348 57.4752L12.4114 52.5788H14.7534L17.4218 55.2472V57.5892L12.5254 62.4471C12.237 62.7332 12.1175 63.1484 12.2095 63.5444C12.3011 63.9399 12.5918 64.2599 12.9768 64.3894C14.1794 64.795 15.4387 65.0006 16.7186 65.0006C20.5356 65.0006 24.0019 63.2216 26.2304 60.1202C28.3183 57.2138 28.9624 53.6523 28.0413 50.245L34.9478 43.3385L36.5299 45.057L35.8039 45.7826C35.3461 46.2404 35.3461 46.9824 35.8039 47.4402C36.2616 47.8975 37.0032 47.8975 37.4615 47.4402L38.1188 46.7829L52.9627 62.9067C52.9737 62.9186 52.9852 62.93 52.9966 62.9415C55.7433 65.6882 60.1933 65.6891 62.9414 62.941C65.6816 60.1994 65.6816 55.7384 62.9414 52.9967C62.9295 52.9848 62.9171 52.9734 62.9048 52.9619L46.7557 38.1464L47.4058 37.4964C47.8636 37.0391 47.8636 36.297 47.4058 35.8392C46.948 35.3814 46.2064 35.3814 45.7482 35.8392L45.0272 36.5607L43.3055 34.9804L50.2454 28.0405C51.2319 28.3042 52.25 28.4379 53.2813 28.4379C59.7433 28.4379 65 23.1808 65 16.7192C65 15.4388 64.7945 14.1799 64.3889 12.9769C64.2593 12.5919 63.9393 12.3012 63.5438 12.2097ZM15.2876 16.9458C15.0679 16.7256 14.7699 16.6135 14.4586 16.6135L11.8081 16.6126L7.6487 9.66807L9.66887 7.6479L16.6015 11.8082V14.4587C16.6015 14.7691 16.7246 15.0666 16.9439 15.2864L31.6697 30.0456L30.0121 31.7027L15.2876 16.9458ZM45.0967 39.8054L61.3007 54.6708C63.1108 56.5001 63.1053 59.4619 61.2838 61.2843C59.4581 63.11 56.5027 63.1154 54.6698 61.3004L39.7774 45.1239L45.0967 39.8054ZM43.3682 38.2192L38.1884 43.398L36.6063 41.6795L41.6465 36.639L43.3682 38.2192ZM53.2813 26.094C52.2564 26.094 51.2484 25.9297 50.2861 25.6056C49.8645 25.4641 49.3985 25.5731 49.0835 25.8876C43.2084 31.7627 30.549 44.4216 25.8875 49.0836C25.5725 49.3986 25.4631 49.8646 25.6055 50.2867C26.5796 53.1794 26.1136 56.2648 24.3265 58.7528C22.5443 61.2335 19.7711 62.6567 16.7186 62.6567C16.3758 62.6567 16.0347 62.638 15.6969 62.6018L19.4191 58.9085C19.6406 58.6887 19.7656 58.3893 19.7656 58.0767V54.7615C19.7656 54.4506 19.642 54.1526 19.4223 53.9329L16.0672 50.5778C15.8475 50.3581 15.5495 50.2345 15.2387 50.2345H11.9234C11.6108 50.2345 11.3114 50.3595 11.0912 50.581L7.3983 54.3032C7.36167 53.9654 7.34336 53.6243 7.34336 53.2815C7.34336 50.2285 8.76614 47.4558 11.2473 45.6737C13.7349 43.8865 16.8207 43.42 19.7139 44.3946C20.1355 44.537 20.6015 44.4276 20.9165 44.1126C20.981 44.0485 44.096 20.9331 44.1125 20.9166C44.4275 20.6016 44.5364 20.1361 44.3945 19.714C43.4199 16.8213 43.885 13.7368 45.6708 11.2506C47.4543 8.76762 50.228 7.34393 53.2809 7.34393C53.6343 7.34393 53.9854 7.36362 54.3333 7.40207L50.6885 11.1014C50.4724 11.3206 50.3516 11.6159 50.3516 11.9235V15.2388C50.3516 15.5427 50.4692 15.8343 50.6803 16.0527L53.9181 19.4077C54.1388 19.6366 54.4432 19.7657 54.7613 19.7657H58.0766C58.3888 19.7657 58.6882 19.6412 58.9084 19.4192L62.6012 15.6975C62.6379 16.0353 62.6562 16.3763 62.6562 16.7192C62.6562 21.8884 58.4506 26.094 53.2813 26.094Z" fill="white"/>
<path d="M41.5035 26.8394L26.8386 41.5043C26.3813 41.9616 26.3813 42.7036 26.8386 43.1614C27.2964 43.6192 28.0384 43.6192 28.4962 43.1614L43.1611 28.4965C43.6189 28.0392 43.6189 27.2971 43.1611 26.8394C42.7033 26.3816 41.9613 26.3816 41.5035 26.8394Z" fill="white"/>
<path d="M56.3125 57.9704C56.7703 58.4268 57.5123 58.4268 57.9701 57.9677C58.427 57.5094 58.4256 56.7674 57.9674 56.3105L47.4041 45.7812C46.9459 45.3243 46.2034 45.3257 45.747 45.7839C45.2897 46.2426 45.291 46.9842 45.7493 47.4411L56.3125 57.9704Z" fill="white"/>
</svg>
