<svg width="1429" height="780" viewBox="0 0 1429 780" fill="none" xmlns="http://www.w3.org/2000/svg">
<g clip-path="url(#clip0_967_4274)">
<rect x="1.00146" width="1428" height="787" fill="#E7F2FF"/>
<g style="mix-blend-mode:darken" opacity="0.15">
<path d="M-458.535 633.25C-457.019 633.25 -455.503 632.173 -455.287 630.666L-411.11 630.666L-393.136 648.54L-238.95 648.54L-209.282 619.468L-157.309 619.468L-121.578 655L-61.1595 655L-8.32053 602.455L127.892 602.455L166.438 564.123L181.813 564.123L208.233 537.851L256.308 537.851L313.911 480.568C315.21 481.214 316.943 481.214 318.025 479.922C319.325 478.63 319.325 476.261 318.025 474.969C316.726 473.677 314.344 473.677 313.045 474.969C311.962 476.046 311.745 477.769 312.395 479.061L255.225 535.913L207.367 535.913L180.947 562.185L165.572 562.185L127.242 600.302L-8.97016 600.302L-61.8092 652.847L-120.712 652.847L-156.443 617.314L-210.148 617.314L-239.6 646.601L-392.27 646.602L-410.244 628.728L-455.287 628.728C-455.72 627.22 -457.019 626.143 -458.535 626.143C-460.484 626.143 -462 627.651 -462 629.589C-462 631.742 -460.484 633.25 -458.535 633.25Z" fill="#1661BE"/>
<path d="M-454.689 703.344C-453.175 703.344 -451.661 702.264 -451.229 700.752L-314.326 700.752L-273.45 741.577L-218.516 741.577L-186.723 709.824L-106.918 709.824L-71.6647 745.033L-13.2703 745.033L0.138846 731.641L51.1799 731.641L72.1586 752.594L113.467 752.594L135.96 730.129L179.431 730.129L209.71 760.37L264.86 760.37L304.223 799.683L441.125 799.683L471.404 829.924C470.755 831.22 470.755 832.948 472.052 834.028C473.35 835.324 475.729 835.324 477.027 834.028C478.324 832.732 478.324 830.356 477.027 829.06C475.945 827.98 474.215 827.764 472.918 828.412L441.99 797.523L305.088 797.523L265.725 758.21L210.791 758.21L180.513 727.969L135.527 727.969L113.035 750.434L73.24 750.434L52.2613 729.481L-0.29371 729.481L-13.7028 742.873L-70.5833 742.873L-105.836 707.664L-187.156 707.664L-218.948 739.417L-272.369 739.417L-313.245 698.592L-451.012 698.592C-451.445 697.08 -452.743 696 -454.473 696C-456.419 696 -457.933 697.512 -457.933 699.456C-458.366 701.616 -456.635 703.344 -454.689 703.344Z" fill="#1661BE"/>
<path d="M-392.228 667.807L-412.998 646.91L-451.077 646.91C-451.509 645.387 -452.808 644.298 -454.538 644.298C-456.485 644.298 -458 645.822 -458 647.781C-458 649.74 -456.485 651.264 -454.538 651.264C-453.024 651.264 -451.509 650.175 -451.077 648.652L-413.864 648.652L-393.094 669.548L-307.85 669.548L-263.714 713.953L-228.665 713.953L-200.755 685.873L-97.3376 685.873L-66.399 717L-20.5319 717L4.34878 692.403L81.5872 692.403L104.737 715.259L199.284 715.259L254.238 659.971L363.713 659.971L384.916 638.639C386.214 639.292 387.945 639.292 389.026 637.986C390.325 636.68 390.325 634.286 389.026 632.98C387.728 631.674 385.348 631.674 384.05 632.98C382.969 634.068 382.752 635.809 383.401 637.115L362.631 658.012L253.156 658.012L198.202 713.3L105.17 713.3L82.2363 690.227L3.26703 690.227L-21.6137 715.259L-65.9663 715.259L-96.9049 684.132L-201.837 684.132L-229.746 712.211L-263.065 712.211L-307.201 667.807L-392.228 667.807Z" fill="#1661BE"/>
<path d="M-277.045 666.728C-278.345 665.432 -280.726 665.432 -282.026 666.728C-283.325 668.025 -283.325 670.401 -282.026 671.698C-280.943 672.778 -279.211 672.994 -277.912 672.346L-254.094 696.111L-231.142 696.111L-203.426 668.457L-100.576 668.457L-68.9625 700L-27.6058 700L3.14109 669.321L86.0712 669.321C86.5042 670.833 87.8034 671.914 89.5356 671.914C91.4844 671.914 93 670.401 93 668.457C93 666.512 91.4844 665 89.5356 665C88.0199 665 86.5042 666.08 86.0712 667.593L2.49154 667.593L-28.2554 698.272L-68.0964 698.272L-99.7095 666.728L-204.076 666.728L-231.791 694.383L-253.227 694.383L-276.612 671.049C-275.746 669.537 -275.963 667.809 -277.045 666.728Z" fill="#1661BE"/>
<path d="M374.305 543.674L327.847 543.674L291.761 580.129L202.086 580.129L157.789 624.88L0.0484266 624.88L-47.9221 673.342C-49.2186 672.687 -50.9472 672.687 -52.0276 673.997C-53.3242 675.307 -53.3242 677.708 -52.0276 679.018C-50.7311 680.327 -48.3542 680.327 -47.0577 679.018C-45.9774 677.926 -45.7613 676.18 -46.4095 674.87L1.12884 626.845L158.87 626.845L203.167 582.094L292.842 582.094L328.928 545.638L375.385 545.638L409.311 511.366L468.085 511.366C468.517 512.894 469.814 513.985 471.543 513.985C473.487 513.985 475 512.457 475 510.493C475 508.528 473.487 507 471.543 507C470.03 507 468.517 508.091 468.085 509.62L408.446 509.62L374.305 543.674Z" fill="#1661BE"/>
<path d="M101.44 637.547L14.4812 637.547L-27.9166 679.475C-29.2145 678.834 -30.945 678.834 -32.0266 680.117C-33.3245 681.401 -33.3245 683.754 -32.0266 685.037C-30.7287 686.321 -28.3493 686.321 -27.0514 685.037C-25.9698 683.968 -25.7534 682.256 -26.4024 680.973L15.3464 639.472L100.791 639.472L126.749 665.357L178.881 665.357L217.385 627.278L314.078 627.278C314.511 628.776 315.808 629.846 317.539 629.846C319.486 629.846 321 628.348 321 626.423C321 624.497 319.486 623 317.539 623C316.025 623 314.511 624.07 314.078 625.567L216.736 625.567L178.232 663.645L127.614 663.645L101.44 637.547Z" fill="#1661BE"/>
<path d="M353.859 575.476L324.336 605.111L205.157 605.111L164.78 645.642L138.947 645.642C138.513 644.117 137.21 643.027 135.473 643.027C133.52 643.027 132 644.552 132 646.513C132 648.475 133.52 650 135.473 650C136.993 650 138.513 648.91 138.947 647.385L165.648 647.385L205.808 606.854L324.987 606.854L354.51 577.219L396.407 577.219L417.899 555.646C419.201 556.3 420.938 556.3 422.023 554.992C423.326 553.685 423.326 551.288 422.023 549.981C420.721 548.673 418.333 548.673 417.03 549.981C415.945 551.07 415.728 552.813 416.379 554.121L395.322 575.258L353.859 575.258L353.859 575.476Z" fill="#1661BE"/>
<path d="M329.085 648.602L244.806 648.602L195.32 698.265L120.766 698.265L100.236 677.663L44.6991 677.663C44.2668 676.145 42.9703 675.06 41.4576 675.06C39.5127 675.06 38 676.578 38 678.53C38 680.482 39.5127 682 41.4576 682C42.9703 682 44.483 680.916 44.6991 679.398L99.372 679.398L119.901 700L195.968 700L245.455 650.337L329.085 650.337C329.517 651.855 330.814 652.94 332.542 652.94C334.487 652.94 336 651.422 336 649.47C336 647.518 334.487 646 332.542 646C330.814 646 329.517 647.084 329.085 648.602Z" fill="#1661BE"/>
<path d="M422.312 591C420.794 591 419.275 592.077 418.841 593.585L384.784 593.585L341.616 636.461L231.418 636.461L186.297 681.276L125.992 681.276L99.0932 654.56L27.9416 654.56C27.5078 653.052 26.2062 651.974 24.4708 651.974C22.5185 651.974 21 653.482 21 655.422C21 657.361 22.5185 658.869 24.4708 658.869C25.9893 658.869 27.5078 657.792 27.9416 656.283L98.2255 656.283L125.124 683L187.165 683L232.285 638.185L342.484 638.185L385.652 595.309L419.058 595.309C419.492 596.817 420.794 597.895 422.529 597.895C424.482 597.895 426 596.386 426 594.447C426 592.508 424.265 591 422.312 591Z" fill="#1661BE"/>
<path d="M300.807 519.205L263.342 556.553L204.869 556.553L148.563 612.682L6.93008 612.682C6.49695 611.171 5.19754 610.092 3.46506 610.092C1.51596 610.092 -4.71828e-07 611.603 -3.0197e-07 613.546C-1.32113e-07 615.489 1.51596 617 3.46506 617C4.98099 617 6.49695 615.921 6.93008 614.409L149.213 614.409L205.519 558.28L263.991 558.28L301.674 520.932L361.445 520.932L398.911 483.584C400.21 484.232 401.943 484.232 403.025 482.937C404.325 481.641 404.325 479.267 403.025 477.971C401.726 476.676 399.344 476.676 398.045 477.971C396.962 479.051 396.745 480.778 397.395 482.073L360.579 518.773L300.807 518.773L300.807 519.205Z" fill="#1661BE"/>
<path d="M-345.895 775.292C-344.376 775.292 -342.857 774.187 -342.64 772.641L-263.872 772.641L-247.815 788.993L-124.998 788.993L-93.751 820.813L-34.2954 820.813L4.97988 780.817L91.3424 780.817L126.712 816.835L164.902 816.835L190.724 790.539L228.264 790.539L261.463 824.348L435.056 824.348C435.49 825.895 436.792 827 438.528 827C440.481 827 442 825.453 442 823.464C442 821.476 440.481 819.929 438.528 819.929C437.009 819.929 435.49 821.034 435.056 822.581L262.114 822.581L228.915 788.772L189.856 788.772L164.034 814.846L127.58 814.846L92.2103 778.828L4.32894 778.828L-34.7295 818.824L-92.6661 818.824L-123.913 787.004L-246.73 787.004L-262.787 770.652L-342.206 770.652C-342.64 769.105 -343.942 768 -345.461 768C-347.414 768 -348.933 769.547 -348.933 771.536C-349.367 773.524 -347.631 775.292 -345.895 775.292Z" fill="#1661BE"/>
<path d="M32.1504 750.17L48.1884 750.17L65.31 767.277L130.545 767.277L146.15 751.686L181.477 751.686L199.899 770.092L256.898 770.092L300.244 813.401L430.281 813.401C430.715 814.917 432.015 816 433.532 816C435.483 816 437 814.484 437 812.535C437 810.586 435.483 809.071 433.532 809.071C432.015 809.071 430.498 810.153 430.281 811.669L300.894 811.669L257.548 768.36L200.549 768.36L182.127 749.954L145.283 749.954L129.678 765.545L65.9602 765.545L48.8386 748.438L31.2836 748.438L16.9794 762.73L-70.7958 762.73L-106.556 727L-170.491 727L-196.282 752.769L-253.065 752.769C-253.498 751.253 -254.799 750.17 -256.532 750.17C-258.483 750.17 -260 751.686 -260 753.635C-260 755.584 -258.483 757.1 -256.532 757.1C-255.015 757.1 -253.498 756.017 -253.065 754.501L-195.415 754.501L-169.624 728.732L-107.206 728.732L-71.4459 764.462L17.8464 764.462L32.1504 750.17Z" fill="#1661BE"/>
<path d="M373.247 687.671L407.937 652.637C409.229 653.29 410.953 653.29 412.03 651.984C413.323 650.678 413.323 648.285 412.03 646.979C410.738 645.674 408.368 645.674 407.075 646.979C405.997 648.067 405.782 649.808 406.428 651.114L372.17 685.713L251.294 685.713L209.063 728.363C207.771 727.493 206.047 727.71 204.97 729.016C203.677 730.322 203.677 732.715 204.97 734.021C206.262 735.326 208.633 735.326 209.925 734.021C211.003 732.933 211.218 731.192 210.572 729.886L252.372 687.671L373.247 687.671Z" fill="#1661BE"/>
<path d="M471.879 773.074L434.952 773.074L417.792 756.037L378.694 756.037L358.927 775.662L309.837 775.662L275.517 741.588L222.951 741.588C222.516 740.078 221.213 739 219.475 739C217.521 739 216 740.51 216 742.451C216 744.391 217.521 745.901 219.475 745.901C220.996 745.901 222.516 744.823 222.951 743.313L274.865 743.313L309.185 777.387L359.796 777.387L379.563 757.762L417.141 757.762L434.301 774.799L471.01 774.799L503.375 806.932C502.723 808.226 502.723 809.951 504.027 811.03C505.33 812.323 507.719 812.323 509.023 811.03C510.326 809.736 510.326 807.363 509.023 806.069C507.936 804.991 506.199 804.775 504.895 805.422L471.879 773.074Z" fill="#1661BE"/>
<path d="M304.661 707.748L329.64 733L360.003 733L383.474 709.272L417.497 709.272L434.94 691.639C436.232 692.293 437.954 692.292 439.031 690.986C440.323 689.68 440.323 687.286 439.031 685.98C437.739 684.673 435.37 684.673 434.078 685.98C433.002 687.068 432.786 688.81 433.432 690.116L416.421 707.313L382.398 707.313L358.926 731.041L330.071 731.041L305.092 705.789L258.579 705.789L240.06 724.51C238.768 723.639 237.046 723.857 235.969 725.163C234.677 726.469 234.677 728.864 235.969 730.17C237.261 731.476 239.63 731.476 240.922 730.17C241.998 729.082 242.214 727.34 241.568 726.034L259.656 707.748L304.661 707.748Z" fill="#1661BE"/>
<path d="M352.655 696.666C352.225 695.149 350.937 694.065 349.435 694.065C347.503 694.065 346 695.582 346 697.533C346 699.483 347.503 701 349.435 701C350.937 701 352.44 699.916 352.655 698.4L403.53 698.4L441.955 659.609C443.243 660.476 444.961 660.26 446.034 658.959C447.322 657.659 447.322 655.275 446.034 653.975C444.746 652.675 442.385 652.675 441.097 653.975C440.023 655.059 439.809 656.792 440.453 658.093L402.457 696.449L352.655 696.449L352.655 696.666Z" fill="#1661BE"/>
<path d="M431.142 725.34L394.156 725.34L376.421 743.253L304.396 743.253L289.472 728.18L260.921 728.18C260.489 726.651 259.191 725.559 257.461 725.559C255.514 725.559 254 727.088 254 729.054C254 731.02 255.514 732.549 257.461 732.549C258.975 732.549 260.489 731.457 260.921 729.928L288.823 729.928L303.747 745L377.286 745L395.022 727.088L432.007 727.088L483.917 674.662C485.215 675.318 486.945 675.318 488.027 674.007C489.324 672.696 489.324 670.294 488.027 668.983C486.729 667.672 484.35 667.672 483.052 668.983C481.971 670.075 481.754 671.823 482.403 673.133L431.142 725.34Z" fill="#1661BE"/>
<path d="M293.922 742.986C292.63 741.671 290.261 741.671 288.969 742.986C287.677 744.301 287.677 746.712 288.969 748.027C290.046 749.123 291.768 749.342 293.06 748.685L307.488 763.37L347.109 763.37C347.54 764.904 348.832 766 350.555 766C352.493 766 354 764.466 354 762.493C354 760.521 352.493 758.986 350.555 758.986C349.047 758.986 347.54 760.082 347.109 761.616L308.564 761.616L294.568 747.37C295.214 745.836 295.214 744.082 293.922 742.986Z" fill="#1661BE"/>
<path d="M-307.343 750.538L-242.004 750.538L-241.788 750.755L-241.571 750.538L-88.3928 750.538L-56.1561 718.222L43.7994 718.222L51.8045 726.247C50.7228 727.982 50.9391 730.368 52.6699 732.103C54.6171 734.055 57.6461 734.055 59.5933 732.103C61.5405 730.151 61.5405 727.114 59.5933 725.379C58.0788 723.861 55.6989 723.644 53.7517 724.512L44.8812 715.62L-53.5599 715.62L-35.3861 697.401C-33.6553 698.486 -31.2754 698.269 -29.5446 696.534C-27.5974 694.582 -27.5974 691.545 -29.5446 689.81C-31.4917 687.858 -34.5207 687.858 -36.2515 689.81C-37.766 691.329 -37.9824 693.714 -37.117 695.666L-89.4746 748.152L-174.502 748.152L-151.568 725.162L-116.302 725.162C-115.653 727.114 -113.923 728.633 -111.759 728.633C-109.163 728.633 -106.999 726.464 -106.999 723.861C-106.999 721.258 -109.163 719.09 -111.759 719.09C-113.923 719.09 -115.87 720.608 -116.302 722.56L-152.65 722.56L-178.18 748.152L-239.191 748.152L-180.776 689.594L-73.0317 689.594L-35.8188 652.29L1.61037 652.29L35.1452 685.907L86.4211 685.907L104.162 703.691L172.746 703.691C173.395 705.643 175.126 707.161 177.29 707.161C179.886 707.161 182.05 704.992 182.05 702.39C182.05 699.787 179.886 697.618 177.29 697.618C175.126 697.618 173.179 699.136 172.746 701.088L105.244 701.088L89.8828 685.69L193.733 685.69C194.382 687.642 196.113 689.16 198.276 689.16C200.872 689.16 203.036 686.991 203.036 684.388C203.036 681.786 200.872 679.617 198.276 679.617C196.113 679.617 194.165 681.135 193.733 683.087L36.0107 683.087L5.07207 652.073L264.697 652.073C265.346 654.025 267.077 655.543 269.24 655.543C271.836 655.543 274 653.374 274 650.771C274 648.169 271.836 646 269.24 646C267.077 646 265.129 647.518 264.697 649.47L-37.117 649.47L-74.3298 686.774L-182.074 686.774L-214.96 719.74L-248.711 719.74L-261.476 706.944C-260.394 705.209 -260.611 702.823 -262.341 701.088C-264.289 699.136 -267.317 699.136 -269.048 701.088C-270.995 703.04 -270.995 706.077 -269.048 707.812C-267.534 709.33 -265.154 709.547 -263.207 708.679L-249.793 722.126L-217.34 722.126L-242.87 747.718L-308.425 747.718L-353.643 793.047L-396.264 793.047L-410.111 806.927L-523.697 806.927C-524.346 804.975 -526.077 803.457 -528.24 803.457C-530.836 803.457 -533 805.626 -533 808.229C-533 810.831 -530.836 813 -528.24 813C-526.077 813 -524.13 811.482 -523.697 809.53L-409.029 809.53L-395.183 795.649L-352.561 795.649L-307.343 750.538Z" fill="#1661BE"/>
<path d="M218.176 722.911L238.97 702.028L359.402 702.028C360.051 703.966 361.784 705.473 363.95 705.473C366.55 705.473 368.716 703.32 368.716 700.736C368.716 698.153 366.549 696 363.95 696C361.784 696 359.835 697.507 359.402 699.445L237.887 699.445L214.494 722.696L214.71 722.911L105.975 722.911L61.5717 767.045L2.22231 767.045L-19.4381 745.516C-18.355 743.794 -18.5716 741.426 -20.3045 739.703C-22.2539 737.766 -25.2864 737.766 -27.0192 739.703C-28.9686 741.641 -28.9686 744.655 -27.0192 746.377C-25.5029 747.884 -23.1203 748.099 -21.1708 747.238L1.1393 769.413L58.9725 769.413L23.0163 805.15L-194.887 805.15L-252.287 862.417L-379 862.417L-379 865L-251.204 865L-193.804 807.949L-95.6825 807.949L-71.6395 831.846L55.7234 831.846L135 753.051L163.159 753.051L191.75 781.469L375.863 781.469L400.989 806.442C399.906 808.164 400.123 810.532 401.856 812.255C403.805 814.192 406.838 814.192 408.571 812.255C410.52 810.317 410.52 807.303 408.571 805.581C407.054 804.074 404.672 803.859 402.722 804.72L376.946 779.101L192.833 779.101L166.624 753.051L244.818 753.051C245.468 754.989 247.201 756.496 249.367 756.496C251.966 756.496 254.132 754.343 254.132 751.759C254.132 749.176 251.966 747.023 249.367 747.023C247.201 747.023 245.252 748.53 244.818 750.468L133.701 750.468L54.4238 829.262L-70.7731 829.262L-92.2169 807.949L24.0993 807.949L107.058 725.494L412.686 725.494C413.336 727.432 415.069 728.939 417.235 728.939C419.834 728.939 422 726.786 422 724.203C422 721.619 419.834 719.466 417.235 719.466C415.069 719.466 413.119 720.973 412.686 722.911L218.176 722.911Z" fill="#1661BE"/>
<path d="M-541.699 771.244C-540.181 772.756 -537.796 772.972 -535.844 772.108L-512.858 795L-462.332 795L-436.31 769.084L-387.736 769.084L-344.366 725.891L-306.851 725.891C-306.2 727.835 -304.465 729.347 -302.297 729.347C-299.695 729.347 -297.526 727.187 -297.526 724.596C-297.526 722.004 -299.695 719.844 -302.297 719.844C-304.465 719.844 -306.417 721.356 -306.851 723.3L-345.45 723.3L-388.82 766.493L-433.708 766.493L-363.448 696.736L-291.454 696.736L-261.095 666.501L-152.02 666.501L-129.251 644.041L-66.7982 644.041L-58.7747 636.05C-57.0399 637.13 -54.6546 636.914 -52.9198 635.186C-50.9681 633.243 -50.9681 630.219 -52.9198 628.491C-54.8714 626.548 -57.9073 626.548 -59.6421 628.491C-61.16 630.003 -61.3769 632.379 -60.5095 634.323L-67.6656 641.449L-100.844 641.449L-56.6062 597.393L-25.163 597.393L1.94316 624.604L55.9387 624.604C56.5893 626.548 58.3241 628.06 60.4926 628.06C63.0948 628.06 65.2633 625.9 65.2633 623.308C65.2633 620.717 63.0948 618.557 60.4926 618.557C58.3241 618.557 56.3724 620.069 55.9387 622.013L3.02742 622.013L-21.6934 597.393L62.8779 597.393L90.8515 625.252L292.739 625.252L307.918 640.369C306.834 642.097 307.051 644.473 308.785 646.201C310.737 648.144 313.773 648.144 315.508 646.201C317.459 644.257 317.459 641.233 315.508 639.506C313.99 637.994 311.604 637.778 309.653 638.642L293.606 622.66L139.643 622.66L181.928 580.547L371.021 580.547L402.681 549.017C404.416 550.096 406.801 549.88 408.536 548.153C410.488 546.209 410.488 543.185 408.536 541.458C406.585 539.514 403.549 539.514 401.814 541.458C400.296 542.97 400.079 545.345 400.947 547.289L369.937 578.172L180.844 578.172L136.173 622.66L91.7189 622.66L63.7453 594.801L-57.9073 594.801L-104.53 641.233L-130.118 641.233L-152.887 663.91L-258.276 663.91L-214.473 620.285L-118.408 620.285C-117.758 622.229 -116.023 623.74 -113.855 623.74C-111.252 623.74 -109.084 621.581 -109.084 618.989C-109.084 616.397 -111.252 614.238 -113.855 614.238C-116.023 614.238 -117.975 615.75 -118.408 617.693L-215.557 617.693L-292.322 694.145L-364.316 694.145L-463.199 792.409L-511.774 792.409L-534.109 770.164C-533.025 768.436 -533.242 766.061 -534.976 764.333C-536.928 762.389 -539.964 762.389 -541.699 764.333C-543.434 766.493 -543.434 769.516 -541.699 771.244Z" fill="#1661BE"/>
<path d="M377 654C373.686 654 371 656.686 371 660C371 663.314 373.686 666 377 666C380.314 666 383 663.314 383 660C383 656.686 380.314 654 377 654Z" fill="#1661BE"/>
<path d="M422 705.5C422 704.071 423.286 703 425 703C426.714 703 428 704.071 428 705.5C428 706.929 426.714 708 425 708C423.5 708 422 706.929 422 705.5Z" fill="#1661BE"/>
<path d="M410 736.5C410 735.6 410.4 735 411 735C411.6 735 412 735.6 412 736.5C412 737.4 411.6 738 411 738C410.4 737.7 410 737.1 410 736.5Z" fill="#1661BE"/>
<path d="M407 762.5C407 762.2 407.6 762 408.5 762C409.4 762 410 762.2 410 762.5C410 762.8 409.4 763 408.5 763C407.6 763 407 762.8 407 762.5Z" fill="#1661BE"/>
<path d="M303 725C303 723.8 303.75 723 304.5 723C305.4 723 306 724 306 725C306 726.2 305.25 727 304.5 727C303.6 727 303 726 303 725Z" fill="#1661BE"/>
<path d="M276 704.487C276 703.661 276.667 703 277.5 703C278.333 703 279 703.661 279 704.487C279 705.314 278.333 705.975 277.5 705.975C276.667 706.14 276 705.479 276 704.487Z" fill="#1661BE"/>
<path d="M236 681.5C236 679.531 237.531 678 239.5 678C241.469 678 243 679.531 243 681.5C243 683.469 241.469 685 239.5 685C237.531 684.781 236 683.25 236 681.5Z" fill="#1661BE"/>
<path d="M144.5 690C141.462 690 139 692.462 139 695.5C139 698.538 141.462 701 144.5 701C147.538 701 150 698.538 150 695.5C150 692.462 147.538 690 144.5 690Z" fill="#1661BE"/>
<path d="M169 675.5C169 674.25 170.042 673 171.5 673C172.75 673 174 674.042 174 675.5C174 676.75 172.958 678 171.5 678C170.042 678 169 676.958 169 675.5Z" fill="#1661BE"/>
<path d="M160 672C160 669.739 162.609 668 166 668C169.391 668 172 669.739 172 672C172 674.261 169.391 676 166 676C162.609 675.826 160 674.087 160 672Z" fill="#1661BE"/>
<path d="M179 625C179 622.778 180.778 621 183 621C185.222 621 187 622.778 187 625C187 627.222 185.222 629 183 629C180.778 629 179 627.222 179 625Z" fill="#1661BE"/>
<path d="M194 620.488C194 618.495 195.286 617 197 617C198.714 617 200 618.495 200 620.488C200 622.481 198.714 623.976 197 623.976C195.286 624.225 194 622.481 194 620.488Z" fill="#1661BE"/>
<path d="M207 606.5C207 605.071 208.5 604 210.5 604C212.5 604 214 605.071 214 606.5C214 607.929 212.5 609 210.5 609C208.75 609 207 607.929 207 606.5Z" fill="#1661BE"/>
<path d="M267 606.5C267 605.75 268 605 269 605C270 605 271 605.75 271 606.5C271 607.25 270 608 269 608C268 608 267 607.25 267 606.5Z" fill="#1661BE"/>
<path d="M221 524C221 522.286 222.286 521 224 521C225.714 521 227 522.286 227 524C227 525.714 225.714 527 224 527C222.286 527 221 525.714 221 524Z" fill="#1661BE"/>
<path d="M237 480.5C237 477.033 240.033 474 244 474C247.733 474 251 476.817 251 480.5C251 483.967 247.967 487 244 487C240.033 486.783 237 483.967 237 480.5Z" fill="#1661BE"/>
<path d="M266 565C266 563.857 267.071 563 268.5 563C269.929 563 271 563.857 271 565C271 566.143 269.929 567 268.5 567C267.071 566.714 266 565.857 266 565Z" fill="#1661BE"/>
<path d="M320.5 507C317.462 507 315 509.91 315 513.5C315 517.09 317.462 520 320.5 520C323.538 520 326 517.09 326 513.5C326 509.91 323.538 507 320.5 507Z" fill="#1661BE"/>
<path d="M341 547.5C341 545.5 342.5 544 344.5 544C346.5 544 348 545.5 348 547.5C348 549.5 346.5 551 344.5 551C342.5 551 341 549.5 341 547.5Z" fill="#1661BE"/>
<path d="M346 584C346 582.889 346.889 582 348 582C349.111 582 350 582.889 350 584C350 585.111 349.111 586 348 586C346.889 585.778 346 584.889 346 584Z" fill="#1661BE"/>
<path d="M378 566.5C378 563.554 380.571 561 384 561C387.214 561 390 563.357 390 566.5C390 569.446 387.429 572 384 572C380.786 572 378 569.643 378 566.5Z" fill="#1661BE"/>
<path d="M358 618.5C358 617.154 359.615 616 361.5 616C363.385 616 365 617.154 365 618.5C365 619.846 363.385 621 361.5 621C359.615 620.808 358 619.846 358 618.5Z" fill="#1661BE"/>
<path d="M369 655C366.791 655 365 656.791 365 659C365 661.209 366.791 663 369 663C371.209 663 373 661.209 373 659C373 656.791 371.209 655 369 655Z" fill="#1661BE"/>
<path d="M437 698C435.343 698 434 699.119 434 700.5C434 701.881 435.343 703 437 703C438.657 703 440 701.881 440 700.5C440 699.119 438.657 698 437 698Z" fill="#1661BE"/>
<path d="M403 726.5C403 723.521 405.292 721 408 721C410.708 721 413 723.521 413 726.5C413 729.479 410.708 732 408 732C405.083 732 403 729.479 403 726.5Z" fill="#1661BE"/>
<path d="M442 739.5C442 737.556 443.778 736 446 736C448.222 736 450 737.556 450 739.5C450 741.444 448.222 743 446 743C443.778 743 442 741.444 442 739.5Z" fill="#1661BE"/>
<path d="M517 776C517 773.75 518.313 772 520 772C521.688 772 523 773.75 523 776C523 778.25 521.688 780 520 780C518.5 780 517 778.25 517 776Z" fill="#1661BE"/>
<path d="M572 738.5C572 734.914 574.69 732 578 732C581.31 732 584 734.914 584 738.5C584 742.086 581.31 745 578 745C574.69 745 572 742.086 572 738.5Z" fill="#1661BE"/>
<path d="M561.5 720C560.119 720 559 721.119 559 722.5C559 723.881 560.119 725 561.5 725C562.881 725 564 723.881 564 722.5C564 721.119 562.881 720 561.5 720Z" fill="#1661BE"/>
<path d="M527 671C527 668.222 529.444 666 532.5 666C535.556 666 538 668.222 538 671C538 673.778 535.556 676 532.5 676C529.444 676 527 673.778 527 671Z" fill="#1661BE"/>
<path d="M504 625C504 622.75 505.531 621 507.5 621C509.469 621 511 622.75 511 625C511 627.25 509.469 629 507.5 629C505.531 628.75 504 627 504 625Z" fill="#1661BE"/>
<path d="M496 602C495.448 602 495 602.672 495 603.5C495 604.328 495.448 605 496 605C496.552 605 497 604.328 497 603.5C497 602.672 496.552 602 496 602Z" fill="#1661BE"/>
<path d="M512 523.5C512 521.647 513.647 520 515.5 520C517.353 520 519 521.647 519 523.5C519 525.353 517.353 527 515.5 527C513.647 527 512 525.353 512 523.5Z" fill="#1661BE"/>
<path d="M467 470.5C467 468.615 468.154 467 469.5 467C470.846 467 472 468.615 472 470.5C472 472.385 470.846 474 469.5 474C468.154 474 467 472.385 467 470.5Z" fill="#1661BE"/>
<path d="M440 518.5C440 517.154 441.385 516 443 516C444.615 516 446 517.154 446 518.5C446 519.846 444.615 521 443 521C441.385 521 440 519.846 440 518.5Z" fill="#1661BE"/>
<path d="M355 471C355 468.8 356.8 467 359 467C361.2 467 363 468.8 363 471C363 473.2 361.2 475 359 475C356.8 475 355 473.2 355 471Z" fill="#1661BE"/>
<path d="M353 528C353 527.5 353.5 527 354 527C354.5 527 355 527.5 355 528C355 528.5 354.5 529 354 529C353.5 529 353 528.5 353 528Z" fill="#1661BE"/>
<path d="M318 568C318 565.684 319.895 564 322 564C324.316 564 326 565.895 326 568C326 570.316 324.105 572 322 572C319.684 572 318 570.105 318 568Z" fill="#1661BE"/>
<path d="M276 581.5C276 578.42 278.2 576 281 576C283.8 576 286 578.42 286 581.5C286 584.58 283.8 587 281 587C278.2 586.78 276 584.36 276 581.5Z" fill="#1661BE"/>
<path d="M313 639.5C313 637.531 314.531 636 316.5 636C318.469 636 320 637.531 320 639.5C320 641.469 318.469 643 316.5 643C314.75 643 313 641.469 313 639.5Z" fill="#1661BE"/>
<path d="M249 596C247.895 596 247 596.672 247 597.5C247 598.328 247.895 599 249 599C250.105 599 251 598.328 251 597.5C251 596.672 250.105 596 249 596Z" fill="#1661BE"/>
<path d="M231 651C229.343 651 228 652.567 228 654.5C228 656.433 229.343 658 231 658C232.657 658 234 656.433 234 654.5C234 652.567 232.657 651 231 651Z" fill="#1661BE"/>
<path d="M166 641.5C166 638.42 168.42 636 171.5 636C174.58 636 177 638.42 177 641.5C177 644.58 174.58 647 171.5 647C168.42 647 166 644.58 166 641.5Z" fill="#1661BE"/>
<path d="M112.5 635C111.119 635 110 636.119 110 637.5C110 638.881 111.119 640 112.5 640C113.881 640 115 638.881 115 637.5C115 636.119 113.881 635 112.5 635Z" fill="#1661BE"/>
<path d="M85 656C85 654.8 86.25 654 87.5 654C89 654 90 655 90 656C90 657.2 88.75 658 87.5 658C86.25 658 85 657 85 656Z" fill="#1661BE"/>
<path d="M60 678C60 676.25 61.25 675 63 675C64.5 675 66 676.25 66 678C66 679.5 64.75 681 63 681C61.25 681 60 679.75 60 678Z" fill="#1661BE"/>
<path d="M23.5 656C22.1193 656 21 657.119 21 658.5C21 659.881 22.1193 661 23.5 661C24.8807 661 26 659.881 26 658.5C26 657.119 24.8807 656 23.5 656Z" fill="#1661BE"/>
<path d="M24 703C19.5817 703 16 706.358 16 710.5C16 714.642 19.5817 718 24 718C28.4182 718 32 714.642 32 710.5C32 706.358 28.4182 703 24 703Z" fill="#1661BE"/>
<path d="M1 705.5C0.999999 703 2.55559 701 4.50003 701C6.44447 701 8 703 8 705.5C8 708 6.44447 710 4.50003 710C2.55559 710 1 708 1 705.5Z" fill="#1661BE"/>
<path d="M1 705C0.999999 702.273 3.04548 700 5.50003 700C7.95458 700 10 702.273 10 705C10 707.727 7.95458 710 5.50003 710C3.04548 710 1 707.727 1 705Z" fill="#1661BE"/>
<path d="M50 757C50 755.312 51.3125 754 53 754C54.6875 754 56 755.312 56 757C56 758.688 54.6875 760 53 760C51.3125 759.813 50 758.5 50 757Z" fill="#1661BE"/>
<path d="M87.5 668C86.6716 668 86 669.119 86 670.5C86 671.881 86.6716 673 87.5 673C88.3285 673 89 671.881 89 670.5C89 669.119 88.3285 668 87.5 668Z" fill="#1661BE"/>
<path d="M73 752C73 750.909 73.9091 750 75 750C76.0909 750 77 750.909 77 752C77 753.091 76.0909 754 75 754C73.9091 754 73 753.091 73 752Z" fill="#1661BE"/>
<path d="M151 717C148.791 717 147 718.791 147 721C147 723.209 148.791 725 151 725C153.209 725 155 723.209 155 721C155 718.791 153.209 717 151 717Z" fill="#1661BE"/>
<path d="M235 731.99C235 729.643 236.882 728 239 728C241.353 728 243 729.878 243 731.99C243 734.337 241.118 735.98 239 735.98C236.882 736.215 235 734.337 235 731.99Z" fill="#1661BE"/>
<path d="M338 763.981C338 762.743 338.75 762 339.5 762C340.438 762 341 762.99 341 763.981C341 765.219 340.25 765.962 339.5 765.962C338.75 766.209 338 765.219 338 763.981Z" fill="#1661BE"/>
<path d="M366 759C363.239 759 361 761.462 361 764.5C361 767.538 363.239 770 366 770C368.761 770 371 767.538 371 764.5C371 761.462 368.761 759 366 759Z" fill="#1661BE"/>
<path d="M368 775.5C368 774.154 369.615 773 371.5 773C373.385 773 375 774.154 375 775.5C375 776.846 373.385 778 371.5 778C369.615 778 368 776.846 368 775.5Z" fill="#1661BE"/>
<path d="M446.5 759C444.567 759 443 760.567 443 762.5C443 764.433 444.567 766 446.5 766C448.433 766 450 764.433 450 762.5C450 760.567 448.433 759 446.5 759Z" fill="#1661BE"/>
<path d="M406.5 751C404.567 751 403 752.791 403 755C403 757.209 404.567 759 406.5 759C408.433 759 410 757.209 410 755C410 752.791 408.433 751 406.5 751Z" fill="#1661BE"/>
<path d="M356 747.5C356 745.045 358.273 743 361 743C363.727 743 366 745.045 366 747.5C366 749.955 363.727 752 361 752C358.273 752 356 750.159 356 747.5Z" fill="#1661BE"/>
<path d="M425 669.989C425 667.745 426.313 666 428 666C429.687 666 431 667.745 431 669.989C431 672.233 429.687 673.979 428 673.979C426.313 674.228 425 672.233 425 669.989Z" fill="#1661BE"/>
<path d="M373 632C373 628.667 375.222 626 378 626C380.778 626 383 628.667 383 632C383 635.333 380.778 638 378 638C375.222 638 373 635.333 373 632Z" fill="#1661BE"/>
<path d="M406 552C404.895 552 404 552.895 404 554C404 555.105 404.895 556 406 556C407.105 556 408 555.105 408 554C408 552.895 407.105 552 406 552Z" fill="#1661BE"/>
<path d="M308 528.5C308 526.647 309.647 525 311.5 525C313.353 525 315 526.647 315 528.5C315 530.353 313.353 532 311.5 532C309.647 532 308 530.353 308 528.5Z" fill="#1661BE"/>
<path d="M262 603.5C262 602.643 262.429 602 263 602C263.571 602 264 602.643 264 603.5C264 604.357 263.571 605 263 605C262.429 605 262 604.357 262 603.5Z" fill="#1661BE"/>
<path d="M219 570.992C219 568.139 221.143 566 223.5 566C226.071 566 228 568.139 228 570.992C228 573.844 226.071 575.984 223.5 575.984C220.929 576.221 219 573.844 219 570.992Z" fill="#1661BE"/>
<path d="M200 550C200 548.8 201.25 548 202.5 548C204 548 205 549 205 550C205 551.2 203.75 552 202.5 552C201 552 200 551 200 550Z" fill="#1661BE"/>
<path d="M147 643C145.343 643 144 643.895 144 645C144 646.105 145.343 647 147 647C148.657 647 150 646.105 150 645C150 643.895 148.657 643 147 643Z" fill="#1661BE"/>
<path d="M97 583C97 579.267 99.8167 576 103.5 576C106.967 576 110 579.033 110 583C110 586.733 107.183 590 103.5 590C99.8167 589.767 97 586.733 97 583Z" fill="#1661BE"/>
<path d="M87 630.983C87 629.881 88.1111 629 89.5 629C90.8889 629 92 629.881 92 630.983C92 632.085 90.8889 632.966 89.5 632.966C88.1111 633.187 87 632.305 87 630.983Z" fill="#1661BE"/>
<path d="M53 579.493C53 577.471 55.1316 576 57.5 576C60.1053 576 62 577.655 62 579.493C62 581.515 59.8684 582.986 57.5 582.986C54.8947 583.17 53 581.515 53 579.493Z" fill="#1661BE"/>
<path d="M23 647.5C23 643.309 26.3088 640 30.5 640C34.6912 640 38 643.309 38 647.5C38 651.691 34.6912 655 30.5 655C26.3088 655 23 651.691 23 647.5Z" fill="#1661BE"/>
<path d="M22.5 676C18.3578 676 15 679.134 15 683C15 686.866 18.3578 690 22.5 690C26.6421 690 30 686.866 30 683C30 679.134 26.6421 676 22.5 676Z" fill="#1661BE"/>
<path d="M47 722.988C47 721.904 47.9091 721 49 721C50.0909 721 51 721.904 51 722.988C51 724.073 50.0909 724.977 49 724.977C48.0909 725.158 47 724.254 47 722.988Z" fill="#1661BE"/>
<path d="M56 658C56 656.25 57.25 655 59 655C60.75 655 62 656.25 62 658C62 659.75 60.75 661 59 661C57.5 661 56 659.75 56 658Z" fill="#1661BE"/>
<path d="M99.5 646C98.1193 646 97 647.567 97 649.5C97 651.433 98.1193 653 99.5 653C100.881 653 102 651.433 102 649.5C102 647.567 100.881 646 99.5 646Z" fill="#1661BE"/>
<path d="M97 606.493C97 603.925 99.381 602 102 602C104.857 602 107 604.139 107 606.493C107 609.06 104.619 610.985 102 610.985C99.381 611.199 97 609.06 97 606.493Z" fill="#1661BE"/>
<path d="M134 590C134 587.714 135.929 586 138.5 586C141.071 586 143 587.714 143 590C143 592.286 141.071 594 138.5 594C136.143 594 134 592.095 134 590Z" fill="#1661BE"/>
<path d="M161 643C157.686 643 155 645.686 155 649C155 652.314 157.686 655 161 655C164.314 655 167 652.314 167 649C167 645.686 164.314 643 161 643Z" fill="#1661BE"/>
<path d="M120.5 685C118.567 685 117 686.119 117 687.5C117 688.881 118.567 690 120.5 690C122.433 690 124 688.881 124 687.5C124 686.119 122.433 685 120.5 685Z" fill="#1661BE"/>
<path d="M174 683.5C174 679.429 177.429 676 181.5 676C185.571 676 189 679.429 189 683.5C189 687.571 185.571 691 181.5 691C177.429 691 174 687.571 174 683.5Z" fill="#1661BE"/>
<path d="M219 685.993C219 683.289 221.062 681 223.5 681C225.938 681 228 683.289 228 685.993C228 688.698 225.938 690.987 223.5 690.987C221.062 691.195 219 688.906 219 685.993Z" fill="#1661BE"/>
<path d="M214 627.5C214 625.045 215.818 623 218 623C220.182 623 222 625.045 222 627.5C222 629.955 220.182 632 218 632C215.818 632 214 629.955 214 627.5Z" fill="#1661BE"/>
<path d="M264 618.5C264 617.154 265.154 616 266.5 616C267.846 616 269 617.154 269 618.5C269 619.846 267.846 621 266.5 621C265.154 621 264 619.846 264 618.5Z" fill="#1661BE"/>
<path d="M279 621C277.343 621 276 622.567 276 624.5C276 626.433 277.343 628 279 628C280.657 628 282 626.433 282 624.5C282 622.567 280.657 621 279 621Z" fill="#1661BE"/>
<path d="M282 656.5C282 655.042 283.25 654 285 654C286.75 654 288 655.042 288 656.5C288 657.958 286.75 659 285 659C283.5 659 282 657.958 282 656.5Z" fill="#1661BE"/>
<path d="M327 607C327 605.909 328.364 605 330 605C331.636 605 333 605.909 333 607C333 608.091 331.636 609 330 609C328.364 609 327 608.091 327 607Z" fill="#1661BE"/>
<path d="M324 642C324 640.909 324.909 640 326 640C327.091 640 328 640.909 328 642C328 643.091 327.091 644 326 644C324.909 644 324 643.091 324 642Z" fill="#1661BE"/>
<path d="M344 678C340.686 678 338 680.462 338 683.5C338 686.538 340.686 689 344 689C347.314 689 350 686.538 350 683.5C350 680.462 347.314 678 344 678Z" fill="#1661BE"/>
<path d="M323 689C323 686.8 324.8 685 327 685C329.2 685 331 686.8 331 689C331 691.2 329.2 693 327 693C324.8 693 323 691.2 323 689Z" fill="#1661BE"/>
<path d="M299 705.5C299 704 300.25 703 301.5 703C303 703 304 704.25 304 705.5C304 707 302.75 708 301.5 708C300.25 708 299 707 299 705.5Z" fill="#1661BE"/>
<path d="M249 742C249 738.786 251.786 736 255.5 736C258.982 736 262 738.571 262 742C262 745.214 259.214 748 255.5 748C251.786 748 249 745.214 249 742Z" fill="#1661BE"/>
<path d="M202.5 723C201.119 723 200 724.119 200 725.5C200 726.881 201.119 728 202.5 728C203.881 728 205 726.881 205 725.5C205 724.119 203.881 723 202.5 723Z" fill="#1661BE"/>
<path d="M144 728C144 724.062 147.281 721 151.5 721C155.719 721 159 724.062 159 728C159 731.937 155.719 735 151.5 735C147.516 735 144 731.937 144 728Z" fill="#1661BE"/>
<path d="M105 712.5C105 711.154 106.154 710 107.5 710C108.846 710 110 711.154 110 712.5C110 713.846 108.846 715 107.5 715C106.154 715 105 713.846 105 712.5Z" fill="#1661BE"/>
<path d="M107 783.5C107 778.803 110.579 775 115 775C119.421 775 123 778.803 123 783.5C123 788.197 119.421 792 115 792C110.579 792 107 788.197 107 783.5Z" fill="#1661BE"/>
<path d="M192 717.5C192 716.042 193.042 715 194.5 715C195.958 715 197 716.042 197 717.5C197 718.958 195.958 720 194.5 720C193.25 720 192 718.958 192 717.5Z" fill="#1661BE"/>
<path d="M261 718.5C261 717.6 261.6 717 262.5 717C263.4 717 264 717.6 264 718.5C264 719.4 263.4 720 262.5 720C261.6 720 261 719.4 261 718.5Z" fill="#1661BE"/>
</g>
<g style="mix-blend-mode:darken" opacity="0.15">
<path d="M1850.54 15.25C1849.02 15.25 1847.5 14.1732 1847.29 12.6658L1803.11 12.6658L1785.14 30.5397L1630.95 30.5397L1601.28 1.46767L1549.31 1.46766L1513.58 37.0001L1453.16 37.0001L1400.32 -15.5448L1264.11 -15.5449L1225.56 -53.8768L1210.19 -53.8768L1183.77 -80.1493L1135.69 -80.1493L1078.09 -137.432C1076.79 -136.786 1075.06 -136.786 1073.97 -138.078C1072.68 -139.37 1072.68 -141.739 1073.97 -143.031C1075.27 -144.323 1077.66 -144.323 1078.96 -143.031C1080.04 -141.954 1080.25 -140.231 1079.6 -138.939L1136.78 -82.0875L1184.63 -82.0874L1211.05 -55.815L1226.43 -55.815L1264.76 -17.6984L1400.97 -17.6983L1453.81 34.8466L1512.71 34.8466L1548.44 -0.685822L1602.15 -0.685813L1631.6 28.6015L1784.27 28.6016L1802.24 10.7277L1847.29 10.7277C1847.72 9.22025 1849.02 8.14351 1850.54 8.14351C1852.48 8.14351 1854 9.65093 1854 11.5891C1854 13.7425 1852.48 15.25 1850.54 15.25Z" fill="#1661BE"/>
<path d="M1857.54 186.565C1856.02 186.565 1854.5 185.49 1854.07 183.985L1782.83 183.985L1767.89 169.15L1667.63 169.15L1648.15 188.5L1602.89 188.5L1594.88 180.545L1525.15 180.545L1487.91 217.524L1415.8 217.524L1383.54 185.49L1318.15 185.49L1276.14 227.199L1233.48 227.199L1199.92 193.874L1175.88 193.874L1126.08 243.323L1097.5 243.323L1059.6 280.948C1060.47 282.238 1060.25 283.958 1058.95 285.033C1057.66 286.322 1055.27 286.322 1053.97 285.033C1052.68 283.743 1052.68 281.378 1053.97 280.088C1055.06 279.013 1056.79 278.798 1058.09 279.443L1096.63 241.173L1125.21 241.173L1175.02 191.725L1200.57 191.725L1234.13 225.049L1275.27 225.049L1317.28 183.34L1384.19 183.34L1416.45 215.374L1487.04 215.374L1524.07 178.395L1595.31 178.395L1603.32 186.35L1647.5 186.35L1666.98 167L1768.76 167L1783.7 181.835L1854.07 181.835C1854.5 180.33 1855.8 179.255 1857.54 179.255C1859.48 179.255 1861 180.76 1861 182.695C1861 185.06 1859.27 186.565 1857.54 186.565Z" fill="#1661BE"/>
<path d="M1846.69 85.3444C1845.18 85.3444 1843.66 84.2643 1843.23 82.7523L1706.33 82.7523L1665.45 123.577L1610.52 123.577L1578.72 91.8245L1498.92 91.8245L1463.66 127.033L1405.27 127.033L1391.86 113.641L1340.82 113.641L1319.84 134.594L1278.53 134.594L1256.04 112.129L1212.57 112.129L1182.29 142.37L1127.14 142.37L1087.78 181.683L950.875 181.683L920.596 211.924C921.245 213.22 921.245 214.948 919.948 216.028C918.65 217.324 916.271 217.324 914.973 216.028C913.676 214.732 913.676 212.356 914.973 211.06C916.055 209.98 917.785 209.764 919.082 210.412L950.01 179.523L1086.91 179.523L1126.27 140.21L1181.21 140.21L1211.49 109.969L1256.47 109.969L1278.97 132.434L1318.76 132.434L1339.74 111.481L1392.29 111.481L1405.7 124.873L1462.58 124.873L1497.84 89.6644L1579.16 89.6644L1610.95 121.417L1664.37 121.417L1705.24 80.5922L1843.01 80.5922C1843.44 79.0802 1844.74 78.0002 1846.47 78.0002C1848.42 78.0002 1849.93 79.5122 1849.93 81.4562C1850.37 83.6163 1848.64 85.3444 1846.69 85.3444Z" fill="#1661BE"/>
<path d="M1784.23 49.8068L1805 28.9105L1843.08 28.9105C1843.51 27.3869 1844.81 26.2985 1846.54 26.2985C1848.49 26.2985 1850 27.8222 1850 29.7812C1850 31.7402 1848.49 33.2639 1846.54 33.2639C1845.02 33.2639 1843.51 32.1756 1843.08 30.6519L1805.86 30.6519L1785.09 51.5482L1699.85 51.5481L1655.71 95.9527L1620.66 95.9527L1592.75 67.8733L1489.34 67.8733L1458.4 99.0001L1412.53 99.0001L1387.65 74.4034L1310.41 74.4034L1287.26 97.2587L1192.72 97.2587L1137.76 41.9706L1028.29 41.9706L1007.08 20.6389C1005.79 21.292 1004.06 21.2919 1002.97 19.9859C1001.68 18.6799 1001.68 16.2855 1002.97 14.9795C1004.27 13.6735 1006.65 13.6735 1007.95 14.9795C1009.03 16.0679 1009.25 17.8092 1008.6 19.1153L1029.37 40.0115L1138.84 40.0115L1193.8 95.2997L1286.83 95.2997L1309.76 72.2267L1388.73 72.2267L1413.61 97.2587L1457.97 97.2587L1488.9 66.132L1593.84 66.132L1621.75 94.2114L1655.06 94.2114L1699.2 49.8068L1784.23 49.8068Z" fill="#1661BE"/>
<path d="M1669.05 48.7285C1670.34 47.4322 1672.73 47.4322 1674.03 48.7285C1675.32 50.0248 1675.32 52.4013 1674.03 53.6976C1672.94 54.7779 1671.21 54.9939 1669.91 54.3457L1646.09 78.1112L1623.14 78.1112L1595.43 50.4569L1492.58 50.4568L1460.96 82L1419.61 82L1388.86 51.321L1305.93 51.321C1305.5 52.8333 1304.2 53.9136 1302.46 53.9136C1300.52 53.9136 1299 52.4012 1299 50.4568C1299 48.5124 1300.52 47 1302.46 47C1303.98 47 1305.5 48.0802 1305.93 49.5926L1389.51 49.5926L1420.26 80.2716L1460.1 80.2716L1491.71 48.7284L1596.08 48.7285L1623.79 76.3828L1645.23 76.3828L1668.61 53.0495C1667.75 51.5371 1667.96 49.8087 1669.05 48.7285Z" fill="#1661BE"/>
<path d="M1017.69 -74.3262L1064.15 -74.3262L1100.24 -37.8706L1189.91 -37.8706L1234.21 6.88017L1391.95 6.8802L1439.92 55.342C1441.22 54.6871 1442.95 54.6872 1444.03 55.9969C1445.32 57.3067 1445.32 59.708 1444.03 61.0178C1442.73 62.3275 1440.35 62.3275 1439.06 61.0178C1437.98 59.9263 1437.76 58.1799 1438.41 56.8701L1390.87 8.84489L1233.13 8.84486L1188.83 -35.9059L1099.16 -35.906L1063.07 -72.3615L1016.61 -72.3615L982.689 -106.634L923.915 -106.634C923.483 -105.106 922.186 -104.015 920.457 -104.015C918.513 -104.015 917 -105.543 917 -107.507C917 -109.472 918.513 -111 920.457 -111C921.97 -111 923.483 -109.909 923.915 -108.38L983.554 -108.38L1017.69 -74.3262Z" fill="#1661BE"/>
<path d="M1290.56 19.5467L1377.52 19.5467L1419.92 61.4755C1421.21 60.8337 1422.95 60.8337 1424.03 62.1172C1425.32 63.4008 1425.32 65.7539 1424.03 67.0374C1422.73 68.3209 1420.35 68.3209 1419.05 67.0374C1417.97 65.9678 1417.75 64.2564 1418.4 62.9729L1376.65 21.4721L1291.21 21.4721L1265.25 47.3566L1213.12 47.3566L1174.62 9.27845L1077.92 9.27844C1077.49 10.7759 1076.19 11.8455 1074.46 11.8455C1072.51 11.8455 1071 10.3481 1071 8.42276C1071 6.49746 1072.51 5 1074.46 5C1075.98 5 1077.49 6.06963 1077.92 7.56709L1175.26 7.5671L1213.77 45.6452L1264.39 45.6452L1290.56 19.5467Z" fill="#1661BE"/>
<path d="M1038.14 -42.5242L1067.66 -12.8889L1186.84 -12.8889L1227.22 27.6419L1253.05 27.6419C1253.49 26.1166 1254.79 25.027 1256.53 25.027C1258.48 25.027 1260 26.5524 1260 28.5135C1260 30.4747 1258.48 32.0001 1256.53 32.0001C1255.01 32.0001 1253.49 30.9105 1253.05 29.3852L1226.35 29.3852L1186.19 -11.1456L1067.01 -11.1456L1037.49 -40.781L995.593 -40.781L974.101 -62.3538C972.799 -61.7001 971.062 -61.7001 969.977 -63.0075C968.674 -64.315 968.674 -66.712 969.977 -68.0194C971.279 -69.3269 973.667 -69.3269 974.97 -68.0194C976.055 -66.9299 976.272 -65.1866 975.621 -63.8792L996.678 -42.7422L1038.14 -42.7422L1038.14 -42.5242Z" fill="#1661BE"/>
<path d="M1062.92 30.6024L1147.19 30.6024L1196.68 80.2651L1271.23 80.2651L1291.76 59.6627L1347.3 59.6627C1347.73 58.1446 1349.03 57.0603 1350.54 57.0603C1352.49 57.0603 1354 58.5784 1354 60.5302C1354 62.482 1352.49 64 1350.54 64C1349.03 64 1347.52 62.9157 1347.3 61.3976L1292.63 61.3976L1272.1 82L1196.03 82L1146.55 32.3374L1062.92 32.3374C1062.48 33.8554 1061.19 34.9398 1059.46 34.9398C1057.51 34.9398 1056 33.4217 1056 31.4699C1056 29.5181 1057.51 28 1059.46 28C1061.19 28 1062.48 29.0843 1062.92 30.6024Z" fill="#1661BE"/>
<path d="M969.688 -27C971.206 -27 972.725 -25.9227 973.159 -24.4145L1007.22 -24.4145L1050.38 18.4614L1160.58 18.4614L1205.7 63.2764L1266.01 63.2764L1292.91 36.5598L1364.06 36.5598C1364.49 35.0516 1365.79 33.9743 1367.53 33.9743C1369.48 33.9743 1371 35.4825 1371 37.4216C1371 39.3607 1369.48 40.8689 1367.53 40.8689C1366.01 40.8689 1364.49 39.7916 1364.06 38.2834L1293.77 38.2834L1266.88 65.0001L1204.84 65L1159.71 20.185L1049.52 20.185L1006.35 -22.6909L972.942 -22.6909C972.508 -21.1827 971.206 -20.1054 969.471 -20.1054C967.519 -20.1054 966 -21.6136 966 -23.5527C966 -25.4918 967.735 -27 969.688 -27Z" fill="#1661BE"/>
<path d="M1737.89 157.292C1736.38 157.292 1734.86 156.187 1734.64 154.641L1655.87 154.641L1639.81 170.993L1517 170.993L1485.75 202.813L1426.3 202.813L1387.02 162.817L1300.66 162.817L1265.29 198.835L1227.1 198.835L1201.28 172.539L1163.74 172.539L1130.54 206.348L956.944 206.348C956.51 207.895 955.208 209 953.472 209C951.519 209 950 207.453 950 205.464C950 203.476 951.519 201.929 953.472 201.929C954.991 201.929 956.51 203.034 956.944 204.581L1129.89 204.581L1163.09 170.772L1202.14 170.772L1227.97 196.846L1264.42 196.846L1299.79 160.828L1387.67 160.828L1426.73 200.824L1484.67 200.824L1515.91 169.004L1638.73 169.004L1654.79 152.652L1734.21 152.652C1734.64 151.105 1735.94 150 1737.46 150C1739.41 150 1740.93 151.547 1740.93 153.536C1741.37 155.524 1739.63 157.292 1737.89 157.292Z" fill="#1661BE"/>
<path d="M1359.85 132.17L1343.81 132.17L1326.69 149.277L1261.45 149.277L1245.85 133.686L1210.52 133.686L1192.1 152.093L1135.1 152.092L1091.76 195.401L961.719 195.401C961.285 196.917 959.985 198 958.468 198C956.517 198 955 196.484 955 194.535C955 192.586 956.517 191.071 958.468 191.071C959.985 191.071 961.502 192.153 961.719 193.669L1091.11 193.669L1134.45 150.36L1191.45 150.36L1209.87 131.954L1246.72 131.954L1262.32 147.545L1326.04 147.545L1343.16 130.438L1360.72 130.438L1375.02 144.73L1462.8 144.73L1498.56 109L1562.49 109L1588.28 134.769L1645.06 134.769C1645.5 133.253 1646.8 132.17 1648.53 132.17C1650.48 132.17 1652 133.686 1652 135.635C1652 137.584 1650.48 139.1 1648.53 139.1C1647.02 139.1 1645.5 138.017 1645.06 136.501L1587.41 136.501L1561.62 110.732L1499.21 110.732L1463.45 146.462L1374.15 146.462L1359.85 132.17Z" fill="#1661BE"/>
<path d="M1424.77 174.405C1424.33 175.919 1423.02 177 1421.49 177C1419.53 177 1418 175.486 1418 173.541C1418 171.595 1419.53 170.081 1421.49 170.081C1423.02 170.081 1424.55 171.162 1424.77 172.676L1453.59 172.676L1497.69 129L1553.14 129L1571.48 147.162L1635.01 147.162C1635.45 145.649 1636.76 144.568 1638.51 144.568C1640.47 144.568 1642 146.081 1642 148.027C1642 149.973 1640.47 151.487 1638.51 151.487C1636.98 151.487 1635.45 150.405 1635.01 148.892L1570.61 148.892L1552.27 130.73L1498.34 130.73L1454.24 174.405L1424.77 174.405Z" fill="#1661BE"/>
<path d="M1018.75 69.6711L984.063 34.6369C982.771 35.2897 981.047 35.2897 979.97 33.9841C978.677 32.6785 978.677 30.2848 979.97 28.9792C981.262 27.6736 983.632 27.6736 984.925 28.9792C986.003 30.0672 986.218 31.8081 985.572 33.1137L1019.83 67.7127L1140.71 67.7128L1182.94 110.363C1184.23 109.493 1185.95 109.71 1187.03 111.016C1188.32 112.322 1188.32 114.715 1187.03 116.021C1185.74 117.326 1183.37 117.326 1182.07 116.021C1181 114.933 1180.78 113.192 1181.43 111.886L1139.63 69.6712L1018.75 69.6711Z" fill="#1661BE"/>
<path d="M920.121 155.074L957.048 155.074L974.208 138.037L1013.31 138.037L1033.07 157.662L1082.16 157.662L1116.48 123.588L1169.05 123.588C1169.48 122.078 1170.79 121 1172.52 121C1174.48 121 1176 122.51 1176 124.451C1176 126.391 1174.48 127.901 1172.52 127.901C1171 127.901 1169.48 126.823 1169.05 125.313L1117.13 125.313L1082.81 159.387L1032.2 159.387L1012.44 139.762L974.859 139.762L957.699 156.799L920.99 156.799L888.625 188.932C889.277 190.226 889.277 191.951 887.973 193.03C886.67 194.323 884.281 194.323 882.977 193.03C881.674 191.736 881.674 189.363 882.977 188.069C884.064 186.991 885.801 186.775 887.105 187.422L920.121 155.074Z" fill="#1661BE"/>
<path d="M1087.34 89.7483L1062.36 115L1032 115L1008.53 91.2721L974.503 91.2721L957.06 73.6394C955.768 74.2925 954.046 74.2925 952.969 72.9864C951.677 71.6802 951.677 69.2857 952.969 67.9796C954.261 66.6735 956.63 66.6735 957.922 67.9796C958.998 69.068 959.214 70.8095 958.568 72.1156L975.579 89.3129L1009.6 89.3129L1033.07 113.041L1061.93 113.041L1086.91 87.7891L1133.42 87.7891L1151.94 106.51C1153.23 105.64 1154.95 105.857 1156.03 107.163C1157.32 108.469 1157.32 110.864 1156.03 112.17C1154.74 113.476 1152.37 113.476 1151.08 112.17C1150 111.082 1149.79 109.34 1150.43 108.034L1132.34 89.7483L1087.34 89.7483Z" fill="#1661BE"/>
<path d="M1039.35 78.6659C1039.77 77.149 1041.06 76.0655 1042.57 76.0655C1044.5 76.0655 1046 77.5824 1046 79.5328C1046 81.4831 1044.5 83 1042.57 83C1041.06 83 1039.56 81.9165 1039.35 80.3996L988.47 80.3996L950.045 41.6095C948.757 42.4763 947.039 42.2596 945.966 40.9594C944.678 39.6591 944.678 37.2754 945.966 35.9752C947.254 34.6749 949.615 34.6749 950.903 35.9752C951.977 37.0587 952.191 38.7923 951.547 40.0925L989.543 78.4492L1039.35 78.4492L1039.35 78.6659Z" fill="#1661BE"/>
<path d="M960.858 107.34L997.844 107.34L1015.58 125.253L1087.6 125.253L1102.53 110.18L1131.08 110.18C1131.51 108.651 1132.81 107.559 1134.54 107.559C1136.49 107.559 1138 109.088 1138 111.054C1138 113.02 1136.49 114.549 1134.54 114.549C1133.03 114.549 1131.51 113.457 1131.08 111.928L1103.18 111.928L1088.25 127L1014.71 127L996.978 109.088L959.993 109.088L908.083 56.6624C906.785 57.3177 905.055 57.3177 903.973 56.0071C902.676 54.6965 902.676 52.2936 903.973 50.983C905.271 49.6723 907.65 49.6723 908.948 50.983C910.029 52.0752 910.246 53.8227 909.597 55.1334L960.858 107.34Z" fill="#1661BE"/>
<path d="M1098.08 124.986C1099.37 123.671 1101.74 123.671 1103.03 124.986C1104.32 126.301 1104.32 128.712 1103.03 130.027C1101.95 131.123 1100.23 131.342 1098.94 130.685L1084.51 145.37L1044.89 145.37C1044.46 146.904 1043.17 148 1041.45 148C1039.51 148 1038 146.466 1038 144.493C1038 142.521 1039.51 140.986 1041.45 140.986C1042.95 140.986 1044.46 142.082 1044.89 143.616L1083.44 143.616L1097.43 129.37C1096.79 127.836 1096.79 126.082 1098.08 124.986Z" fill="#1661BE"/>
<path d="M920.463 276.084C921.979 276.084 923.494 277.165 923.927 278.678L971.982 278.678L981.723 268.952L1038.65 268.952L1081.08 226.593L1123.07 226.593C1123.51 225.081 1124.8 224 1126.54 224C1128.48 224 1130 225.513 1130 227.458C1130 229.403 1128.48 230.916 1126.54 230.916C1125.02 230.916 1123.51 229.835 1123.07 228.322L1081.73 228.322L1039.3 270.681L982.372 270.681L972.631 280.407L923.927 280.407C923.494 281.919 922.195 283 920.463 283C918.515 283 917 281.487 917 279.542C917 277.813 918.515 276.084 920.463 276.084Z" fill="#1661BE"/>
<path d="M887.473 256.2C888.993 256.2 890.512 257.263 890.946 258.75L969.308 258.75L977.774 250.463L1024.88 250.463L1061.56 214.55L1111.05 214.55C1111.49 213.063 1112.79 212 1114.53 212C1116.48 212 1118 213.488 1118 215.4C1118 217.313 1116.48 218.8 1114.53 218.8C1113.01 218.8 1111.49 217.738 1111.05 216.25L1062.43 216.25L1025.75 252.163L978.642 252.163L970.176 260.45L890.946 260.45C890.512 261.938 889.21 263 887.473 263C885.519 263 884 261.513 884 259.6C884 257.688 885.519 256.2 887.473 256.2Z" fill="#1661BE"/>
<path d="M942.971 250.01C941.668 251.33 939.28 251.33 937.977 250.01C936.674 248.691 936.674 246.271 937.977 244.952C939.063 243.852 940.8 243.632 942.103 244.292L964.467 221.639L1020.05 221.639C1020.49 220.1 1021.79 219 1023.53 219C1025.48 219 1027 220.54 1027 222.519C1027 224.498 1025.48 226.038 1023.53 226.038C1022.01 226.038 1020.49 224.938 1020.05 223.399L965.118 223.399L943.405 245.392C944.274 246.931 944.057 248.691 942.971 250.01Z" fill="#1661BE"/>
<path d="M1699.34 132.538L1634 132.538L1633.79 132.755L1633.57 132.538L1480.39 132.538L1448.16 100.222L1348.2 100.222L1340.2 108.247C1341.28 109.982 1341.06 112.368 1339.33 114.103C1337.38 116.055 1334.35 116.055 1332.41 114.103C1330.46 112.151 1330.46 109.114 1332.41 107.379C1333.92 105.861 1336.3 105.644 1338.25 106.512L1347.12 97.6195L1445.56 97.6196L1427.39 79.4014C1425.66 80.4858 1423.28 80.2689 1421.54 78.5338C1419.6 76.5819 1419.6 73.5455 1421.54 71.8104C1423.49 69.8585 1426.52 69.8585 1428.25 71.8104C1429.77 73.3286 1429.98 75.7143 1429.12 77.6663L1481.47 130.152L1566.5 130.152L1543.57 107.162L1508.3 107.162C1507.65 109.114 1505.92 110.633 1503.76 110.633C1501.16 110.633 1499 108.464 1499 105.861C1499 103.258 1501.16 101.09 1503.76 101.09C1505.92 101.09 1507.87 102.608 1508.3 104.56L1544.65 104.56L1570.18 130.152L1631.19 130.152L1572.78 71.5936L1465.03 71.5936L1427.82 34.2897L1390.39 34.2896L1356.85 67.9065L1305.58 67.9065L1287.84 85.691L1219.25 85.6909C1218.6 87.6429 1216.87 89.1611 1214.71 89.1611C1212.11 89.1611 1209.95 86.9922 1209.95 84.3896C1209.95 81.787 1212.11 79.6182 1214.71 79.6182C1216.87 79.6182 1218.82 81.1364 1219.25 83.0883L1286.76 83.0883L1302.12 67.6897L1198.27 67.6896C1197.62 69.6416 1195.89 71.1597 1193.72 71.1597C1191.13 71.1597 1188.96 68.9909 1188.96 66.3883C1188.96 63.7857 1191.13 61.6169 1193.72 61.6169C1195.89 61.6169 1197.83 63.1351 1198.27 65.0871L1355.99 65.0871L1386.93 34.0728L1127.3 34.0727C1126.65 36.0247 1124.92 37.5428 1122.76 37.5428C1120.16 37.5428 1118 35.374 1118 32.7714C1118 30.1688 1120.16 28 1122.76 28C1124.92 28 1126.87 29.5182 1127.3 31.4702L1429.12 31.4702L1466.33 68.7741L1574.07 68.7741L1606.96 101.74L1640.71 101.74L1653.48 88.9443C1652.39 87.2092 1652.61 84.8235 1654.34 83.0884C1656.29 81.1364 1659.32 81.1364 1661.05 83.0884C1663 85.0403 1663 88.0767 1661.05 89.8118C1659.53 91.33 1657.15 91.5468 1655.21 90.6793L1641.79 104.126L1609.34 104.126L1634.87 129.718L1700.42 129.718L1745.64 175.047L1788.26 175.047L1802.11 188.927L1915.7 188.927C1916.35 186.975 1918.08 185.457 1920.24 185.457C1922.84 185.457 1925 187.626 1925 190.229C1925 192.831 1922.84 195 1920.24 195C1918.08 195 1916.13 193.482 1915.7 191.53L1801.03 191.53L1787.18 177.649L1744.56 177.649L1699.34 132.538Z" fill="#1661BE"/>
<path d="M1173.82 104.911L1153.03 84.0281L1032.6 84.0281C1031.95 85.9656 1030.22 87.4727 1028.05 87.4727C1025.45 87.4727 1023.28 85.3198 1023.28 82.7363C1023.28 80.1529 1025.45 78 1028.05 78C1030.22 78 1032.17 79.507 1032.6 81.4446L1154.11 81.4446L1177.51 104.696L1177.29 104.911L1286.02 104.911L1330.43 149.045L1389.78 149.045L1411.44 127.516C1410.36 125.794 1410.57 123.426 1412.3 121.703C1414.25 119.766 1417.29 119.766 1419.02 121.703C1420.97 123.641 1420.97 126.655 1419.02 128.377C1417.5 129.884 1415.12 130.099 1413.17 129.238L1390.86 151.413L1333.03 151.413L1368.98 187.15L1586.89 187.15L1644.29 244.417L1771 244.417L1771 247L1643.2 247L1585.8 189.949L1487.68 189.949L1463.64 213.846L1336.28 213.846L1257 135.051L1228.84 135.051L1200.25 163.469L1016.14 163.469L991.011 188.442C992.094 190.164 991.877 192.532 990.144 194.255C988.195 196.192 985.162 196.192 983.429 194.255C981.48 192.317 981.48 189.303 983.429 187.581C984.946 186.074 987.328 185.859 989.278 186.72L1015.05 161.101L1199.17 161.101L1225.38 135.051L1147.18 135.051C1146.53 136.989 1144.8 138.496 1142.63 138.496C1140.03 138.496 1137.87 136.343 1137.87 133.759C1137.87 131.176 1140.03 129.023 1142.63 129.023C1144.8 129.023 1146.75 130.53 1147.18 132.468L1258.3 132.468L1337.58 211.262L1462.77 211.263L1484.22 189.949L1367.9 189.949L1284.94 107.494L979.314 107.494C978.664 109.432 976.931 110.939 974.765 110.939C972.166 110.939 970 108.786 970 106.203C970 103.619 972.166 101.466 974.765 101.466C976.931 101.466 978.881 102.973 979.314 104.911L1173.82 104.911Z" fill="#1661BE"/>
<path d="M1933.7 153.244C1932.18 154.756 1929.8 154.972 1927.84 154.108L1904.86 177L1854.33 177L1828.31 151.084L1779.74 151.084L1736.37 107.892L1698.85 107.892C1698.2 109.835 1696.47 111.347 1694.3 111.347C1691.69 111.347 1689.53 109.187 1689.53 106.596C1689.53 104.004 1691.69 101.845 1694.3 101.845C1696.47 101.845 1698.42 103.356 1698.85 105.3L1737.45 105.3L1780.82 148.493L1825.71 148.493L1755.45 78.7363L1683.45 78.7363L1653.1 48.5013L1544.02 48.5013L1521.25 26.041L1458.8 26.041L1450.77 18.0503C1449.04 19.1301 1446.65 18.9141 1444.92 17.1864C1442.97 15.2428 1442.97 12.2192 1444.92 10.4915C1446.87 8.54784 1449.91 8.54784 1451.64 10.4915C1453.16 12.0033 1453.38 14.3789 1452.51 16.3226L1459.67 23.4494L1492.84 23.4494L1448.61 -20.6073L1417.16 -20.6073L1390.06 6.60415L1336.06 6.60414C1335.41 8.54782 1333.68 10.0596 1331.51 10.0596C1328.91 10.0596 1326.74 7.89995 1326.74 5.30836C1326.74 2.7168 1328.91 0.557129 1331.51 0.557129C1333.68 0.557129 1335.63 2.06889 1336.06 4.01257L1388.97 4.01258L1413.69 -20.6073L1329.12 -20.6074L1301.15 7.25202L1099.26 7.25199L1084.08 22.3695C1085.17 24.0972 1084.95 26.4728 1083.21 28.2005C1081.26 30.1442 1078.23 30.1442 1076.49 28.2005C1074.54 26.2569 1074.54 23.2334 1076.49 21.5057C1078.01 19.9939 1080.4 19.7779 1082.35 20.6418L1098.39 4.66044L1252.36 4.66046L1210.07 -37.4526L1020.98 -37.4526L989.319 -68.9835C987.584 -67.9036 985.199 -68.1196 983.464 -69.8473C981.512 -71.791 981.512 -74.8145 983.464 -76.5422C985.415 -78.4859 988.451 -78.4859 990.186 -76.5422C991.704 -75.0305 991.921 -72.6549 991.054 -70.7112L1022.06 -39.8283L1211.16 -39.8282L1255.83 4.66046L1300.28 4.66047L1328.25 -23.199L1449.91 -23.1989L1496.53 23.2334L1522.12 23.2334L1544.89 45.9097L1650.28 45.9097L1606.47 2.2849L1510.41 2.28488C1509.76 4.22856 1508.02 5.74033 1505.85 5.74033C1503.25 5.74033 1501.08 3.58069 1501.08 0.989104C1501.08 -1.60246 1503.25 -3.76213 1505.85 -3.76213C1508.02 -3.76213 1509.97 -2.25037 1510.41 -0.306686L1607.56 -0.306669L1684.32 76.1447L1756.32 76.1447L1855.2 174.409L1903.77 174.409L1926.11 152.164C1925.02 150.437 1925.24 148.061 1926.98 146.333C1928.93 144.39 1931.96 144.39 1933.7 146.333C1935.43 148.493 1935.43 151.516 1933.7 153.244Z" fill="#1661BE"/>
<path d="M1015 36C1018.31 36 1021 38.6863 1021 42C1021 45.3137 1018.31 48 1015 48C1011.69 48 1009 45.3137 1009 42C1009 38.6863 1011.69 36 1015 36Z" fill="#1661BE"/>
<path d="M970 87.5C970 86.0714 968.714 85 967 85C965.286 85 964 86.0714 964 87.5C964 88.9286 965.286 90 967 90C968.5 90 970 88.9286 970 87.5Z" fill="#1661BE"/>
<path d="M982 118.5C982 117.6 981.6 117 981 117C980.4 117 980 117.6 980 118.5C980 119.4 980.4 120 981 120C981.6 119.7 982 119.1 982 118.5Z" fill="#1661BE"/>
<path d="M985 144.5C985 144.2 984.4 144 983.5 144C982.6 144 982 144.2 982 144.5C982 144.8 982.6 145 983.5 145C984.4 145 985 144.8 985 144.5Z" fill="#1661BE"/>
<path d="M1030 162C1033.31 162 1036 164.015 1036 166.5C1036 168.985 1033.31 171 1030 171C1026.69 171 1024 168.985 1024 166.5C1024 164.015 1026.69 162 1030 162Z" fill="#1661BE"/>
<path d="M1063 192C1064.1 192 1065 193.119 1065 194.5C1065 195.881 1064.1 197 1063 197C1061.9 197 1061 195.881 1061 194.5C1061 193.119 1061.9 192 1063 192Z" fill="#1661BE"/>
<path d="M1089 107C1089 105.8 1088.25 105 1087.5 105C1086.6 105 1086 106 1086 107C1086 108.2 1086.75 109 1087.5 109C1088.4 109 1089 108 1089 107Z" fill="#1661BE"/>
<path d="M1116 86.4873C1116 85.661 1115.33 85 1114.5 85C1113.67 85 1113 85.661 1113 86.4873C1113 87.3136 1113.67 87.9747 1114.5 87.9747C1115.33 88.14 1116 87.4789 1116 86.4873Z" fill="#1661BE"/>
<path d="M1156 63.5C1156 61.5312 1154.47 60 1152.5 60C1150.53 60 1149 61.5312 1149 63.5C1149 65.4687 1150.53 67 1152.5 67C1154.47 66.7813 1156 65.25 1156 63.5Z" fill="#1661BE"/>
<path d="M1247.5 72C1250.54 72 1253 74.4624 1253 77.5C1253 80.5376 1250.54 83 1247.5 83C1244.46 83 1242 80.5376 1242 77.5C1242 74.4624 1244.46 72 1247.5 72Z" fill="#1661BE"/>
<path d="M1223 57.5C1223 56.25 1221.96 55 1220.5 55C1219.25 55 1218 56.0417 1218 57.5C1218 58.75 1219.04 60 1220.5 60C1221.96 60 1223 58.9583 1223 57.5Z" fill="#1661BE"/>
<path d="M1232 54C1232 51.7391 1229.39 50 1226 50C1222.61 50 1220 51.7391 1220 54C1220 56.2609 1222.61 58 1226 58C1229.39 57.8261 1232 56.0869 1232 54Z" fill="#1661BE"/>
<path d="M1213 6.99998C1213 4.77776 1211.22 3 1209 3C1206.78 3 1205 4.77776 1205 6.99998C1205 9.22221 1206.78 11 1209 11C1211.22 11 1213 9.22221 1213 6.99998Z" fill="#1661BE"/>
<path d="M1198 2.48808C1198 0.494884 1196.71 -0.999999 1195 -0.999999C1193.29 -0.999999 1192 0.494883 1192 2.48808C1192 4.48128 1193.29 5.9762 1195 5.9762C1196.71 6.22535 1198 4.48128 1198 2.48808Z" fill="#1661BE"/>
<path d="M1034 0.500001C1034 -0.84615 1032.38 -2 1030.5 -2C1028.62 -2 1027 -0.846151 1027 0.5C1027 1.84615 1028.62 3 1030.5 3C1032.38 2.80769 1034 1.84615 1034 0.500001Z" fill="#1661BE"/>
<path d="M1023 37C1025.21 37 1027 38.7909 1027 41C1027 43.2092 1025.21 45 1023 45C1020.79 45 1019 43.2092 1019 41C1019 38.7909 1020.79 37 1023 37Z" fill="#1661BE"/>
<path d="M955 80C956.657 80 958 81.1193 958 82.5C958 83.8807 956.657 85 955 85C953.343 85 952 83.8807 952 82.5C952 81.1193 953.343 80 955 80Z" fill="#1661BE"/>
<path d="M989 108.5C989 105.521 986.708 103 984 103C981.292 103 979 105.521 979 108.5C979 111.479 981.292 114 984 114C986.917 114 989 111.479 989 108.5Z" fill="#1661BE"/>
<path d="M950 121.5C950 119.556 948.222 118 946 118C943.778 118 942 119.556 942 121.5C942 123.444 943.778 125 946 125C948.222 125 950 123.444 950 121.5Z" fill="#1661BE"/>
<path d="M969 192.5C969 191.643 968.357 191 967.5 191C966.643 191 966 191.643 966 192.5C966 193.357 966.643 194 967.5 194C968.357 194 969 193.357 969 192.5Z" fill="#1661BE"/>
<path d="M949.5 206C952.538 206 955 208.462 955 211.5C955 214.538 952.538 217 949.5 217C946.462 217 944 214.538 944 211.5C944 208.462 946.462 206 949.5 206Z" fill="#1661BE"/>
<path d="M910 235C910 232.882 908.559 231 906.5 231C904.647 231 903 232.647 903 235C903 237.118 904.441 239 906.5 239C908.559 239 910 237.118 910 235Z" fill="#1661BE"/>
<path d="M875 158C875 155.75 873.687 154 872 154C870.312 154 869 155.75 869 158C869 160.25 870.312 162 872 162C873.5 162 875 160.25 875 158Z" fill="#1661BE"/>
<path d="M820 120.5C820 116.914 817.31 114 814 114C810.69 114 808 116.914 808 120.5C808 124.086 810.69 127 814 127C817.31 127 820 124.086 820 120.5Z" fill="#1661BE"/>
<path d="M830.5 102C831.881 102 833 103.119 833 104.5C833 105.881 831.881 107 830.5 107C829.119 107 828 105.881 828 104.5C828 103.119 829.119 102 830.5 102Z" fill="#1661BE"/>
<path d="M865 53C865 50.2222 862.556 48 859.5 48C856.444 48 854 50.2222 854 53C854 55.7778 856.444 58 859.5 58C862.556 58 865 55.7778 865 53Z" fill="#1661BE"/>
<path d="M888 6.99998C888 4.74998 886.469 3 884.5 3C882.531 3 881 4.74998 881 6.99998C881 9.24998 882.531 11 884.5 11C886.469 10.75 888 8.99998 888 6.99998Z" fill="#1661BE"/>
<path d="M1079 21.5C1079 19.5312 1077.47 18 1075.5 18C1073.53 18 1072 19.5312 1072 21.5C1072 23.4687 1073.53 25 1075.5 25C1077.25 25 1079 23.4687 1079 21.5Z" fill="#1661BE"/>
<path d="M1161 33C1162.66 33 1164 34.567 1164 36.5C1164 38.433 1162.66 40 1161 40C1159.34 40 1158 38.433 1158 36.5C1158 34.567 1159.34 33 1161 33Z" fill="#1661BE"/>
<path d="M1226 23.5C1226 20.42 1223.58 18 1220.5 18C1217.42 18 1215 20.42 1215 23.5C1215 26.58 1217.42 29 1220.5 29C1223.58 29 1226 26.58 1226 23.5Z" fill="#1661BE"/>
<path d="M1279.5 17C1280.88 17 1282 18.1193 1282 19.5C1282 20.8807 1280.88 22 1279.5 22C1278.12 22 1277 20.8807 1277 19.5C1277 18.1193 1278.12 17 1279.5 17Z" fill="#1661BE"/>
<path d="M1307 38C1307 36.8 1305.75 36 1304.5 36C1303 36 1302 37 1302 38C1302 39.2 1303.25 40 1304.5 40C1305.75 40 1307 39 1307 38Z" fill="#1661BE"/>
<path d="M1332 60C1332 58.25 1330.75 57 1329 57C1327.5 57 1326 58.25 1326 60C1326 61.5 1327.25 63 1329 63C1330.75 63 1332 61.75 1332 60Z" fill="#1661BE"/>
<path d="M1368.5 38C1369.88 38 1371 39.1193 1371 40.5C1371 41.8807 1369.88 43 1368.5 43C1367.12 43 1366 41.8807 1366 40.5C1366 39.1193 1367.12 38 1368.5 38Z" fill="#1661BE"/>
<path d="M1368 85C1372.42 85 1376 88.3579 1376 92.5C1376 96.6421 1372.42 100 1368 100C1363.58 100 1360 96.6421 1360 92.5C1360 88.3579 1363.58 85 1368 85Z" fill="#1661BE"/>
<path d="M1391 87.5C1391 85 1389.44 83 1387.5 83C1385.56 83 1384 85 1384 87.5C1384 90 1385.56 92 1387.5 92C1389.44 92 1391 90 1391 87.5Z" fill="#1661BE"/>
<path d="M1416.5 172C1419.54 172 1422 174.686 1422 178C1422 181.314 1419.54 184 1416.5 184C1413.46 184 1411 181.314 1411 178C1411 174.686 1413.46 172 1416.5 172Z" fill="#1661BE"/>
<path d="M1391 87C1391 84.2727 1388.95 82 1386.5 82C1384.05 82 1382 84.2727 1382 87C1382 89.7273 1384.05 92 1386.5 92C1388.95 92 1391 89.7273 1391 87Z" fill="#1661BE"/>
<path d="M1342 139C1342 137.312 1340.69 136 1339 136C1337.31 136 1336 137.312 1336 139C1336 140.688 1337.31 142 1339 142C1340.69 141.813 1342 140.5 1342 139Z" fill="#1661BE"/>
<path d="M1304.5 50C1305.33 50 1306 51.1193 1306 52.5C1306 53.8807 1305.33 55 1304.5 55C1303.67 55 1303 53.8807 1303 52.5C1303 51.1193 1303.67 50 1304.5 50Z" fill="#1661BE"/>
<path d="M1319 134C1319 132.909 1318.09 132 1317 132C1315.91 132 1315 132.909 1315 134C1315 135.091 1315.91 136 1317 136C1318.09 136 1319 135.091 1319 134Z" fill="#1661BE"/>
<path d="M1241 99C1243.21 99 1245 100.791 1245 103C1245 105.209 1243.21 107 1241 107C1238.79 107 1237 105.209 1237 103C1237 100.791 1238.79 99 1241 99Z" fill="#1661BE"/>
<path d="M1232 209C1233.66 209 1235 210.791 1235 213C1235 215.209 1233.66 217 1232 217C1230.34 217 1229 215.209 1229 213C1229 210.791 1230.34 209 1232 209Z" fill="#1661BE"/>
<path d="M1185 177.5C1185 172.778 1181.89 169 1178 169C1174.11 169 1171 172.778 1171 177.5C1171 182.222 1174.11 186 1178 186C1181.89 186 1185 182.222 1185 177.5Z" fill="#1661BE"/>
<path d="M1157 113.99C1157 111.643 1155.12 110 1153 110C1150.65 110 1149 111.878 1149 113.99C1149 116.337 1150.88 117.98 1153 117.98C1155.12 118.215 1157 116.337 1157 113.99Z" fill="#1661BE"/>
<path d="M1080.5 182C1082.43 182 1084 183.567 1084 185.5C1084 187.433 1082.43 189 1080.5 189C1078.57 189 1077 187.433 1077 185.5C1077 183.567 1078.57 182 1080.5 182Z" fill="#1661BE"/>
<path d="M1054 145.981C1054 144.743 1053.25 144 1052.5 144C1051.56 144 1051 144.99 1051 145.981C1051 147.219 1051.75 147.962 1052.5 147.962C1053.25 148.209 1054 147.219 1054 145.981Z" fill="#1661BE"/>
<path d="M1026 141C1028.76 141 1031 143.462 1031 146.5C1031 149.538 1028.76 152 1026 152C1023.24 152 1021 149.538 1021 146.5C1021 143.462 1023.24 141 1026 141Z" fill="#1661BE"/>
<path d="M1024 157.5C1024 156.154 1022.38 155 1020.5 155C1018.62 155 1017 156.154 1017 157.5C1017 158.846 1018.62 160 1020.5 160C1022.38 160 1024 158.846 1024 157.5Z" fill="#1661BE"/>
<path d="M945.5 141C947.433 141 949 142.567 949 144.5C949 146.433 947.433 148 945.5 148C943.567 148 942 146.433 942 144.5C942 142.567 943.567 141 945.5 141Z" fill="#1661BE"/>
<path d="M942 170.5C942 169.643 941.357 169 940.5 169C939.643 169 939 169.643 939 170.5C939 171.357 939.643 172 940.5 172C941.143 172 942 171.357 942 170.5Z" fill="#1661BE"/>
<path d="M985.5 133C987.433 133 989 134.791 989 137C989 139.209 987.433 141 985.5 141C983.567 141 982 139.209 982 137C982 134.791 983.567 133 985.5 133Z" fill="#1661BE"/>
<path d="M1036 129.5C1036 127.045 1033.73 125 1031 125C1028.27 125 1026 127.045 1026 129.5C1026 131.955 1028.27 134 1031 134C1033.73 134 1036 132.159 1036 129.5Z" fill="#1661BE"/>
<path d="M967 51.9894C967 49.7454 965.687 48 964 48C962.313 48 961 49.7454 961 51.9894C961 54.2335 962.313 55.9789 964 55.9789C965.687 56.2282 967 54.2335 967 51.9894Z" fill="#1661BE"/>
<path d="M1019 14C1019 10.6667 1016.78 8 1014 8C1011.22 8 1009 10.6667 1009 14C1009 17.3333 1011.22 20 1014 20C1016.78 20 1019 17.3333 1019 14Z" fill="#1661BE"/>
<path d="M1245 25C1246.66 25 1248 25.8954 1248 27C1248 28.1046 1246.66 29 1245 29C1243.34 29 1242 28.1046 1242 27C1242 25.8954 1243.34 25 1245 25Z" fill="#1661BE"/>
<path d="M1305 12.9831C1305 11.8814 1303.89 11 1302.5 11C1301.11 11 1300 11.8814 1300 12.9831C1300 14.0849 1301.11 14.9663 1302.5 14.9663C1303.89 15.1866 1305 14.3052 1305 12.9831Z" fill="#1661BE"/>
<path d="M1369 29.5C1369 25.3088 1365.69 22 1361.5 22C1357.31 22 1354 25.3088 1354 29.5C1354 33.6912 1357.31 37 1361.5 37C1365.69 37 1369 33.6912 1369 29.5Z" fill="#1661BE"/>
<path d="M1369.5 58C1373.64 58 1377 61.134 1377 65C1377 68.866 1373.64 72 1369.5 72C1365.36 72 1362 68.866 1362 65C1362 61.134 1365.36 58 1369.5 58Z" fill="#1661BE"/>
<path d="M1428 72.5C1428 69.8948 1425.63 68 1423 68C1420.11 68 1418 70.1316 1418 72.5C1418 75.1053 1420.37 77 1423 77C1425.63 77 1428 75.1053 1428 72.5Z" fill="#1661BE"/>
<path d="M1407 67C1407 64.6471 1405.59 63 1404 63C1402.24 63 1401 64.8823 1401 67C1401 69.3529 1402.41 71 1404 71C1405.76 71 1407 69.1177 1407 67Z" fill="#1661BE"/>
<path d="M1345 104.988C1345 103.904 1344.09 103 1343 103C1341.91 103 1341 103.904 1341 104.988C1341 106.073 1341.91 106.977 1343 106.977C1343.91 107.158 1345 106.254 1345 104.988Z" fill="#1661BE"/>
<path d="M1336 40C1336 38.25 1334.75 37 1333 37C1331.25 37 1330 38.25 1330 40C1330 41.75 1331.25 43 1333 43C1334.5 43 1336 41.75 1336 40Z" fill="#1661BE"/>
<path d="M1292.5 28C1293.88 28 1295 29.567 1295 31.5C1295 33.433 1293.88 35 1292.5 35C1291.12 35 1290 33.433 1290 31.5C1290 29.567 1291.12 28 1292.5 28Z" fill="#1661BE"/>
<path d="M1231 25C1234.31 25 1237 27.6863 1237 31C1237 34.3137 1234.31 37 1231 37C1227.69 37 1225 34.3137 1225 31C1225 27.6863 1227.69 25 1231 25Z" fill="#1661BE"/>
<path d="M1271.5 67C1273.43 67 1275 68.1193 1275 69.5C1275 70.8807 1273.43 72 1271.5 72C1269.57 72 1268 70.8807 1268 69.5C1268 68.1193 1269.57 67 1271.5 67Z" fill="#1661BE"/>
<path d="M1218 65.5C1218 61.4286 1214.57 58 1210.5 58C1206.43 58 1203 61.4286 1203 65.5C1203 69.5714 1206.43 73 1210.5 73C1214.57 73 1218 69.5714 1218 65.5Z" fill="#1661BE"/>
<path d="M1173 67.9934C1173 65.2886 1170.94 63 1168.5 63C1166.06 63 1164 65.2886 1164 67.9934C1164 70.6982 1166.06 72.9869 1168.5 72.9869C1170.94 73.1949 1173 70.9062 1173 67.9934Z" fill="#1661BE"/>
<path d="M1178 9.5C1178 7.04545 1176.18 5 1174 5C1171.82 5 1170 7.04545 1170 9.5C1170 11.9545 1171.82 14 1174 14C1176.18 14 1178 11.9546 1178 9.5Z" fill="#1661BE"/>
<path d="M1128 0.500001C1128 -0.84615 1126.85 -2 1125.5 -2C1124.15 -2 1123 -0.846151 1123 0.5C1123 1.84615 1124.15 3 1125.5 3C1126.85 3 1128 1.84615 1128 0.500001Z" fill="#1661BE"/>
<path d="M1113 3C1114.66 3 1116 4.567 1116 6.5C1116 8.433 1114.66 10 1113 10C1111.34 10 1110 8.433 1110 6.5C1110 4.567 1111.34 3 1113 3Z" fill="#1661BE"/>
<path d="M1110 38.5C1110 37.0417 1108.75 36 1107 36C1105.25 36 1104 37.0417 1104 38.5C1104 39.9583 1105.25 41 1107 41C1108.5 41 1110 39.9583 1110 38.5Z" fill="#1661BE"/>
<path d="M1068 24C1068 22.9091 1067.09 22 1066 22C1064.91 22 1064 22.9091 1064 24C1064 25.0909 1064.91 26 1066 26C1067.09 26 1068 25.0909 1068 24Z" fill="#1661BE"/>
<path d="M1048 60C1051.31 60 1054 62.4624 1054 65.5C1054 68.5376 1051.31 71 1048 71C1044.69 71 1042 68.5376 1042 65.5C1042 62.4624 1044.69 60 1048 60Z" fill="#1661BE"/>
<path d="M1069 71C1069 68.8 1067.2 67 1065 67C1062.8 67 1061 68.8 1061 71C1061 73.2 1062.8 75 1065 75C1067.2 75 1069 73.2 1069 71Z" fill="#1661BE"/>
<path d="M1093 87.5C1093 86 1091.75 85 1090.5 85C1089 85 1088 86.25 1088 87.5C1088 89 1089.25 90 1090.5 90C1091.75 90 1093 89 1093 87.5Z" fill="#1661BE"/>
<path d="M1143 124C1143 120.786 1140.21 118 1136.5 118C1133.02 118 1130 120.571 1130 124C1130 127.214 1132.79 130 1136.5 130C1140.21 130 1143 127.214 1143 124Z" fill="#1661BE"/>
<path d="M1189.5 105C1190.88 105 1192 106.119 1192 107.5C1192 108.881 1190.88 110 1189.5 110C1188.12 110 1187 108.881 1187 107.5C1187 106.119 1188.12 105 1189.5 105Z" fill="#1661BE"/>
<path d="M1248 110C1248 106.062 1244.72 103 1240.5 103C1236.28 103 1233 106.062 1233 110C1233 113.937 1236.28 117 1240.5 117C1244.48 117 1248 113.937 1248 110Z" fill="#1661BE"/>
<path d="M1287 94.5C1287 93.1539 1285.85 92 1284.5 92C1283.15 92 1282 93.1539 1282 94.5C1282 95.8462 1283.15 97 1284.5 97C1285.85 97 1287 95.8462 1287 94.5Z" fill="#1661BE"/>
<path d="M1285 165.5C1285 160.803 1281.42 157 1277 157C1272.58 157 1269 160.803 1269 165.5C1269 170.197 1272.58 174 1277 174C1281.42 174 1285 170.197 1285 165.5Z" fill="#1661BE"/>
<path d="M1210 179C1212.21 179 1214 180.567 1214 182.5C1214 184.433 1212.21 186 1210 186C1207.79 186 1206 184.433 1206 182.5C1206 180.567 1207.79 179 1210 179Z" fill="#1661BE"/>
<path d="M1195 175C1195 172.895 1193.32 171 1191 171C1188.89 171 1187 172.684 1187 175C1187 177.105 1188.68 179 1191 179C1193.32 179 1195 177.105 1195 175Z" fill="#1661BE"/>
<path d="M1200 99.5C1200 98.0417 1198.96 97 1197.5 97C1196.04 97 1195 98.0417 1195 99.5C1195 100.958 1196.04 102 1197.5 102C1198.75 102 1200 100.958 1200 99.5Z" fill="#1661BE"/>
<path d="M1131 100.5C1131 99.6 1130.4 99 1129.5 99C1128.6 99 1128 99.6 1128 100.5C1128 101.4 1128.6 102 1129.5 102C1130.4 102 1131 101.4 1131 100.5Z" fill="#1661BE"/>
<path d="M1121 218C1121 214.69 1118.53 212 1115.5 212C1112.47 212 1110 214.69 1110 218C1110 221.31 1112.47 224 1115.5 224C1118.53 224 1121 221.31 1121 218Z" fill="#1661BE"/>
<path d="M1089 196.5C1089 195.154 1087.85 194 1086.5 194C1085.15 194 1084 195.154 1084 196.5C1084 197.846 1085.15 199 1086.5 199C1087.85 199 1089 197.846 1089 196.5Z" fill="#1661BE"/>
<path d="M1049 237.476C1049 236.492 1048.25 236 1047.5 236C1046.5 236 1046 236.738 1046 237.476C1046 238.46 1046.75 238.952 1047.5 238.952C1048.25 239.198 1049 238.46 1049 237.476Z" fill="#1661BE"/>
</g>
</g>
<defs>
<clipPath id="clip0_967_4274">
<rect width="1429" height="780" fill="white"/>
</clipPath>
</defs>
</svg>
