<svg width="555" height="437" viewBox="0 0 555 437" fill="none" xmlns="http://www.w3.org/2000/svg">
<g style="mix-blend-mode:darken" opacity="0.11">
<path d="M1043.53 166.25C1042.02 166.25 1040.5 165.173 1040.28 163.666L996.108 163.666L978.134 181.54L823.948 181.54L794.28 152.468L742.307 152.468L706.576 188L646.158 188L593.319 135.455L457.106 135.455L418.56 97.1232L403.185 97.1232L376.765 70.8507L328.69 70.8507L271.087 13.5681C269.788 14.2141 268.055 14.2141 266.973 12.922C265.673 11.63 265.673 9.26115 266.973 7.96907C268.272 6.67699 270.654 6.67699 271.953 7.96907C273.036 9.04581 273.253 10.7686 272.603 12.0607L329.773 68.9125L377.631 68.9125L404.051 95.185L419.426 95.185L457.756 133.302L593.968 133.302L646.807 185.847L705.71 185.847L741.441 150.314L795.146 150.314L824.598 179.601L977.268 179.602L995.242 161.728L1040.28 161.728C1040.72 160.22 1042.02 159.143 1043.53 159.143C1045.48 159.143 1047 160.651 1047 162.589C1047 164.742 1045.48 166.25 1043.53 166.25Z" fill="#1661BE"/>
<path d="M1050.53 337.565C1049.02 337.565 1047.5 336.49 1047.07 334.985L975.829 334.985L960.888 320.15L860.632 320.15L841.144 339.5L795.888 339.5L787.877 331.545L718.152 331.545L680.908 368.524L608.802 368.524L576.539 336.49L511.145 336.49L469.137 378.199L426.48 378.199L392.917 344.874L368.882 344.874L319.079 394.323L290.496 394.323L252.602 431.948C253.469 433.238 253.252 434.958 251.953 436.033C250.654 437.322 248.272 437.322 246.972 436.033C245.673 434.743 245.673 432.378 246.972 431.088C248.055 430.013 249.787 429.798 251.087 430.443L289.63 392.173L318.212 392.173L368.015 342.724L393.567 342.725L427.13 376.049L468.271 376.049L510.279 334.34L577.188 334.34L609.452 366.374L680.042 366.374L717.07 329.395L788.31 329.395L796.321 337.35L840.495 337.35L859.983 318L961.754 318L976.695 332.835L1047.07 332.835C1047.5 331.33 1048.8 330.255 1050.53 330.255C1052.48 330.255 1054 331.76 1054 333.695C1054 336.06 1052.27 337.565 1050.53 337.565Z" fill="#1661BE"/>
<path d="M1039.69 236.344C1038.17 236.344 1036.66 235.264 1036.23 233.752L899.324 233.752L858.448 274.577L803.514 274.577L771.721 242.824L691.916 242.824L656.663 278.033L598.268 278.033L584.859 264.641L533.818 264.641L512.839 285.594L471.531 285.594L449.038 263.129L405.567 263.129L375.288 293.37L320.138 293.37L280.776 332.683L143.873 332.683L113.594 362.924C114.243 364.22 114.243 365.948 112.946 367.028C111.648 368.324 109.269 368.324 107.971 367.028C106.674 365.732 106.674 363.356 107.971 362.06C109.053 360.98 110.783 360.764 112.081 361.412L143.008 330.523L279.91 330.523L319.273 291.21L374.207 291.21L404.485 260.969L449.471 260.969L471.963 283.434L511.758 283.434L532.737 262.481L585.292 262.481L598.701 275.873L655.581 275.873L690.834 240.664L772.154 240.664L803.946 272.417L857.367 272.417L898.243 231.592L1036.01 231.592C1036.44 230.08 1037.74 229 1039.47 229C1041.42 229 1042.93 230.512 1042.93 232.456C1043.36 234.616 1041.63 236.344 1039.69 236.344Z" fill="#1661BE"/>
<path d="M977.226 200.807L997.996 179.91L1036.07 179.91C1036.51 178.387 1037.81 177.298 1039.54 177.298C1041.48 177.298 1043 178.822 1043 180.781C1043 182.74 1041.48 184.264 1039.54 184.264C1038.02 184.264 1036.51 183.175 1036.07 181.652L998.862 181.652L978.092 202.548L892.848 202.548L848.712 246.953L813.663 246.953L785.753 218.873L682.336 218.873L651.397 250L605.53 250L580.649 225.403L503.411 225.403L480.261 248.259L385.714 248.259L330.76 192.971L221.285 192.971L200.082 171.639C198.784 172.292 197.053 172.292 195.972 170.986C194.674 169.68 194.674 167.286 195.972 165.98C197.27 164.674 199.65 164.674 200.948 165.98C202.03 167.068 202.246 168.809 201.597 170.115L222.367 191.012L331.842 191.012L386.796 246.3L479.828 246.3L502.762 223.227L581.731 223.227L606.612 248.259L650.964 248.259L681.903 217.132L786.835 217.132L814.745 245.211L848.063 245.211L892.199 200.807L977.226 200.807Z" fill="#1661BE"/>
<path d="M862.043 199.728C863.343 198.432 865.725 198.432 867.024 199.728C868.323 201.025 868.323 203.401 867.024 204.698C865.941 205.778 864.209 205.994 862.91 205.346L839.092 229.111L816.14 229.111L788.424 201.457L685.574 201.457L653.961 233L612.604 233L581.857 202.321L498.927 202.321C498.494 203.833 497.195 204.914 495.462 204.914C493.514 204.914 491.998 203.401 491.998 201.457C491.998 199.512 493.514 198 495.462 198C496.978 198 498.494 199.08 498.927 200.593L582.507 200.593L613.253 231.272L653.094 231.272L684.708 199.728L789.074 199.728L816.789 227.383L838.225 227.383L861.611 204.049C860.744 202.537 860.961 200.809 862.043 199.728Z" fill="#1661BE"/>
<path d="M210.693 76.6738L257.151 76.6738L293.237 113.129L382.912 113.129L427.209 157.88L584.95 157.88L632.92 206.342C634.217 205.687 635.945 205.687 637.026 206.997C638.322 208.307 638.322 210.708 637.026 212.018C635.729 213.327 633.352 213.327 632.056 212.018C630.975 210.926 630.759 209.18 631.408 207.87L583.869 159.845L426.128 159.845L381.831 115.094L292.156 115.094L256.071 78.6385L209.613 78.6385L175.687 44.3659L116.913 44.3659C116.481 45.894 115.184 46.9855 113.455 46.9855C111.511 46.9855 109.998 45.4574 109.998 43.4928C109.998 41.5281 111.511 40 113.455 40C114.968 40 116.481 41.0915 116.913 42.6196L176.552 42.6196L210.693 76.6738Z" fill="#1661BE"/>
<path d="M483.558 170.547L570.517 170.547L612.915 212.475C614.213 211.834 615.943 211.834 617.025 213.117C618.323 214.401 618.323 216.754 617.025 218.037C615.727 219.321 613.347 219.321 612.049 218.037C610.968 216.968 610.752 215.256 611.4 213.973L569.652 172.472L484.207 172.472L458.249 198.357L406.117 198.357L367.613 160.278L270.92 160.278C270.488 161.776 269.19 162.846 267.459 162.846C265.512 162.846 263.998 161.348 263.998 159.423C263.998 157.497 265.512 156 267.459 156C268.973 156 270.488 157.07 270.92 158.567L368.262 158.567L406.766 196.645L457.384 196.645L483.558 170.547Z" fill="#1661BE"/>
<path d="M231.139 108.476L260.662 138.111L379.841 138.111L420.219 178.642L446.051 178.642C446.486 177.117 447.788 176.027 449.525 176.027C451.478 176.027 452.998 177.552 452.998 179.513C452.998 181.475 451.478 183 449.525 183C448.005 183 446.486 181.91 446.051 180.385L419.35 180.385L379.19 139.854L260.011 139.854L230.488 110.219L188.591 110.219L167.1 88.6462C165.797 89.2999 164.06 89.2999 162.975 87.9925C161.672 86.685 161.672 84.288 162.975 82.9806C164.277 81.6731 166.665 81.6731 167.968 82.9806C169.053 84.0701 169.27 85.8134 168.619 87.1208L189.676 108.258L231.139 108.258L231.139 108.476Z" fill="#1661BE"/>
<path d="M255.913 181.602L340.192 181.602L389.678 231.265L464.232 231.265L484.762 210.663L540.299 210.663C540.731 209.145 542.028 208.06 543.54 208.06C545.485 208.06 546.998 209.578 546.998 211.53C546.998 213.482 545.485 215 543.54 215C542.028 215 540.515 213.916 540.299 212.398L485.626 212.398L465.097 233L389.03 233L339.543 183.337L255.913 183.337C255.481 184.855 254.184 185.94 252.456 185.94C250.511 185.94 248.998 184.422 248.998 182.47C248.998 180.518 250.511 179 252.456 179C254.184 179 255.481 180.084 255.913 181.602Z" fill="#1661BE"/>
<path d="M162.686 124C164.204 124 165.723 125.077 166.157 126.585L200.214 126.585L243.382 169.461L353.58 169.461L398.701 214.276L459.006 214.276L485.905 187.56L557.056 187.56C557.49 186.052 558.792 184.974 560.527 184.974C562.48 184.974 563.998 186.482 563.998 188.422C563.998 190.361 562.48 191.869 560.527 191.869C559.009 191.869 557.49 190.792 557.056 189.283L486.773 189.283L459.874 216L397.833 216L352.713 171.185L242.514 171.185L199.346 128.309L165.94 128.309C165.506 129.817 164.204 130.895 162.469 130.895C160.517 130.895 158.998 129.386 158.998 127.447C158.998 125.508 160.733 124 162.686 124Z" fill="#1661BE"/>
<path d="M284.191 52.2051L321.656 89.5528L380.129 89.5528L436.435 145.682L578.068 145.682C578.501 144.171 579.801 143.092 581.533 143.092C583.482 143.092 584.998 144.603 584.998 146.546C584.998 148.489 583.482 150 581.533 150C580.017 150 578.501 148.921 578.068 147.409L435.785 147.409L379.479 91.2799L321.007 91.2799L283.325 53.9322L223.553 53.9321L186.087 16.5844C184.788 17.2321 183.055 17.2321 181.973 15.9368C180.673 14.6414 180.673 12.2668 181.973 10.9715C183.272 9.67618 185.654 9.67618 186.954 10.9715C188.036 12.0509 188.253 13.7779 187.603 15.0732L224.419 51.7733L284.191 51.7733L284.191 52.2051Z" fill="#1661BE"/>
<path d="M930.893 308.292C929.374 308.292 927.855 307.187 927.638 305.641L848.87 305.641L832.813 321.993L709.996 321.993L678.749 353.813L619.293 353.813L580.018 313.817L493.656 313.817L458.286 349.835L420.096 349.835L394.274 323.539L356.734 323.539L323.535 357.348L149.942 357.348C149.508 358.895 148.206 360 146.47 360C144.517 360 142.998 358.453 142.998 356.464C142.998 354.476 144.517 352.929 146.47 352.929C147.989 352.929 149.508 354.034 149.942 355.581L322.884 355.581L356.083 321.772L395.142 321.772L420.964 347.846L457.418 347.846L492.788 311.828L580.669 311.828L619.728 351.824L677.664 351.824L708.911 320.004L831.728 320.004L847.785 303.652L927.204 303.652C927.638 302.105 928.94 301 930.459 301C932.412 301 933.931 302.547 933.931 304.536C934.365 306.524 932.629 308.292 930.893 308.292Z" fill="#1661BE"/>
<path d="M552.848 283.17L536.81 283.17L519.688 300.277L454.453 300.277L438.848 284.686L403.521 284.686L385.099 303.092L328.1 303.092L284.754 346.401L154.717 346.401C154.283 347.917 152.983 349 151.466 349C149.515 349 147.998 347.484 147.998 345.535C147.998 343.586 149.515 342.071 151.466 342.071C152.983 342.071 154.5 343.153 154.717 344.669L284.104 344.669L327.45 301.36L384.449 301.36L402.871 282.954L439.715 282.954L455.32 298.545L519.038 298.545L536.159 281.438L553.714 281.438L568.019 295.73L655.794 295.73L691.554 260L755.489 260L781.28 285.769L838.063 285.769C838.496 284.253 839.797 283.17 841.53 283.17C843.481 283.17 844.998 284.686 844.998 286.635C844.998 288.584 843.481 290.1 841.53 290.1C840.013 290.1 838.496 289.017 838.063 287.501L780.413 287.501L754.622 261.732L692.204 261.732L656.444 297.462L567.152 297.462L552.848 283.17Z" fill="#1661BE"/>
<path d="M211.751 220.671L177.061 185.637C175.769 186.29 174.045 186.29 172.968 184.984C171.675 183.678 171.675 181.285 172.968 179.979C174.26 178.674 176.631 178.674 177.923 179.979C179.001 181.067 179.216 182.808 178.57 184.114L212.828 218.713L333.704 218.713L375.935 261.363C377.227 260.493 378.951 260.71 380.028 262.016C381.321 263.322 381.321 265.715 380.028 267.021C378.736 268.326 376.366 268.326 375.073 267.021C373.995 265.933 373.78 264.192 374.426 262.886L332.626 220.671L211.751 220.671Z" fill="#1661BE"/>
<path d="M113.119 306.074L150.046 306.074L167.206 289.037L206.304 289.037L226.071 308.662L275.161 308.662L309.481 274.588L362.047 274.588C362.482 273.078 363.785 272 365.523 272C367.478 272 368.998 273.51 368.998 275.451C368.998 277.391 367.478 278.901 365.523 278.901C364.002 278.901 362.482 277.823 362.047 276.313L310.133 276.313L275.813 310.387L225.202 310.387L205.435 290.762L167.857 290.762L150.697 307.799L113.988 307.799L81.6231 339.932C82.2748 341.226 82.2747 342.951 80.9715 344.03C79.6682 345.323 77.2788 345.323 75.9755 344.03C74.6722 342.736 74.6722 340.363 75.9755 339.069C77.0616 337.991 78.7993 337.775 80.1026 338.422L113.119 306.074Z" fill="#1661BE"/>
<path d="M280.337 240.748L255.358 266L224.995 266L201.524 242.272L167.501 242.272L150.058 224.639C148.766 225.293 147.044 225.292 145.967 223.986C144.675 222.68 144.675 220.286 145.967 218.98C147.259 217.673 149.628 217.673 150.92 218.98C151.996 220.068 152.212 221.81 151.566 223.116L168.577 240.313L202.6 240.313L226.072 264.041L254.927 264.041L279.906 238.789L326.419 238.789L344.938 257.51C346.23 256.639 347.952 256.857 349.029 258.163C350.321 259.469 350.321 261.864 349.029 263.17C347.737 264.476 345.368 264.476 344.076 263.17C343 262.082 342.784 260.34 343.43 259.034L325.342 240.748L280.337 240.748Z" fill="#1661BE"/>
<path d="M232.343 229.666C232.773 228.149 234.061 227.065 235.563 227.065C237.495 227.065 238.998 228.582 238.998 230.533C238.998 232.483 237.495 234 235.563 234C234.061 234 232.558 232.916 232.343 231.4L181.468 231.4L143.043 192.609C141.755 193.476 140.037 193.26 138.964 191.959C137.676 190.659 137.676 188.275 138.964 186.975C140.252 185.675 142.613 185.675 143.901 186.975C144.975 188.059 145.189 189.792 144.545 191.093L182.541 229.449L232.343 229.449L232.343 229.666Z" fill="#1661BE"/>
<path d="M153.856 258.34L190.842 258.34L208.577 276.253L280.602 276.253L295.526 261.18L324.077 261.18C324.509 259.651 325.807 258.559 327.537 258.559C329.484 258.559 330.998 260.088 330.998 262.054C330.998 264.02 329.484 265.549 327.537 265.549C326.023 265.549 324.509 264.457 324.077 262.928L296.175 262.928L281.251 278L207.712 278L189.976 260.088L152.991 260.088L101.081 207.662C99.7831 208.318 98.0528 208.318 96.9714 207.007C95.6736 205.696 95.6736 203.294 96.9714 201.983C98.2691 200.672 100.648 200.672 101.946 201.983C103.028 203.075 103.244 204.823 102.595 206.133L153.856 258.34Z" fill="#1661BE"/>
<path d="M291.076 275.986C292.368 274.671 294.737 274.671 296.029 275.986C297.321 277.301 297.321 279.712 296.029 281.027C294.952 282.123 293.23 282.342 291.938 281.685L277.51 296.37L237.889 296.37C237.458 297.904 236.166 299 234.443 299C232.505 299 230.998 297.466 230.998 295.493C230.998 293.521 232.505 291.986 234.443 291.986C235.951 291.986 237.458 293.082 237.889 294.616L276.434 294.616L290.43 280.37C289.784 278.836 289.784 277.082 291.076 275.986Z" fill="#1661BE"/>
<path d="M113.461 427.084C114.977 427.084 116.492 428.165 116.925 429.678L164.98 429.678L174.721 419.952L231.65 419.952L274.077 377.593L316.071 377.593C316.504 376.081 317.803 375 319.535 375C321.483 375 322.998 376.513 322.998 378.458C322.998 380.403 321.483 381.916 319.535 381.916C318.019 381.916 316.504 380.835 316.071 379.322L274.727 379.322L232.3 421.681L175.37 421.681L165.629 431.407L116.925 431.407C116.492 432.919 115.193 434 113.461 434C111.513 434 109.998 432.487 109.998 430.542C109.998 428.813 111.513 427.084 113.461 427.084Z" fill="#1661BE"/>
<path d="M80.4711 407.2C81.9906 407.2 83.5101 408.263 83.9442 409.75L162.306 409.75L170.772 401.463L217.876 401.463L254.56 365.55L304.052 365.55C304.486 364.063 305.788 363 307.525 363C309.479 363 310.998 364.488 310.998 366.4C310.998 368.313 309.479 369.8 307.525 369.8C306.005 369.8 304.486 368.738 304.052 367.25L255.428 367.25L218.744 403.163L171.64 403.163L163.174 411.45L83.9442 411.45C83.5101 412.938 82.2077 414 80.4711 414C78.5175 414 76.998 412.513 76.998 410.6C76.998 408.688 78.5175 407.2 80.4711 407.2Z" fill="#1661BE"/>
<path d="M135.969 401.01C134.666 402.33 132.278 402.33 130.975 401.01C129.672 399.691 129.672 397.271 130.975 395.952C132.061 394.852 133.798 394.632 135.101 395.292L157.465 372.639L213.05 372.639C213.484 371.1 214.787 370 216.524 370C218.478 370 219.998 371.54 219.998 373.519C219.998 375.498 218.478 377.038 216.524 377.038C215.004 377.038 213.484 375.938 213.05 374.399L158.116 374.399L136.403 396.392C137.272 397.931 137.055 399.691 135.969 401.01Z" fill="#1661BE"/>
<path d="M892.341 283.538L827.002 283.538L826.786 283.755L826.569 283.538L673.391 283.538L641.154 251.222L541.199 251.222L533.194 259.247C534.275 260.982 534.059 263.368 532.328 265.103C530.381 267.055 527.352 267.055 525.405 265.103C523.458 263.151 523.458 260.114 525.405 258.379C526.919 256.861 529.299 256.644 531.246 257.512L540.117 248.62L638.558 248.62L620.384 230.401C618.653 231.486 616.273 231.269 614.543 229.534C612.595 227.582 612.595 224.545 614.543 222.81C616.49 220.858 619.519 220.858 621.25 222.81C622.764 224.329 622.98 226.714 622.115 228.666L674.473 281.152L759.5 281.152L736.566 258.162L701.301 258.162C700.651 260.114 698.921 261.633 696.757 261.633C694.161 261.633 691.997 259.464 691.997 256.861C691.997 254.258 694.161 252.09 696.757 252.09C698.921 252.09 700.868 253.608 701.301 255.56L737.648 255.56L763.178 281.152L824.19 281.152L765.774 222.594L658.03 222.594L620.817 185.29L583.388 185.29L549.853 218.907L498.577 218.907L480.836 236.691L412.252 236.691C411.603 238.643 409.872 240.161 407.708 240.161C405.112 240.161 402.948 237.992 402.948 235.39C402.948 232.787 405.112 230.618 407.708 230.618C409.872 230.618 411.819 232.136 412.252 234.088L479.754 234.088L495.115 218.69L391.265 218.69C390.616 220.642 388.885 222.16 386.722 222.16C384.126 222.16 381.962 219.991 381.962 217.388C381.962 214.786 384.126 212.617 386.722 212.617C388.885 212.617 390.833 214.135 391.265 216.087L548.987 216.087L579.926 185.073L320.301 185.073C319.652 187.025 317.921 188.543 315.758 188.543C313.162 188.543 310.998 186.374 310.998 183.771C310.998 181.169 313.162 179 315.758 179C317.921 179 319.869 180.518 320.301 182.47L622.115 182.47L659.328 219.774L767.072 219.774L799.958 252.74L833.709 252.74L846.474 239.944C845.392 238.209 845.609 235.823 847.339 234.088C849.287 232.136 852.316 232.136 854.046 234.088C855.994 236.04 855.994 239.077 854.046 240.812C852.532 242.33 850.152 242.547 848.205 241.679L834.791 255.126L802.338 255.126L827.868 280.718L893.423 280.718L938.641 326.047L981.262 326.047L995.109 339.927L1108.69 339.927C1109.34 337.975 1111.07 336.457 1113.24 336.457C1115.83 336.457 1118 338.626 1118 341.229C1118 343.831 1115.83 346 1113.24 346C1111.07 346 1109.13 344.482 1108.69 342.53L994.027 342.53L980.181 328.649L937.559 328.649L892.341 283.538Z" fill="#1661BE"/>
<path d="M366.822 255.911L346.028 235.028L225.596 235.028C224.947 236.966 223.214 238.473 221.048 238.473C218.449 238.473 216.282 236.32 216.282 233.736C216.282 231.153 218.449 229 221.048 229C223.214 229 225.163 230.507 225.596 232.445L347.111 232.445L370.504 255.696L370.288 255.911L479.023 255.911L523.426 300.045L582.776 300.045L604.436 278.516C603.353 276.794 603.57 274.426 605.303 272.703C607.252 270.766 610.284 270.766 612.017 272.703C613.967 274.641 613.967 277.655 612.017 279.377C610.501 280.884 608.118 281.099 606.169 280.238L583.859 302.413L526.026 302.413L561.982 338.15L779.885 338.15L837.285 395.417L963.998 395.417L963.998 398L836.202 398L778.802 340.949L680.681 340.949L656.638 364.846L529.275 364.846L449.998 286.051L421.839 286.051L393.248 314.469L209.135 314.469L184.009 339.442C185.092 341.164 184.875 343.532 183.142 345.255C181.193 347.192 178.16 347.192 176.427 345.255C174.478 343.317 174.478 340.303 176.427 338.581C177.944 337.074 180.326 336.859 182.276 337.72L208.052 312.101L392.165 312.101L418.374 286.051L340.18 286.051C339.53 287.989 337.797 289.496 335.631 289.496C333.032 289.496 330.866 287.343 330.866 284.759C330.866 282.176 333.032 280.023 335.631 280.023C337.797 280.023 339.747 281.53 340.18 283.468L451.297 283.468L530.574 362.262L655.771 362.262L677.215 340.949L560.899 340.949L477.94 258.494L172.312 258.494C171.662 260.432 169.929 261.939 167.763 261.939C165.164 261.939 162.998 259.786 162.998 257.203C162.998 254.619 165.164 252.466 167.763 252.466C169.929 252.466 171.879 253.973 172.312 255.911L366.822 255.911Z" fill="#1661BE"/>
<path d="M1126.7 304.244C1125.18 305.756 1122.79 305.972 1120.84 305.108L1097.86 328L1047.33 328L1021.31 302.084L972.734 302.084L929.364 258.891L891.849 258.891C891.198 260.835 889.463 262.347 887.295 262.347C884.693 262.347 882.524 260.187 882.524 257.596C882.524 255.004 884.693 252.844 887.295 252.844C889.463 252.844 891.415 254.356 891.849 256.3L930.448 256.3L973.818 299.493L1018.71 299.493L948.446 229.736L876.452 229.736L846.093 199.501L737.018 199.501L714.249 177.041L651.796 177.041L643.773 169.05C642.038 170.13 639.653 169.914 637.918 168.186C635.966 166.243 635.966 163.219 637.918 161.491C639.869 159.548 642.905 159.548 644.64 161.491C646.158 163.003 646.375 165.379 645.508 167.323L652.664 174.449L685.842 174.449L641.604 130.393L610.161 130.393L583.055 157.604L529.059 157.604C528.409 159.548 526.674 161.06 524.505 161.06C521.903 161.06 519.735 158.9 519.735 156.308C519.735 153.717 521.903 151.557 524.505 151.557C526.674 151.557 528.626 153.069 529.059 155.013L581.971 155.013L606.691 130.393L522.12 130.393L494.147 158.252L292.259 158.252L277.08 173.369C278.164 175.097 277.947 177.473 276.213 179.201C274.261 181.144 271.225 181.144 269.49 179.201C267.539 177.257 267.539 174.233 269.49 172.506C271.008 170.994 273.394 170.778 275.345 171.642L291.392 155.66L445.355 155.66L403.07 113.547L213.977 113.547L182.317 82.0165C180.582 83.0964 178.197 82.8804 176.462 81.1527C174.51 79.209 174.51 76.1855 176.462 74.4578C178.413 72.5141 181.449 72.5141 183.184 74.4578C184.702 75.9695 184.919 78.3451 184.052 80.2888L215.061 111.172L404.154 111.172L448.825 155.66L493.279 155.66L521.253 127.801L642.905 127.801L689.528 174.233L715.116 174.233L737.886 196.91L843.274 196.91L799.471 153.285L703.406 153.285C702.756 155.229 701.021 156.74 698.853 156.74C696.25 156.74 694.082 154.581 694.082 151.989C694.082 149.397 696.25 147.238 698.853 147.238C701.021 147.238 702.973 148.75 703.406 150.693L800.555 150.693L877.32 227.145L949.314 227.145L1048.2 325.409L1096.77 325.409L1119.11 303.164C1118.02 301.436 1118.24 299.061 1119.97 297.333C1121.93 295.389 1124.96 295.389 1126.7 297.333C1128.43 299.493 1128.43 302.516 1126.7 304.244Z" fill="#1661BE"/>
<path d="M207.998 187C211.312 187 213.998 189.686 213.998 193C213.998 196.314 211.312 199 207.998 199C204.684 199 201.998 196.314 201.998 193C201.998 189.686 204.684 187 207.998 187Z" fill="#1661BE"/>
<path d="M162.998 238.5C162.998 237.071 161.712 236 159.998 236C158.284 236 156.998 237.071 156.998 238.5C156.998 239.929 158.284 241 159.998 241C161.498 241 162.998 239.929 162.998 238.5Z" fill="#1661BE"/>
<path d="M174.998 269.5C174.998 268.6 174.598 268 173.998 268C173.398 268 172.998 268.6 172.998 269.5C172.998 270.4 173.398 271 173.998 271C174.598 270.7 174.998 270.1 174.998 269.5Z" fill="#1661BE"/>
<path d="M177.998 295.5C177.998 295.2 177.398 295 176.498 295C175.598 295 174.998 295.2 174.998 295.5C174.998 295.8 175.598 296 176.498 296C177.398 296 177.998 295.8 177.998 295.5Z" fill="#1661BE"/>
<path d="M222.998 313C226.312 313 228.998 315.015 228.998 317.5C228.998 319.985 226.312 322 222.998 322C219.684 322 216.998 319.985 216.998 317.5C216.998 315.015 219.684 313 222.998 313Z" fill="#1661BE"/>
<path d="M255.998 343C257.103 343 257.998 344.119 257.998 345.5C257.998 346.881 257.103 348 255.998 348C254.893 348 253.998 346.881 253.998 345.5C253.998 344.119 254.893 343 255.998 343Z" fill="#1661BE"/>
<path d="M281.998 258C281.998 256.8 281.248 256 280.498 256C279.598 256 278.998 257 278.998 258C278.998 259.2 279.748 260 280.498 260C281.398 260 281.998 259 281.998 258Z" fill="#1661BE"/>
<path d="M308.998 237.487C308.998 236.661 308.331 236 307.498 236C306.665 236 305.998 236.661 305.998 237.487C305.998 238.314 306.665 238.975 307.498 238.975C308.331 239.14 308.998 238.479 308.998 237.487Z" fill="#1661BE"/>
<path d="M348.998 214.5C348.998 212.531 347.467 211 345.498 211C343.529 211 341.998 212.531 341.998 214.5C341.998 216.469 343.529 218 345.498 218C347.467 217.781 348.998 216.25 348.998 214.5Z" fill="#1661BE"/>
<path d="M440.498 223C443.536 223 445.998 225.462 445.998 228.5C445.998 231.538 443.536 234 440.498 234C437.46 234 434.998 231.538 434.998 228.5C434.998 225.462 437.46 223 440.498 223Z" fill="#1661BE"/>
<path d="M415.998 208.5C415.998 207.25 414.956 206 413.498 206C412.248 206 410.998 207.042 410.998 208.5C410.998 209.75 412.04 211 413.498 211C414.956 211 415.998 209.958 415.998 208.5Z" fill="#1661BE"/>
<path d="M424.998 205C424.998 202.739 422.389 201 418.998 201C415.607 201 412.998 202.739 412.998 205C412.998 207.261 415.607 209 418.998 209C422.389 208.826 424.998 207.087 424.998 205Z" fill="#1661BE"/>
<path d="M405.998 158C405.998 155.778 404.22 154 401.998 154C399.776 154 397.998 155.778 397.998 158C397.998 160.222 399.776 162 401.998 162C404.22 162 405.998 160.222 405.998 158Z" fill="#1661BE"/>
<path d="M390.998 153.488C390.998 151.495 389.712 150 387.998 150C386.284 150 384.998 151.495 384.998 153.488C384.998 155.481 386.284 156.976 387.998 156.976C389.712 157.225 390.998 155.481 390.998 153.488Z" fill="#1661BE"/>
<path d="M377.998 139.5C377.998 138.071 376.498 137 374.498 137C372.498 137 370.998 138.071 370.998 139.5C370.998 140.929 372.498 142 374.498 142C376.248 142 377.998 140.929 377.998 139.5Z" fill="#1661BE"/>
<path d="M317.998 139.5C317.998 138.75 316.998 138 315.998 138C314.998 138 313.998 138.75 313.998 139.5C313.998 140.25 314.998 141 315.998 141C316.998 141 317.998 140.25 317.998 139.5Z" fill="#1661BE"/>
<path d="M363.998 57C363.998 55.2857 362.712 54 360.998 54C359.284 54 357.998 55.2857 357.998 57C357.998 58.7143 359.284 60 360.998 60C362.712 60 363.998 58.7143 363.998 57Z" fill="#1661BE"/>
<path d="M347.998 13.5C347.998 10.0333 344.965 7 340.998 7C337.265 7 333.998 9.81667 333.998 13.5C333.998 16.9667 337.031 20 340.998 20C344.965 19.7833 347.998 16.9667 347.998 13.5Z" fill="#1661BE"/>
<path d="M318.998 98C318.998 96.8572 317.927 96 316.498 96C315.07 96 313.998 96.8572 313.998 98C313.998 99.1429 315.07 100 316.498 100C317.927 99.7143 318.998 98.8572 318.998 98Z" fill="#1661BE"/>
<path d="M264.498 40C267.536 40 269.998 42.9102 269.998 46.5C269.998 50.0899 267.536 53 264.498 53C261.46 53 258.998 50.0899 258.998 46.5C258.998 42.9102 261.46 40 264.498 40Z" fill="#1661BE"/>
<path d="M243.998 80.5C243.998 78.5 242.498 77 240.498 77C238.498 77 236.998 78.5 236.998 80.5C236.998 82.5 238.498 84 240.498 84C242.498 84 243.998 82.5 243.998 80.5Z" fill="#1661BE"/>
<path d="M238.998 117C238.998 115.889 238.109 115 236.998 115C235.887 115 234.998 115.889 234.998 117C234.998 118.111 235.887 119 236.998 119C238.109 118.778 238.998 117.889 238.998 117Z" fill="#1661BE"/>
<path d="M206.998 99.5C206.998 96.5536 204.427 94 200.998 94C197.784 94 194.998 96.3571 194.998 99.5C194.998 102.446 197.569 105 200.998 105C204.212 105 206.998 102.643 206.998 99.5Z" fill="#1661BE"/>
<path d="M226.998 151.5C226.998 150.154 225.383 149 223.498 149C221.613 149 219.998 150.154 219.998 151.5C219.998 152.846 221.613 154 223.498 154C225.383 153.808 226.998 152.846 226.998 151.5Z" fill="#1661BE"/>
<path d="M215.998 188C218.207 188 219.998 189.791 219.998 192C219.998 194.209 218.207 196 215.998 196C213.789 196 211.998 194.209 211.998 192C211.998 189.791 213.789 188 215.998 188Z" fill="#1661BE"/>
<path d="M147.998 231C149.655 231 150.998 232.119 150.998 233.5C150.998 234.881 149.655 236 147.998 236C146.341 236 144.998 234.881 144.998 233.5C144.998 232.119 146.341 231 147.998 231Z" fill="#1661BE"/>
<path d="M181.998 259.5C181.998 256.521 179.706 254 176.998 254C174.29 254 171.998 256.521 171.998 259.5C171.998 262.479 174.29 265 176.998 265C179.915 265 181.998 262.479 181.998 259.5Z" fill="#1661BE"/>
<path d="M142.998 272.5C142.998 270.556 141.22 269 138.998 269C136.776 269 134.998 270.556 134.998 272.5C134.998 274.444 136.776 276 138.998 276C141.22 276 142.998 274.444 142.998 272.5Z" fill="#1661BE"/>
<path d="M161.998 343.5C161.998 342.643 161.355 342 160.498 342C159.641 342 158.998 342.643 158.998 343.5C158.998 344.357 159.641 345 160.498 345C161.355 345 161.998 344.357 161.998 343.5Z" fill="#1661BE"/>
<path d="M142.498 357C145.536 357 147.998 359.462 147.998 362.5C147.998 365.538 145.536 368 142.498 368C139.46 368 136.998 365.538 136.998 362.5C136.998 359.462 139.46 357 142.498 357Z" fill="#1661BE"/>
<path d="M102.998 386C102.998 383.882 101.557 382 99.498 382C97.6451 382 95.998 383.647 95.998 386C95.998 388.118 97.4392 390 99.498 390C101.557 390 102.998 388.118 102.998 386Z" fill="#1661BE"/>
<path d="M67.998 309C67.998 306.75 66.6855 305 64.998 305C63.3105 305 61.998 306.75 61.998 309C61.998 311.25 63.3105 313 64.998 313C66.498 313 67.998 311.25 67.998 309Z" fill="#1661BE"/>
<path d="M12.998 271.5C12.998 267.914 10.3084 265 6.99805 265C3.6877 265 0.998048 267.914 0.998047 271.5C0.998047 275.086 3.6877 278 6.99805 278C10.3084 278 12.998 275.086 12.998 271.5Z" fill="#1661BE"/>
<path d="M23.4981 253C24.8788 253 25.998 254.119 25.998 255.5C25.998 256.881 24.8788 258 23.4981 258C22.1174 258 20.998 256.881 20.998 255.5C20.998 254.119 22.1174 253 23.4981 253Z" fill="#1661BE"/>
<path d="M57.998 204C57.998 201.222 55.5536 199 52.498 199C49.4425 199 46.998 201.222 46.998 204C46.998 206.778 49.4425 209 52.498 209C55.5536 209 57.998 206.778 57.998 204Z" fill="#1661BE"/>
<path d="M80.998 158C80.998 155.75 79.4668 154 77.498 154C75.5293 154 73.998 155.75 73.998 158C73.998 160.25 75.5293 162 77.498 162C79.4668 161.75 80.998 160 80.998 158Z" fill="#1661BE"/>
<path d="M88.9981 135C89.5503 135 89.998 135.672 89.998 136.5C89.998 137.328 89.5503 138 88.9981 138C88.4458 138 87.998 137.328 87.998 136.5C87.998 135.672 88.4458 135 88.9981 135Z" fill="#1661BE"/>
<path d="M72.9981 56.5C72.9981 54.6471 71.3511 53 69.4981 53C67.6452 53 65.9981 54.6471 65.9981 56.5C65.9981 58.353 67.6452 60 69.4981 60C71.3511 60 72.9981 58.353 72.9981 56.5Z" fill="#1661BE"/>
<path d="M117.998 3.49998C117.998 1.61536 116.844 3.36241e-07 115.498 2.18557e-07C114.152 1.00873e-07 112.998 1.61536 112.998 3.49998C112.998 5.3846 114.152 7 115.498 7C116.844 7 117.998 5.3846 117.998 3.49998Z" fill="#1661BE"/>
<path d="M144.998 51.5C144.998 50.1538 143.614 49 141.998 49C140.383 49 138.998 50.1538 138.998 51.5C138.998 52.8462 140.383 54 141.998 54C143.614 54 144.998 52.8462 144.998 51.5Z" fill="#1661BE"/>
<path d="M229.998 4C229.998 1.8 228.198 5.42021e-07 225.998 3.49691e-07C223.798 1.57361e-07 221.998 1.8 221.998 4C221.998 6.2 223.798 8 225.998 8C228.198 8 229.998 6.2 229.998 4Z" fill="#1661BE"/>
<path d="M231.998 61C231.998 60.5 231.498 60 230.998 60C230.498 60 229.998 60.5 229.998 61C229.998 61.5 230.498 62 230.998 62C231.498 62 231.998 61.5 231.998 61Z" fill="#1661BE"/>
<path d="M266.998 101C266.998 98.6842 265.103 97 262.998 97C260.682 97 258.998 98.8947 258.998 101C258.998 103.316 260.893 105 262.998 105C265.314 105 266.998 103.105 266.998 101Z" fill="#1661BE"/>
<path d="M308.998 114.5C308.998 111.42 306.798 109 303.998 109C301.198 109 298.998 111.42 298.998 114.5C298.998 117.58 301.198 120 303.998 120C306.798 119.78 308.998 117.36 308.998 114.5Z" fill="#1661BE"/>
<path d="M271.998 172.5C271.998 170.531 270.467 169 268.498 169C266.529 169 264.998 170.531 264.998 172.5C264.998 174.469 266.529 176 268.498 176C270.248 176 271.998 174.469 271.998 172.5Z" fill="#1661BE"/>
<path d="M335.998 129C337.103 129 337.998 129.672 337.998 130.5C337.998 131.328 337.103 132 335.998 132C334.893 132 333.998 131.328 333.998 130.5C333.998 129.672 334.893 129 335.998 129Z" fill="#1661BE"/>
<path d="M353.998 184C355.655 184 356.998 185.567 356.998 187.5C356.998 189.433 355.655 191 353.998 191C352.341 191 350.998 189.433 350.998 187.5C350.998 185.567 352.341 184 353.998 184Z" fill="#1661BE"/>
<path d="M418.998 174.5C418.998 171.42 416.578 169 413.498 169C410.418 169 407.998 171.42 407.998 174.5C407.998 177.58 410.418 180 413.498 180C416.578 180 418.998 177.58 418.998 174.5Z" fill="#1661BE"/>
<path d="M472.498 168C473.879 168 474.998 169.119 474.998 170.5C474.998 171.881 473.879 173 472.498 173C471.117 173 469.998 171.881 469.998 170.5C469.998 169.119 471.117 168 472.498 168Z" fill="#1661BE"/>
<path d="M499.998 189C499.998 187.8 498.748 187 497.498 187C495.998 187 494.998 188 494.998 189C494.998 190.2 496.248 191 497.498 191C498.748 191 499.998 190 499.998 189Z" fill="#1661BE"/>
<path d="M524.998 211C524.998 209.25 523.748 208 521.998 208C520.498 208 518.998 209.25 518.998 211C518.998 212.5 520.248 214 521.998 214C523.748 214 524.998 212.75 524.998 211Z" fill="#1661BE"/>
<path d="M560.998 236C565.416 236 568.998 239.358 568.998 243.5C568.998 247.642 565.416 251 560.998 251C556.58 251 552.998 247.642 552.998 243.5C552.998 239.358 556.58 236 560.998 236Z" fill="#1661BE"/>
<path d="M534.998 290C534.998 288.312 533.686 287 531.998 287C530.311 287 528.998 288.312 528.998 290C528.998 291.688 530.311 293 531.998 293C533.686 292.813 534.998 291.5 534.998 290Z" fill="#1661BE"/>
<path d="M497.498 201C498.326 201 498.998 202.119 498.998 203.5C498.998 204.881 498.326 206 497.498 206C496.67 206 495.998 204.881 495.998 203.5C495.998 202.119 496.67 201 497.498 201Z" fill="#1661BE"/>
<path d="M511.998 285C511.998 283.909 511.089 283 509.998 283C508.907 283 507.998 283.909 507.998 285C507.998 286.091 508.907 287 509.998 287C511.089 287 511.998 286.091 511.998 285Z" fill="#1661BE"/>
<path d="M433.998 250C436.207 250 437.998 251.791 437.998 254C437.998 256.209 436.207 258 433.998 258C431.789 258 429.998 256.209 429.998 254C429.998 251.791 431.789 250 433.998 250Z" fill="#1661BE"/>
<path d="M424.998 360C426.655 360 427.998 361.791 427.998 364C427.998 366.209 426.655 368 424.998 368C423.341 368 421.998 366.209 421.998 364C421.998 361.791 423.341 360 424.998 360Z" fill="#1661BE"/>
<path d="M377.998 328.5C377.998 323.778 374.887 320 370.998 320C367.109 320 363.998 323.778 363.998 328.5C363.998 333.222 367.109 337 370.998 337C374.887 337 377.998 333.222 377.998 328.5Z" fill="#1661BE"/>
<path d="M349.998 264.99C349.998 262.643 348.116 261 345.998 261C343.645 261 341.998 262.878 341.998 264.99C341.998 267.337 343.88 268.98 345.998 268.98C348.116 269.215 349.998 267.337 349.998 264.99Z" fill="#1661BE"/>
<path d="M273.498 333C275.431 333 276.998 334.567 276.998 336.5C276.998 338.433 275.431 340 273.498 340C271.565 340 269.998 338.433 269.998 336.5C269.998 334.567 271.565 333 273.498 333Z" fill="#1661BE"/>
<path d="M246.998 296.981C246.998 295.743 246.248 295 245.498 295C244.561 295 243.998 295.99 243.998 296.981C243.998 298.219 244.748 298.962 245.498 298.962C246.248 299.209 246.998 298.219 246.998 296.981Z" fill="#1661BE"/>
<path d="M218.998 292C221.76 292 223.998 294.462 223.998 297.5C223.998 300.538 221.76 303 218.998 303C216.237 303 213.998 300.538 213.998 297.5C213.998 294.462 216.237 292 218.998 292Z" fill="#1661BE"/>
<path d="M216.998 308.5C216.998 307.154 215.383 306 213.498 306C211.613 306 209.998 307.154 209.998 308.5C209.998 309.846 211.613 311 213.498 311C215.383 311 216.998 309.846 216.998 308.5Z" fill="#1661BE"/>
<path d="M138.498 292C140.431 292 141.998 293.567 141.998 295.5C141.998 297.433 140.431 299 138.498 299C136.565 299 134.998 297.433 134.998 295.5C134.998 293.567 136.565 292 138.498 292Z" fill="#1661BE"/>
<path d="M134.998 321.5C134.998 320.643 134.355 320 133.498 320C132.641 320 131.998 320.643 131.998 321.5C131.998 322.357 132.641 323 133.498 323C134.141 323 134.998 322.357 134.998 321.5Z" fill="#1661BE"/>
<path d="M178.498 284C180.431 284 181.998 285.791 181.998 288C181.998 290.209 180.431 292 178.498 292C176.565 292 174.998 290.209 174.998 288C174.998 285.791 176.565 284 178.498 284Z" fill="#1661BE"/>
<path d="M228.998 280.5C228.998 278.045 226.725 276 223.998 276C221.271 276 218.998 278.045 218.998 280.5C218.998 282.955 221.271 285 223.998 285C226.725 285 228.998 283.159 228.998 280.5Z" fill="#1661BE"/>
<path d="M159.998 202.989C159.998 200.745 158.686 199 156.998 199C155.311 199 153.998 200.745 153.998 202.989C153.998 205.233 155.311 206.979 156.998 206.979C158.686 207.228 159.998 205.233 159.998 202.989Z" fill="#1661BE"/>
<path d="M211.998 165C211.998 161.667 209.776 159 206.998 159C204.22 159 201.998 161.667 201.998 165C201.998 168.333 204.22 171 206.998 171C209.776 171 211.998 168.333 211.998 165Z" fill="#1661BE"/>
<path d="M178.998 85C180.103 85 180.998 85.8954 180.998 87C180.998 88.1046 180.103 89 178.998 89C177.894 89 176.998 88.1046 176.998 87C176.998 85.8954 177.894 85 178.998 85Z" fill="#1661BE"/>
<path d="M276.998 61.5C276.998 59.6471 275.351 58 273.498 58C271.645 58 269.998 59.6471 269.998 61.5C269.998 63.3529 271.645 65 273.498 65C275.351 65 276.998 63.3529 276.998 61.5Z" fill="#1661BE"/>
<path d="M322.998 136.5C322.998 135.643 322.569 135 321.998 135C321.427 135 320.998 135.643 320.998 136.5C320.998 137.357 321.427 138 321.998 138C322.569 138 322.998 137.357 322.998 136.5Z" fill="#1661BE"/>
<path d="M365.998 103.992C365.998 101.139 363.855 99 361.498 99C358.927 99 356.998 101.139 356.998 103.992C356.998 106.844 358.927 108.984 361.498 108.984C364.07 109.221 365.998 106.844 365.998 103.992Z" fill="#1661BE"/>
<path d="M384.998 83C384.998 81.8 383.748 81 382.498 81C380.998 81 379.998 82 379.998 83C379.998 84.2 381.248 85 382.498 85C383.998 85 384.998 84 384.998 83Z" fill="#1661BE"/>
<path d="M437.998 176C439.655 176 440.998 176.895 440.998 178C440.998 179.105 439.655 180 437.998 180C436.341 180 434.998 179.105 434.998 178C434.998 176.895 436.341 176 437.998 176Z" fill="#1661BE"/>
<path d="M487.998 116C487.998 112.267 485.181 109 481.498 109C478.031 109 474.998 112.033 474.998 116C474.998 119.733 477.815 123 481.498 123C485.181 122.767 487.998 119.733 487.998 116Z" fill="#1661BE"/>
<path d="M497.998 163.983C497.998 162.881 496.887 162 495.498 162C494.109 162 492.998 162.881 492.998 163.983C492.998 165.085 494.109 165.966 495.498 165.966C496.887 166.187 497.998 165.305 497.998 163.983Z" fill="#1661BE"/>
<path d="M531.998 112.493C531.998 110.471 529.867 109 527.498 109C524.893 109 522.998 110.655 522.998 112.493C522.998 114.515 525.13 115.986 527.498 115.986C530.103 116.17 531.998 114.515 531.998 112.493Z" fill="#1661BE"/>
<path d="M561.998 180.5C561.998 176.309 558.689 173 554.498 173C550.307 173 546.998 176.309 546.998 180.5C546.998 184.691 550.307 188 554.498 188C558.689 188 561.998 184.691 561.998 180.5Z" fill="#1661BE"/>
<path d="M562.498 209C566.64 209 569.998 212.134 569.998 216C569.998 219.866 566.64 223 562.498 223C558.356 223 554.998 219.866 554.998 216C554.998 212.134 558.356 209 562.498 209Z" fill="#1661BE"/>
<path d="M537.998 255.988C537.998 254.904 537.089 254 535.998 254C534.907 254 533.998 254.904 533.998 255.988C533.998 257.073 534.907 257.977 535.998 257.977C536.907 258.158 537.998 257.254 537.998 255.988Z" fill="#1661BE"/>
<path d="M528.998 191C528.998 189.25 527.748 188 525.998 188C524.248 188 522.998 189.25 522.998 191C522.998 192.75 524.248 194 525.998 194C527.498 194 528.998 192.75 528.998 191Z" fill="#1661BE"/>
<path d="M485.498 179C486.879 179 487.998 180.567 487.998 182.5C487.998 184.433 486.879 186 485.498 186C484.117 186 482.998 184.433 482.998 182.5C482.998 180.567 484.117 179 485.498 179Z" fill="#1661BE"/>
<path d="M487.998 139.493C487.998 136.925 485.617 135 482.998 135C480.141 135 477.998 137.139 477.998 139.493C477.998 142.06 480.379 143.985 482.998 143.985C485.617 144.199 487.998 142.06 487.998 139.493Z" fill="#1661BE"/>
<path d="M450.998 123C450.998 120.714 449.07 119 446.498 119C443.927 119 441.998 120.714 441.998 123C441.998 125.286 443.927 127 446.498 127C448.855 127 450.998 125.095 450.998 123Z" fill="#1661BE"/>
<path d="M423.998 176C427.312 176 429.998 178.686 429.998 182C429.998 185.314 427.312 188 423.998 188C420.684 188 417.998 185.314 417.998 182C417.998 178.686 420.684 176 423.998 176Z" fill="#1661BE"/>
<path d="M464.498 218C466.431 218 467.998 219.119 467.998 220.5C467.998 221.881 466.431 223 464.498 223C462.565 223 460.998 221.881 460.998 220.5C460.998 219.119 462.565 218 464.498 218Z" fill="#1661BE"/>
<path d="M410.998 216.5C410.998 212.429 407.57 209 403.498 209C399.427 209 395.998 212.429 395.998 216.5C395.998 220.571 399.427 224 403.498 224C407.57 224 410.998 220.571 410.998 216.5Z" fill="#1661BE"/>
<path d="M365.998 218.993C365.998 216.289 363.936 214 361.498 214C359.061 214 356.998 216.289 356.998 218.993C356.998 221.698 359.061 223.987 361.498 223.987C363.936 224.195 365.998 221.906 365.998 218.993Z" fill="#1661BE"/>
<path d="M370.998 160.5C370.998 158.045 369.18 156 366.998 156C364.816 156 362.998 158.045 362.998 160.5C362.998 162.955 364.816 165 366.998 165C369.18 165 370.998 162.955 370.998 160.5Z" fill="#1661BE"/>
<path d="M320.998 151.5C320.998 150.154 319.844 149 318.498 149C317.152 149 315.998 150.154 315.998 151.5C315.998 152.846 317.152 154 318.498 154C319.844 154 320.998 152.846 320.998 151.5Z" fill="#1661BE"/>
<path d="M305.998 154C307.655 154 308.998 155.567 308.998 157.5C308.998 159.433 307.655 161 305.998 161C304.341 161 302.998 159.433 302.998 157.5C302.998 155.567 304.341 154 305.998 154Z" fill="#1661BE"/>
<path d="M302.998 189.5C302.998 188.042 301.748 187 299.998 187C298.248 187 296.998 188.042 296.998 189.5C296.998 190.958 298.248 192 299.998 192C301.498 192 302.998 190.958 302.998 189.5Z" fill="#1661BE"/>
<path d="M257.998 140C257.998 138.909 256.634 138 254.998 138C253.362 138 251.998 138.909 251.998 140C251.998 141.091 253.362 142 254.998 142C256.634 142 257.998 141.091 257.998 140Z" fill="#1661BE"/>
<path d="M260.998 175C260.998 173.909 260.089 173 258.998 173C257.907 173 256.998 173.909 256.998 175C256.998 176.091 257.907 177 258.998 177C260.089 177 260.998 176.091 260.998 175Z" fill="#1661BE"/>
<path d="M240.998 211C244.312 211 246.998 213.462 246.998 216.5C246.998 219.538 244.312 222 240.998 222C237.684 222 234.998 219.538 234.998 216.5C234.998 213.462 237.684 211 240.998 211Z" fill="#1661BE"/>
<path d="M261.998 222C261.998 219.8 260.198 218 257.998 218C255.798 218 253.998 219.8 253.998 222C253.998 224.2 255.798 226 257.998 226C260.198 226 261.998 224.2 261.998 222Z" fill="#1661BE"/>
<path d="M285.998 238.5C285.998 237 284.748 236 283.498 236C281.998 236 280.998 237.25 280.998 238.5C280.998 240 282.248 241 283.498 241C284.748 241 285.998 240 285.998 238.5Z" fill="#1661BE"/>
<path d="M335.998 275C335.998 271.786 333.212 269 329.498 269C326.016 269 322.998 271.571 322.998 275C322.998 278.214 325.784 281 329.498 281C333.212 281 335.998 278.214 335.998 275Z" fill="#1661BE"/>
<path d="M382.498 256C383.879 256 384.998 257.119 384.998 258.5C384.998 259.881 383.879 261 382.498 261C381.117 261 379.998 259.881 379.998 258.5C379.998 257.119 381.117 256 382.498 256Z" fill="#1661BE"/>
<path d="M440.998 261C440.998 257.062 437.717 254 433.498 254C429.279 254 425.998 257.062 425.998 261C425.998 264.937 429.279 268 433.498 268C437.482 268 440.998 264.937 440.998 261Z" fill="#1661BE"/>
<path d="M479.998 245.5C479.998 244.154 478.844 243 477.498 243C476.152 243 474.998 244.154 474.998 245.5C474.998 246.846 476.152 248 477.498 248C478.844 248 479.998 246.846 479.998 245.5Z" fill="#1661BE"/>
<path d="M477.998 316.5C477.998 311.803 474.419 308 469.998 308C465.577 308 461.998 311.803 461.998 316.5C461.998 321.197 465.577 325 469.998 325C474.419 325 477.998 321.197 477.998 316.5Z" fill="#1661BE"/>
<path d="M402.998 330C405.207 330 406.998 331.567 406.998 333.5C406.998 335.433 405.207 337 402.998 337C400.789 337 398.998 335.433 398.998 333.5C398.998 331.567 400.789 330 402.998 330Z" fill="#1661BE"/>
<path d="M387.998 326C387.998 323.895 386.314 322 383.998 322C381.893 322 379.998 323.684 379.998 326C379.998 328.105 381.682 330 383.998 330C386.314 330 387.998 328.105 387.998 326Z" fill="#1661BE"/>
<path d="M392.998 250.5C392.998 249.042 391.956 248 390.498 248C389.04 248 387.998 249.042 387.998 250.5C387.998 251.958 389.04 253 390.498 253C391.748 253 392.998 251.958 392.998 250.5Z" fill="#1661BE"/>
<path d="M323.998 251.5C323.998 250.6 323.398 250 322.498 250C321.598 250 320.998 250.6 320.998 251.5C320.998 252.4 321.598 253 322.498 253C323.398 253 323.998 252.4 323.998 251.5Z" fill="#1661BE"/>
<path d="M313.998 369C313.998 365.69 311.533 363 308.498 363C305.464 363 302.998 365.69 302.998 369C302.998 372.31 305.464 375 308.498 375C311.533 375 313.998 372.31 313.998 369Z" fill="#1661BE"/>
<path d="M281.998 347.5C281.998 346.154 280.844 345 279.498 345C278.152 345 276.998 346.154 276.998 347.5C276.998 348.846 278.152 350 279.498 350C280.844 350 281.998 348.846 281.998 347.5Z" fill="#1661BE"/>
<path d="M241.998 388.476C241.998 387.492 241.248 387 240.498 387C239.498 387 238.998 387.738 238.998 388.476C238.998 389.46 239.748 389.952 240.498 389.952C241.248 390.198 241.998 389.46 241.998 388.476Z" fill="#1661BE"/>
</g>
</svg>
