<svg width="561" height="437" viewBox="0 0 561 437" fill="none" xmlns="http://www.w3.org/2000/svg">
<path d="M-481.537 166.25C-480.021 166.25 -478.505 165.173 -478.289 163.666L-434.112 163.666L-416.138 181.54L-261.952 181.54L-232.284 152.468L-180.311 152.468L-144.58 188L-84.1615 188L-31.3225 135.455L104.89 135.455L143.436 97.1232L158.811 97.1232L185.231 70.8507L233.306 70.8507L290.909 13.5681C292.208 14.2141 293.941 14.2141 295.024 12.922C296.323 11.63 296.323 9.26115 295.024 7.96907C293.724 6.67699 291.342 6.67699 290.043 7.96907C288.96 9.04581 288.743 10.7686 289.393 12.0607L232.223 68.9125L184.365 68.9125L157.945 95.185L142.57 95.185L104.24 133.302L-31.9721 133.302L-84.8111 185.847L-143.714 185.847L-179.445 150.314L-233.15 150.314L-262.602 179.601L-415.272 179.602L-433.246 161.728L-478.289 161.728C-478.722 160.22 -480.021 159.143 -481.537 159.143C-483.486 159.143 -485.002 160.651 -485.002 162.589C-485.002 164.742 -483.486 166.25 -481.537 166.25Z" fill="url(#paint0_linear_40_2145)"/>
<path d="M-488.537 337.565C-487.022 337.565 -485.506 336.49 -485.073 334.985L-413.833 334.985L-398.892 320.15L-298.636 320.15L-279.148 339.5L-233.892 339.5L-225.881 331.545L-156.156 331.545L-118.912 368.524L-46.8062 368.524L-14.5425 336.49L50.8511 336.49L92.8588 378.199L135.516 378.199L169.079 344.874L193.114 344.874L242.917 394.323L271.5 394.323L309.394 431.948C308.528 433.238 308.744 434.958 310.043 436.033C311.343 437.322 313.724 437.322 315.024 436.033C316.323 434.743 316.323 432.378 315.024 431.088C313.941 430.013 312.209 429.798 310.909 430.443L272.366 392.173L243.784 392.173L193.981 342.724L168.429 342.725L134.867 376.049L93.7249 376.049L51.7172 334.34L-15.1921 334.34L-47.4558 366.374L-118.046 366.374L-155.074 329.395L-226.314 329.395L-234.325 337.35L-278.499 337.35L-297.987 318L-399.758 318L-414.699 332.835L-485.073 332.835C-485.506 331.33 -486.805 330.255 -488.537 330.255C-490.486 330.255 -492.002 331.76 -492.002 333.695C-492.002 336.06 -490.27 337.565 -488.537 337.565Z" fill="url(#paint1_linear_40_2145)"/>
<path d="M-477.691 236.344C-476.177 236.344 -474.663 235.264 -474.231 233.752L-337.328 233.752L-296.452 274.577L-241.518 274.577L-209.725 242.824L-129.92 242.824L-94.6666 278.033L-36.2722 278.033L-22.8631 264.641L28.178 264.641L49.1567 285.594L90.4654 285.594L112.958 263.129L156.429 263.129L186.708 293.37L241.858 293.37L281.221 332.683L418.123 332.683L448.402 362.924C447.753 364.22 447.753 365.948 449.05 367.028C450.348 368.324 452.727 368.324 454.025 367.028C455.322 365.732 455.322 363.356 454.025 362.06C452.943 360.98 451.213 360.764 449.916 361.412L418.988 330.523L282.086 330.523L242.723 291.21L187.789 291.21L157.511 260.969L112.526 260.969L90.0328 283.434L50.2381 283.434L29.2594 262.481L-23.2957 262.481L-36.7047 275.873L-93.5853 275.873L-128.838 240.664L-210.158 240.664L-241.95 272.417L-295.37 272.417L-336.247 231.592L-474.014 231.592C-474.447 230.08 -475.744 229 -477.475 229C-479.421 229 -480.935 230.512 -480.935 232.456C-481.368 234.616 -479.637 236.344 -477.691 236.344Z" fill="url(#paint2_linear_40_2145)"/>
<path d="M-415.23 200.807L-436 179.91L-474.079 179.91C-474.511 178.387 -475.809 177.298 -477.54 177.298C-479.487 177.298 -481.002 178.822 -481.002 180.781C-481.002 182.74 -479.487 184.264 -477.54 184.264C-476.026 184.264 -474.511 183.175 -474.079 181.652L-436.866 181.652L-416.096 202.548L-330.852 202.548L-286.716 246.953L-251.667 246.953L-223.757 218.873L-120.34 218.873L-89.401 250L-43.5339 250L-18.6532 225.403L58.5853 225.403L81.7351 248.259L176.282 248.259L231.236 192.971L340.711 192.971L361.914 171.639C363.212 172.292 364.943 172.292 366.024 170.986C367.323 169.68 367.323 167.286 366.024 165.98C364.726 164.674 362.346 164.674 361.048 165.98C359.967 167.068 359.75 168.809 360.399 170.115L339.629 191.012L230.154 191.012L175.2 246.3L82.1679 246.3L59.2343 223.227L-19.7349 223.227L-44.6157 248.259L-88.9683 248.259L-119.907 217.132L-224.839 217.132L-252.748 245.211L-286.067 245.211L-330.203 200.807L-415.23 200.807Z" fill="url(#paint3_linear_40_2145)"/>
<path d="M-300.047 199.728C-301.347 198.432 -303.728 198.432 -305.028 199.728C-306.327 201.025 -306.327 203.401 -305.028 204.698C-303.945 205.778 -302.213 205.994 -300.914 205.346L-277.095 229.111L-254.144 229.111L-226.428 201.457L-123.578 201.457L-91.9645 233L-50.6077 233L-19.8609 202.321L63.0692 202.321C63.5023 203.833 64.8014 204.914 66.5337 204.914C68.4824 204.914 69.998 203.401 69.998 201.457C69.998 199.512 68.4824 198 66.5337 198C65.018 198 63.5023 199.08 63.0692 200.593L-20.5104 200.593L-51.2573 231.272L-91.0984 231.272L-122.711 199.728L-227.078 199.728L-254.793 227.383L-276.229 227.383L-299.614 204.049C-298.748 202.537 -298.965 200.809 -300.047 199.728Z" fill="url(#paint4_linear_40_2145)"/>
<path d="M351.303 76.6738L304.845 76.6738L268.759 113.129L179.085 113.129L134.787 157.88L-22.9535 157.88L-70.924 206.342C-72.2205 205.687 -73.9492 205.687 -75.0296 206.997C-76.3261 208.307 -76.3261 210.708 -75.0296 212.018C-73.7331 213.327 -71.3562 213.327 -70.0597 212.018C-68.9793 210.926 -68.7632 209.18 -69.4115 207.87L-21.8731 159.845L135.868 159.845L180.165 115.094L269.84 115.094L305.926 78.6385L352.384 78.6385L386.309 44.3659L445.083 44.3659C445.516 45.894 446.812 46.9855 448.541 46.9855C450.485 46.9855 451.998 45.4574 451.998 43.4928C451.998 41.5281 450.485 40 448.541 40C447.028 40 445.516 41.0915 445.083 42.6196L385.444 42.6196L351.303 76.6738Z" fill="url(#paint5_linear_40_2145)"/>
<path d="M78.438 170.547L-8.52076 170.547L-50.9186 212.475C-52.2165 211.834 -53.947 211.834 -55.0286 213.117C-56.3264 214.401 -56.3264 216.754 -55.0286 218.037C-53.7307 219.321 -51.3512 219.321 -50.0533 218.037C-48.9717 216.968 -48.7554 215.256 -49.4043 213.973L-7.65552 172.472L77.7891 172.472L103.747 198.357L155.879 198.357L194.383 160.278L291.076 160.278C291.509 161.776 292.807 162.846 294.537 162.846C296.484 162.846 297.998 161.348 297.998 159.423C297.998 157.497 296.484 156 294.537 156C293.023 156 291.509 157.07 291.076 158.567L193.734 158.567L155.23 196.645L104.612 196.645L78.438 170.547Z" fill="url(#paint6_linear_40_2145)"/>
<path d="M330.857 108.476L301.334 138.111L182.155 138.111L141.778 178.642L115.945 178.642C115.511 177.117 114.208 176.027 112.471 176.027C110.518 176.027 108.998 177.552 108.998 179.513C108.998 181.475 110.518 183 112.471 183C113.991 183 115.511 181.91 115.945 180.385L142.646 180.385L182.806 139.854L301.985 139.854L331.508 110.219L373.405 110.219L394.897 88.6462C396.199 89.2999 397.936 89.2999 399.021 87.9925C400.324 86.685 400.324 84.288 399.021 82.9806C397.719 81.6731 395.331 81.6731 394.028 82.9806C392.943 84.0701 392.726 85.8134 393.377 87.1208L372.32 108.258L330.857 108.258L330.857 108.476Z" fill="url(#paint7_linear_40_2145)"/>
<path d="M306.083 181.602L221.804 181.602L172.318 231.265L97.7639 231.265L77.2345 210.663L21.6971 210.663C21.2649 209.145 19.9683 208.06 18.4556 208.06C16.5107 208.06 14.998 209.578 14.998 211.53C14.998 213.482 16.5107 215 18.4556 215C19.9683 215 21.481 213.916 21.6971 212.398L76.37 212.398L96.8994 233L172.966 233L222.453 183.337L306.083 183.337C306.515 184.855 307.812 185.94 309.541 185.94C311.485 185.94 312.998 184.422 312.998 182.47C312.998 180.518 311.485 179 309.541 179C307.812 179 306.515 180.084 306.083 181.602Z" fill="url(#paint8_linear_40_2145)"/>
<path d="M399.31 124C397.792 124 396.273 125.077 395.839 126.585L361.782 126.585L318.614 169.461L208.416 169.461L163.295 214.276L102.99 214.276L76.0912 187.56L4.93969 187.56C4.50586 186.052 3.20428 184.974 1.46887 184.974C-0.483432 184.974 -2.00193 186.482 -2.00193 188.422C-2.00192 190.361 -0.483431 191.869 1.46887 191.869C2.98736 191.869 4.50586 190.792 4.93969 189.283L75.2236 189.283L102.122 216L164.163 216L209.284 171.185L319.482 171.185L362.65 128.309L396.056 128.309C396.49 129.817 397.792 130.895 399.527 130.895C401.48 130.895 402.998 129.386 402.998 127.447C402.998 125.508 401.263 124 399.31 124Z" fill="url(#paint9_linear_40_2145)"/>
<path d="M277.805 52.2051L240.34 89.5528L181.868 89.5528L125.561 145.682L-16.0719 145.682C-16.505 144.171 -17.8044 143.092 -19.5369 143.092C-21.486 143.092 -23.002 144.603 -23.002 146.546C-23.002 148.489 -21.486 150 -19.5369 150C-18.021 150 -16.505 148.921 -16.0719 147.409L126.211 147.409L182.517 91.2799L240.99 91.2799L278.672 53.9322L338.443 53.9321L375.909 16.5844C377.208 17.2321 378.941 17.2321 380.023 15.9368C381.323 14.6414 381.323 12.2668 380.023 10.9715C378.724 9.67618 376.342 9.67618 375.043 10.9715C373.96 12.0509 373.743 13.7779 374.393 15.0732L337.577 51.7733L277.805 51.7733L277.805 52.2051Z" fill="url(#paint10_linear_40_2145)"/>
<path d="M-368.897 308.292C-367.378 308.292 -365.859 307.187 -365.642 305.641L-286.874 305.641L-270.817 321.993L-148 321.993L-116.753 353.813L-57.2974 353.813L-18.0221 313.817L68.3404 313.817L103.71 349.835L141.9 349.835L167.722 323.539L205.262 323.539L238.461 357.348L412.054 357.348C412.488 358.895 413.79 360 415.526 360C417.479 360 418.998 358.453 418.998 356.464C418.998 354.476 417.479 352.929 415.526 352.929C414.007 352.929 412.488 354.034 412.054 355.581L239.112 355.581L205.913 321.772L166.854 321.772L141.032 347.846L104.578 347.846L69.2084 311.828L-18.673 311.828L-57.7314 351.824L-115.668 351.824L-146.915 320.004L-269.732 320.004L-285.789 303.652L-365.208 303.652C-365.642 302.105 -366.944 301 -368.463 301C-370.416 301 -371.935 302.547 -371.935 304.536C-372.368 306.524 -370.633 308.292 -368.897 308.292Z" fill="url(#paint11_linear_40_2145)"/>
<path d="M9.14849 283.17L25.1865 283.17L42.3081 300.277L107.543 300.277L123.148 284.686L158.475 284.686L176.897 303.092L233.896 303.092L277.242 346.401L407.279 346.401C407.713 347.917 409.013 349 410.53 349C412.481 349 413.998 347.484 413.998 345.535C413.998 343.586 412.481 342.071 410.53 342.071C409.013 342.071 407.496 343.153 407.279 344.669L277.892 344.669L234.547 301.36L177.547 301.36L159.125 282.954L122.281 282.954L106.676 298.545L42.9582 298.545L25.8367 281.438L8.28161 281.438L-6.02253 295.73L-93.7977 295.73L-129.558 260L-193.493 260L-219.284 285.769L-276.067 285.769C-276.5 284.253 -277.801 283.17 -279.534 283.17C-281.485 283.17 -283.002 284.686 -283.002 286.635C-283.002 288.584 -281.485 290.1 -279.534 290.1C-278.017 290.1 -276.5 289.017 -276.067 287.501L-218.417 287.501L-192.626 261.732L-130.208 261.732L-94.4478 297.462L-5.15555 297.462L9.14849 283.17Z" fill="url(#paint12_linear_40_2145)"/>
<path d="M350.245 220.671L384.935 185.637C386.227 186.29 387.951 186.29 389.028 184.984C390.321 183.678 390.321 181.285 389.028 179.979C387.736 178.674 385.366 178.674 384.073 179.979C382.995 181.067 382.78 182.808 383.426 184.114L349.168 218.713L228.292 218.713L186.062 261.363C184.769 260.493 183.045 260.71 181.968 262.016C180.675 263.322 180.675 265.715 181.968 267.021C183.26 268.326 185.631 268.326 186.923 267.021C188.001 265.933 188.216 264.192 187.57 262.886L229.37 220.671L350.245 220.671Z" fill="url(#paint13_linear_40_2145)"/>
<path d="M448.877 306.074L411.95 306.074L394.79 289.037L355.692 289.037L335.925 308.662L286.835 308.662L252.515 274.588L199.949 274.588C199.515 273.078 198.211 272 196.474 272C194.519 272 192.998 273.51 192.998 275.451C192.998 277.391 194.519 278.901 196.474 278.901C197.994 278.901 199.515 277.823 199.949 276.313L251.863 276.313L286.183 310.387L336.794 310.387L356.561 290.762L394.139 290.762L411.299 307.799L448.008 307.799L480.373 339.932C479.721 341.226 479.721 342.951 481.025 344.03C482.328 345.323 484.717 345.323 486.021 344.03C487.324 342.736 487.324 340.363 486.021 339.069C484.935 337.991 483.197 337.775 481.893 338.422L448.877 306.074Z" fill="url(#paint14_linear_40_2145)"/>
<path d="M281.659 240.748L306.638 266L337.001 266L360.472 242.272L394.495 242.272L411.938 224.639C413.23 225.293 414.952 225.292 416.029 223.986C417.321 222.68 417.321 220.286 416.029 218.98C414.737 217.673 412.368 217.673 411.076 218.98C410 220.068 409.784 221.81 410.43 223.116L393.419 240.313L359.396 240.313L335.924 264.041L307.069 264.041L282.09 238.789L235.577 238.789L217.058 257.51C215.766 256.639 214.044 256.857 212.967 258.163C211.675 259.469 211.675 261.864 212.967 263.17C214.259 264.476 216.628 264.476 217.92 263.17C218.996 262.082 219.212 260.34 218.566 259.034L236.654 240.748L281.659 240.748Z" fill="url(#paint15_linear_40_2145)"/>
<path d="M329.653 229.666C329.223 228.149 327.935 227.065 326.433 227.065C324.501 227.065 322.998 228.582 322.998 230.533C322.998 232.483 324.501 234 326.433 234C327.935 234 329.438 232.916 329.653 231.4L380.528 231.4L418.953 192.609C420.241 193.476 421.959 193.26 423.032 191.959C424.32 190.659 424.32 188.275 423.032 186.975C421.744 185.675 419.383 185.675 418.095 186.975C417.021 188.059 416.807 189.792 417.451 191.093L379.455 229.449L329.653 229.449L329.653 229.666Z" fill="url(#paint16_linear_40_2145)"/>
<path d="M408.14 258.34L371.155 258.34L353.419 276.253L281.394 276.253L266.47 261.18L237.919 261.18C237.487 259.651 236.189 258.559 234.459 258.559C232.512 258.559 230.998 260.088 230.998 262.054C230.998 264.02 232.512 265.549 234.459 265.549C235.973 265.549 237.487 264.457 237.919 262.928L265.821 262.928L280.745 278L354.284 278L372.02 260.088L409.005 260.088L460.915 207.662C462.213 208.318 463.943 208.318 465.025 207.007C466.322 205.696 466.322 203.294 465.025 201.983C463.727 200.672 461.348 200.672 460.05 201.983C458.969 203.075 458.752 204.823 459.401 206.133L408.14 258.34Z" fill="url(#paint17_linear_40_2145)"/>
<path d="M270.92 275.986C269.628 274.671 267.259 274.671 265.967 275.986C264.675 277.301 264.675 279.712 265.967 281.027C267.044 282.123 268.766 282.342 270.058 281.685L284.486 296.37L324.107 296.37C324.538 297.904 325.83 299 327.553 299C329.491 299 330.998 297.466 330.998 295.493C330.998 293.521 329.491 291.986 327.553 291.986C326.045 291.986 324.538 293.082 324.107 294.616L285.562 294.616L271.566 280.37C272.212 278.836 272.212 277.082 270.92 275.986Z" fill="url(#paint18_linear_40_2145)"/>
<path d="M448.535 427.084C447.019 427.084 445.504 428.165 445.071 429.678L397.016 429.678L387.275 419.952L330.346 419.952L287.919 377.593L245.925 377.593C245.492 376.081 244.193 375 242.461 375C240.513 375 238.998 376.513 238.998 378.458C238.998 380.403 240.513 381.916 242.461 381.916C243.977 381.916 245.492 380.835 245.925 379.322L287.269 379.322L329.696 421.681L386.626 421.681L396.367 431.407L445.071 431.407C445.504 432.919 446.803 434 448.535 434C450.483 434 451.998 432.487 451.998 430.542C451.998 428.813 450.483 427.084 448.535 427.084Z" fill="url(#paint19_linear_40_2145)"/>
<path d="M481.525 407.2C480.005 407.2 478.486 408.263 478.052 409.75L399.69 409.75L391.224 401.463L344.12 401.463L307.436 365.55L257.944 365.55C257.51 364.063 256.208 363 254.471 363C252.518 363 250.998 364.488 250.998 366.4C250.998 368.313 252.518 369.8 254.471 369.8C255.991 369.8 257.51 368.738 257.944 367.25L306.568 367.25L343.252 403.163L390.356 403.163L398.822 411.45L478.052 411.45C478.486 412.938 479.788 414 481.525 414C483.479 414 484.998 412.513 484.998 410.6C484.998 408.688 483.479 407.2 481.525 407.2Z" fill="url(#paint20_linear_40_2145)"/>
<path d="M426.027 401.01C427.33 402.33 429.718 402.33 431.021 401.01C432.324 399.691 432.324 397.271 431.021 395.952C429.935 394.852 428.198 394.632 426.896 395.292L404.531 372.639L348.946 372.639C348.512 371.1 347.209 370 345.472 370C343.518 370 341.998 371.54 341.998 373.519C341.998 375.498 343.518 377.038 345.472 377.038C346.992 377.038 348.512 375.938 348.946 374.399L403.88 374.399L425.593 396.392C424.724 397.931 424.941 399.691 426.027 401.01Z" fill="url(#paint21_linear_40_2145)"/>
<path d="M-330.345 283.538L-265.006 283.538L-264.79 283.755L-264.573 283.538L-111.395 283.538L-79.158 251.222L20.7974 251.222L28.8026 259.247C27.7208 260.982 27.9371 263.368 29.668 265.103C31.6152 267.055 34.6441 267.055 36.5913 265.103C38.5385 263.151 38.5385 260.114 36.5913 258.379C35.0768 256.861 32.6969 256.644 30.7497 257.512L21.8792 248.62L-76.5618 248.62L-58.388 230.401C-56.6572 231.486 -54.2774 231.269 -52.5465 229.534C-50.5993 227.582 -50.5993 224.545 -52.5465 222.81C-54.4937 220.858 -57.5227 220.858 -59.2535 222.81C-60.768 224.329 -60.9843 226.714 -60.1189 228.666L-112.477 281.152L-197.504 281.152L-174.57 258.162L-139.304 258.162C-138.655 260.114 -136.924 261.633 -134.761 261.633C-132.165 261.633 -130.001 259.464 -130.001 256.861C-130.001 254.258 -132.165 252.09 -134.761 252.09C-136.924 252.09 -138.872 253.608 -139.304 255.56L-175.652 255.56L-201.182 281.152L-262.193 281.152L-203.778 222.594L-96.0337 222.594L-58.8208 185.29L-21.3916 185.29L12.1433 218.907L63.4192 218.907L81.1602 236.691L149.744 236.691C150.393 238.643 152.124 240.161 154.288 240.161C156.884 240.161 159.048 237.992 159.048 235.39C159.048 232.787 156.884 230.618 154.288 230.618C152.124 230.618 150.177 232.136 149.744 234.088L82.242 234.088L66.8809 218.69L170.731 218.69C171.38 220.642 173.111 222.16 175.274 222.16C177.87 222.16 180.034 219.991 180.034 217.388C180.034 214.786 177.87 212.617 175.274 212.617C173.111 212.617 171.163 214.135 170.731 216.087L13.0087 216.087L-17.9299 185.073L241.695 185.073C242.344 187.025 244.075 188.543 246.238 188.543C248.834 188.543 250.998 186.374 250.998 183.771C250.998 181.169 248.834 179 246.238 179C244.075 179 242.127 180.518 241.695 182.47L-60.1189 182.47L-97.3317 219.774L-205.076 219.774L-237.962 252.74L-271.713 252.74L-284.478 239.944C-283.396 238.209 -283.612 235.823 -285.343 234.088C-287.29 232.136 -290.319 232.136 -292.05 234.088C-293.997 236.04 -293.997 239.077 -292.05 240.812C-290.536 242.33 -288.156 242.547 -286.209 241.679L-272.795 255.126L-240.342 255.126L-265.871 280.718L-331.427 280.718L-376.645 326.047L-419.266 326.047L-433.113 339.927L-546.699 339.927C-547.348 337.975 -549.079 336.457 -551.242 336.457C-553.838 336.457 -556.002 338.626 -556.002 341.229C-556.002 343.831 -553.838 346 -551.242 346C-549.079 346 -547.131 344.482 -546.699 342.53L-432.031 342.53L-418.185 328.649L-375.563 328.649L-330.345 283.538Z" fill="url(#paint22_linear_40_2145)"/>
<path d="M195.174 255.911L215.968 235.028L336.4 235.028C337.049 236.966 338.782 238.473 340.948 238.473C343.548 238.473 345.714 236.32 345.714 233.736C345.714 231.153 343.548 229 340.948 229C338.782 229 336.833 230.507 336.4 232.445L214.885 232.445L191.492 255.696L191.708 255.911L82.9734 255.911L38.5697 300.045L-20.7796 300.045L-42.44 278.516C-41.357 276.794 -41.5736 274.426 -43.3064 272.703C-45.2558 270.766 -48.2883 270.766 -50.0211 272.703C-51.9706 274.641 -51.9706 277.655 -50.0211 279.377C-48.5049 280.884 -46.1222 281.099 -44.1728 280.238L-21.8626 302.413L35.9705 302.413L0.0143075 338.15L-217.889 338.15L-275.289 395.417L-402.002 395.417L-402.002 398L-274.206 398L-216.806 340.949L-118.684 340.949L-94.6415 364.846L32.7215 364.846L111.998 286.051L140.157 286.051L168.748 314.469L352.862 314.469L377.988 339.442C376.905 341.164 377.121 343.532 378.854 345.255C380.803 347.192 383.836 347.192 385.569 345.255C387.518 343.317 387.518 340.303 385.569 338.581C384.052 337.074 381.67 336.859 379.72 337.72L353.945 312.101L169.831 312.101L143.622 286.051L221.816 286.051C222.466 287.989 224.199 289.496 226.365 289.496C228.964 289.496 231.13 287.343 231.13 284.759C231.13 282.176 228.964 280.023 226.365 280.023C224.199 280.023 222.25 281.53 221.816 283.468L110.699 283.468L31.4218 362.262L-93.7751 362.262L-115.219 340.949L1.09735 340.949L84.0565 258.494L389.684 258.494C390.334 260.432 392.067 261.939 394.233 261.939C396.832 261.939 398.998 259.786 398.998 257.203C398.998 254.619 396.832 252.466 394.233 252.466C392.067 252.466 390.117 253.973 389.684 255.911L195.174 255.911Z" fill="url(#paint23_linear_40_2145)"/>
<path d="M-564.701 304.244C-563.183 305.756 -560.797 305.972 -558.846 305.108L-535.86 328L-485.334 328L-459.312 302.084L-410.738 302.084L-367.368 258.891L-329.853 258.891C-329.202 260.835 -327.467 262.347 -325.299 262.347C-322.697 262.347 -320.528 260.187 -320.528 257.596C-320.528 255.004 -322.697 252.844 -325.299 252.844C-327.467 252.844 -329.419 254.356 -329.853 256.3L-368.452 256.3L-411.822 299.493L-456.71 299.493L-386.45 229.736L-314.456 229.736L-284.097 199.501L-175.022 199.501L-152.253 177.041L-89.8002 177.041L-81.7767 169.05C-80.0419 170.13 -77.6565 169.914 -75.9217 168.186C-73.9701 166.243 -73.9701 163.219 -75.9217 161.491C-77.8734 159.548 -80.9093 159.548 -82.6441 161.491C-84.162 163.003 -84.3789 165.379 -83.5115 167.323L-90.6675 174.449L-123.846 174.449L-79.6082 130.393L-48.165 130.393L-21.0588 157.604L32.9368 157.604C33.5873 159.548 35.3221 161.06 37.4906 161.06C40.0928 161.06 42.2613 158.9 42.2613 156.308C42.2613 153.717 40.0928 151.557 37.4906 151.557C35.3221 151.557 33.3705 153.069 32.9368 155.013L-19.9745 155.013L-44.6954 130.393L39.876 130.393L67.8496 158.252L269.737 158.252L284.916 173.369C283.832 175.097 284.049 177.473 285.783 179.201C287.735 181.144 290.771 181.144 292.506 179.201C294.457 177.257 294.457 174.233 292.506 172.506C290.988 170.994 288.603 170.778 286.651 171.642L270.604 155.66L116.641 155.66L158.926 113.547L348.019 113.547L379.679 82.0165C381.414 83.0964 383.799 82.8804 385.534 81.1527C387.486 79.209 387.486 76.1855 385.534 74.4578C383.583 72.5141 380.547 72.5141 378.812 74.4578C377.294 75.9695 377.077 78.3451 377.945 80.2888L346.935 111.172L157.842 111.172L113.171 155.66L68.717 155.66L40.7434 127.801L-80.9093 127.801L-127.532 174.233L-153.12 174.233L-175.889 196.91L-281.278 196.91L-237.475 153.285L-141.41 153.285C-140.76 155.229 -139.025 156.74 -136.857 156.74C-134.254 156.74 -132.086 154.581 -132.086 151.989C-132.086 149.397 -134.254 147.238 -136.857 147.238C-139.025 147.238 -140.977 148.75 -141.41 150.693L-238.559 150.693L-315.324 227.145L-387.318 227.145L-486.201 325.409L-534.776 325.409L-557.111 303.164C-556.027 301.436 -556.244 299.061 -557.978 297.333C-559.93 295.389 -562.966 295.389 -564.701 297.333C-566.436 299.493 -566.436 302.516 -564.701 304.244Z" fill="url(#paint24_linear_40_2145)"/>
<path d="M353.998 187C350.684 187 347.998 189.686 347.998 193C347.998 196.314 350.684 199 353.998 199C357.312 199 359.998 196.314 359.998 193C359.998 189.686 357.312 187 353.998 187Z" fill="url(#paint25_radial_40_2145)"/>
<path d="M398.998 238.5C398.998 237.071 400.284 236 401.998 236C403.712 236 404.998 237.071 404.998 238.5C404.998 239.929 403.712 241 401.998 241C400.498 241 398.998 239.929 398.998 238.5Z" fill="url(#paint26_radial_40_2145)"/>
<path d="M386.998 269.5C386.998 268.6 387.398 268 387.998 268C388.598 268 388.998 268.6 388.998 269.5C388.998 270.4 388.598 271 387.998 271C387.398 270.7 386.998 270.1 386.998 269.5Z" fill="url(#paint27_radial_40_2145)"/>
<path d="M383.998 295.5C383.998 295.2 384.598 295 385.498 295C386.398 295 386.998 295.2 386.998 295.5C386.998 295.8 386.398 296 385.498 296C384.598 296 383.998 295.8 383.998 295.5Z" fill="url(#paint28_radial_40_2145)"/>
<path d="M338.998 313C335.684 313 332.998 315.015 332.998 317.5C332.998 319.985 335.684 322 338.998 322C342.312 322 344.998 319.985 344.998 317.5C344.998 315.015 342.312 313 338.998 313Z" fill="url(#paint29_radial_40_2145)"/>
<path d="M305.998 343C304.893 343 303.998 344.119 303.998 345.5C303.998 346.881 304.893 348 305.998 348C307.103 348 307.998 346.881 307.998 345.5C307.998 344.119 307.103 343 305.998 343Z" fill="url(#paint30_radial_40_2145)"/>
<path d="M279.998 258C279.998 256.8 280.748 256 281.498 256C282.398 256 282.998 257 282.998 258C282.998 259.2 282.248 260 281.498 260C280.598 260 279.998 259 279.998 258Z" fill="url(#paint31_radial_40_2145)"/>
<path d="M252.998 237.487C252.998 236.661 253.665 236 254.498 236C255.331 236 255.998 236.661 255.998 237.487C255.998 238.314 255.331 238.975 254.498 238.975C253.665 239.14 252.998 238.479 252.998 237.487Z" fill="url(#paint32_radial_40_2145)"/>
<path d="M212.998 214.5C212.998 212.531 214.529 211 216.498 211C218.467 211 219.998 212.531 219.998 214.5C219.998 216.469 218.467 218 216.498 218C214.529 217.781 212.998 216.25 212.998 214.5Z" fill="url(#paint33_radial_40_2145)"/>
<path d="M121.498 223C118.461 223 115.998 225.462 115.998 228.5C115.998 231.538 118.461 234 121.498 234C124.536 234 126.998 231.538 126.998 228.5C126.998 225.462 124.536 223 121.498 223Z" fill="url(#paint34_radial_40_2145)"/>
<path d="M145.998 208.5C145.998 207.25 147.04 206 148.498 206C149.748 206 150.998 207.042 150.998 208.5C150.998 209.75 149.956 211 148.498 211C147.04 211 145.998 209.958 145.998 208.5Z" fill="url(#paint35_radial_40_2145)"/>
<path d="M136.998 205C136.998 202.739 139.607 201 142.998 201C146.389 201 148.998 202.739 148.998 205C148.998 207.261 146.389 209 142.998 209C139.607 208.826 136.998 207.087 136.998 205Z" fill="url(#paint36_radial_40_2145)"/>
<path d="M155.998 158C155.998 155.778 157.776 154 159.998 154C162.22 154 163.998 155.778 163.998 158C163.998 160.222 162.22 162 159.998 162C157.776 162 155.998 160.222 155.998 158Z" fill="url(#paint37_radial_40_2145)"/>
<path d="M170.998 153.488C170.998 151.495 172.284 150 173.998 150C175.712 150 176.998 151.495 176.998 153.488C176.998 155.481 175.712 156.976 173.998 156.976C172.284 157.225 170.998 155.481 170.998 153.488Z" fill="url(#paint38_radial_40_2145)"/>
<path d="M183.998 139.5C183.998 138.071 185.498 137 187.498 137C189.498 137 190.998 138.071 190.998 139.5C190.998 140.929 189.498 142 187.498 142C185.748 142 183.998 140.929 183.998 139.5Z" fill="url(#paint39_radial_40_2145)"/>
<path d="M243.998 139.5C243.998 138.75 244.998 138 245.998 138C246.998 138 247.998 138.75 247.998 139.5C247.998 140.25 246.998 141 245.998 141C244.998 141 243.998 140.25 243.998 139.5Z" fill="url(#paint40_radial_40_2145)"/>
<path d="M197.998 57C197.998 55.2857 199.284 54 200.998 54C202.712 54 203.998 55.2857 203.998 57C203.998 58.7143 202.712 60 200.998 60C199.284 60 197.998 58.7143 197.998 57Z" fill="url(#paint41_radial_40_2145)"/>
<path d="M213.998 13.5C213.998 10.0333 217.031 7 220.998 7C224.731 7 227.998 9.81667 227.998 13.5C227.998 16.9667 224.965 20 220.998 20C217.031 19.7833 213.998 16.9667 213.998 13.5Z" fill="url(#paint42_radial_40_2145)"/>
<path d="M242.998 98C242.998 96.8572 244.069 96 245.498 96C246.927 96 247.998 96.8572 247.998 98C247.998 99.1429 246.927 100 245.498 100C244.07 99.7143 242.998 98.8572 242.998 98Z" fill="url(#paint43_radial_40_2145)"/>
<path d="M297.498 40C294.461 40 291.998 42.9102 291.998 46.5C291.998 50.0899 294.461 53 297.498 53C300.536 53 302.998 50.0899 302.998 46.5C302.998 42.9102 300.536 40 297.498 40Z" fill="url(#paint44_radial_40_2145)"/>
<path d="M317.998 80.5C317.998 78.5 319.498 77 321.498 77C323.498 77 324.998 78.5 324.998 80.5C324.998 82.5 323.498 84 321.498 84C319.498 84 317.998 82.5 317.998 80.5Z" fill="url(#paint45_radial_40_2145)"/>
<path d="M322.998 117C322.998 115.889 323.887 115 324.998 115C326.109 115 326.998 115.889 326.998 117C326.998 118.111 326.109 119 324.998 119C323.887 118.778 322.998 117.889 322.998 117Z" fill="url(#paint46_radial_40_2145)"/>
<path d="M354.998 99.5C354.998 96.5536 357.569 94 360.998 94C364.212 94 366.998 96.3571 366.998 99.5C366.998 102.446 364.427 105 360.998 105C357.784 105 354.998 102.643 354.998 99.5Z" fill="url(#paint47_radial_40_2145)"/>
<path d="M334.998 151.5C334.998 150.154 336.613 149 338.498 149C340.383 149 341.998 150.154 341.998 151.5C341.998 152.846 340.383 154 338.498 154C336.613 153.808 334.998 152.846 334.998 151.5Z" fill="url(#paint48_radial_40_2145)"/>
<path d="M345.998 188C343.789 188 341.998 189.791 341.998 192C341.998 194.209 343.789 196 345.998 196C348.207 196 349.998 194.209 349.998 192C349.998 189.791 348.207 188 345.998 188Z" fill="url(#paint49_radial_40_2145)"/>
<path d="M413.998 231C412.341 231 410.998 232.119 410.998 233.5C410.998 234.881 412.341 236 413.998 236C415.655 236 416.998 234.881 416.998 233.5C416.998 232.119 415.655 231 413.998 231Z" fill="url(#paint50_radial_40_2145)"/>
<path d="M379.998 259.5C379.998 256.521 382.29 254 384.998 254C387.706 254 389.998 256.521 389.998 259.5C389.998 262.479 387.706 265 384.998 265C382.081 265 379.998 262.479 379.998 259.5Z" fill="url(#paint51_radial_40_2145)"/>
<path d="M418.998 272.5C418.998 270.556 420.776 269 422.998 269C425.22 269 426.998 270.556 426.998 272.5C426.998 274.444 425.22 276 422.998 276C420.776 276 418.998 274.444 418.998 272.5Z" fill="url(#paint52_radial_40_2145)"/>
<path d="M399.998 343.5C399.998 342.643 400.641 342 401.498 342C402.355 342 402.998 342.643 402.998 343.5C402.998 344.357 402.355 345 401.498 345C400.641 345 399.998 344.357 399.998 343.5Z" fill="url(#paint53_radial_40_2145)"/>
<path d="M419.498 357C416.461 357 413.998 359.462 413.998 362.5C413.998 365.538 416.461 368 419.498 368C422.536 368 424.998 365.538 424.998 362.5C424.998 359.462 422.536 357 419.498 357Z" fill="url(#paint54_radial_40_2145)"/>
<path d="M458.998 386C458.998 383.882 460.439 382 462.498 382C464.351 382 465.998 383.647 465.998 386C465.998 388.118 464.557 390 462.498 390C460.439 390 458.998 388.118 458.998 386Z" fill="url(#paint55_radial_40_2145)"/>
<path d="M493.998 309C493.998 306.75 495.311 305 496.998 305C498.686 305 499.998 306.75 499.998 309C499.998 311.25 498.686 313 496.998 313C495.498 313 493.998 311.25 493.998 309Z" fill="url(#paint56_radial_40_2145)"/>
<path d="M548.998 271.5C548.998 267.914 551.688 265 554.998 265C558.308 265 560.998 267.914 560.998 271.5C560.998 275.086 558.308 278 554.998 278C551.688 278 548.998 275.086 548.998 271.5Z" fill="url(#paint57_radial_40_2145)"/>
<path d="M538.498 253C537.117 253 535.998 254.119 535.998 255.5C535.998 256.881 537.117 258 538.498 258C539.879 258 540.998 256.881 540.998 255.5C540.998 254.119 539.879 253 538.498 253Z" fill="url(#paint58_radial_40_2145)"/>
<path d="M503.998 204C503.998 201.222 506.442 199 509.498 199C512.554 199 514.998 201.222 514.998 204C514.998 206.778 512.554 209 509.498 209C506.442 209 503.998 206.778 503.998 204Z" fill="url(#paint59_radial_40_2145)"/>
<path d="M480.998 158C480.998 155.75 482.529 154 484.498 154C486.467 154 487.998 155.75 487.998 158C487.998 160.25 486.467 162 484.498 162C482.529 161.75 480.998 160 480.998 158Z" fill="url(#paint60_radial_40_2145)"/>
<path d="M472.998 135C472.446 135 471.998 135.672 471.998 136.5C471.998 137.328 472.446 138 472.998 138C473.55 138 473.998 137.328 473.998 136.5C473.998 135.672 473.55 135 472.998 135Z" fill="url(#paint61_radial_40_2145)"/>
<path d="M488.998 56.5C488.998 54.6471 490.645 53 492.498 53C494.351 53 495.998 54.6471 495.998 56.5C495.998 58.353 494.351 60 492.498 60C490.645 60 488.998 58.353 488.998 56.5Z" fill="url(#paint62_radial_40_2145)"/>
<path d="M443.998 3.49998C443.998 1.61536 445.152 3.36241e-07 446.498 2.18557e-07C447.844 1.00873e-07 448.998 1.61536 448.998 3.49998C448.998 5.3846 447.844 7 446.498 7C445.152 7 443.998 5.3846 443.998 3.49998Z" fill="url(#paint63_radial_40_2145)"/>
<path d="M416.998 51.5C416.998 50.1538 418.383 49 419.998 49C421.613 49 422.998 50.1538 422.998 51.5C422.998 52.8462 421.613 54 419.998 54C418.383 54 416.998 52.8462 416.998 51.5Z" fill="url(#paint64_radial_40_2145)"/>
<path d="M331.998 4C331.998 1.8 333.798 5.42021e-07 335.998 3.49691e-07C338.198 1.57361e-07 339.998 1.8 339.998 4C339.998 6.2 338.198 8 335.998 8C333.798 8 331.998 6.2 331.998 4Z" fill="url(#paint65_radial_40_2145)"/>
<path d="M329.998 61C329.998 60.5 330.498 60 330.998 60C331.498 60 331.998 60.5 331.998 61C331.998 61.5 331.498 62 330.998 62C330.498 62 329.998 61.5 329.998 61Z" fill="url(#paint66_radial_40_2145)"/>
<path d="M294.998 101C294.998 98.6842 296.893 97 298.998 97C301.314 97 302.998 98.8947 302.998 101C302.998 103.316 301.103 105 298.998 105C296.682 105 294.998 103.105 294.998 101Z" fill="url(#paint67_radial_40_2145)"/>
<path d="M252.998 114.5C252.998 111.42 255.198 109 257.998 109C260.798 109 262.998 111.42 262.998 114.5C262.998 117.58 260.798 120 257.998 120C255.198 119.78 252.998 117.36 252.998 114.5Z" fill="url(#paint68_radial_40_2145)"/>
<path d="M289.998 172.5C289.998 170.531 291.529 169 293.498 169C295.467 169 296.998 170.531 296.998 172.5C296.998 174.469 295.467 176 293.498 176C291.748 176 289.998 174.469 289.998 172.5Z" fill="url(#paint69_radial_40_2145)"/>
<path d="M225.998 129C224.894 129 223.998 129.672 223.998 130.5C223.998 131.328 224.894 132 225.998 132C227.103 132 227.998 131.328 227.998 130.5C227.998 129.672 227.103 129 225.998 129Z" fill="url(#paint70_radial_40_2145)"/>
<path d="M207.998 184C206.341 184 204.998 185.567 204.998 187.5C204.998 189.433 206.341 191 207.998 191C209.655 191 210.998 189.433 210.998 187.5C210.998 185.567 209.655 184 207.998 184Z" fill="url(#paint71_radial_40_2145)"/>
<path d="M142.998 174.5C142.998 171.42 145.418 169 148.498 169C151.578 169 153.998 171.42 153.998 174.5C153.998 177.58 151.578 180 148.498 180C145.418 180 142.998 177.58 142.998 174.5Z" fill="url(#paint72_radial_40_2145)"/>
<path d="M89.498 168C88.1173 168 86.998 169.119 86.998 170.5C86.998 171.881 88.1173 173 89.498 173C90.8788 173 91.998 171.881 91.998 170.5C91.998 169.119 90.8788 168 89.498 168Z" fill="url(#paint73_radial_40_2145)"/>
<path d="M61.998 189C61.998 187.8 63.248 187 64.498 187C65.998 187 66.998 188 66.998 189C66.998 190.2 65.748 191 64.498 191C63.248 191 61.998 190 61.998 189Z" fill="url(#paint74_radial_40_2145)"/>
<path d="M36.998 211C36.998 209.25 38.2481 208 39.998 208C41.498 208 42.998 209.25 42.998 211C42.998 212.5 41.748 214 39.998 214C38.2481 214 36.998 212.75 36.998 211Z" fill="url(#paint75_radial_40_2145)"/>
<path d="M0.498078 189C-0.882637 189 -2.00195 190.119 -2.00195 191.5C-2.00195 192.881 -0.882637 194 0.498079 194C1.87879 194 2.99805 192.881 2.99805 191.5C2.99805 190.119 1.87879 189 0.498078 189Z" fill="url(#paint76_radial_40_2145)"/>
<path d="M0.998012 236C-3.42027 236 -7.00195 239.358 -7.00195 243.5C-7.00195 247.642 -3.42027 251 0.998013 251C5.4163 251 8.99805 247.642 8.99805 243.5C8.99805 239.358 5.41629 236 0.998012 236Z" fill="url(#paint77_radial_40_2145)"/>
<path d="M26.998 290C26.998 288.312 28.3106 287 29.998 287C31.6855 287 32.998 288.312 32.998 290C32.998 291.688 31.6855 293 29.998 293C28.3106 292.813 26.998 291.5 26.998 290Z" fill="url(#paint78_radial_40_2145)"/>
<path d="M64.4981 201C63.6697 201 62.998 202.119 62.998 203.5C62.998 204.881 63.6697 206 64.4981 206C65.3265 206 65.998 204.881 65.998 203.5C65.998 202.119 65.3265 201 64.4981 201Z" fill="url(#paint79_radial_40_2145)"/>
<path d="M49.998 285C49.998 283.909 50.9071 283 51.998 283C53.0889 283 53.998 283.909 53.998 285C53.998 286.091 53.0889 287 51.998 287C50.9071 287 49.998 286.091 49.998 285Z" fill="url(#paint80_radial_40_2145)"/>
<path d="M127.998 250C125.789 250 123.998 251.791 123.998 254C123.998 256.209 125.789 258 127.998 258C130.207 258 131.998 256.209 131.998 254C131.998 251.791 130.207 250 127.998 250Z" fill="url(#paint81_radial_40_2145)"/>
<path d="M136.998 360C135.341 360 133.998 361.791 133.998 364C133.998 366.209 135.341 368 136.998 368C138.655 368 139.998 366.209 139.998 364C139.998 361.791 138.655 360 136.998 360Z" fill="url(#paint82_radial_40_2145)"/>
<path d="M183.998 328.5C183.998 323.778 187.109 320 190.998 320C194.887 320 197.998 323.778 197.998 328.5C197.998 333.222 194.887 337 190.998 337C187.109 337 183.998 333.222 183.998 328.5Z" fill="url(#paint83_radial_40_2145)"/>
<path d="M211.998 264.99C211.998 262.643 213.88 261 215.998 261C218.351 261 219.998 262.878 219.998 264.99C219.998 267.337 218.116 268.98 215.998 268.98C213.88 269.215 211.998 267.337 211.998 264.99Z" fill="url(#paint84_radial_40_2145)"/>
<path d="M288.498 333C286.565 333 284.998 334.567 284.998 336.5C284.998 338.433 286.565 340 288.498 340C290.431 340 291.998 338.433 291.998 336.5C291.998 334.567 290.431 333 288.498 333Z" fill="url(#paint85_radial_40_2145)"/>
<path d="M314.998 296.981C314.998 295.743 315.748 295 316.498 295C317.436 295 317.998 295.99 317.998 296.981C317.998 298.219 317.248 298.962 316.498 298.962C315.748 299.209 314.998 298.219 314.998 296.981Z" fill="url(#paint86_radial_40_2145)"/>
<path d="M342.998 292C340.237 292 337.998 294.462 337.998 297.5C337.998 300.538 340.237 303 342.998 303C345.759 303 347.998 300.538 347.998 297.5C347.998 294.462 345.759 292 342.998 292Z" fill="url(#paint87_radial_40_2145)"/>
<path d="M344.998 308.5C344.998 307.154 346.613 306 348.498 306C350.383 306 351.998 307.154 351.998 308.5C351.998 309.846 350.383 311 348.498 311C346.613 311 344.998 309.846 344.998 308.5Z" fill="url(#paint88_radial_40_2145)"/>
<path d="M423.498 292C421.565 292 419.998 293.567 419.998 295.5C419.998 297.433 421.565 299 423.498 299C425.431 299 426.998 297.433 426.998 295.5C426.998 293.567 425.431 292 423.498 292Z" fill="url(#paint89_radial_40_2145)"/>
<path d="M426.998 321.5C426.998 320.643 427.641 320 428.498 320C429.355 320 429.998 320.643 429.998 321.5C429.998 322.357 429.355 323 428.498 323C427.855 323 426.998 322.357 426.998 321.5Z" fill="url(#paint90_radial_40_2145)"/>
<path d="M383.498 284C381.565 284 379.998 285.791 379.998 288C379.998 290.209 381.565 292 383.498 292C385.431 292 386.998 290.209 386.998 288C386.998 285.791 385.431 284 383.498 284Z" fill="url(#paint91_radial_40_2145)"/>
<path d="M332.998 280.5C332.998 278.045 335.271 276 337.998 276C340.725 276 342.998 278.045 342.998 280.5C342.998 282.955 340.725 285 337.998 285C335.271 285 332.998 283.159 332.998 280.5Z" fill="url(#paint92_radial_40_2145)"/>
<path d="M401.998 202.989C401.998 200.745 403.311 199 404.998 199C406.686 199 407.998 200.745 407.998 202.989C407.998 205.233 406.686 206.979 404.998 206.979C403.311 207.228 401.998 205.233 401.998 202.989Z" fill="url(#paint93_radial_40_2145)"/>
<path d="M349.998 165C349.998 161.667 352.22 159 354.998 159C357.776 159 359.998 161.667 359.998 165C359.998 168.333 357.776 171 354.998 171C352.22 171 349.998 168.333 349.998 165Z" fill="url(#paint94_radial_40_2145)"/>
<path d="M382.998 85C381.893 85 380.998 85.8954 380.998 87C380.998 88.1046 381.893 89 382.998 89C384.103 89 384.998 88.1046 384.998 87C384.998 85.8954 384.103 85 382.998 85Z" fill="url(#paint95_radial_40_2145)"/>
<path d="M284.998 61.5C284.998 59.6471 286.645 58 288.498 58C290.351 58 291.998 59.6471 291.998 61.5C291.998 63.3529 290.351 65 288.498 65C286.645 65 284.998 63.3529 284.998 61.5Z" fill="url(#paint96_radial_40_2145)"/>
<path d="M238.998 136.5C238.998 135.643 239.427 135 239.998 135C240.569 135 240.998 135.643 240.998 136.5C240.998 137.357 240.569 138 239.998 138C239.427 138 238.998 137.357 238.998 136.5Z" fill="url(#paint97_radial_40_2145)"/>
<path d="M195.998 103.992C195.998 101.139 198.141 99 200.498 99C203.069 99 204.998 101.139 204.998 103.992C204.998 106.844 203.069 108.984 200.498 108.984C197.927 109.221 195.998 106.844 195.998 103.992Z" fill="url(#paint98_radial_40_2145)"/>
<path d="M176.998 83C176.998 81.8 178.248 81 179.498 81C180.998 81 181.998 82 181.998 83C181.998 84.2 180.748 85 179.498 85C177.998 85 176.998 84 176.998 83Z" fill="url(#paint99_radial_40_2145)"/>
<path d="M123.998 176C122.341 176 120.998 176.895 120.998 178C120.998 179.105 122.341 180 123.998 180C125.655 180 126.998 179.105 126.998 178C126.998 176.895 125.655 176 123.998 176Z" fill="url(#paint100_radial_40_2145)"/>
<path d="M73.998 116C73.998 112.267 76.8147 109 80.498 109C83.9647 109 86.998 112.033 86.998 116C86.998 119.733 84.1814 123 80.498 123C76.8147 122.767 73.998 119.733 73.998 116Z" fill="url(#paint101_radial_40_2145)"/>
<path d="M63.998 163.983C63.998 162.881 65.1091 162 66.498 162C67.8869 162 68.998 162.881 68.998 163.983C68.998 165.085 67.8869 165.966 66.498 165.966C65.1091 166.187 63.998 165.305 63.998 163.983Z" fill="url(#paint102_radial_40_2145)"/>
<path d="M29.998 112.493C29.998 110.471 32.1296 109 34.498 109C37.1033 109 38.998 110.655 38.998 112.493C38.998 114.515 36.8665 115.986 34.498 115.986C31.8928 116.17 29.998 114.515 29.998 112.493Z" fill="url(#paint103_radial_40_2145)"/>
<path d="M-0.00195378 180.5C-0.00195415 176.309 3.30686 173 7.49805 173C11.6892 173 14.998 176.309 14.998 180.5C14.998 184.691 11.6892 188 7.49805 188C3.30686 188 -0.00195341 184.691 -0.00195378 180.5Z" fill="url(#paint104_radial_40_2145)"/>
<path d="M-0.50199 209C-4.64413 209 -8.00195 212.134 -8.00195 216C-8.00195 219.866 -4.64413 223 -0.501988 223C3.64015 223 6.99805 219.866 6.99805 216C6.99805 212.134 3.64015 209 -0.50199 209Z" fill="url(#paint105_radial_40_2145)"/>
<path d="M23.998 255.988C23.998 254.904 24.9071 254 25.998 254C27.0889 254 27.998 254.904 27.998 255.988C27.998 257.073 27.0889 257.977 25.998 257.977C25.089 258.158 23.998 257.254 23.998 255.988Z" fill="url(#paint106_radial_40_2145)"/>
<path d="M32.998 191C32.998 189.25 34.248 188 35.998 188C37.748 188 38.998 189.25 38.998 191C38.998 192.75 37.748 194 35.998 194C34.498 194 32.998 192.75 32.998 191Z" fill="url(#paint107_radial_40_2145)"/>
<path d="M76.498 179C75.1173 179 73.998 180.567 73.998 182.5C73.998 184.433 75.1173 186 76.498 186C77.8787 186 78.998 184.433 78.998 182.5C78.998 180.567 77.8787 179 76.498 179Z" fill="url(#paint108_radial_40_2145)"/>
<path d="M73.998 139.493C73.998 136.925 76.379 135 78.998 135C81.8552 135 83.998 137.139 83.998 139.493C83.998 142.06 81.6171 143.985 78.998 143.985C76.379 144.199 73.998 142.06 73.998 139.493Z" fill="url(#paint109_radial_40_2145)"/>
<path d="M110.998 123C110.998 120.714 112.927 119 115.498 119C118.069 119 119.998 120.714 119.998 123C119.998 125.286 118.069 127 115.498 127C113.141 127 110.998 125.095 110.998 123Z" fill="url(#paint110_radial_40_2145)"/>
<path d="M137.998 176C134.684 176 131.998 178.686 131.998 182C131.998 185.314 134.684 188 137.998 188C141.312 188 143.998 185.314 143.998 182C143.998 178.686 141.312 176 137.998 176Z" fill="url(#paint111_radial_40_2145)"/>
<path d="M97.498 218C95.5651 218 93.998 219.119 93.998 220.5C93.998 221.881 95.5651 223 97.498 223C99.431 223 100.998 221.881 100.998 220.5C100.998 219.119 99.431 218 97.498 218Z" fill="url(#paint112_radial_40_2145)"/>
<path d="M150.998 216.5C150.998 212.429 154.427 209 158.498 209C162.569 209 165.998 212.429 165.998 216.5C165.998 220.571 162.569 224 158.498 224C154.427 224 150.998 220.571 150.998 216.5Z" fill="url(#paint113_radial_40_2145)"/>
<path d="M195.998 218.993C195.998 216.289 198.061 214 200.498 214C202.936 214 204.998 216.289 204.998 218.993C204.998 221.698 202.936 223.987 200.498 223.987C198.061 224.195 195.998 221.906 195.998 218.993Z" fill="url(#paint114_radial_40_2145)"/>
<path d="M190.998 160.5C190.998 158.045 192.816 156 194.998 156C197.18 156 198.998 158.045 198.998 160.5C198.998 162.955 197.18 165 194.998 165C192.816 165 190.998 162.955 190.998 160.5Z" fill="url(#paint115_radial_40_2145)"/>
<path d="M240.998 151.5C240.998 150.154 242.152 149 243.498 149C244.844 149 245.998 150.154 245.998 151.5C245.998 152.846 244.844 154 243.498 154C242.152 154 240.998 152.846 240.998 151.5Z" fill="url(#paint116_radial_40_2145)"/>
<path d="M255.998 154C254.341 154 252.998 155.567 252.998 157.5C252.998 159.433 254.341 161 255.998 161C257.655 161 258.998 159.433 258.998 157.5C258.998 155.567 257.655 154 255.998 154Z" fill="url(#paint117_radial_40_2145)"/>
<path d="M258.998 189.5C258.998 188.042 260.248 187 261.998 187C263.748 187 264.998 188.042 264.998 189.5C264.998 190.958 263.748 192 261.998 192C260.498 192 258.998 190.958 258.998 189.5Z" fill="url(#paint118_radial_40_2145)"/>
<path d="M303.998 140C303.998 138.909 305.362 138 306.998 138C308.634 138 309.998 138.909 309.998 140C309.998 141.091 308.634 142 306.998 142C305.362 142 303.998 141.091 303.998 140Z" fill="url(#paint119_radial_40_2145)"/>
<path d="M300.998 175C300.998 173.909 301.907 173 302.998 173C304.089 173 304.998 173.909 304.998 175C304.998 176.091 304.089 177 302.998 177C301.907 177 300.998 176.091 300.998 175Z" fill="url(#paint120_radial_40_2145)"/>
<path d="M320.998 211C317.684 211 314.998 213.462 314.998 216.5C314.998 219.538 317.684 222 320.998 222C324.312 222 326.998 219.538 326.998 216.5C326.998 213.462 324.312 211 320.998 211Z" fill="url(#paint121_radial_40_2145)"/>
<path d="M299.998 222C299.998 219.8 301.798 218 303.998 218C306.198 218 307.998 219.8 307.998 222C307.998 224.2 306.198 226 303.998 226C301.798 226 299.998 224.2 299.998 222Z" fill="url(#paint122_radial_40_2145)"/>
<path d="M275.998 238.5C275.998 237 277.248 236 278.498 236C279.998 236 280.998 237.25 280.998 238.5C280.998 240 279.748 241 278.498 241C277.248 241 275.998 240 275.998 238.5Z" fill="url(#paint123_radial_40_2145)"/>
<path d="M225.998 275C225.998 271.786 228.784 269 232.498 269C235.98 269 238.998 271.571 238.998 275C238.998 278.214 236.212 281 232.498 281C228.784 281 225.998 278.214 225.998 275Z" fill="url(#paint124_radial_40_2145)"/>
<path d="M179.498 256C178.117 256 176.998 257.119 176.998 258.5C176.998 259.881 178.117 261 179.498 261C180.879 261 181.998 259.881 181.998 258.5C181.998 257.119 180.879 256 179.498 256Z" fill="url(#paint125_radial_40_2145)"/>
<path d="M120.998 261C120.998 257.062 124.279 254 128.498 254C132.717 254 135.998 257.062 135.998 261C135.998 264.937 132.717 268 128.498 268C124.514 268 120.998 264.937 120.998 261Z" fill="url(#paint126_radial_40_2145)"/>
<path d="M81.998 245.5C81.998 244.154 83.1519 243 84.498 243C85.8442 243 86.998 244.154 86.998 245.5C86.998 246.846 85.8442 248 84.498 248C83.1519 248 81.998 246.846 81.998 245.5Z" fill="url(#paint127_radial_40_2145)"/>
<path d="M83.998 316.5C83.998 311.803 87.577 308 91.998 308C96.4191 308 99.998 311.803 99.998 316.5C99.998 321.197 96.4191 325 91.998 325C87.577 325 83.998 321.197 83.998 316.5Z" fill="url(#paint128_radial_40_2145)"/>
<path d="M158.998 330C156.789 330 154.998 331.567 154.998 333.5C154.998 335.433 156.789 337 158.998 337C161.207 337 162.998 335.433 162.998 333.5C162.998 331.567 161.207 330 158.998 330Z" fill="url(#paint129_radial_40_2145)"/>
<path d="M173.998 326C173.998 323.895 175.682 322 177.998 322C180.103 322 181.998 323.684 181.998 326C181.998 328.105 180.314 330 177.998 330C175.682 330 173.998 328.105 173.998 326Z" fill="url(#paint130_radial_40_2145)"/>
<path d="M168.998 250.5C168.998 249.042 170.04 248 171.498 248C172.956 248 173.998 249.042 173.998 250.5C173.998 251.958 172.956 253 171.498 253C170.248 253 168.998 251.958 168.998 250.5Z" fill="url(#paint131_radial_40_2145)"/>
<path d="M237.998 251.5C237.998 250.6 238.598 250 239.498 250C240.398 250 240.998 250.6 240.998 251.5C240.998 252.4 240.398 253 239.498 253C238.598 253 237.998 252.4 237.998 251.5Z" fill="url(#paint132_radial_40_2145)"/>
<path d="M247.998 369C247.998 365.69 250.464 363 253.498 363C256.533 363 258.998 365.69 258.998 369C258.998 372.31 256.533 375 253.498 375C250.464 375 247.998 372.31 247.998 369Z" fill="url(#paint133_radial_40_2145)"/>
<path d="M279.998 347.5C279.998 346.154 281.152 345 282.498 345C283.844 345 284.998 346.154 284.998 347.5C284.998 348.846 283.844 350 282.498 350C281.152 350 279.998 348.846 279.998 347.5Z" fill="url(#paint134_radial_40_2145)"/>
<path d="M319.998 388.476C319.998 387.492 320.748 387 321.498 387C322.498 387 322.998 387.738 322.998 388.476C322.998 389.46 322.248 389.952 321.498 389.952C320.748 390.198 319.998 389.46 319.998 388.476Z" fill="url(#paint135_radial_40_2145)"/>
<defs>
<linearGradient id="paint0_linear_40_2145" x1="296.11" y1="97.4468" x2="-485.084" y2="97.4469" gradientUnits="userSpaceOnUse">
<stop stop-color="#D6D6D6"/>
<stop offset="0.2902" stop-color="#929399"/>
<stop offset="0.4459" stop-color="#6C6F7B"/>
<stop offset="0.7052" stop-color="#33374D"/>
<stop offset="0.8975" stop-color="#0F1530"/>
<stop offset="1" stop-color="#010825"/>
</linearGradient>
<linearGradient id="paint1_linear_40_2145" x1="315.432" y1="377.74" x2="-491.955" y2="377.74" gradientUnits="userSpaceOnUse">
<stop stop-color="#D6D6D6"/>
<stop offset="0.2902" stop-color="#929399"/>
<stop offset="0.4459" stop-color="#6C6F7B"/>
<stop offset="0.7052" stop-color="#33374D"/>
<stop offset="0.8975" stop-color="#0F1530"/>
<stop offset="1" stop-color="#010825"/>
</linearGradient>
<linearGradient id="paint2_linear_40_2145" x1="454.609" y1="298.584" x2="-481.285" y2="298.584" gradientUnits="userSpaceOnUse">
<stop stop-color="#D6D6D6"/>
<stop offset="0.2902" stop-color="#929399"/>
<stop offset="0.4459" stop-color="#6C6F7B"/>
<stop offset="0.7052" stop-color="#33374D"/>
<stop offset="0.8975" stop-color="#0F1530"/>
<stop offset="1" stop-color="#010825"/>
</linearGradient>
<linearGradient id="paint3_linear_40_2145" x1="367.136" y1="207.686" x2="-480.798" y2="207.686" gradientUnits="userSpaceOnUse">
<stop stop-color="#D6D6D6"/>
<stop offset="0.2902" stop-color="#929399"/>
<stop offset="0.4459" stop-color="#6C6F7B"/>
<stop offset="0.7052" stop-color="#33374D"/>
<stop offset="0.8975" stop-color="#0F1530"/>
<stop offset="1" stop-color="#010825"/>
</linearGradient>
<linearGradient id="paint4_linear_40_2145" x1="70.0823" y1="215.435" x2="-306.106" y2="215.435" gradientUnits="userSpaceOnUse">
<stop stop-color="#D6D6D6"/>
<stop offset="0.2902" stop-color="#929399"/>
<stop offset="0.4459" stop-color="#6C6F7B"/>
<stop offset="0.7052" stop-color="#33374D"/>
<stop offset="0.8975" stop-color="#0F1530"/>
<stop offset="1" stop-color="#010825"/>
</linearGradient>
<linearGradient id="paint5_linear_40_2145" x1="451.664" y1="126.374" x2="-76.4071" y2="126.375" gradientUnits="userSpaceOnUse">
<stop stop-color="#D6D6D6"/>
<stop offset="0.2902" stop-color="#929399"/>
<stop offset="0.4459" stop-color="#6C6F7B"/>
<stop offset="0.7052" stop-color="#33374D"/>
<stop offset="0.8975" stop-color="#0F1530"/>
<stop offset="1" stop-color="#010825"/>
</linearGradient>
<linearGradient id="paint6_linear_40_2145" x1="298.055" y1="187.322" x2="-56.0906" y2="187.322" gradientUnits="userSpaceOnUse">
<stop stop-color="#D6D6D6"/>
<stop offset="0.2902" stop-color="#929399"/>
<stop offset="0.4459" stop-color="#6C6F7B"/>
<stop offset="0.7052" stop-color="#33374D"/>
<stop offset="0.8975" stop-color="#0F1530"/>
<stop offset="1" stop-color="#010825"/>
</linearGradient>
<linearGradient id="paint7_linear_40_2145" x1="400.365" y1="132.537" x2="108.959" y2="132.537" gradientUnits="userSpaceOnUse">
<stop stop-color="#D6D6D6"/>
<stop offset="0.2902" stop-color="#929399"/>
<stop offset="0.4459" stop-color="#6C6F7B"/>
<stop offset="0.7052" stop-color="#33374D"/>
<stop offset="0.8975" stop-color="#0F1530"/>
<stop offset="1" stop-color="#010825"/>
</linearGradient>
<linearGradient id="paint8_linear_40_2145" x1="312.931" y1="206.021" x2="14.8362" y2="206.021" gradientUnits="userSpaceOnUse">
<stop stop-color="#D6D6D6"/>
<stop offset="0.2902" stop-color="#929399"/>
<stop offset="0.4459" stop-color="#6C6F7B"/>
<stop offset="0.7052" stop-color="#33374D"/>
<stop offset="0.8975" stop-color="#0F1530"/>
<stop offset="1" stop-color="#010825"/>
</linearGradient>
<linearGradient id="paint9_linear_40_2145" x1="402.912" y1="170.047" x2="-1.936" y2="170.047" gradientUnits="userSpaceOnUse">
<stop stop-color="#D6D6D6"/>
<stop offset="0.2902" stop-color="#929399"/>
<stop offset="0.4459" stop-color="#6C6F7B"/>
<stop offset="0.7052" stop-color="#33374D"/>
<stop offset="0.8975" stop-color="#0F1530"/>
<stop offset="1" stop-color="#010825"/>
</linearGradient>
<linearGradient id="paint10_linear_40_2145" x1="380.947" y1="80.1634" x2="-22.8226" y2="80.1635" gradientUnits="userSpaceOnUse">
<stop stop-color="#D6D6D6"/>
<stop offset="0.2902" stop-color="#929399"/>
<stop offset="0.4459" stop-color="#6C6F7B"/>
<stop offset="0.7052" stop-color="#33374D"/>
<stop offset="0.8975" stop-color="#0F1530"/>
<stop offset="1" stop-color="#010825"/>
</linearGradient>
<linearGradient id="paint11_linear_40_2145" x1="418.997" y1="330.451" x2="-372.311" y2="330.451" gradientUnits="userSpaceOnUse">
<stop stop-color="#D6D6D6"/>
<stop offset="0.2902" stop-color="#929399"/>
<stop offset="0.4459" stop-color="#6C6F7B"/>
<stop offset="0.7052" stop-color="#33374D"/>
<stop offset="0.8975" stop-color="#0F1530"/>
<stop offset="1" stop-color="#010825"/>
</linearGradient>
<linearGradient id="paint12_linear_40_2145" x1="414.445" y1="304.585" x2="-282.79" y2="304.585" gradientUnits="userSpaceOnUse">
<stop stop-color="#D6D6D6"/>
<stop offset="0.2902" stop-color="#929399"/>
<stop offset="0.4459" stop-color="#6C6F7B"/>
<stop offset="0.7052" stop-color="#33374D"/>
<stop offset="0.8975" stop-color="#0F1530"/>
<stop offset="1" stop-color="#010825"/>
</linearGradient>
<linearGradient id="paint13_linear_40_2145" x1="390.154" y1="223.528" x2="181.136" y2="223.528" gradientUnits="userSpaceOnUse">
<stop stop-color="#D6D6D6"/>
<stop offset="0.2902" stop-color="#929399"/>
<stop offset="0.4459" stop-color="#6C6F7B"/>
<stop offset="0.7052" stop-color="#33374D"/>
<stop offset="0.8975" stop-color="#0F1530"/>
<stop offset="1" stop-color="#010825"/>
</linearGradient>
<linearGradient id="paint14_linear_40_2145" x1="487.182" y1="308.775" x2="193.52" y2="308.775" gradientUnits="userSpaceOnUse">
<stop stop-color="#D6D6D6"/>
<stop offset="0.2902" stop-color="#929399"/>
<stop offset="0.4459" stop-color="#6C6F7B"/>
<stop offset="0.7052" stop-color="#33374D"/>
<stop offset="0.8975" stop-color="#0F1530"/>
<stop offset="1" stop-color="#010825"/>
</linearGradient>
<linearGradient id="paint15_linear_40_2145" x1="417.153" y1="241.848" x2="212.182" y2="241.848" gradientUnits="userSpaceOnUse">
<stop stop-color="#D6D6D6"/>
<stop offset="0.2902" stop-color="#929399"/>
<stop offset="0.4459" stop-color="#6C6F7B"/>
<stop offset="0.7052" stop-color="#33374D"/>
<stop offset="0.8975" stop-color="#0F1530"/>
<stop offset="1" stop-color="#010825"/>
</linearGradient>
<linearGradient id="paint16_linear_40_2145" x1="424.224" y1="210.037" x2="322.798" y2="210.037" gradientUnits="userSpaceOnUse">
<stop stop-color="#D6D6D6"/>
<stop offset="0.2902" stop-color="#929399"/>
<stop offset="0.4459" stop-color="#6C6F7B"/>
<stop offset="0.7052" stop-color="#33374D"/>
<stop offset="0.8975" stop-color="#0F1530"/>
<stop offset="1" stop-color="#010825"/>
</linearGradient>
<linearGradient id="paint17_linear_40_2145" x1="465.993" y1="239.682" x2="230.995" y2="239.682" gradientUnits="userSpaceOnUse">
<stop stop-color="#D6D6D6"/>
<stop offset="0.2902" stop-color="#929399"/>
<stop offset="0.4459" stop-color="#6C6F7B"/>
<stop offset="0.7052" stop-color="#33374D"/>
<stop offset="0.8975" stop-color="#0F1530"/>
<stop offset="1" stop-color="#010825"/>
</linearGradient>
<linearGradient id="paint18_linear_40_2145" x1="330.835" y1="286.91" x2="265.064" y2="286.91" gradientUnits="userSpaceOnUse">
<stop stop-color="#D6D6D6"/>
<stop offset="0.2902" stop-color="#929399"/>
<stop offset="0.4459" stop-color="#6C6F7B"/>
<stop offset="0.7052" stop-color="#33374D"/>
<stop offset="0.8975" stop-color="#0F1530"/>
<stop offset="1" stop-color="#010825"/>
</linearGradient>
<linearGradient id="paint19_linear_40_2145" x1="452.096" y1="404.612" x2="239.25" y2="404.612" gradientUnits="userSpaceOnUse">
<stop stop-color="#D6D6D6"/>
<stop offset="0.2902" stop-color="#929399"/>
<stop offset="0.4459" stop-color="#6C6F7B"/>
<stop offset="0.7052" stop-color="#33374D"/>
<stop offset="0.8975" stop-color="#0F1530"/>
<stop offset="1" stop-color="#010825"/>
</linearGradient>
<linearGradient id="paint20_linear_40_2145" x1="485.091" y1="388.423" x2="250.933" y2="388.423" gradientUnits="userSpaceOnUse">
<stop stop-color="#D6D6D6"/>
<stop offset="0.2902" stop-color="#929399"/>
<stop offset="0.4459" stop-color="#6C6F7B"/>
<stop offset="0.7052" stop-color="#33374D"/>
<stop offset="0.8975" stop-color="#0F1530"/>
<stop offset="1" stop-color="#010825"/>
</linearGradient>
<linearGradient id="paint21_linear_40_2145" x1="432.099" y1="385.995" x2="341.942" y2="385.995" gradientUnits="userSpaceOnUse">
<stop stop-color="#D6D6D6"/>
<stop offset="0.2902" stop-color="#929399"/>
<stop offset="0.4459" stop-color="#6C6F7B"/>
<stop offset="0.7052" stop-color="#33374D"/>
<stop offset="0.8975" stop-color="#0F1530"/>
<stop offset="1" stop-color="#010825"/>
</linearGradient>
<linearGradient id="paint22_linear_40_2145" x1="251.478" y1="262.634" x2="-556.191" y2="262.634" gradientUnits="userSpaceOnUse">
<stop stop-color="#C9C9C9"/>
<stop offset="0.5307" stop-color="#E8E8E8"/>
<stop offset="1" stop-color="white"/>
</linearGradient>
<linearGradient id="paint23_linear_40_2145" x1="399.04" y1="313.482" x2="-401.992" y2="313.482" gradientUnits="userSpaceOnUse">
<stop stop-color="#C9C9C9"/>
<stop offset="0.5307" stop-color="#E8E8E8"/>
<stop offset="1" stop-color="white"/>
</linearGradient>
<linearGradient id="paint24_linear_40_2145" x1="386.823" y1="200.593" x2="-566.052" y2="200.593" gradientUnits="userSpaceOnUse">
<stop stop-color="#C9C9C9"/>
<stop offset="0.5307" stop-color="#E8E8E8"/>
<stop offset="1" stop-color="white"/>
</linearGradient>
<radialGradient id="paint25_radial_40_2145" cx="0" cy="0" r="1" gradientUnits="userSpaceOnUse" gradientTransform="translate(354.048 193.101) rotate(180) scale(5.91869)">
<stop offset="0.1049" stop-color="white"/>
<stop offset="0.2146" stop-color="#A1DEF3"/>
<stop offset="0.4659" stop-color="#004061"/>
<stop offset="1"/>
</radialGradient>
<radialGradient id="paint26_radial_40_2145" cx="0" cy="0" r="1" gradientUnits="userSpaceOnUse" gradientTransform="translate(402.164 238.498) rotate(180) scale(3.09364 2.57804)">
<stop offset="0.1049" stop-color="white"/>
<stop offset="0.2146" stop-color="#A1DEF3"/>
<stop offset="0.4659" stop-color="#004061"/>
<stop offset="1"/>
</radialGradient>
<radialGradient id="paint27_radial_40_2145" cx="0" cy="0" r="1" gradientUnits="userSpaceOnUse" gradientTransform="translate(388.014 269.394) rotate(180) scale(0.9704 1.4556)">
<stop offset="0.1049" stop-color="white"/>
<stop offset="0.2146" stop-color="#A1DEF3"/>
<stop offset="0.4659" stop-color="#004061"/>
<stop offset="1"/>
</radialGradient>
<radialGradient id="paint28_radial_40_2145" cx="0" cy="0" r="1" gradientUnits="userSpaceOnUse" gradientTransform="translate(385.586 295.494) rotate(180) scale(1.5333 0.5111)">
<stop offset="0.1049" stop-color="white"/>
<stop offset="0.2146" stop-color="#A1DEF3"/>
<stop offset="0.4659" stop-color="#004061"/>
<stop offset="1"/>
</radialGradient>
<radialGradient id="paint29_radial_40_2145" cx="0" cy="0" r="1" gradientUnits="userSpaceOnUse" gradientTransform="translate(339.053 317.457) rotate(180) scale(6.01591 4.51193)">
<stop offset="0.1049" stop-color="white"/>
<stop offset="0.2146" stop-color="#A1DEF3"/>
<stop offset="0.4659" stop-color="#004061"/>
<stop offset="1"/>
</radialGradient>
<radialGradient id="paint30_radial_40_2145" cx="0" cy="0" r="1" gradientUnits="userSpaceOnUse" gradientTransform="translate(305.992 345.484) rotate(180) scale(2.0684 2.5855)">
<stop offset="0.1049" stop-color="white"/>
<stop offset="0.2146" stop-color="#A1DEF3"/>
<stop offset="0.4659" stop-color="#004061"/>
<stop offset="1"/>
</radialGradient>
<radialGradient id="paint31_radial_40_2145" cx="0" cy="0" r="1" gradientUnits="userSpaceOnUse" gradientTransform="translate(281.507 257.949) rotate(180) scale(1.54485 2.0598)">
<stop offset="0.1049" stop-color="white"/>
<stop offset="0.2146" stop-color="#A1DEF3"/>
<stop offset="0.4659" stop-color="#004061"/>
<stop offset="1"/>
</radialGradient>
<radialGradient id="paint32_radial_40_2145" cx="0" cy="0" r="1" gradientUnits="userSpaceOnUse" gradientTransform="translate(254.535 237.569) rotate(180) scale(1.53883 1.52585)">
<stop offset="0.1049" stop-color="white"/>
<stop offset="0.2146" stop-color="#A1DEF3"/>
<stop offset="0.4659" stop-color="#004061"/>
<stop offset="1"/>
</radialGradient>
<radialGradient id="paint33_radial_40_2145" cx="0" cy="0" r="1" gradientUnits="userSpaceOnUse" gradientTransform="translate(216.515 214.425) rotate(180) scale(3.41097)">
<stop offset="0.1049" stop-color="white"/>
<stop offset="0.2146" stop-color="#A1DEF3"/>
<stop offset="0.4659" stop-color="#004061"/>
<stop offset="1"/>
</radialGradient>
<radialGradient id="paint34_radial_40_2145" cx="0" cy="0" r="1" gradientUnits="userSpaceOnUse" gradientTransform="translate(121.471 228.43) rotate(180) scale(5.55394)">
<stop offset="0.1049" stop-color="white"/>
<stop offset="0.2146" stop-color="#A1DEF3"/>
<stop offset="0.4659" stop-color="#004061"/>
<stop offset="1"/>
</radialGradient>
<radialGradient id="paint35_radial_40_2145" cx="0" cy="0" r="1" gradientUnits="userSpaceOnUse" gradientTransform="translate(148.435 208.531) rotate(180) scale(2.44729)">
<stop offset="0.1049" stop-color="white"/>
<stop offset="0.2146" stop-color="#A1DEF3"/>
<stop offset="0.4659" stop-color="#004061"/>
<stop offset="1"/>
</radialGradient>
<radialGradient id="paint36_radial_40_2145" cx="0" cy="0" r="1" gradientUnits="userSpaceOnUse" gradientTransform="translate(142.941 204.934) rotate(180) scale(5.90713 3.93809)">
<stop offset="0.1049" stop-color="white"/>
<stop offset="0.2146" stop-color="#A1DEF3"/>
<stop offset="0.4659" stop-color="#004061"/>
<stop offset="1"/>
</radialGradient>
<radialGradient id="paint37_radial_40_2145" cx="0" cy="0" r="1" gradientUnits="userSpaceOnUse" gradientTransform="translate(159.903 158.096) rotate(180) scale(3.92622)">
<stop offset="0.1049" stop-color="white"/>
<stop offset="0.2146" stop-color="#A1DEF3"/>
<stop offset="0.4659" stop-color="#004061"/>
<stop offset="1"/>
</radialGradient>
<radialGradient id="paint38_radial_40_2145" cx="0" cy="0" r="1" gradientUnits="userSpaceOnUse" gradientTransform="translate(174.059 153.587) rotate(180) scale(3.06064 3.55861)">
<stop offset="0.1049" stop-color="white"/>
<stop offset="0.2146" stop-color="#A1DEF3"/>
<stop offset="0.4659" stop-color="#004061"/>
<stop offset="1"/>
</radialGradient>
<radialGradient id="paint39_radial_40_2145" cx="0" cy="0" r="1" gradientUnits="userSpaceOnUse" gradientTransform="translate(187.619 139.463) rotate(180) scale(3.57475 2.55339)">
<stop offset="0.1049" stop-color="white"/>
<stop offset="0.2146" stop-color="#A1DEF3"/>
<stop offset="0.4659" stop-color="#004061"/>
<stop offset="1"/>
</radialGradient>
<radialGradient id="paint40_radial_40_2145" cx="0" cy="0" r="1" gradientUnits="userSpaceOnUse" gradientTransform="translate(246.077 139.506) rotate(180) scale(1.983 1.48725)">
<stop offset="0.1049" stop-color="white"/>
<stop offset="0.2146" stop-color="#A1DEF3"/>
<stop offset="0.4659" stop-color="#004061"/>
<stop offset="1"/>
</radialGradient>
<radialGradient id="paint41_radial_40_2145" cx="0" cy="0" r="1" gradientUnits="userSpaceOnUse" gradientTransform="translate(200.969 56.9781) rotate(180) scale(3.02464)">
<stop offset="0.1049" stop-color="white"/>
<stop offset="0.2146" stop-color="#A1DEF3"/>
<stop offset="0.4659" stop-color="#004061"/>
<stop offset="1"/>
</radialGradient>
<radialGradient id="paint42_radial_40_2145" cx="0" cy="0" r="1" gradientUnits="userSpaceOnUse" gradientTransform="translate(220.819 13.3995) rotate(180) scale(6.92043 6.42612)">
<stop offset="0.1049" stop-color="white"/>
<stop offset="0.2146" stop-color="#A1DEF3"/>
<stop offset="0.4659" stop-color="#004061"/>
<stop offset="1"/>
</radialGradient>
<radialGradient id="paint43_radial_40_2145" cx="0" cy="0" r="1" gradientUnits="userSpaceOnUse" gradientTransform="translate(245.21 97.9357) rotate(180) scale(2.35607 1.88486)">
<stop offset="0.1049" stop-color="white"/>
<stop offset="0.2146" stop-color="#A1DEF3"/>
<stop offset="0.4659" stop-color="#004061"/>
<stop offset="1"/>
</radialGradient>
<radialGradient id="paint44_radial_40_2145" cx="0" cy="0" r="1" gradientUnits="userSpaceOnUse" gradientTransform="translate(297.447 46.4761) rotate(180) scale(5.40513 6.38788)">
<stop offset="0.1049" stop-color="white"/>
<stop offset="0.2146" stop-color="#A1DEF3"/>
<stop offset="0.4659" stop-color="#004061"/>
<stop offset="1"/>
</radialGradient>
<radialGradient id="paint45_radial_40_2145" cx="0" cy="0" r="1" gradientUnits="userSpaceOnUse" gradientTransform="translate(321.491 80.4703) rotate(180) scale(3.45125)">
<stop offset="0.1049" stop-color="white"/>
<stop offset="0.2146" stop-color="#A1DEF3"/>
<stop offset="0.4659" stop-color="#004061"/>
<stop offset="1"/>
</radialGradient>
<radialGradient id="paint46_radial_40_2145" cx="0" cy="0" r="1" gradientUnits="userSpaceOnUse" gradientTransform="translate(324.842 116.929) rotate(180) scale(1.90822)">
<stop offset="0.1049" stop-color="white"/>
<stop offset="0.2146" stop-color="#A1DEF3"/>
<stop offset="0.4659" stop-color="#004061"/>
<stop offset="1"/>
</radialGradient>
<radialGradient id="paint47_radial_40_2145" cx="0" cy="0" r="1" gradientUnits="userSpaceOnUse" gradientTransform="translate(361.008 99.5395) rotate(180) scale(5.96529 5.46818)">
<stop offset="0.1049" stop-color="white"/>
<stop offset="0.2146" stop-color="#A1DEF3"/>
<stop offset="0.4659" stop-color="#004061"/>
<stop offset="1"/>
</radialGradient>
<radialGradient id="paint48_radial_40_2145" cx="0" cy="0" r="1" gradientUnits="userSpaceOnUse" gradientTransform="translate(338.573 151.409) rotate(180) scale(3.4755 2.4825)">
<stop offset="0.1049" stop-color="white"/>
<stop offset="0.2146" stop-color="#A1DEF3"/>
<stop offset="0.4659" stop-color="#004061"/>
<stop offset="1"/>
</radialGradient>
<radialGradient id="paint49_radial_40_2145" cx="0" cy="0" r="1" gradientUnits="userSpaceOnUse" gradientTransform="translate(345.904 191.988) rotate(180) scale(3.92253)">
<stop offset="0.1049" stop-color="white"/>
<stop offset="0.2146" stop-color="#A1DEF3"/>
<stop offset="0.4659" stop-color="#004061"/>
<stop offset="1"/>
</radialGradient>
<radialGradient id="paint50_radial_40_2145" cx="0" cy="0" r="1" gradientUnits="userSpaceOnUse" gradientTransform="translate(413.95 233.454) rotate(180) scale(3.0815 2.56792)">
<stop offset="0.1049" stop-color="white"/>
<stop offset="0.2146" stop-color="#A1DEF3"/>
<stop offset="0.4659" stop-color="#004061"/>
<stop offset="1"/>
</radialGradient>
<radialGradient id="paint51_radial_40_2145" cx="0" cy="0" r="1" gradientUnits="userSpaceOnUse" gradientTransform="translate(384.882 259.474) rotate(180) scale(4.96771 5.46448)">
<stop offset="0.1049" stop-color="white"/>
<stop offset="0.2146" stop-color="#A1DEF3"/>
<stop offset="0.4659" stop-color="#004061"/>
<stop offset="1"/>
</radialGradient>
<radialGradient id="paint52_radial_40_2145" cx="0" cy="0" r="1" gradientUnits="userSpaceOnUse" gradientTransform="translate(422.98 272.416) rotate(180) scale(4.00089 3.50078)">
<stop offset="0.1049" stop-color="white"/>
<stop offset="0.2146" stop-color="#A1DEF3"/>
<stop offset="0.4659" stop-color="#004061"/>
<stop offset="1"/>
</radialGradient>
<radialGradient id="paint53_radial_40_2145" cx="0" cy="0" r="1" gradientUnits="userSpaceOnUse" gradientTransform="translate(401.416 343.514) rotate(180) scale(1.416)">
<stop offset="0.1049" stop-color="white"/>
<stop offset="0.2146" stop-color="#A1DEF3"/>
<stop offset="0.4659" stop-color="#004061"/>
<stop offset="1"/>
</radialGradient>
<radialGradient id="paint54_radial_40_2145" cx="0" cy="0" r="1" gradientUnits="userSpaceOnUse" gradientTransform="translate(419.504 362.495) rotate(180) scale(5.5825)">
<stop offset="0.1049" stop-color="white"/>
<stop offset="0.2146" stop-color="#A1DEF3"/>
<stop offset="0.4659" stop-color="#004061"/>
<stop offset="1"/>
</radialGradient>
<radialGradient id="paint55_radial_40_2145" cx="0" cy="0" r="1" gradientUnits="userSpaceOnUse" gradientTransform="translate(462.385 386.051) rotate(180) scale(3.41662 3.90471)">
<stop offset="0.1049" stop-color="white"/>
<stop offset="0.2146" stop-color="#A1DEF3"/>
<stop offset="0.4659" stop-color="#004061"/>
<stop offset="1"/>
</radialGradient>
<radialGradient id="paint56_radial_40_2145" cx="0" cy="0" r="1" gradientUnits="userSpaceOnUse" gradientTransform="translate(497.065 309.068) rotate(180) scale(2.99025 3.987)">
<stop offset="0.1049" stop-color="white"/>
<stop offset="0.2146" stop-color="#A1DEF3"/>
<stop offset="0.4659" stop-color="#004061"/>
<stop offset="1"/>
</radialGradient>
<radialGradient id="paint57_radial_40_2145" cx="0" cy="0" r="1" gradientUnits="userSpaceOnUse" gradientTransform="translate(555.058 271.41) rotate(180) scale(5.98407 6.48274)">
<stop offset="0.1049" stop-color="white"/>
<stop offset="0.2146" stop-color="#A1DEF3"/>
<stop offset="0.4659" stop-color="#004061"/>
<stop offset="1"/>
</radialGradient>
<radialGradient id="paint58_radial_40_2145" cx="0" cy="0" r="1" gradientUnits="userSpaceOnUse" gradientTransform="translate(538.58 255.392) rotate(180) scale(2.40705)">
<stop offset="0.1049" stop-color="white"/>
<stop offset="0.2146" stop-color="#A1DEF3"/>
<stop offset="0.4659" stop-color="#004061"/>
<stop offset="1"/>
</radialGradient>
<radialGradient id="paint59_radial_40_2145" cx="0" cy="0" r="1" gradientUnits="userSpaceOnUse" gradientTransform="translate(509.568 204.003) rotate(180) scale(5.59269 5.08426)">
<stop offset="0.1049" stop-color="white"/>
<stop offset="0.2146" stop-color="#A1DEF3"/>
<stop offset="0.4659" stop-color="#004061"/>
<stop offset="1"/>
</radialGradient>
<radialGradient id="paint60_radial_40_2145" cx="0" cy="0" r="1" gradientUnits="userSpaceOnUse" gradientTransform="translate(484.355 157.898) rotate(180) scale(3.40834 3.89525)">
<stop offset="0.1049" stop-color="white"/>
<stop offset="0.2146" stop-color="#A1DEF3"/>
<stop offset="0.4659" stop-color="#004061"/>
<stop offset="1"/>
</radialGradient>
<radialGradient id="paint61_radial_40_2145" cx="0" cy="0" r="1" gradientUnits="userSpaceOnUse" gradientTransform="translate(473.031 136.448) rotate(180) scale(0.9915 1.48725)">
<stop offset="0.1049" stop-color="white"/>
<stop offset="0.2146" stop-color="#A1DEF3"/>
<stop offset="0.4659" stop-color="#004061"/>
<stop offset="1"/>
</radialGradient>
<radialGradient id="paint62_radial_40_2145" cx="0" cy="0" r="1" gradientUnits="userSpaceOnUse" gradientTransform="translate(492.482 56.4584) rotate(180) scale(3.48476)">
<stop offset="0.1049" stop-color="white"/>
<stop offset="0.2146" stop-color="#A1DEF3"/>
<stop offset="0.4659" stop-color="#004061"/>
<stop offset="1"/>
</radialGradient>
<radialGradient id="paint63_radial_40_2145" cx="0" cy="0" r="1" gradientUnits="userSpaceOnUse" gradientTransform="translate(446.421 3.55519) rotate(180) scale(2.40654 3.36915)">
<stop offset="0.1049" stop-color="white"/>
<stop offset="0.2146" stop-color="#A1DEF3"/>
<stop offset="0.4659" stop-color="#004061"/>
<stop offset="1"/>
</radialGradient>
<radialGradient id="paint64_radial_40_2145" cx="0" cy="0" r="1" gradientUnits="userSpaceOnUse" gradientTransform="translate(420.108 51.4748) rotate(180) scale(3.05354 2.54462)">
<stop offset="0.1049" stop-color="white"/>
<stop offset="0.2146" stop-color="#A1DEF3"/>
<stop offset="0.4659" stop-color="#004061"/>
<stop offset="1"/>
</radialGradient>
<radialGradient id="paint65_radial_40_2145" cx="0" cy="0" r="1" gradientUnits="userSpaceOnUse" gradientTransform="translate(335.969 4.0674) rotate(180) scale(3.9294)">
<stop offset="0.1049" stop-color="white"/>
<stop offset="0.2146" stop-color="#A1DEF3"/>
<stop offset="0.4659" stop-color="#004061"/>
<stop offset="1"/>
</radialGradient>
<radialGradient id="paint66_radial_40_2145" cx="0" cy="0" r="1" gradientUnits="userSpaceOnUse" gradientTransform="translate(331.035 61.0437) rotate(180) scale(0.9545)">
<stop offset="0.1049" stop-color="white"/>
<stop offset="0.2146" stop-color="#A1DEF3"/>
<stop offset="0.4659" stop-color="#004061"/>
<stop offset="1"/>
</radialGradient>
<radialGradient id="paint67_radial_40_2145" cx="0" cy="0" r="1" gradientUnits="userSpaceOnUse" gradientTransform="translate(298.927 100.943) rotate(180) scale(4.02926)">
<stop offset="0.1049" stop-color="white"/>
<stop offset="0.2146" stop-color="#A1DEF3"/>
<stop offset="0.4659" stop-color="#004061"/>
<stop offset="1"/>
</radialGradient>
<radialGradient id="paint68_radial_40_2145" cx="0" cy="0" r="1" gradientUnits="userSpaceOnUse" gradientTransform="translate(257.993 114.458) rotate(180) scale(4.9296 5.42256)">
<stop offset="0.1049" stop-color="white"/>
<stop offset="0.2146" stop-color="#A1DEF3"/>
<stop offset="0.4659" stop-color="#004061"/>
<stop offset="1"/>
</radialGradient>
<radialGradient id="paint69_radial_40_2145" cx="0" cy="0" r="1" gradientUnits="userSpaceOnUse" gradientTransform="translate(293.659 172.45) rotate(180) scale(3.55272)">
<stop offset="0.1049" stop-color="white"/>
<stop offset="0.2146" stop-color="#A1DEF3"/>
<stop offset="0.4659" stop-color="#004061"/>
<stop offset="1"/>
</radialGradient>
<radialGradient id="paint70_radial_40_2145" cx="0" cy="0" r="1" gradientUnits="userSpaceOnUse" gradientTransform="translate(226.013 130.435) rotate(180) scale(2.00156 1.50117)">
<stop offset="0.1049" stop-color="white"/>
<stop offset="0.2146" stop-color="#A1DEF3"/>
<stop offset="0.4659" stop-color="#004061"/>
<stop offset="1"/>
</radialGradient>
<radialGradient id="paint71_radial_40_2145" cx="0" cy="0" r="1" gradientUnits="userSpaceOnUse" gradientTransform="translate(207.93 187.568) rotate(180) scale(2.95338 3.44562)">
<stop offset="0.1049" stop-color="white"/>
<stop offset="0.2146" stop-color="#A1DEF3"/>
<stop offset="0.4659" stop-color="#004061"/>
<stop offset="1"/>
</radialGradient>
<radialGradient id="paint72_radial_40_2145" cx="0" cy="0" r="1" gradientUnits="userSpaceOnUse" gradientTransform="translate(148.464 174.527) rotate(180) scale(5.4252)">
<stop offset="0.1049" stop-color="white"/>
<stop offset="0.2146" stop-color="#A1DEF3"/>
<stop offset="0.4659" stop-color="#004061"/>
<stop offset="1"/>
</radialGradient>
<radialGradient id="paint73_radial_40_2145" cx="0" cy="0" r="1" gradientUnits="userSpaceOnUse" gradientTransform="translate(89.3735 170.496) rotate(180) scale(2.57125)">
<stop offset="0.1049" stop-color="white"/>
<stop offset="0.2146" stop-color="#A1DEF3"/>
<stop offset="0.4659" stop-color="#004061"/>
<stop offset="1"/>
</radialGradient>
<radialGradient id="paint74_radial_40_2145" cx="0" cy="0" r="1" gradientUnits="userSpaceOnUse" gradientTransform="translate(64.598 188.956) rotate(180) scale(2.568 2.0544)">
<stop offset="0.1049" stop-color="white"/>
<stop offset="0.2146" stop-color="#A1DEF3"/>
<stop offset="0.4659" stop-color="#004061"/>
<stop offset="1"/>
</radialGradient>
<radialGradient id="paint75_radial_40_2145" cx="0" cy="0" r="1" gradientUnits="userSpaceOnUse" gradientTransform="translate(39.9308 211.01) rotate(180) scale(2.942)">
<stop offset="0.1049" stop-color="white"/>
<stop offset="0.2146" stop-color="#A1DEF3"/>
<stop offset="0.4659" stop-color="#004061"/>
<stop offset="1"/>
</radialGradient>
<radialGradient id="paint76_radial_40_2145" cx="0" cy="0" r="1" gradientUnits="userSpaceOnUse" gradientTransform="translate(0.476172 191.543) rotate(180) scale(2.54208)">
<stop offset="0.1049" stop-color="white"/>
<stop offset="0.2146" stop-color="#A1DEF3"/>
<stop offset="0.4659" stop-color="#004061"/>
<stop offset="1"/>
</radialGradient>
<radialGradient id="paint77_radial_40_2145" cx="0" cy="0" r="1" gradientUnits="userSpaceOnUse" gradientTransform="translate(1.0121 243.553) rotate(180) scale(7.98378 7.4848)">
<stop offset="0.1049" stop-color="white"/>
<stop offset="0.2146" stop-color="#A1DEF3"/>
<stop offset="0.4659" stop-color="#004061"/>
<stop offset="1"/>
</radialGradient>
<radialGradient id="paint78_radial_40_2145" cx="0" cy="0" r="1" gradientUnits="userSpaceOnUse" gradientTransform="translate(29.8465 289.937) rotate(180) scale(2.92744)">
<stop offset="0.1049" stop-color="white"/>
<stop offset="0.2146" stop-color="#A1DEF3"/>
<stop offset="0.4659" stop-color="#004061"/>
<stop offset="1"/>
</radialGradient>
<radialGradient id="paint79_radial_40_2145" cx="0" cy="0" r="1" gradientUnits="userSpaceOnUse" gradientTransform="translate(64.5183 203.465) rotate(180) scale(1.5225 2.5375)">
<stop offset="0.1049" stop-color="white"/>
<stop offset="0.2146" stop-color="#A1DEF3"/>
<stop offset="0.4659" stop-color="#004061"/>
<stop offset="1"/>
</radialGradient>
<radialGradient id="paint80_radial_40_2145" cx="0" cy="0" r="1" gradientUnits="userSpaceOnUse" gradientTransform="translate(52.0857 284.913) rotate(180) scale(2.04145)">
<stop offset="0.1049" stop-color="white"/>
<stop offset="0.2146" stop-color="#A1DEF3"/>
<stop offset="0.4659" stop-color="#004061"/>
<stop offset="1"/>
</radialGradient>
<radialGradient id="paint81_radial_40_2145" cx="0" cy="0" r="1" gradientUnits="userSpaceOnUse" gradientTransform="translate(128.016 253.918) rotate(180) scale(4.0892)">
<stop offset="0.1049" stop-color="white"/>
<stop offset="0.2146" stop-color="#A1DEF3"/>
<stop offset="0.4659" stop-color="#004061"/>
<stop offset="1"/>
</radialGradient>
<radialGradient id="paint82_radial_40_2145" cx="0" cy="0" r="1" gradientUnits="userSpaceOnUse" gradientTransform="translate(137.016 363.9) rotate(180) scale(2.98729 3.98306)">
<stop offset="0.1049" stop-color="white"/>
<stop offset="0.2146" stop-color="#A1DEF3"/>
<stop offset="0.4659" stop-color="#004061"/>
<stop offset="1"/>
</radialGradient>
<radialGradient id="paint83_radial_40_2145" cx="0" cy="0" r="1" gradientUnits="userSpaceOnUse" gradientTransform="translate(190.989 328.553) rotate(180) scale(7.00311 8.50378)">
<stop offset="0.1049" stop-color="white"/>
<stop offset="0.2146" stop-color="#A1DEF3"/>
<stop offset="0.4659" stop-color="#004061"/>
<stop offset="1"/>
</radialGradient>
<radialGradient id="paint84_radial_40_2145" cx="0" cy="0" r="1" gradientUnits="userSpaceOnUse" gradientTransform="translate(216.061 265.065) rotate(180) scale(4.09459 4.08443)">
<stop offset="0.1049" stop-color="white"/>
<stop offset="0.2146" stop-color="#A1DEF3"/>
<stop offset="0.4659" stop-color="#004061"/>
<stop offset="1"/>
</radialGradient>
<radialGradient id="paint85_radial_40_2145" cx="0" cy="0" r="1" gradientUnits="userSpaceOnUse" gradientTransform="translate(288.568 336.5) rotate(180) scale(3.46369)">
<stop offset="0.1049" stop-color="white"/>
<stop offset="0.2146" stop-color="#A1DEF3"/>
<stop offset="0.4659" stop-color="#004061"/>
<stop offset="1"/>
</radialGradient>
<radialGradient id="paint86_radial_40_2145" cx="0" cy="0" r="1" gradientUnits="userSpaceOnUse" gradientTransform="translate(316.633 297.041) rotate(180) scale(1.55269 2.05048)">
<stop offset="0.1049" stop-color="white"/>
<stop offset="0.2146" stop-color="#A1DEF3"/>
<stop offset="0.4659" stop-color="#004061"/>
<stop offset="1"/>
</radialGradient>
<radialGradient id="paint87_radial_40_2145" cx="0" cy="0" r="1" gradientUnits="userSpaceOnUse" gradientTransform="translate(343.084 297.473) rotate(180) scale(4.96 5.456)">
<stop offset="0.1049" stop-color="white"/>
<stop offset="0.2146" stop-color="#A1DEF3"/>
<stop offset="0.4659" stop-color="#004061"/>
<stop offset="1"/>
</radialGradient>
<radialGradient id="paint88_radial_40_2145" cx="0" cy="0" r="1" gradientUnits="userSpaceOnUse" gradientTransform="translate(348.542 308.453) rotate(180) scale(3.45935 2.47096)">
<stop offset="0.1049" stop-color="white"/>
<stop offset="0.2146" stop-color="#A1DEF3"/>
<stop offset="0.4659" stop-color="#004061"/>
<stop offset="1"/>
</radialGradient>
<radialGradient id="paint89_radial_40_2145" cx="0" cy="0" r="1" gradientUnits="userSpaceOnUse" gradientTransform="translate(423.57 295.419) rotate(180) scale(3.49207)">
<stop offset="0.1049" stop-color="white"/>
<stop offset="0.2146" stop-color="#A1DEF3"/>
<stop offset="0.4659" stop-color="#004061"/>
<stop offset="1"/>
</radialGradient>
<radialGradient id="paint90_radial_40_2145" cx="0" cy="0" r="1" gradientUnits="userSpaceOnUse" gradientTransform="translate(428.602 321.413) rotate(180) scale(1.53771)">
<stop offset="0.1049" stop-color="white"/>
<stop offset="0.2146" stop-color="#A1DEF3"/>
<stop offset="0.4659" stop-color="#004061"/>
<stop offset="1"/>
</radialGradient>
<radialGradient id="paint91_radial_40_2145" cx="0" cy="0" r="1" gradientUnits="userSpaceOnUse" gradientTransform="translate(383.597 288.107) rotate(180) scale(3.55044 4.05765)">
<stop offset="0.1049" stop-color="white"/>
<stop offset="0.2146" stop-color="#A1DEF3"/>
<stop offset="0.4659" stop-color="#004061"/>
<stop offset="1"/>
</radialGradient>
<radialGradient id="paint92_radial_40_2145" cx="0" cy="0" r="1" gradientUnits="userSpaceOnUse" gradientTransform="translate(337.986 280.567) rotate(180) scale(5.01614 4.51452)">
<stop offset="0.1049" stop-color="white"/>
<stop offset="0.2146" stop-color="#A1DEF3"/>
<stop offset="0.4659" stop-color="#004061"/>
<stop offset="1"/>
</radialGradient>
<radialGradient id="paint93_radial_40_2145" cx="0" cy="0" r="1" gradientUnits="userSpaceOnUse" gradientTransform="translate(404.975 203.112) rotate(180) scale(3.04425 4.04828)">
<stop offset="0.1049" stop-color="white"/>
<stop offset="0.2146" stop-color="#A1DEF3"/>
<stop offset="0.4659" stop-color="#004061"/>
<stop offset="1"/>
</radialGradient>
<radialGradient id="paint94_radial_40_2145" cx="0" cy="0" r="1" gradientUnits="userSpaceOnUse" gradientTransform="translate(355.042 165.055) rotate(180) scale(4.98333 5.98)">
<stop offset="0.1049" stop-color="white"/>
<stop offset="0.2146" stop-color="#A1DEF3"/>
<stop offset="0.4659" stop-color="#004061"/>
<stop offset="1"/>
</radialGradient>
<radialGradient id="paint95_radial_40_2145" cx="0" cy="0" r="1" gradientUnits="userSpaceOnUse" gradientTransform="translate(383.044 87.0358) rotate(180) scale(1.89178)">
<stop offset="0.1049" stop-color="white"/>
<stop offset="0.2146" stop-color="#A1DEF3"/>
<stop offset="0.4659" stop-color="#004061"/>
<stop offset="1"/>
</radialGradient>
<radialGradient id="paint96_radial_40_2145" cx="0" cy="0" r="1" gradientUnits="userSpaceOnUse" gradientTransform="translate(288.548 61.5196) rotate(180) scale(3.45512)">
<stop offset="0.1049" stop-color="white"/>
<stop offset="0.2146" stop-color="#A1DEF3"/>
<stop offset="0.4659" stop-color="#004061"/>
<stop offset="1"/>
</radialGradient>
<radialGradient id="paint97_radial_40_2145" cx="0" cy="0" r="1" gradientUnits="userSpaceOnUse" gradientTransform="translate(239.898 136.554) rotate(180) scale(0.956857 1.43529)">
<stop offset="0.1049" stop-color="white"/>
<stop offset="0.2146" stop-color="#A1DEF3"/>
<stop offset="0.4659" stop-color="#004061"/>
<stop offset="1"/>
</radialGradient>
<radialGradient id="paint98_radial_40_2145" cx="0" cy="0" r="1" gradientUnits="userSpaceOnUse" gradientTransform="translate(200.444 104.105) rotate(180) scale(4.54543 5.04219)">
<stop offset="0.1049" stop-color="white"/>
<stop offset="0.2146" stop-color="#A1DEF3"/>
<stop offset="0.4659" stop-color="#004061"/>
<stop offset="1"/>
</radialGradient>
<radialGradient id="paint99_radial_40_2145" cx="0" cy="0" r="1" gradientUnits="userSpaceOnUse" gradientTransform="translate(179.472 82.9476) rotate(180) scale(2.5555 2.0444)">
<stop offset="0.1049" stop-color="white"/>
<stop offset="0.2146" stop-color="#A1DEF3"/>
<stop offset="0.4659" stop-color="#004061"/>
<stop offset="1"/>
</radialGradient>
<radialGradient id="paint100_radial_40_2145" cx="0" cy="0" r="1" gradientUnits="userSpaceOnUse" gradientTransform="translate(123.946 178.06) rotate(180) scale(2.922 1.948)">
<stop offset="0.1049" stop-color="white"/>
<stop offset="0.2146" stop-color="#A1DEF3"/>
<stop offset="0.4659" stop-color="#004061"/>
<stop offset="1"/>
</radialGradient>
<radialGradient id="paint101_radial_40_2145" cx="0" cy="0" r="1" gradientUnits="userSpaceOnUse" gradientTransform="translate(80.4283 115.898) rotate(180) scale(6.44193 6.93747)">
<stop offset="0.1049" stop-color="white"/>
<stop offset="0.2146" stop-color="#A1DEF3"/>
<stop offset="0.4659" stop-color="#004061"/>
<stop offset="1"/>
</radialGradient>
<radialGradient id="paint102_radial_40_2145" cx="0" cy="0" r="1" gradientUnits="userSpaceOnUse" gradientTransform="translate(66.6383 164.075) rotate(180) scale(2.57222 2.04042)">
<stop offset="0.1049" stop-color="white"/>
<stop offset="0.2146" stop-color="#A1DEF3"/>
<stop offset="0.4659" stop-color="#004061"/>
<stop offset="1"/>
</radialGradient>
<radialGradient id="paint103_radial_40_2145" cx="0" cy="0" r="1" gradientUnits="userSpaceOnUse" gradientTransform="translate(34.54 112.558) rotate(180) scale(4.6035 3.57335)">
<stop offset="0.1049" stop-color="white"/>
<stop offset="0.2146" stop-color="#A1DEF3"/>
<stop offset="0.4659" stop-color="#004061"/>
<stop offset="1"/>
</radialGradient>
<radialGradient id="paint104_radial_40_2145" cx="0" cy="0" r="1" gradientUnits="userSpaceOnUse" gradientTransform="translate(7.40628 180.515) rotate(180) scale(7.39698)">
<stop offset="0.1049" stop-color="white"/>
<stop offset="0.2146" stop-color="#A1DEF3"/>
<stop offset="0.4659" stop-color="#004061"/>
<stop offset="1"/>
</radialGradient>
<radialGradient id="paint105_radial_40_2145" cx="0" cy="0" r="1" gradientUnits="userSpaceOnUse" gradientTransform="translate(-0.422969 215.907) rotate(180) scale(7.52836 7.02647)">
<stop offset="0.1049" stop-color="white"/>
<stop offset="0.2146" stop-color="#A1DEF3"/>
<stop offset="0.4659" stop-color="#004061"/>
<stop offset="1"/>
</radialGradient>
<radialGradient id="paint106_radial_40_2145" cx="0" cy="0" r="1" gradientUnits="userSpaceOnUse" gradientTransform="translate(26.1388 256.034) rotate(180) scale(2.06255 2.05067)">
<stop offset="0.1049" stop-color="white"/>
<stop offset="0.2146" stop-color="#A1DEF3"/>
<stop offset="0.4659" stop-color="#004061"/>
<stop offset="1"/>
</radialGradient>
<radialGradient id="paint107_radial_40_2145" cx="0" cy="0" r="1" gradientUnits="userSpaceOnUse" gradientTransform="translate(36.1708 190.981) rotate(180) scale(3.0695)">
<stop offset="0.1049" stop-color="white"/>
<stop offset="0.2146" stop-color="#A1DEF3"/>
<stop offset="0.4659" stop-color="#004061"/>
<stop offset="1"/>
</radialGradient>
<radialGradient id="paint108_radial_40_2145" cx="0" cy="0" r="1" gradientUnits="userSpaceOnUse" gradientTransform="translate(76.4861 182.571) rotate(180) scale(2.53308 3.54631)">
<stop offset="0.1049" stop-color="white"/>
<stop offset="0.2146" stop-color="#A1DEF3"/>
<stop offset="0.4659" stop-color="#004061"/>
<stop offset="1"/>
</radialGradient>
<radialGradient id="paint109_radial_40_2145" cx="0" cy="0" r="1" gradientUnits="userSpaceOnUse" gradientTransform="translate(79.1071 139.557) rotate(180) scale(5.09786 4.58054)">
<stop offset="0.1049" stop-color="white"/>
<stop offset="0.2146" stop-color="#A1DEF3"/>
<stop offset="0.4659" stop-color="#004061"/>
<stop offset="1"/>
</radialGradient>
<radialGradient id="paint110_radial_40_2145" cx="0" cy="0" r="1" gradientUnits="userSpaceOnUse" gradientTransform="translate(115.516 122.931) rotate(180) scale(4.482 3.984)">
<stop offset="0.1049" stop-color="white"/>
<stop offset="0.2146" stop-color="#A1DEF3"/>
<stop offset="0.4659" stop-color="#004061"/>
<stop offset="1"/>
</radialGradient>
<radialGradient id="paint111_radial_40_2145" cx="0" cy="0" r="1" gradientUnits="userSpaceOnUse" gradientTransform="translate(138.08 181.939) rotate(180) scale(5.97964)">
<stop offset="0.1049" stop-color="white"/>
<stop offset="0.2146" stop-color="#A1DEF3"/>
<stop offset="0.4659" stop-color="#004061"/>
<stop offset="1"/>
</radialGradient>
<radialGradient id="paint112_radial_40_2145" cx="0" cy="0" r="1" gradientUnits="userSpaceOnUse" gradientTransform="translate(97.4353 220.516) rotate(180) scale(3.48063 2.48617)">
<stop offset="0.1049" stop-color="white"/>
<stop offset="0.2146" stop-color="#A1DEF3"/>
<stop offset="0.4659" stop-color="#004061"/>
<stop offset="1"/>
</radialGradient>
<radialGradient id="paint113_radial_40_2145" cx="0" cy="0" r="1" gradientUnits="userSpaceOnUse" gradientTransform="translate(158.477 216.508) rotate(180) scale(7.52764)">
<stop offset="0.1049" stop-color="white"/>
<stop offset="0.2146" stop-color="#A1DEF3"/>
<stop offset="0.4659" stop-color="#004061"/>
<stop offset="1"/>
</radialGradient>
<radialGradient id="paint114_radial_40_2145" cx="0" cy="0" r="1" gradientUnits="userSpaceOnUse" gradientTransform="translate(200.566 219.012) rotate(180) scale(4.581 5.08331)">
<stop offset="0.1049" stop-color="white"/>
<stop offset="0.2146" stop-color="#A1DEF3"/>
<stop offset="0.4659" stop-color="#004061"/>
<stop offset="1"/>
</radialGradient>
<radialGradient id="paint115_radial_40_2145" cx="0" cy="0" r="1" gradientUnits="userSpaceOnUse" gradientTransform="translate(195.049 160.443) rotate(180) scale(4.04891 4.55502)">
<stop offset="0.1049" stop-color="white"/>
<stop offset="0.2146" stop-color="#A1DEF3"/>
<stop offset="0.4659" stop-color="#004061"/>
<stop offset="1"/>
</radialGradient>
<radialGradient id="paint116_radial_40_2145" cx="0" cy="0" r="1" gradientUnits="userSpaceOnUse" gradientTransform="translate(243.479 151.564) rotate(180) scale(2.45173)">
<stop offset="0.1049" stop-color="white"/>
<stop offset="0.2146" stop-color="#A1DEF3"/>
<stop offset="0.4659" stop-color="#004061"/>
<stop offset="1"/>
</radialGradient>
<radialGradient id="paint117_radial_40_2145" cx="0" cy="0" r="1" gradientUnits="userSpaceOnUse" gradientTransform="translate(255.953 157.431) rotate(180) scale(3.0214 3.52497)">
<stop offset="0.1049" stop-color="white"/>
<stop offset="0.2146" stop-color="#A1DEF3"/>
<stop offset="0.4659" stop-color="#004061"/>
<stop offset="1"/>
</radialGradient>
<radialGradient id="paint118_radial_40_2145" cx="0" cy="0" r="1" gradientUnits="userSpaceOnUse" gradientTransform="translate(262.005 189.55) rotate(180) scale(2.9445 2.45375)">
<stop offset="0.1049" stop-color="white"/>
<stop offset="0.2146" stop-color="#A1DEF3"/>
<stop offset="0.4659" stop-color="#004061"/>
<stop offset="1"/>
</radialGradient>
<radialGradient id="paint119_radial_40_2145" cx="0" cy="0" r="1" gradientUnits="userSpaceOnUse" gradientTransform="translate(307.199 139.992) rotate(180) scale(3.09573 2.06382)">
<stop offset="0.1049" stop-color="white"/>
<stop offset="0.2146" stop-color="#A1DEF3"/>
<stop offset="0.4659" stop-color="#004061"/>
<stop offset="1"/>
</radialGradient>
<radialGradient id="paint120_radial_40_2145" cx="0" cy="0" r="1" gradientUnits="userSpaceOnUse" gradientTransform="translate(302.966 174.989) rotate(180) scale(1.94527)">
<stop offset="0.1049" stop-color="white"/>
<stop offset="0.2146" stop-color="#A1DEF3"/>
<stop offset="0.4659" stop-color="#004061"/>
<stop offset="1"/>
</radialGradient>
<radialGradient id="paint121_radial_40_2145" cx="0" cy="0" r="1" gradientUnits="userSpaceOnUse" gradientTransform="translate(320.937 216.444) rotate(180) scale(5.91622 5.4232)">
<stop offset="0.1049" stop-color="white"/>
<stop offset="0.2146" stop-color="#A1DEF3"/>
<stop offset="0.4659" stop-color="#004061"/>
<stop offset="1"/>
</radialGradient>
<radialGradient id="paint122_radial_40_2145" cx="0" cy="0" r="1" gradientUnits="userSpaceOnUse" gradientTransform="translate(304.107 221.909) rotate(180) scale(4.0276)">
<stop offset="0.1049" stop-color="white"/>
<stop offset="0.2146" stop-color="#A1DEF3"/>
<stop offset="0.4659" stop-color="#004061"/>
<stop offset="1"/>
</radialGradient>
<radialGradient id="paint123_radial_40_2145" cx="0" cy="0" r="1" gradientUnits="userSpaceOnUse" gradientTransform="translate(278.531 238.579) rotate(180) scale(2.54125)">
<stop offset="0.1049" stop-color="white"/>
<stop offset="0.2146" stop-color="#A1DEF3"/>
<stop offset="0.4659" stop-color="#004061"/>
<stop offset="1"/>
</radialGradient>
<radialGradient id="paint124_radial_40_2145" cx="0" cy="0" r="1" gradientUnits="userSpaceOnUse" gradientTransform="translate(232.322 275.015) rotate(180) scale(6.4025 5.91)">
<stop offset="0.1049" stop-color="white"/>
<stop offset="0.2146" stop-color="#A1DEF3"/>
<stop offset="0.4659" stop-color="#004061"/>
<stop offset="1"/>
</radialGradient>
<radialGradient id="paint125_radial_40_2145" cx="0" cy="0" r="1" gradientUnits="userSpaceOnUse" gradientTransform="translate(179.405 258.415) rotate(180) scale(2.48827)">
<stop offset="0.1049" stop-color="white"/>
<stop offset="0.2146" stop-color="#A1DEF3"/>
<stop offset="0.4659" stop-color="#004061"/>
<stop offset="1"/>
</radialGradient>
<radialGradient id="paint126_radial_40_2145" cx="0" cy="0" r="1" gradientUnits="userSpaceOnUse" gradientTransform="translate(128.588 261.022) rotate(180) scale(7.51336 7.01247)">
<stop offset="0.1049" stop-color="white"/>
<stop offset="0.2146" stop-color="#A1DEF3"/>
<stop offset="0.4659" stop-color="#004061"/>
<stop offset="1"/>
</radialGradient>
<radialGradient id="paint127_radial_40_2145" cx="0" cy="0" r="1" gradientUnits="userSpaceOnUse" gradientTransform="translate(84.64 245.448) rotate(180) scale(2.58077)">
<stop offset="0.1049" stop-color="white"/>
<stop offset="0.2146" stop-color="#A1DEF3"/>
<stop offset="0.4659" stop-color="#004061"/>
<stop offset="1"/>
</radialGradient>
<radialGradient id="paint128_radial_40_2145" cx="0" cy="0" r="1" gradientUnits="userSpaceOnUse" gradientTransform="translate(92.0037 316.505) rotate(180) scale(7.97074 8.46891)">
<stop offset="0.1049" stop-color="white"/>
<stop offset="0.2146" stop-color="#A1DEF3"/>
<stop offset="0.4659" stop-color="#004061"/>
<stop offset="1"/>
</radialGradient>
<radialGradient id="paint129_radial_40_2145" cx="0" cy="0" r="1" gradientUnits="userSpaceOnUse" gradientTransform="translate(158.99 333.608) rotate(180) scale(3.958 3.46325)">
<stop offset="0.1049" stop-color="white"/>
<stop offset="0.2146" stop-color="#A1DEF3"/>
<stop offset="0.4659" stop-color="#004061"/>
<stop offset="1"/>
</radialGradient>
<radialGradient id="paint130_radial_40_2145" cx="0" cy="0" r="1" gradientUnits="userSpaceOnUse" gradientTransform="translate(177.937 325.983) rotate(180) scale(3.92737)">
<stop offset="0.1049" stop-color="white"/>
<stop offset="0.2146" stop-color="#A1DEF3"/>
<stop offset="0.4659" stop-color="#004061"/>
<stop offset="1"/>
</radialGradient>
<radialGradient id="paint131_radial_40_2145" cx="0" cy="0" r="1" gradientUnits="userSpaceOnUse" gradientTransform="translate(171.582 250.511) rotate(180) scale(2.53438)">
<stop offset="0.1049" stop-color="white"/>
<stop offset="0.2146" stop-color="#A1DEF3"/>
<stop offset="0.4659" stop-color="#004061"/>
<stop offset="1"/>
</radialGradient>
<radialGradient id="paint132_radial_40_2145" cx="0" cy="0" r="1" gradientUnits="userSpaceOnUse" gradientTransform="translate(239.606 251.567) rotate(180) scale(1.5564)">
<stop offset="0.1049" stop-color="white"/>
<stop offset="0.2146" stop-color="#A1DEF3"/>
<stop offset="0.4659" stop-color="#004061"/>
<stop offset="1"/>
</radialGradient>
<radialGradient id="paint133_radial_40_2145" cx="0" cy="0" r="1" gradientUnits="userSpaceOnUse" gradientTransform="translate(253.458 368.965) rotate(180) scale(5.54362 6.04759)">
<stop offset="0.1049" stop-color="white"/>
<stop offset="0.2146" stop-color="#A1DEF3"/>
<stop offset="0.4659" stop-color="#004061"/>
<stop offset="1"/>
</radialGradient>
<radialGradient id="paint134_radial_40_2145" cx="0" cy="0" r="1" gradientUnits="userSpaceOnUse" gradientTransform="translate(282.406 347.509) rotate(180) scale(2.41038)">
<stop offset="0.1049" stop-color="white"/>
<stop offset="0.2146" stop-color="#A1DEF3"/>
<stop offset="0.4659" stop-color="#004061"/>
<stop offset="1"/>
</radialGradient>
<radialGradient id="paint135_radial_40_2145" cx="0" cy="0" r="1" gradientUnits="userSpaceOnUse" gradientTransform="translate(321.643 388.594) rotate(180) scale(1.611 1.58539)">
<stop offset="0.1049" stop-color="white"/>
<stop offset="0.2146" stop-color="#A1DEF3"/>
<stop offset="0.4659" stop-color="#004061"/>
<stop offset="1"/>
</radialGradient>
</defs>
</svg>
