<svg width="417" height="196" viewBox="0 0 417 196" fill="none" xmlns="http://www.w3.org/2000/svg">
<g opacity="0.3" clip-path="url(#clip0_967_2725)">
<path d="M366.715 96.3162C366.156 96.3162 365.617 96.3813 365.063 96.3999C364.7 73.7502 356.495 51.926 341.845 34.642C327.194 17.358 307.003 5.68234 284.709 1.60233C262.415 -2.47768 239.395 1.29008 219.567 12.2643C199.739 23.2386 184.329 40.7411 175.96 61.7928C166.382 53.4877 154.888 47.6933 142.513 44.9313C130.137 42.1692 117.269 42.5262 105.066 45.9701C92.8627 49.4141 81.708 55.8368 72.6058 64.6602C63.5036 73.4836 56.7395 84.4307 52.9224 96.5162C51.7456 96.4325 50.5734 96.3395 49.378 96.3395C36.2384 96.4663 23.6801 101.772 14.4335 111.103C5.18695 120.435 -0.000244141 133.037 -0.000244141 146.17C-0.000244141 159.303 5.18695 171.905 14.4335 181.236C23.6801 190.567 36.2384 195.873 49.378 196H366.715C379.854 195.873 392.412 190.567 401.659 181.236C410.906 171.905 416.093 159.303 416.093 146.17C416.093 133.037 410.906 120.435 401.659 111.103C392.412 101.772 379.854 96.4663 366.715 96.3395V96.3162Z" fill="#26C9FF"/>
</g>
<defs>
<clipPath id="clip0_967_2725">
<rect width="416.093" height="196" fill="white"/>
</clipPath>
</defs>
</svg>
