<svg width="63" height="64" viewBox="0 0 63 64" fill="none" xmlns="http://www.w3.org/2000/svg">
<mask id="mask0_115_5790" style="mask-type:luminance" maskUnits="userSpaceOnUse" x="0" y="0" width="63" height="64">
<path d="M0.254944 0.725327H62.8755V63.3458H0.254944V0.725327Z" fill="white"/>
</mask>
<g mask="url(#mask0_115_5790)">
<path d="M31.5652 49.1583C32.2403 49.1583 32.7883 49.7062 32.7883 50.3813C32.7883 51.0565 32.2403 51.6044 31.5652 51.6044C30.8901 51.6044 30.3422 51.0565 30.3422 50.3813C30.3422 49.7062 30.8901 49.1583 31.5652 49.1583Z" fill="white"/>
<path fill-rule="evenodd" clip-rule="evenodd" d="M44.1627 39.3738C44.1627 43.4262 47.4487 46.7122 51.501 46.7122C55.5534 46.7122 58.8394 43.4262 58.8394 39.3738C58.8394 35.3215 55.5534 32.0355 51.501 32.0355C47.4487 32.0355 44.1627 35.3215 44.1627 39.3738ZM51.501 44.2661C48.7996 44.2661 46.6088 42.0752 46.6088 39.3738C46.6088 36.6724 48.7996 34.4816 51.501 34.4816C54.2024 34.4816 56.3933 36.6724 56.3933 39.3738C56.3933 42.0752 54.2024 44.2661 51.501 44.2661Z" fill="white"/>
<path fill-rule="evenodd" clip-rule="evenodd" d="M0.254944 60.166C0.254944 60.8415 0.802525 61.389 1.478 61.389H18.1116C18.7871 61.389 19.3346 60.8415 19.3346 60.166C19.3346 59.4905 18.7871 58.9429 18.1116 58.9429H2.70106V57.7199C2.70106 53.0494 6.84244 49.1585 11.6294 49.1585C14.568 49.1585 17.4687 50.6275 18.9924 52.7847C19.3821 53.3365 20.1453 53.4678 20.697 53.0781C21.2488 52.6884 21.3801 51.9252 20.9904 51.3735C18.9722 48.5162 15.2977 46.7124 11.6294 46.7124C5.60938 46.7124 0.254944 51.5835 0.254944 57.7199V60.166Z" fill="white"/>
<path fill-rule="evenodd" clip-rule="evenodd" d="M43.7958 60.1658C43.7958 60.8413 44.3434 61.3889 45.0188 61.3889H61.6524C62.3279 61.3889 62.8755 60.8413 62.8755 60.1658V57.7197C62.8755 51.5833 57.521 46.7122 51.501 46.7122C47.8327 46.7122 44.1583 48.516 42.14 51.3733C41.7503 51.925 41.8816 52.6882 42.4334 53.0779C42.9851 53.4676 43.7483 53.3363 44.138 52.7846C45.6617 50.6274 48.5625 49.1583 51.501 49.1583C56.288 49.1583 60.4293 53.0492 60.4293 57.7197V58.9427H45.0188C44.3434 58.9427 43.7958 59.4903 43.7958 60.1658Z" fill="white"/>
<path fill-rule="evenodd" clip-rule="evenodd" d="M4.29102 39.3738C4.29102 43.4262 7.57702 46.7122 11.6294 46.7122C15.6817 46.7122 18.9677 43.4262 18.9677 39.3738C18.9677 35.3215 15.6817 32.0355 11.6294 32.0355C7.57702 32.0355 4.29102 35.3215 4.29102 39.3738ZM11.6294 44.2661C8.92797 44.2661 6.73713 42.0752 6.73713 39.3738C6.73713 36.6724 8.92797 34.4816 11.6294 34.4816C14.3307 34.4816 16.5216 36.6724 16.5216 39.3738C16.5216 42.0752 14.3307 44.2661 11.6294 44.2661Z" fill="white"/>
<path fill-rule="evenodd" clip-rule="evenodd" d="M21.7808 34.4816C21.7808 39.8854 26.1614 44.2661 31.5652 44.2661C36.969 44.2661 41.3497 39.8854 41.3497 34.4816C41.3497 29.0778 36.969 24.6971 31.5652 24.6971C26.1614 24.6971 21.7808 29.0778 21.7808 34.4816ZM31.5652 41.8199C27.5124 41.8199 24.2269 38.5345 24.2269 34.4816C24.2269 30.4287 27.5124 27.1433 31.5652 27.1433C35.6181 27.1433 38.9036 30.4287 38.9036 34.4816C38.9036 38.5345 35.6181 41.8199 31.5652 41.8199Z" fill="white"/>
<path fill-rule="evenodd" clip-rule="evenodd" d="M25.5126 21.2261C25.8892 21.4998 26.3885 21.5358 26.8006 21.3192L31.5213 18.8371C32.5832 19.3953 33.4853 19.8695 34.4399 20.3713C35.0075 20.6697 35.5937 20.9779 36.2431 21.3192C36.6553 21.5359 37.1546 21.4997 37.5312 21.226C37.9079 20.9523 38.0964 20.4885 38.0176 20.0296L37.1149 14.7721L40.9349 11.0492C41.2684 10.7242 41.3884 10.2381 41.2445 9.79534C41.1006 9.35253 40.7178 9.02983 40.257 8.96294L34.9816 8.19715L32.6199 3.36783C32.4146 2.94818 31.9883 2.68209 31.5212 2.68209C31.054 2.68209 30.6277 2.94818 30.4224 3.36783L28.0607 8.19715L22.7853 8.96294C22.3245 9.02983 21.9417 9.35253 21.7978 9.79534C21.6539 10.2381 21.7739 10.7242 22.1074 11.0492L25.9275 14.7722L25.026 20.0299C24.9473 20.4888 25.1359 20.9525 25.5126 21.2261ZM35.1873 18.0007C34.2087 17.4862 33.255 16.9849 32.0901 16.3727C31.7338 16.1855 31.3082 16.1855 30.952 16.3728L27.8557 18.0008L28.4471 14.5519C28.5152 14.1551 28.3836 13.7502 28.0953 13.4693L25.5899 11.0276L29.0514 10.5251C29.4514 10.467 29.7968 10.2151 29.9744 9.85203L31.5212 6.68915L33.0679 9.85203C33.2455 10.2151 33.5909 10.467 33.9909 10.5251L37.4524 11.0276L34.947 13.4693C34.6586 13.7503 34.5271 14.1553 34.5952 14.5521L35.1873 18.0007Z" fill="white"/>
<path fill-rule="evenodd" clip-rule="evenodd" d="M47.7831 27.4929C48.1596 27.7666 48.6589 27.8028 49.0709 27.5863L52.2691 25.9063L55.466 27.5863C55.8781 27.8028 56.3774 27.7667 56.7539 27.493C57.1305 27.2193 57.3191 26.7556 57.2404 26.2968L56.6299 22.7378L59.2162 20.2158C59.5495 19.8908 59.6694 19.4048 59.5254 18.962C59.3815 18.5193 58.9988 18.1967 58.5381 18.1298L54.9638 17.6107L53.366 14.3716C53.1601 13.9541 52.7349 13.6897 52.2693 13.6896C51.8037 13.6896 51.3785 13.9539 51.1724 14.3713L49.5735 17.6107L45.9989 18.1298C45.5382 18.1967 45.1554 18.5193 45.0115 18.962C44.8676 19.4048 44.9875 19.8908 45.3208 20.2158L47.9072 22.7378L47.2967 26.2968C47.218 26.7556 47.4065 27.2193 47.7831 27.4929ZM50.1264 24.2688L50.4267 22.5177C50.4948 22.121 50.3633 21.7163 50.0752 21.4353L48.8026 20.1944L50.5614 19.939C50.9598 19.8811 51.3042 19.6309 51.4824 19.27L52.2688 17.6767L53.0546 19.2697C53.2327 19.6308 53.5772 19.8811 53.9757 19.939L55.7344 20.1944L54.4619 21.4353C54.1738 21.7163 54.0423 22.1211 54.1103 22.5177L54.4106 24.2684L52.8381 23.442C52.4819 23.2549 52.0565 23.2548 51.7004 23.4419L50.1264 24.2688Z" fill="white"/>
<path fill-rule="evenodd" clip-rule="evenodd" d="M6.19906 27.4929C6.5756 27.7666 7.07484 27.8028 7.48692 27.5863L10.685 25.9063L13.882 27.5863C14.2941 27.8028 14.7933 27.7667 15.1699 27.493C15.5465 27.2193 15.7351 26.7556 15.6564 26.2968L15.0459 22.7378L17.6323 20.2158C17.9656 19.8908 18.0855 19.4048 17.9416 18.962C17.7976 18.5193 17.4149 18.1967 16.9542 18.1298L13.3797 17.6107L11.782 14.3716C11.576 13.9541 11.1509 13.6897 10.6853 13.6896C10.2197 13.6896 9.79448 13.9539 9.58841 14.3713L7.98951 17.6107L4.41488 18.1298C3.95418 18.1967 3.57141 18.5193 3.4275 18.962C3.28359 19.4048 3.40348 19.8908 3.73678 20.2158L6.32315 22.7378L5.71267 26.2968C5.63398 26.7556 5.82253 27.2193 6.19906 27.4929ZM8.54238 24.2688L8.84273 22.5177C8.91078 22.121 8.7793 21.7163 8.49115 21.4353L7.21858 20.1944L8.9774 19.939C9.37579 19.8811 9.72019 19.6309 9.89836 19.27L10.6848 17.6767L11.4706 19.2697C11.6487 19.6308 11.9932 19.8811 12.3917 19.939L14.1505 20.1944L12.8779 21.4353C12.5898 21.7163 12.4583 22.121 12.5263 22.5177L12.8266 24.2684L11.2541 23.442C10.8979 23.2549 10.4725 23.2548 10.1163 23.4419L8.54238 24.2688Z" fill="white"/>
<path fill-rule="evenodd" clip-rule="evenodd" d="M16.8885 60.1658C16.8885 60.8413 17.4361 61.3889 18.1116 61.3889H45.0188C45.6943 61.3889 46.2419 60.8413 46.2419 60.1658V58.9427C46.2419 56.2094 45.4933 53.6474 44.1905 51.4543L44.1902 51.4538C43.5618 50.3972 42.8057 49.4277 41.9432 48.5652C39.2891 45.9098 35.6181 44.2661 31.5652 44.2661C26.1933 44.2661 21.4972 47.153 18.9401 51.4539L18.9399 51.4543C17.6371 53.6474 16.8885 56.2094 16.8885 58.9427V60.1658ZM19.3346 58.9427C19.3346 56.6617 19.9582 54.5298 21.0427 52.704C21.0428 52.7038 21.0429 52.7037 21.0429 52.7036C23.1776 49.1135 27.0917 46.7122 31.5652 46.7122C34.9436 46.7122 37.9994 48.0796 40.2131 50.2944L40.2133 50.2946C40.9334 51.0147 41.5641 51.8235 42.0878 52.7041C43.1722 54.5298 43.7958 56.6617 43.7958 58.9427H19.3346Z" fill="white"/>
<path fill-rule="evenodd" clip-rule="evenodd" d="M39.8254 56.378C40.4354 56.0877 40.6945 55.3579 40.4042 54.748C39.6295 53.1204 38.4186 51.741 36.9248 50.7596C36.3602 50.3887 35.6019 50.5457 35.231 51.1102C34.8601 51.6747 35.0171 52.4331 35.5816 52.804C36.7052 53.5421 37.615 54.5795 38.1955 55.7992C38.4858 56.4091 39.2155 56.6682 39.8254 56.378Z" fill="white"/>
</g>
</svg>
