<svg width="70" height="70" viewBox="0 0 70 70" fill="none" xmlns="http://www.w3.org/2000/svg">
<mask id="mask0_120_1007" style="mask-type:luminance" maskUnits="userSpaceOnUse" x="0" y="0" width="70" height="70">
<path d="M0 0H70V70H0V0Z" fill="white"/>
</mask>
<g mask="url(#mask0_120_1007)">
<path d="M35 54.1405C35.7547 54.1405 36.3672 54.753 36.3672 55.5077C36.3672 56.2624 35.7547 56.8749 35 56.8749C34.2453 56.8749 33.6328 56.2624 33.6328 55.5077C33.6328 54.753 34.2453 54.1405 35 54.1405Z" fill="#1661BE"/>
<path fill-rule="evenodd" clip-rule="evenodd" d="M49.082 43.203C49.082 47.7329 52.7553 51.4062 57.2852 51.4062C61.815 51.4062 65.4883 47.7329 65.4883 43.203C65.4883 38.6732 61.815 34.9999 57.2852 34.9999C52.7553 34.9999 49.082 38.6732 49.082 43.203ZM57.2852 48.6718C54.2654 48.6718 51.8164 46.2228 51.8164 43.203C51.8164 40.1833 54.2654 37.7343 57.2852 37.7343C60.3049 37.7343 62.7539 40.1833 62.7539 43.203C62.7539 46.2228 60.3049 48.6718 57.2852 48.6718Z" fill="#1661BE"/>
<path fill-rule="evenodd" clip-rule="evenodd" d="M0 66.4454C0 67.2005 0.612111 67.8126 1.36719 67.8126H19.9609C20.716 67.8126 21.3281 67.2005 21.3281 66.4454C21.3281 65.6903 20.716 65.0782 19.9609 65.0782H2.73438V63.711C2.73438 58.4901 7.3638 54.1407 12.7148 54.1407C15.9997 54.1407 19.2423 55.7829 20.9456 58.1943C21.3812 58.8111 22.2343 58.9579 22.8511 58.5223C23.4678 58.0867 23.6146 57.2335 23.179 56.6168C20.9229 53.4228 16.8155 51.4064 12.7148 51.4064C5.98542 51.4064 0 56.8515 0 63.711V66.4454Z" fill="#1661BE"/>
<path fill-rule="evenodd" clip-rule="evenodd" d="M48.6718 66.4452C48.6718 67.2003 49.2839 67.8124 50.039 67.8124H68.6327C69.3878 67.8124 69.9999 67.2003 69.9999 66.4452V63.7108C69.9999 56.8513 64.0145 51.4062 57.2851 51.4062C53.1844 51.4062 49.077 53.4226 46.8209 56.6166C46.3853 57.2333 46.5321 58.0865 47.1488 58.5221C47.7656 58.9577 48.6187 58.8109 49.0543 58.1942C50.7576 55.7827 54.0002 54.1405 57.2851 54.1405C62.6361 54.1405 67.2655 58.4899 67.2655 63.7108V65.078H50.039C49.2839 65.078 48.6718 65.6901 48.6718 66.4452Z" fill="#1661BE"/>
<path fill-rule="evenodd" clip-rule="evenodd" d="M4.51172 43.203C4.51172 47.7329 8.18496 51.4062 12.7148 51.4062C17.2447 51.4062 20.918 47.7329 20.918 43.203C20.918 38.6732 17.2447 34.9999 12.7148 34.9999C8.18496 34.9999 4.51172 38.6732 4.51172 43.203ZM12.7148 48.6718C9.69512 48.6718 7.24609 46.2228 7.24609 43.203C7.24609 40.1833 9.69512 37.7343 12.7148 37.7343C15.7346 37.7343 18.1836 40.1833 18.1836 43.203C18.1836 46.2228 15.7346 48.6718 12.7148 48.6718Z" fill="#1661BE"/>
<path fill-rule="evenodd" clip-rule="evenodd" d="M24.0625 37.7343C24.0625 43.7749 28.9594 48.6718 35 48.6718C41.0406 48.6718 45.9375 43.7749 45.9375 37.7343C45.9375 31.6937 41.0406 26.7968 35 26.7968C28.9594 26.7968 24.0625 31.6937 24.0625 37.7343ZM35 45.9374C30.4695 45.9374 26.7969 42.2648 26.7969 37.7343C26.7969 33.2038 30.4695 29.5312 35 29.5312C39.5305 29.5312 43.2031 33.2038 43.2031 37.7343C43.2031 42.2648 39.5305 45.9374 35 45.9374Z" fill="#1661BE"/>
<path fill-rule="evenodd" clip-rule="evenodd" d="M28.2342 22.9167C28.6552 23.2226 29.2134 23.2629 29.674 23.0207L34.951 20.2462C36.138 20.8701 37.1464 21.4002 38.2136 21.9612C38.8481 22.2947 39.5033 22.6392 40.2293 23.0208C40.69 23.2629 41.2482 23.2225 41.6692 22.9166C42.0902 22.6106 42.301 22.0922 42.2129 21.5792L41.2038 15.7021L45.474 11.5405C45.8467 11.1772 45.9809 10.6339 45.82 10.1389C45.6592 9.64388 45.2312 9.28314 44.7162 9.20838L38.819 8.35234L36.179 2.95392C35.9496 2.48482 35.473 2.18736 34.9508 2.18736C34.4286 2.18736 33.952 2.48482 33.7226 2.95392L31.0826 8.35234L25.1855 9.20838C24.6704 9.28314 24.2425 9.64388 24.0816 10.1389C23.9208 10.6339 24.0549 11.1772 24.4277 11.5405L28.698 15.7023L27.6902 21.5795C27.6023 22.0925 27.8131 22.6108 28.2342 22.9167ZM39.0491 19.3112C37.9551 18.7361 36.889 18.1757 35.5868 17.4914C35.1886 17.2821 34.7128 17.2821 34.3146 17.4915L30.8534 19.3113L31.5146 15.4559C31.5906 15.0124 31.4435 14.5598 31.1212 14.2457L28.3206 11.5163L32.19 10.9546C32.6371 10.8897 33.0233 10.6081 33.2218 10.2022L34.9508 6.66663L36.6799 10.2022C36.8783 10.6081 37.2645 10.8897 37.7116 10.9546L41.581 11.5163L38.7804 14.2457C38.458 14.5599 38.311 15.0126 38.3871 15.4562L39.0491 19.3112Z" fill="#1661BE"/>
<path fill-rule="evenodd" clip-rule="evenodd" d="M53.1291 29.922C53.55 30.228 54.108 30.2684 54.5687 30.0264L58.1437 28.1484L61.7174 30.0264C62.178 30.2684 62.7361 30.228 63.1571 29.9221C63.578 29.6162 63.7888 29.0978 63.7009 28.585L63.0185 24.6065L65.9095 21.7873C66.2821 21.424 66.4161 20.8807 66.2552 20.3858C66.0943 19.8909 65.6665 19.5303 65.1515 19.4555L61.1559 18.8752L59.3699 15.2545C59.1397 14.7877 58.6644 14.4921 58.144 14.4921C57.6235 14.492 57.1482 14.7874 56.9178 15.2541L55.1305 18.8752L51.1346 19.4555C50.6196 19.5303 50.1918 19.8909 50.0309 20.3858C49.87 20.8807 50.004 21.424 50.3766 21.7873L53.2678 24.6065L52.5853 28.585C52.4974 29.0978 52.7081 29.6161 53.1291 29.922ZM55.7485 26.3179L56.0843 24.3605C56.1603 23.9171 56.0134 23.4646 55.6912 23.1505L54.2687 21.7634L56.2348 21.4779C56.6801 21.4132 57.0651 21.1335 57.2643 20.73L58.1434 18.949L59.0218 20.7297C59.2209 21.1334 59.606 21.4132 60.0514 21.4779L62.0174 21.7634L60.5949 23.1506C60.2728 23.4646 60.1259 23.9171 60.2019 24.3605L60.5376 26.3175L58.7798 25.3937C58.3817 25.1845 57.9061 25.1845 57.508 25.3937L55.7485 26.3179Z" fill="#1661BE"/>
<path fill-rule="evenodd" clip-rule="evenodd" d="M6.64444 29.922C7.06535 30.228 7.62342 30.2684 8.08406 30.0264L11.6591 28.1484L15.2328 30.0264C15.6934 30.2684 16.2515 30.228 16.6725 29.9221C17.0934 29.6162 17.3042 29.0978 17.2163 28.585L16.5338 24.6065L19.425 21.7873C19.7976 21.424 19.9316 20.8807 19.7707 20.3858C19.6098 19.8909 19.182 19.5303 18.667 19.4555L14.6713 18.8752L12.8853 15.2545C12.6551 14.7877 12.1798 14.4921 11.6593 14.4921C11.1389 14.492 10.6635 14.7874 10.4332 15.2541L8.64587 18.8752L4.64999 19.4555C4.13501 19.5303 3.70713 19.8909 3.54626 20.3858C3.38539 20.8807 3.51941 21.424 3.89199 21.7873L6.78314 24.6065L6.10073 28.585C6.01276 29.0978 6.22353 29.6161 6.64444 29.922ZM9.2639 26.3179L9.59965 24.3605C9.67571 23.9171 9.52874 23.4646 9.20663 23.1505L7.7841 21.7634L9.75019 21.4779C10.1955 21.4132 10.5805 21.1335 10.7797 20.73L11.6588 18.949L12.5371 20.7297C12.7363 21.1334 13.1213 21.4132 13.5668 21.4779L15.5329 21.7634L14.1103 23.1505C13.7882 23.4646 13.6413 23.9171 13.7173 24.3605L14.053 26.3175L12.2952 25.3937C11.897 25.1845 11.4215 25.1845 11.0233 25.3937L9.2639 26.3179Z" fill="#1661BE"/>
<path fill-rule="evenodd" clip-rule="evenodd" d="M18.5938 66.4452C18.5938 67.2003 19.2059 67.8124 19.9609 67.8124H50.0391C50.7941 67.8124 51.4062 67.2003 51.4062 66.4452V65.078C51.4062 62.0226 50.5694 59.1587 49.1131 56.7071L49.1128 56.7065C48.4104 55.5254 47.5651 54.4417 46.601 53.4775C43.6342 50.5092 39.5306 48.6718 35 48.6718C28.9951 48.6718 23.7455 51.899 20.8871 56.7067L20.8869 56.7071C19.4306 59.1587 18.5938 62.0226 18.5938 65.078V66.4452ZM21.3281 65.078C21.3281 62.5281 22.0252 60.145 23.2375 58.1041C23.2376 58.1039 23.2377 58.1038 23.2377 58.1036C25.6239 54.0905 29.9993 51.4062 35 51.4062C38.7765 51.4062 42.1924 52.9347 44.667 55.4106L44.6672 55.4108C45.4721 56.2157 46.1772 57.1198 46.7626 58.1042C47.9748 60.1451 48.6719 62.5282 48.6719 65.078H21.3281Z" fill="#1661BE"/>
<path fill-rule="evenodd" clip-rule="evenodd" d="M44.2336 62.211C44.9154 61.8865 45.205 61.0707 44.8805 60.3889C44.0146 58.5696 42.661 57.0276 40.9911 55.9305C40.3601 55.5159 39.5124 55.6914 39.0978 56.3225C38.6831 56.9535 38.8586 57.8012 39.4897 58.2158C40.7456 59.041 41.7626 60.2006 42.4116 61.5641C42.7361 62.2458 43.5518 62.5355 44.2336 62.211Z" fill="#1661BE"/>
</g>
</svg>
