<svg width="71" height="71" viewBox="0 0 71 71" fill="none" xmlns="http://www.w3.org/2000/svg">
<g clip-path="url(#clip0_115_7555)">
<path d="M68.8158 14.1562C65.1783 13.8793 46.5621 11.9339 37.3072 0.841374C36.8606 0.305394 36.1979 -0.00314438 35.5003 2.41677e-05C34.8031 -0.00178246 34.1412 0.305996 33.6933 0.840191C29.8629 5.44336 24.0219 8.99336 16.3374 11.4097C11.7333 12.8353 6.98783 13.7559 2.18469 14.1551C0.938719 14.2512 -0.0178194 15.2994 0.000251857 16.5489C0.348152 35.7888 9.63495 61.5558 34.6601 70.8497C35.2024 71.0517 35.7993 71.0517 36.3416 70.8497C61.3656 61.5547 70.6583 35.7888 71.0003 16.5501C71.0183 15.3006 70.0618 14.2523 68.8158 14.1562ZM35.4837 68.6334C11.5744 59.7513 2.70062 35.0018 2.36692 16.5146C7.34884 16.1012 12.2709 15.1466 17.0462 13.6675C25.1733 11.1127 31.3858 7.30592 35.4896 2.35604C45.3503 14.1764 64.8221 16.2247 68.6336 16.5158C68.2963 35.0101 59.4213 59.7584 35.4837 68.6334Z" fill="white"/>
<path d="M7.33657 20.7084C11.1086 20.1617 14.8315 19.3177 18.4706 18.1843C21.68 17.1908 24.7936 15.9108 27.7739 14.3598C28.3523 14.0546 28.5738 13.3383 28.2686 12.7599C27.9634 12.1815 27.2471 11.9601 26.6687 12.2653C23.816 13.7514 20.8349 14.9768 17.7617 15.9265C14.2421 17.0221 10.6415 17.8384 6.9934 18.3677C5.75233 18.5509 4.86981 19.6707 4.98173 20.9202C5.44583 26.0194 6.52254 31.0441 8.18857 35.8858C8.41021 36.4907 9.07506 36.8072 9.68433 36.5978C10.2936 36.3883 10.6234 35.73 10.4262 35.1166C8.82195 30.4552 7.78459 25.6177 7.33657 20.7084Z" fill="white"/>
<path d="M43.2308 14.3586C46.2126 15.9104 49.3284 17.19 52.5401 18.1819C56.1751 19.3175 59.8946 20.1624 63.6635 20.7083C63.2172 25.6189 62.1806 30.4577 60.5761 35.1201C60.4287 35.5224 60.5103 35.973 60.7894 36.298C61.0685 36.6231 61.5015 36.7719 61.9214 36.6872C62.3414 36.6024 62.6827 36.2972 62.8138 35.8893C64.4834 31.0465 65.5633 26.0202 66.0301 20.919C66.142 19.6694 65.2595 18.5497 64.0185 18.3665C60.3703 17.837 56.7697 17.0203 53.2501 15.9241C50.177 14.9747 47.1959 13.7497 44.3432 12.2641C43.7648 11.9589 43.0485 12.1803 42.7433 12.7587C42.4381 13.3371 42.6596 14.0533 43.2379 14.3586H43.2308Z" fill="white"/>
<path d="M33.0599 10.8867C31.5054 13.7174 30.715 16.9042 30.7666 20.1332V25.3162L29.7087 25.8452C28.9043 26.2428 28.3965 27.0637 28.4 27.961V30.1005L16.5666 36.9981V35.5C16.5666 34.8465 16.0368 34.3167 15.3833 34.3167C14.7298 34.3167 14.2 34.8465 14.2 35.5V44.9667C14.198 45.6202 14.7262 46.1516 15.3797 46.1535C16.0333 46.1555 16.5647 45.6273 16.5666 44.9738H28.4V46.7689L23.3696 50.7922C22.8086 51.2406 22.4824 51.9201 22.4833 52.6382V54.4333C22.4833 55.7404 23.5429 56.8 24.85 56.8H31.0968L31.4719 57.9218C31.9547 59.3713 33.3107 60.3493 34.8385 60.35H36.1614C37.6872 60.3475 39.0407 59.3704 39.5233 57.923L39.9031 56.8H46.15C47.457 56.8 48.5166 55.7404 48.5166 54.4333V52.6382C48.5178 51.9188 48.1906 51.2382 47.6279 50.7899L42.6 46.7689V44.9738H54.4333C54.4346 45.3965 54.6613 45.7865 55.028 45.9968C55.3948 46.2071 55.8459 46.2057 56.2114 45.9932C56.5769 45.7808 56.8012 45.3894 56.8 44.9667V35.5C56.8 34.8465 56.2702 34.3167 55.6166 34.3167C54.9631 34.3167 54.4333 34.8465 54.4333 35.5V36.9981L42.6 30.1005V27.961C42.6044 27.0654 42.0997 26.245 41.2983 25.8452L40.2333 25.3233V20.1332C40.2858 16.9018 39.4954 13.7125 37.94 10.8796C37.4386 10.0053 36.5078 9.46606 35.5 9.46606C34.4921 9.46606 33.5613 10.0053 33.0599 10.8796V10.8867ZM37.8666 20.1332V25.3233C37.8624 26.2189 38.367 27.0391 39.1683 27.4391L40.2333 27.9669V35.5C40.2333 36.1535 40.7631 36.6833 41.4166 36.6833C42.0702 36.6833 42.6 36.1535 42.6 35.5V32.8399L54.4333 39.7375V42.6071H42.6V40.2333C42.6 39.5798 42.0702 39.05 41.4166 39.05C40.7631 39.05 40.2333 39.5798 40.2333 40.2333V47.3333C40.2334 47.693 40.3972 48.0331 40.6782 48.2575L46.15 52.6382V54.4333H39.05C38.5408 54.4337 38.089 54.7597 37.9282 55.2427L37.2844 57.1727C37.1234 57.6562 36.671 57.9823 36.1614 57.9822H34.8385C34.3289 57.9823 33.8765 57.6562 33.7155 57.1727L33.0718 55.2427C32.9109 54.7597 32.4591 54.4337 31.95 54.4333H24.85V52.6382L30.3229 48.2599C30.6041 48.0347 30.7675 47.6936 30.7666 47.3333V40.2333C30.7666 39.5798 30.2368 39.05 29.5833 39.05C28.9298 39.05 28.4 39.5798 28.4 40.2333V42.6071H16.5666V39.7375L28.4 32.8399V35.5C28.4 36.1535 28.9298 36.6833 29.5833 36.6833C30.2368 36.6833 30.7666 36.1535 30.7666 35.5V27.9622L31.8245 27.4332C32.6266 27.0361 33.1339 26.2183 33.1333 25.3233V20.1332C33.0804 17.3128 33.7645 14.5274 35.1177 12.0523C35.1975 11.917 35.3429 11.8339 35.5 11.8339C35.657 11.8339 35.8024 11.917 35.8822 12.0523C37.2352 14.5275 37.9191 17.3128 37.8666 20.1332Z" fill="white"/>
</g>
<defs>
<clipPath id="clip0_115_7555">
<rect width="71" height="71" fill="white"/>
</clipPath>
</defs>
</svg>
