<svg width="54" height="53" viewBox="0 0 54 53" fill="none" xmlns="http://www.w3.org/2000/svg">
<g clip-path="url(#clip0_115_5732)">
<path d="M35.6709 33.9152C34.4213 33.9152 33.4048 33.0353 33.4048 31.9538C33.4048 30.8723 34.4213 29.9924 35.6709 29.9924C36.9204 29.9924 37.937 30.8723 37.937 31.9538C37.937 32.5226 38.3982 32.9839 38.967 32.9839C39.5358 32.9839 39.9971 32.5226 39.9971 31.9538C39.9971 30.0663 38.5906 28.4792 36.7009 28.0484V27.5127C36.7009 26.9439 36.2397 26.4827 35.6709 26.4827C35.1021 26.4827 34.6408 26.9439 34.6408 27.5127V28.0484C32.7511 28.4792 31.3447 30.0663 31.3447 31.9538C31.3447 34.1712 33.2854 35.9753 35.6709 35.9753C36.9204 35.9753 37.937 36.8551 37.937 37.9367C37.937 39.0182 36.9204 39.8981 35.6709 39.8981C34.4213 39.8981 33.4048 39.0182 33.4048 37.9367C33.4048 37.3679 32.9435 36.9066 32.3747 36.9066C31.8059 36.9066 31.3447 37.3679 31.3447 37.9367C31.3447 39.8242 32.7511 41.4113 34.6408 41.8421V42.2871C34.6408 42.8559 35.1021 43.3171 35.6709 43.3171C36.2397 43.3171 36.7009 42.8559 36.7009 42.2871V41.8421C38.5906 41.4113 39.9971 39.8242 39.9971 37.9367C39.9971 35.7192 38.0563 33.9152 35.6709 33.9152Z" fill="white"/>
<path d="M46.9527 27.7882C45.6072 25.6916 43.7115 24.0138 41.4706 22.9366C40.9578 22.69 40.3423 22.9059 40.0959 23.4187C39.8494 23.9314 40.0652 24.5468 40.578 24.7933C44.483 26.6704 47.0061 30.6813 47.0061 35.0114C47.0061 36.8643 46.5494 38.7018 45.6855 40.3255C45.4183 40.8277 45.6087 41.4515 46.111 41.7187C46.2651 41.8007 46.4307 41.8396 46.5939 41.8396C46.9624 41.8396 47.3189 41.6412 47.5041 41.2932C48.526 39.3727 49.0662 37.2005 49.0662 35.0114C49.0662 32.4404 48.3354 29.9427 46.9527 27.7882Z" fill="white"/>
<path d="M37.29 21.6209L37.2206 21.6208C36.6518 21.6208 36.1906 22.082 36.1906 22.6509C36.1906 23.2198 36.6518 23.6809 37.2206 23.6809L37.2803 23.681C37.2819 23.681 37.2835 23.681 37.2852 23.681C37.8518 23.681 38.3125 23.223 38.3152 22.6558C38.3177 22.0869 37.8587 21.6236 37.29 21.6209Z" fill="white"/>
<path d="M30.7733 45.2296C26.8683 43.3523 24.3452 39.3415 24.3452 35.0114C24.3452 33.1586 24.802 31.3211 25.6659 29.6973C25.9331 29.1952 25.7426 28.5714 25.2404 28.3042C24.7383 28.037 24.1143 28.2275 23.8472 28.7297C22.8253 30.6502 22.2852 32.8224 22.2852 35.0114C22.2852 37.5824 23.016 40.0801 24.3986 42.2346C25.7442 44.3313 27.6399 46.009 29.8807 47.0864C30.0246 47.1556 30.1766 47.1882 30.3263 47.1882C30.7099 47.1882 31.078 46.9731 31.2554 46.6043C31.5017 46.0915 31.286 45.4761 30.7733 45.2296Z" fill="white"/>
<path d="M34.1307 46.342L34.071 46.3417C33.4996 46.3407 33.0389 46.798 33.0364 47.367C33.0337 47.9358 33.4929 48.3992 34.0617 48.4018L34.1307 48.402C34.6995 48.402 35.1607 47.9408 35.1607 47.372C35.1607 46.8032 34.6995 46.342 34.1307 46.342Z" fill="white"/>
<path d="M40.3529 18.1359C40.2276 17.8371 40.074 17.5556 39.8953 17.2945H42.5769C45.1895 17.2945 47.3151 15.1689 47.3151 12.5563C47.3151 9.94369 45.1895 7.81809 42.5769 7.81809H34.3283C34.8527 7.05564 35.1606 6.13324 35.1606 5.13997C35.1606 2.52736 33.035 0.401752 30.4223 0.401752H5.18621C2.5736 0.401752 0.447998 2.52736 0.447998 5.13997C0.447998 7.75257 2.5736 9.87818 5.18621 9.87818H13.4348C12.9104 10.6406 12.6025 11.563 12.6025 12.5563C12.6025 13.5496 12.9103 14.472 13.4348 15.2344H10.7485C8.13585 15.2344 6.01025 17.36 6.01025 19.9726C6.01025 21.4731 6.71212 22.8121 7.80407 23.6808C6.71212 24.5495 6.01025 25.8885 6.01025 27.389C6.01025 28.8894 6.71212 30.2284 7.80407 31.0971C6.71212 31.9659 6.01025 33.3048 6.01025 34.8053C6.01025 36.3058 6.71212 37.6447 7.80407 38.5135C6.71212 39.3822 6.01025 40.7212 6.01025 42.2216C6.01025 44.8342 8.13585 46.9598 10.7485 46.9598H22.8876C26.0854 50.3803 30.6347 52.5222 35.6757 52.5222C45.3311 52.5222 53.1865 44.6669 53.1865 35.0114C53.1865 26.9753 47.7447 20.1872 40.3529 18.1359ZM42.5769 9.87818C44.0537 9.87818 45.255 11.0796 45.255 12.5563C45.255 14.033 44.0537 15.2344 42.5769 15.2344H35.9846H17.3408C15.864 15.2344 14.6626 14.033 14.6626 12.5563C14.6626 11.0796 15.864 9.87818 17.3408 9.87818H42.5769ZM5.18621 7.81809C3.70943 7.81809 2.50809 6.61664 2.50809 5.13997C2.50809 3.66329 3.70943 2.46184 5.18621 2.46184H30.4223C31.8991 2.46184 33.1005 3.66329 33.1005 5.13997C33.1005 6.61664 31.8991 7.81809 30.4223 7.81809H5.18621ZM10.7485 17.2945H35.9846C36.3995 17.2945 36.7968 17.3909 37.1532 17.5636C36.666 17.5227 36.1734 17.5006 35.6757 17.5006C30.8401 17.5006 26.4563 19.471 23.2843 22.6508H10.7485C9.27179 22.6508 8.07034 21.4493 8.07034 19.9726C8.07034 18.496 9.27179 17.2945 10.7485 17.2945ZM10.7485 24.7108H21.5243C20.355 26.3129 19.4509 28.1198 18.8768 30.0671H10.7485C9.27168 30.0671 8.07034 28.8657 8.07034 27.389C8.07034 25.9123 9.27168 24.7108 10.7485 24.7108ZM10.7485 32.1272H18.4038C18.2475 33.0659 18.1649 34.0291 18.1649 35.0114C18.1649 35.8505 18.2256 36.6755 18.3402 37.4834H10.7485C9.27168 37.4834 8.07034 36.2821 8.07034 34.8053C8.07034 33.3285 9.27168 32.1272 10.7485 32.1272ZM10.7485 44.8997C9.27168 44.8997 8.07034 43.6984 8.07034 42.2216C8.07034 40.7449 9.27168 39.5435 10.7485 39.5435H18.7608C19.2805 41.4813 20.1249 43.2873 21.2322 44.8997H10.7485ZM35.6757 50.4621C27.1562 50.4621 20.225 43.5309 20.225 35.0114C20.225 26.4919 27.1562 19.5607 35.6757 19.5607C44.1952 19.5607 51.1264 26.4919 51.1264 35.0114C51.1264 43.5309 44.1952 50.4621 35.6757 50.4621Z" fill="white"/>
</g>
<defs>
<clipPath id="clip0_115_5732">
<rect width="52.7385" height="52.7385" fill="white" transform="translate(0.447998 0.0928841)"/>
</clipPath>
</defs>
</svg>
