<svg width="60" height="51" viewBox="0 0 60 51" fill="none" xmlns="http://www.w3.org/2000/svg">
<path d="M56.2231 0.579071H4.01993C1.99682 0.579071 0.351074 2.22482 0.351074 4.24781V39.6715C0.351074 41.6945 1.99682 43.3402 4.01993 43.3402H21.6759L20.9617 49.0535H18.0028C17.5211 49.0535 17.1307 49.444 17.1307 49.9257C17.1307 50.4073 17.5211 50.7978 18.0028 50.7978H42.2402C42.722 50.7978 43.1123 50.4073 43.1123 49.9257C43.1123 49.444 42.722 49.0535 42.2402 49.0535H39.2814L38.5671 43.3402H56.2231C58.2461 43.3402 59.8919 41.6945 59.8919 39.6715V4.24781C59.8919 2.22482 58.2462 0.579071 56.2231 0.579071ZM22.7197 49.0535L23.434 43.3402H26.6439L26.9589 44.5997C27.3224 46.0536 28.623 47.069 30.1216 47.069C31.6203 47.069 32.9209 46.0536 33.2844 44.5997L33.5993 43.3402H36.8093L37.5233 49.0535H22.7197ZM28.4419 43.3402H31.801L31.5919 44.1766C31.4229 44.8526 30.8183 45.3246 30.1214 45.3246C29.4245 45.3246 28.82 44.8525 28.6509 44.1766L28.4419 43.3402ZM58.1476 39.6715C58.1476 40.7326 57.2842 41.5959 56.2231 41.5959H4.01993C2.95878 41.5959 2.09544 40.7326 2.09544 39.6715V4.24781C2.09544 3.18666 2.95878 2.32343 4.01993 2.32343H56.2231C57.2842 2.32343 58.1476 3.18666 58.1476 4.24781V39.6715Z" fill="white"/>
</svg>
