<svg width="579" height="778" viewBox="0 0 579 778" fill="none" xmlns="http://www.w3.org/2000/svg">
<g clip-path="url(#clip0_967_2337)">
<rect width="579" height="778" fill="#1661BE"/>
<rect x="-787" y="-15" width="1366" height="962" fill="#E7F2FF"/>
<g style="mix-blend-mode:darken" opacity="0.15">
<path d="M1235.54 80.5647C1234.02 80.5647 1232.5 79.4897 1232.07 77.9847L1160.83 77.9847L1145.89 63.15L1045.63 63.15L1026.15 82.4996L980.89 82.4996L972.879 74.5448L903.154 74.5447L865.91 111.524L793.804 111.524L761.541 79.4896L696.147 79.4896L654.139 121.199L611.482 121.199L577.919 87.8745L553.884 87.8745L504.081 137.323L475.498 137.323L437.604 174.948C438.47 176.238 438.254 177.958 436.955 179.033C435.656 180.322 433.274 180.322 431.974 179.033C430.675 177.743 430.675 175.378 431.974 174.088C433.057 173.013 434.789 172.798 436.089 173.443L474.632 135.173L503.214 135.173L553.017 85.7245L578.569 85.7245L612.131 119.049L653.273 119.049L695.281 77.3397L762.19 77.3397L794.454 109.374L865.044 109.374L902.072 72.3948L973.312 72.3948L981.323 80.3496L1025.5 80.3497L1044.98 61.0001L1146.76 61.0001L1161.7 75.8347L1232.07 75.8347C1232.5 74.3298 1233.8 73.2548 1235.54 73.2548C1237.48 73.2548 1239 74.7598 1239 76.6947C1239 79.0597 1237.27 80.5647 1235.54 80.5647Z" fill="#1661BE"/>
<path d="M1224.69 -20.6557C1223.17 -20.6557 1221.66 -21.7358 1221.23 -23.2478L1084.33 -23.2478L1043.45 17.5774L988.516 17.5774L956.723 -14.1756L876.918 -14.1756L841.665 21.0334L783.27 21.0334L769.861 7.64106L718.82 7.64106L697.841 28.5937L656.533 28.5937L634.04 6.12901L590.569 6.12901L560.29 36.3699L505.14 36.3699L465.777 75.683L328.875 75.683L298.596 105.924C299.245 107.22 299.245 108.948 297.948 110.028C296.65 111.324 294.271 111.324 292.973 110.028C291.676 108.732 291.676 106.356 292.973 105.06C294.055 103.98 295.785 103.764 297.082 104.412L328.01 73.5229L464.912 73.5229L504.275 34.2098L559.209 34.2098L589.487 3.96894L634.473 3.96895L656.965 26.4336L696.76 26.4336L717.739 5.48099L770.294 5.481L783.703 18.8734L840.583 18.8734L875.836 -16.3356L957.156 -16.3356L988.948 15.4173L1042.37 15.4173L1083.24 -25.4079L1221.01 -25.4079C1221.44 -26.9199 1222.74 -27.9999 1224.47 -27.9999C1226.42 -27.9999 1227.93 -26.4879 1227.93 -24.5438C1228.37 -22.3838 1226.64 -20.6557 1224.69 -20.6557Z" fill="#1661BE"/>
<path d="M1115.89 51.2922C1114.38 51.2922 1112.86 50.1873 1112.64 48.6405L1033.87 48.6405L1017.81 64.9926L894.998 64.9926L863.751 96.8128L804.295 96.8128L765.02 56.8165L678.658 56.8165L643.288 92.8352L605.098 92.8352L579.276 66.5393L541.736 66.5393L508.537 100.348L334.944 100.348C334.51 101.895 333.208 103 331.472 103C329.519 103 328 101.453 328 99.4644C328 97.4757 329.519 95.9288 331.472 95.9288C332.991 95.9288 334.51 97.0337 334.944 98.5805L507.886 98.5805L541.085 64.7715L580.144 64.7715L605.966 90.8465L642.42 90.8465L677.79 54.8277L765.671 54.8277L804.729 94.824L862.666 94.824L893.913 63.0038L1016.73 63.0038L1032.79 46.6517L1112.21 46.6517C1112.64 45.1049 1113.94 44.0001 1115.46 44.0001C1117.41 44.0001 1118.93 45.5469 1118.93 47.5356C1119.37 49.5244 1117.63 51.2922 1115.89 51.2922Z" fill="#1661BE"/>
<path d="M737.85 26.1703L721.812 26.1703L704.69 43.2774L639.455 43.2774L623.85 27.6862L588.523 27.6862L570.101 46.0925L513.102 46.0925L469.756 89.4015L339.719 89.4015C339.285 90.9173 337.985 92 336.468 92C334.517 92 333 90.4842 333 88.5353C333 86.5864 334.517 85.0706 336.468 85.0706C337.985 85.0706 339.502 86.1533 339.719 87.6691L469.106 87.6691L512.452 44.3601L569.451 44.3601L587.873 25.9538L624.717 25.9538L640.322 41.545L704.04 41.5451L721.161 24.438L738.716 24.438L753.021 38.73L840.796 38.73L876.556 3.00006L940.491 3.00006L966.282 28.7689L1023.06 28.7689C1023.5 27.2531 1024.8 26.1704 1026.53 26.1704C1028.48 26.1704 1030 27.6862 1030 29.6351C1030 31.584 1028.48 33.0998 1026.53 33.0998C1025.02 33.0998 1023.5 32.0171 1023.06 30.5013L965.415 30.5013L939.624 4.73242L877.206 4.73242L841.446 40.4623L752.154 40.4623L737.85 26.1703Z" fill="#1661BE"/>
<path d="M396.753 -36.3289L362.063 -71.3631C360.771 -70.7103 359.047 -70.7103 357.97 -72.0159C356.677 -73.3215 356.677 -75.7152 357.97 -77.0208C359.262 -78.3264 361.632 -78.3264 362.925 -77.0208C364.003 -75.9328 364.218 -74.1919 363.572 -72.8863L397.83 -38.2873L518.706 -38.2873L560.937 4.36309C562.229 3.49267 563.953 3.71028 565.03 5.0159C566.323 6.32153 566.323 8.71518 565.03 10.0208C563.738 11.3264 561.367 11.3264 560.075 10.0208C558.997 8.93278 558.782 7.19193 559.428 5.88631L517.628 -36.3288L396.753 -36.3289Z" fill="#1661BE"/>
<path d="M298.121 49.0738L335.048 49.0738L352.208 32.0369L391.306 32.0369L411.073 51.6618L460.163 51.6618L494.483 17.5879L547.049 17.5879C547.484 16.0783 548.787 15 550.525 15C552.479 15 554 16.5096 554 18.4505C554 20.3915 552.479 21.901 550.525 21.901C549.004 21.901 547.484 20.8228 547.049 19.3132L495.135 19.3132L460.815 53.387L410.204 53.387L390.437 33.7622L352.859 33.7622L335.699 50.7991L298.99 50.7991L266.625 82.9321C267.277 84.226 267.277 85.9513 265.973 87.0295C264.67 88.3235 262.281 88.3235 260.977 87.0295C259.674 85.7356 259.674 83.3634 260.977 82.0694C262.064 80.9911 263.801 80.7755 265.105 81.4224L298.121 49.0738Z" fill="#1661BE"/>
<path d="M465.339 -16.2517L440.36 9.00001L409.997 9.00001L386.526 -14.7279L352.503 -14.7279L335.06 -32.3606C333.768 -31.7075 332.046 -31.7075 330.969 -33.0136C329.677 -34.3198 329.677 -36.7143 330.969 -38.0204C332.261 -39.3265 334.63 -39.3265 335.922 -38.0204C336.998 -36.932 337.214 -35.1905 336.568 -33.8844L353.579 -16.6871L387.602 -16.6871L411.074 7.04084L439.929 7.04084L464.908 -18.2109L511.421 -18.2109L529.94 0.510231C531.232 -0.360517 532.954 -0.142823 534.031 1.1633C535.323 2.46942 535.323 4.86396 534.031 6.17008C532.739 7.4762 530.37 7.4762 529.078 6.17008C528.002 5.08164 527.786 3.34016 528.432 2.03403L510.344 -16.2517L465.339 -16.2517Z" fill="#1661BE"/>
<path d="M338.858 1.34043L375.844 1.34044L393.579 19.2525L465.604 19.2525L480.528 4.18017L509.079 4.18017C509.511 2.65109 510.809 1.5589 512.539 1.5589C514.486 1.5589 516 3.08796 516 5.05392C516 7.01987 514.486 8.54896 512.539 8.54896C511.025 8.54896 509.511 7.45677 509.079 5.92769L481.177 5.92769L466.253 21L392.714 21L374.978 3.08796L337.993 3.08796L286.083 -49.3376C284.785 -48.6823 283.055 -48.6823 281.973 -49.9929C280.676 -51.3035 280.676 -53.7064 281.973 -55.017C283.271 -56.3277 285.65 -56.3277 286.948 -55.017C288.029 -53.9248 288.246 -52.1773 287.597 -50.8666L338.858 1.34043Z" fill="#1661BE"/>
<path d="M476.078 18.9863C477.37 17.6712 479.739 17.6712 481.031 18.9863C482.323 20.3014 482.323 22.7123 481.031 24.0274C479.954 25.1233 478.232 25.3425 476.94 24.6849L462.512 39.3699L422.891 39.3699C422.46 40.9041 421.168 42 419.445 42C417.507 42 416 40.4658 416 38.4932C416 36.5206 417.507 34.9863 419.445 34.9863C420.953 34.9863 422.46 36.0822 422.891 37.6164L461.436 37.6164L475.432 23.3699C474.786 21.8356 474.786 20.0822 476.078 18.9863Z" fill="#1661BE"/>
<path d="M298.463 170.084C299.979 170.084 301.494 171.165 301.927 172.678L349.982 172.678L359.723 162.952L416.652 162.952L459.079 120.593L501.073 120.593C501.506 119.081 502.805 118 504.537 118C506.485 118 508 119.513 508 121.458C508 123.403 506.485 124.916 504.537 124.916C503.021 124.916 501.506 123.835 501.073 122.322L459.729 122.322L417.302 164.681L360.372 164.681L350.631 174.407L301.927 174.407C301.494 175.919 300.195 177 298.463 177C296.515 177 295 175.487 295 173.542C295 171.813 296.515 170.084 298.463 170.084Z" fill="#1661BE"/>
<path d="M265.473 150.2C266.993 150.2 268.512 151.263 268.946 152.75L347.308 152.75L355.774 144.463L402.878 144.463L439.562 108.55L489.054 108.55C489.488 107.063 490.79 106 492.527 106C494.481 106 496 107.488 496 109.4C496 111.313 494.481 112.8 492.527 112.8C491.007 112.8 489.488 111.738 489.054 110.25L440.43 110.25L403.746 146.163L356.642 146.163L348.176 154.45L268.946 154.45C268.512 155.938 267.21 157 265.473 157C263.519 157 262 155.513 262 153.6C262 151.688 263.519 150.2 265.473 150.2Z" fill="#1661BE"/>
<path d="M320.971 144.01C319.668 145.33 317.28 145.33 315.977 144.01C314.674 142.691 314.674 140.271 315.977 138.952C317.063 137.852 318.8 137.632 320.103 138.292L342.467 115.639L398.052 115.639C398.486 114.1 399.789 113 401.526 113C403.48 113 405 114.54 405 116.519C405 118.498 403.48 120.038 401.526 120.038C400.006 120.038 398.486 118.938 398.052 117.399L343.118 117.399L321.405 139.392C322.274 140.931 322.057 142.691 320.971 144.01Z" fill="#1661BE"/>
<path d="M1077.34 26.5377L1012 26.5377L1011.79 26.7546L1011.57 26.5377L858.393 26.5377L826.156 -5.77789L726.201 -5.7779L718.195 2.24678C719.277 3.98184 719.061 6.36755 717.33 8.10261C715.383 10.0546 712.354 10.0546 710.407 8.10261C708.46 6.15066 708.46 3.11432 710.407 1.37925C711.921 -0.138928 714.301 -0.355831 716.248 0.5117L725.119 -8.38048L823.56 -8.38047L805.386 -26.5987C803.655 -25.5143 801.275 -25.7311 799.545 -27.4662C797.597 -29.4181 797.597 -32.4545 799.545 -34.1896C801.492 -36.1415 804.521 -36.1415 806.252 -34.1896C807.766 -32.6714 807.982 -30.2857 807.117 -28.3338L859.475 24.152L944.502 24.152L921.568 1.16238L886.302 1.16237C885.653 3.11432 883.923 4.63252 881.759 4.63252C879.163 4.63252 876.999 2.46366 876.999 -0.138936C876.999 -2.74154 879.163 -4.91036 881.759 -4.91036C883.923 -4.91036 885.87 -3.39216 886.302 -1.44022L922.65 -1.44022L948.18 24.152L1009.19 24.152L950.776 -34.4064L843.032 -34.4064L805.819 -71.7104L768.39 -71.7104L734.855 -38.0935L683.579 -38.0935L665.838 -20.3091L597.254 -20.3091C596.605 -18.3571 594.874 -16.839 592.71 -16.839C590.114 -16.839 587.95 -19.0078 587.95 -21.6104C587.95 -24.213 590.114 -26.3818 592.71 -26.3818C594.874 -26.3818 596.821 -24.8636 597.254 -22.9117L664.756 -22.9117L680.117 -38.3104L576.267 -38.3104C575.618 -36.3584 573.887 -34.8403 571.724 -34.8403C569.128 -34.8403 566.964 -37.0091 566.964 -39.6117C566.964 -42.2143 569.128 -44.3831 571.724 -44.3831C573.887 -44.3831 575.835 -42.8649 576.267 -40.913L733.989 -40.9129L764.928 -71.9272L505.303 -71.9273C504.654 -69.9753 502.923 -68.4572 500.76 -68.4572C498.164 -68.4572 496 -70.626 496 -73.2286C496 -75.8312 498.164 -78 500.76 -78C502.923 -78 504.871 -76.4818 505.303 -74.5298L807.117 -74.5298L844.33 -37.2259L952.074 -37.2259L984.96 -4.25969L1018.71 -4.25969L1031.48 -17.0558C1030.39 -18.7908 1030.61 -21.1766 1032.34 -22.9117C1034.29 -24.8636 1037.32 -24.8636 1039.05 -22.9116C1041 -20.9597 1041 -17.9233 1039.05 -16.1883C1037.53 -14.6701 1035.15 -14.4532 1033.21 -15.3207L1019.79 -1.87396L987.34 -1.87397L1012.87 23.7182L1078.42 23.7182L1123.64 69.0468L1166.26 69.0468L1180.11 82.9273L1293.7 82.9273C1294.35 80.9754 1296.08 79.4572 1298.24 79.4572C1300.84 79.4572 1303 81.6261 1303 84.2286C1303 86.8312 1300.84 89.0001 1298.24 89.0001C1296.08 89.0001 1294.13 87.4819 1293.7 85.5299L1179.03 85.5299L1165.18 71.6494L1122.56 71.6494L1077.34 26.5377Z" fill="#1661BE"/>
<path d="M551.824 -1.08914L531.03 -21.9719L410.598 -21.9719C409.949 -20.0344 408.216 -18.5274 406.05 -18.5274C403.45 -18.5274 401.284 -20.6802 401.284 -23.2637C401.284 -25.8471 403.451 -28 406.05 -28C408.216 -28 410.165 -26.493 410.598 -24.5554L532.113 -24.5554L555.506 -1.30441L555.29 -1.08914L664.025 -1.08913L708.428 43.0446L767.778 43.0446L789.438 21.516C788.355 19.7937 788.572 17.4255 790.304 15.7032C792.254 13.7657 795.286 13.7657 797.019 15.7032C798.969 17.6408 798.969 20.6548 797.019 22.3771C795.503 23.8841 793.12 24.0994 791.171 23.2383L768.861 45.4128L711.028 45.4128L746.984 81.1504L964.887 81.1504L1022.29 138.417L1149 138.417L1149 141L1021.2 141L963.804 83.9491L865.683 83.9491L841.64 107.846L714.277 107.846L635 29.051L606.841 29.051L578.25 57.4688L394.137 57.4688L369.011 82.442C370.094 84.1643 369.877 86.5325 368.144 88.2548C366.195 90.1924 363.162 90.1924 361.429 88.2548C359.48 86.3172 359.48 83.3032 361.429 81.5809C362.946 80.0739 365.328 79.8586 367.278 80.7198L393.054 55.1007L577.167 55.1007L603.376 29.051L525.182 29.051C524.532 30.9886 522.799 32.4956 520.633 32.4956C518.034 32.4956 515.868 30.3427 515.868 27.7593C515.868 25.1758 518.034 23.023 520.633 23.023C522.799 23.023 524.748 24.53 525.182 26.4675L636.299 26.4676L715.576 105.262L840.773 105.262L862.217 83.9491L745.901 83.9491L662.942 1.49429L357.314 1.49426C356.664 3.43186 354.931 4.93887 352.765 4.93887C350.166 4.93887 348 2.78601 348 0.202576C348 -2.38087 350.166 -4.53374 352.765 -4.53374C354.931 -4.53374 356.881 -3.02675 357.314 -1.08916L551.824 -1.08914Z" fill="#1661BE"/>
<path d="M1311.7 47.244C1310.18 48.7557 1307.8 48.9717 1305.84 48.1079L1282.86 71.0001L1232.33 71.0001L1206.31 45.0843L1157.74 45.0843L1114.37 1.89147L1076.85 1.89147C1076.2 3.83515 1074.47 5.34688 1072.3 5.34688C1069.69 5.34688 1067.53 3.18724 1067.53 0.595666C1067.53 -1.99591 1069.69 -4.15555 1072.3 -4.15555C1074.47 -4.15555 1076.42 -2.64381 1076.85 -0.700133L1115.45 -0.700129L1158.82 42.4928L1203.71 42.4928L1133.45 -27.2637L1061.45 -27.2637L1031.1 -57.4988L922.02 -57.4988L899.251 -79.9591L836.798 -79.9591L828.775 -87.9498C827.04 -86.8699 824.655 -87.0859 822.92 -88.8136C820.968 -90.7573 820.968 -93.7808 822.92 -95.5085C824.871 -97.4522 827.907 -97.4522 829.642 -95.5085C831.16 -93.9968 831.377 -91.6212 830.51 -89.6775L837.666 -82.5506L870.844 -82.5506L826.606 -126.607L795.163 -126.607L768.057 -99.3959L714.061 -99.3959C713.411 -97.4522 711.676 -95.9404 709.507 -95.9404C706.905 -95.9404 704.737 -98.1001 704.737 -100.692C704.737 -103.283 706.905 -105.443 709.507 -105.443C711.676 -105.443 713.628 -103.931 714.061 -101.987L766.973 -101.987L791.693 -126.607L707.122 -126.607L679.148 -98.748L477.261 -98.748L462.082 -83.6305C463.166 -81.9028 462.949 -79.5272 461.215 -77.7995C459.263 -75.8558 456.227 -75.8558 454.492 -77.7995C452.541 -79.7432 452.541 -82.7666 454.492 -84.4943C456.01 -86.0061 458.396 -86.2221 460.347 -85.3582L476.394 -101.34L630.357 -101.34L588.072 -143.453L398.979 -143.453L367.319 -174.983C365.584 -173.904 363.199 -174.12 361.464 -175.847C359.512 -177.791 359.512 -180.815 361.464 -182.542C363.415 -184.486 366.451 -184.486 368.186 -182.542C369.704 -181.03 369.921 -178.655 369.053 -176.711L400.063 -145.828L589.156 -145.828L633.827 -101.34L678.281 -101.34L706.255 -129.199L827.907 -129.199L874.53 -82.7666L900.118 -82.7666L922.887 -60.0904L1028.28 -60.0903L984.473 -103.715L888.408 -103.715C887.758 -101.771 886.023 -100.26 883.855 -100.26C881.252 -100.26 879.084 -102.419 879.084 -105.011C879.084 -107.603 881.252 -109.762 883.855 -109.762C886.023 -109.762 887.975 -108.25 888.408 -106.307L985.557 -106.307L1062.32 -29.8553L1134.32 -29.8553L1233.2 68.4085L1281.77 68.4085L1304.11 46.1642C1303.02 44.4365 1303.24 42.0609 1304.98 40.3331C1306.93 38.3895 1309.96 38.3895 1311.7 40.3331C1313.43 42.4928 1313.43 45.5163 1311.7 47.244Z" fill="#1661BE"/>
<path d="M360 12.5C360 11.6 359.6 11 359 11C358.4 11 358 11.6 358 12.5C358 13.4 358.4 14 359 14C359.6 13.7 360 13.1 360 12.5Z" fill="#1661BE"/>
<path d="M363 38.5C363 38.2 362.4 38 361.5 38C360.6 38 360 38.2 360 38.5C360 38.8 360.6 39 361.5 39C362.4 39 363 38.8 363 38.5Z" fill="#1661BE"/>
<path d="M408 56C411.314 56 414 58.0147 414 60.5C414 62.9853 411.314 65 408 65C404.686 65 402 62.9853 402 60.5C402 58.0147 404.686 56 408 56Z" fill="#1661BE"/>
<path d="M441 86C442.105 86 443 87.1193 443 88.5C443 89.8807 442.105 91 441 91C439.895 91 439 89.8807 439 88.5C439 87.1193 439.895 86 441 86Z" fill="#1661BE"/>
<path d="M467 1C467 -0.2 466.25 -1 465.5 -1C464.6 -1 464 0 464 1C464 2.2 464.75 3 465.5 3C466.4 3 467 2 467 1Z" fill="#1661BE"/>
<path d="M367 2.50002C367 -0.479147 364.708 -3 362 -3C359.292 -3 357 -0.479148 357 2.50002C357 5.47918 359.292 8 362 8C364.917 8 367 5.47918 367 2.50002Z" fill="#1661BE"/>
<path d="M328 15.5C328 13.5555 326.222 12 324 12C321.778 12 320 13.5555 320 15.5C320 17.4444 321.778 19 324 19C326.222 19 328 17.4444 328 15.5Z" fill="#1661BE"/>
<path d="M347 86.5C347 85.6429 346.357 85 345.5 85C344.643 85 344 85.6429 344 86.5C344 87.3571 344.643 88 345.5 88C346.357 88 347 87.3571 347 86.5Z" fill="#1661BE"/>
<path d="M327.5 100C330.538 100 333 102.462 333 105.5C333 108.538 330.538 111 327.5 111C324.462 111 322 108.538 322 105.5C322 102.462 324.462 100 327.5 100Z" fill="#1661BE"/>
<path d="M288 129C288 126.882 286.559 125 284.5 125C282.647 125 281 126.647 281 129C281 131.118 282.441 133 284.5 133C286.559 133 288 131.118 288 129Z" fill="#1661BE"/>
<path d="M253 52C253 49.75 251.687 48 250 48C248.312 48 247 49.75 247 52C247 54.25 248.312 56 250 56C251.5 56 253 54.25 253 52Z" fill="#1661BE"/>
<path d="M198 14.5C198 10.9138 195.31 8 192 8C188.69 8 186 10.9138 186 14.5C186 18.0862 188.69 21 192 21C195.31 21 198 18.0862 198 14.5Z" fill="#1661BE"/>
<path d="M208.5 -4C209.881 -4 211 -2.8807 211 -1.5C211 -0.119295 209.881 1 208.5 1C207.119 1 206 -0.119296 206 -1.5C206 -2.8807 207.119 -4 208.5 -4Z" fill="#1661BE"/>
<path d="M563 71.5C563 66.7778 559.889 63 556 63C552.111 63 549 66.7778 549 71.5C549 76.2222 552.111 80 556 80C559.889 80 563 76.2222 563 71.5Z" fill="#1661BE"/>
<path d="M535 7.99008C535 5.64297 533.118 4 531 4C528.647 4 527 5.87768 527 7.99008C527 10.3372 528.882 11.9801 531 11.9801C533.118 12.2149 535 10.3372 535 7.99008Z" fill="#1661BE"/>
<path d="M458.5 76C460.433 76 462 77.567 462 79.5C462 81.433 460.433 83 458.5 83C456.567 83 455 81.433 455 79.5C455 77.567 456.567 76 458.5 76Z" fill="#1661BE"/>
<path d="M432 39.9809C432 38.7428 431.25 38 430.5 38C429.562 38 429 38.9905 429 39.9809C429 41.219 429.75 41.9618 430.5 41.9618C431.25 42.2094 432 41.219 432 39.9809Z" fill="#1661BE"/>
<path d="M404 35C406.761 35 409 37.4624 409 40.5C409 43.5376 406.761 46 404 46C401.239 46 399 43.5376 399 40.5C399 37.4624 401.239 35 404 35Z" fill="#1661BE"/>
<path d="M402 51.5C402 50.1538 400.385 49 398.5 49C396.615 49 395 50.1538 395 51.5C395 52.8461 396.615 54 398.5 54C400.385 54 402 52.8461 402 51.5Z" fill="#1661BE"/>
<path d="M323.5 35C325.433 35 327 36.567 327 38.5C327 40.433 325.433 42 323.5 42C321.567 42 320 40.433 320 38.5C320 36.567 321.567 35 323.5 35Z" fill="#1661BE"/>
<path d="M320 64.5C320 63.6429 319.357 63 318.5 63C317.643 63 317 63.6429 317 64.5C317 65.3571 317.643 66 318.5 66C319.143 66 320 65.3571 320 64.5Z" fill="#1661BE"/>
<path d="M363.5 27C365.433 27 367 28.7909 367 31C367 33.2091 365.433 35 363.5 35C361.567 35 360 33.2091 360 31C360 28.7909 361.567 27 363.5 27Z" fill="#1661BE"/>
<path d="M414 23.5C414 21.0454 411.727 19 409 19C406.273 19 404 21.0454 404 23.5C404 25.9545 406.273 28 409 28C411.727 28 414 26.1591 414 23.5Z" fill="#1661BE"/>
<path d="M521 18C521 14.7857 518.214 12 514.5 12C511.018 12 508 14.5714 508 18C508 21.2143 510.786 24 514.5 24C518.214 24 521 21.2143 521 18Z" fill="#1661BE"/>
<path d="M567.5 -1C568.881 -1 570 0.119292 570 1.5C570 2.88071 568.881 4 567.5 4C566.119 4 565 2.88071 565 1.5C565 0.119291 566.119 -1 567.5 -1Z" fill="#1661BE"/>
<path d="M573 69C573 66.8947 571.316 65 569 65C566.895 65 565 66.6842 565 69C565 71.1053 566.684 73 569 73C571.316 73 573 71.1053 573 69Z" fill="#1661BE"/>
<path d="M499 112C499 108.69 496.534 106 493.5 106C490.466 106 488 108.69 488 112C488 115.31 490.466 118 493.5 118C496.534 118 499 115.31 499 112Z" fill="#1661BE"/>
<path d="M467 90.5C467 89.1539 465.846 88 464.5 88C463.154 88 462 89.1539 462 90.5C462 91.8462 463.154 93 464.5 93C465.846 93 467 91.8462 467 90.5Z" fill="#1661BE"/>
<path d="M427 131.476C427 130.492 426.25 130 425.5 130C424.5 130 424 130.738 424 131.476C424 132.46 424.75 132.952 425.5 132.952C426.25 133.198 427 132.46 427 131.476Z" fill="#1661BE"/>
</g>
</g>
<defs>
<clipPath id="clip0_967_2337">
<rect width="579" height="778" fill="white"/>
</clipPath>
</defs>
</svg>
