<svg width="70" height="70" viewBox="0 0 70 70" fill="none" xmlns="http://www.w3.org/2000/svg">
<g clip-path="url(#clip0_120_1035)">
<path d="M65.4066 35.0086C66.8796 32.0724 68.039 29.1206 68.8438 26.2121C71.3673 17.099 70.1453 9.46782 65.4024 4.72538C60.6599 -0.0170548 53.0288 -1.23951 43.9156 1.28391C41.0071 2.08874 38.0554 3.24871 35.1191 4.72111C31.4662 2.88769 27.8079 1.54613 24.2831 0.773351C16.096 -1.02108 9.19541 0.382421 4.85299 4.72538C2.06574 7.51263 0.449143 11.4289 0.178909 16.0512C-0.0640872 20.2093 0.778657 24.9811 2.61528 29.8966C1.1071 31.0892 0.136719 32.9327 0.136719 35.0001C0.136719 37.0674 1.1071 38.911 2.61528 40.1035C0.778657 45.019 -0.0640872 49.7914 0.178909 53.949C0.449677 58.5713 2.06574 62.4875 4.85299 65.2748C7.96548 68.3878 12.3325 69.9926 17.6074 69.9926C18.6664 69.9926 19.7623 69.928 20.8924 69.7977C25.4153 69.2759 30.248 67.7352 35.1261 65.2822C38.0602 66.7536 41.0098 67.912 43.9156 68.7162C47.0169 69.575 49.9467 70.0001 52.6496 70.0001C57.8882 70.0001 62.2739 68.4033 65.4024 65.2748C69.7453 60.9323 71.1488 54.0318 69.3544 45.8441C68.5816 42.3199 67.2401 38.6616 65.4066 35.0086ZM44.4636 3.26366C52.8328 0.946386 59.7531 1.98139 63.9497 6.17802C68.1464 10.3747 69.1814 17.295 66.8641 25.6642C66.2152 28.0087 65.3239 30.3853 64.2152 32.7597C62.2285 29.197 59.7852 25.6669 56.9541 22.2996C57.8214 21.1941 58.3405 19.8029 58.3405 18.2921C58.3405 16.8314 57.8679 15.4514 56.9728 14.301L55.3514 15.562C55.9634 16.3486 56.2865 17.2928 56.2865 18.2921C56.2865 20.7466 54.2897 22.7429 51.8357 22.7429C49.3817 22.7429 47.3849 20.7466 47.3849 18.2921C47.3849 15.8375 49.3817 13.8412 51.8357 13.8412C52.6368 13.8412 53.4224 14.0559 54.1065 14.4629L55.1565 12.6973C54.1546 12.1018 53.0064 11.7867 51.8357 11.7867C50.3248 11.7867 48.9336 12.3063 47.8287 13.1736C44.4609 10.3426 40.9308 7.89929 37.3681 5.91206C39.7425 4.80389 42.119 3.91255 44.4636 3.26366ZM6.30563 6.17802C11.8593 0.624349 22.0427 0.831564 32.8788 5.90619C27.5889 8.85632 22.4005 12.8068 17.6672 17.5396C14.1574 21.0494 11.0684 24.8193 8.47337 28.7548C7.88857 28.585 7.27334 28.4947 6.64208 28.4947C5.86503 28.4947 5.12002 28.6325 4.42841 28.883C0.869447 19.1829 1.53595 10.9472 6.30563 6.17802ZM17.6608 67.9312C13.0139 67.9312 9.0635 66.58 6.30509 63.8221C1.53595 59.053 0.868913 50.8178 4.42841 41.1172C5.12002 41.3682 5.86503 41.5054 6.64208 41.5054C7.27708 41.5054 7.89018 41.412 8.47123 41.2416C11.0662 45.1787 14.1563 48.9497 17.6672 52.4606C22.3989 57.1918 27.5857 61.1412 32.874 64.0913C27.442 66.6334 22.2163 67.9317 17.6608 67.9312ZM35.1218 62.9735C29.5735 60.0592 24.0946 55.9822 19.1198 51.0079C15.7771 47.6647 12.8286 44.0823 10.3426 40.346C12.0355 39.1705 13.1469 37.2132 13.1469 35.0006C13.1469 34.8078 13.1389 34.6129 13.1218 34.4212L11.0753 34.6022C11.087 34.7336 11.0929 34.8671 11.0929 35.0001C11.0929 37.4546 9.09608 39.4509 6.64208 39.4509C4.18808 39.4509 2.19124 37.4546 2.19124 35.0001C2.19124 32.5455 4.18808 30.5492 6.64208 30.5492C8.33718 30.5492 9.86299 31.4913 10.6235 33.0075L12.4596 32.0868C11.9576 31.0854 11.2259 30.256 10.3468 29.6467C12.8324 25.9136 15.7793 22.3327 19.1198 18.9922C24.0956 14.0164 29.5767 9.93832 35.1266 7.02397C38.904 9.01227 42.7257 11.5757 46.4284 14.6802C45.7351 15.7142 45.3303 16.9564 45.3303 18.2921C45.3303 21.8788 48.249 24.7969 51.8357 24.7969C53.1714 24.7969 54.4136 24.3921 55.4475 23.6989C58.552 27.4015 61.115 31.2238 63.1033 35.0006C60.1889 40.5505 56.1108 46.0316 51.1355 51.0079C50.5881 51.5548 50.0258 52.0985 49.4575 52.6309C48.3237 51.6718 46.8599 51.0918 45.262 51.0918C43.8013 51.0918 42.4213 51.565 41.271 52.4595L42.5324 54.0809C43.3185 53.4694 44.2627 53.1463 45.262 53.1458C47.716 53.1458 49.7128 55.1426 49.7128 57.5966C49.7128 60.0511 47.716 62.0475 45.262 62.0475C42.808 62.0475 40.8111 60.0511 40.8111 57.5966C40.8111 56.7955 41.0258 56.0105 41.4328 55.3263L39.6672 54.2758C39.0717 55.2777 38.7566 56.426 38.7566 57.5966C38.7566 58.6273 38.9985 59.6015 39.4268 60.4682C37.9876 61.3868 36.5499 62.2221 35.1218 62.9735ZM63.9497 63.8221C59.7531 68.0193 52.8328 69.0538 44.4636 66.737C42.1206 66.0881 39.7462 65.1979 37.3734 64.0902C38.4554 63.4857 39.5379 62.8368 40.6173 62.1457C41.7991 63.3516 43.444 64.102 45.262 64.102C48.8487 64.102 51.7673 61.1839 51.7673 57.5971C51.7673 56.348 51.4127 55.1811 50.8002 54.1888C51.4058 53.6222 52.005 53.0432 52.5876 52.4606C57.321 47.7267 61.2709 42.5383 64.2216 37.2485C69.2962 48.085 69.5034 58.2685 63.9497 63.8221Z" fill="#1661BE"/>
<path d="M51.9723 45.6139H49.8499V40.4384C49.8499 38.1494 48.3113 36.1168 46.1083 35.4951L45.3404 35.2788L44.7828 37.2559L45.5508 37.4728C46.872 37.8455 47.7954 39.0648 47.7954 40.4384V45.6139H44.0976V42.8064H42.0436V45.6139H32.7991V47.6679H51.9723V45.6139Z" fill="#1661BE"/>
<path d="M38.5248 35.4909L42.8058 36.6989L43.3639 34.7213L39.1678 33.5378V30.8099C41.0675 29.5142 42.3177 27.3337 42.3177 24.8658V21.8526C42.3177 17.8883 39.0925 14.6626 35.1277 14.6626C31.1634 14.6626 27.9377 17.8883 27.9377 21.8526V24.8658C27.9377 27.3337 29.1879 29.5142 31.0875 30.8099V33.5378L24.1469 35.4952C21.9439 36.1168 20.4053 38.1494 20.4053 40.4384V45.614H18.283V47.6679H30.7452V45.614H28.2116V42.8064H26.1576V45.614H22.4598V40.4384C22.4598 39.0648 23.3832 37.8456 24.7045 37.4728L31.7305 35.4914C32.5957 36.4378 33.8176 36.9863 35.1277 36.9863C36.4377 36.9863 37.6602 36.4372 38.5248 35.4909ZM35.1277 16.7171C37.9593 16.7171 40.2632 19.0211 40.2632 21.8532V22.9971L38.104 20.141H30.2865C30.993 18.1484 32.8959 16.7171 35.1277 16.7171ZM29.9922 24.8658V22.1955H37.0818L40.0928 26.1774C39.5112 28.3762 37.5059 30.0013 35.1277 30.0013C32.2961 30.0013 29.9922 27.6974 29.9922 24.8658ZM33.1421 33.9838V31.7744C33.7728 31.9565 34.4388 32.0558 35.1277 32.0558C35.8166 32.0558 36.4821 31.9565 37.1133 31.7744V33.9838C36.6305 34.5814 35.9074 34.9317 35.1277 34.9317C34.348 34.9317 33.6243 34.5814 33.1421 33.9838Z" fill="#1661BE"/>
<path d="M40.5527 40.3316L37.6592 39.5156L38.2173 37.5385L41.1103 38.3545L40.5527 40.3316Z" fill="#1661BE"/>
<path d="M45.0623 39.4658L44.5042 41.4429L42.5271 40.8854L43.0852 38.9083L45.0623 39.4658Z" fill="#1661BE"/>
<path d="M50.8086 17.2651H52.8626V19.3196H50.8086V17.2651Z" fill="#1661BE"/>
<path d="M44.2349 56.5702H46.2889V58.6242H44.2349V56.5702Z" fill="#1661BE"/>
<path d="M5.6145 33.9731H7.66902V36.0271H5.6145V33.9731Z" fill="#1661BE"/>
</g>
<defs>
<clipPath id="clip0_120_1035">
<rect width="70" height="70" fill="white"/>
</clipPath>
</defs>
</svg>
