<svg width="54" height="54" viewBox="0 0 54 54" fill="none" xmlns="http://www.w3.org/2000/svg">
<g clip-path="url(#clip0_115_5714)">
<path d="M49.6775 27.2368C50.7916 25.0158 51.6686 22.7832 52.2774 20.5833C54.186 13.6903 53.2618 7.91821 49.6743 4.33112C46.0872 0.744037 40.3152 -0.180608 33.4221 1.72806C31.2222 2.33682 28.9896 3.2142 26.7686 4.32789C24.0056 2.94113 21.2386 1.9264 18.5725 1.34188C12.3799 -0.0153917 7.16045 1.04619 3.87592 4.33112C1.7677 6.43934 0.544936 9.40152 0.340536 12.8977C0.156739 16.0429 0.794174 19.6522 2.18336 23.3702C1.0426 24.2722 0.308624 25.6666 0.308624 27.2303C0.308624 28.794 1.0426 30.1884 2.18336 31.0905C0.794174 34.8084 0.156739 38.4181 0.340536 41.5629C0.54534 45.0591 1.7677 48.0213 3.87592 50.1295C6.23015 52.4841 9.53326 53.698 13.5231 53.698C14.3241 53.698 15.153 53.6491 16.0078 53.5506C19.4289 53.1559 23.0842 51.9905 26.7739 50.1352C28.9932 51.248 31.2242 52.1242 33.4221 52.7326C35.7679 53.3821 37.9839 53.7037 40.0283 53.7037C43.9907 53.7037 47.3079 52.4958 49.6743 50.1295C52.9592 46.845 54.0208 41.6255 52.6635 35.4325C52.079 32.7669 51.0643 29.9998 49.6775 27.2368ZM33.8366 3.22551C40.1669 1.47276 45.4013 2.25562 48.5756 5.42987C51.7498 8.60412 52.5327 13.8385 50.7799 20.1688C50.2891 21.9422 49.6149 23.7398 48.7763 25.5357C47.2736 22.841 45.4255 20.1709 43.2842 17.6239C43.9402 16.7878 44.3329 15.7355 44.3329 14.5927C44.3329 13.4879 43.9754 12.4441 43.2983 11.574L42.0719 12.5277C42.5349 13.1227 42.7793 13.8369 42.7793 14.5927C42.7793 16.4493 41.2689 17.9592 39.4127 17.9592C37.5566 17.9592 36.0462 16.4493 36.0462 14.5927C36.0462 12.7361 37.5566 11.2262 39.4127 11.2262C40.0187 11.2262 40.6129 11.3886 41.1303 11.6964L41.9245 10.3609C41.1667 9.9105 40.2982 9.67217 39.4127 9.67217C38.2699 9.67217 37.2177 10.0652 36.3819 10.7212C33.8346 8.57988 31.1644 6.73181 28.4697 5.2287C30.2656 4.3905 32.0632 3.71631 33.8366 3.22551ZM4.97467 5.42987C9.17535 1.22918 16.8779 1.38592 25.0741 5.22426C21.0729 7.45569 17.1485 10.4437 13.5683 14.0235C10.9136 16.6783 8.5771 19.5298 6.6143 22.5065C6.17198 22.378 5.70662 22.3098 5.22915 22.3098C4.64141 22.3098 4.07789 22.414 3.55478 22.6035C0.862845 15.2665 1.36698 9.03716 4.97467 5.42987ZM13.5635 52.1387C10.0487 52.1387 7.06067 51.1168 4.97426 49.0308C1.36698 45.4235 0.862441 39.1945 3.55478 31.8572C4.07789 32.047 4.64141 32.1508 5.22915 32.1508C5.70945 32.1508 6.17319 32.0801 6.61269 31.9513C8.57549 34.9292 10.9127 37.7815 13.5683 40.4371C17.1473 44.0157 21.0705 47.0029 25.0704 49.2343C20.9618 51.1571 17.0092 52.1392 13.5635 52.1387ZM26.7707 48.3889C22.574 46.1845 18.4299 43.1007 14.6671 39.3383C12.1387 36.8096 9.90853 34.0999 8.02813 31.2739C9.30866 30.3848 10.1493 28.9043 10.1493 27.2307C10.1493 27.0849 10.1432 26.9374 10.1303 26.7924L8.58235 26.9294C8.59124 27.0287 8.59569 27.1297 8.59569 27.2303C8.59569 29.0869 7.08531 30.5968 5.22915 30.5968C3.373 30.5968 1.86262 29.0869 1.86262 27.2303C1.86262 25.3737 3.373 23.8638 5.22915 23.8638C6.5113 23.8638 7.66538 24.5763 8.24061 25.7232L9.6294 25.0268C9.24968 24.2693 8.69627 23.642 8.03136 23.1811C9.91135 20.3575 12.1404 17.649 14.6671 15.1223C18.4307 11.3587 22.5764 8.27409 26.7743 6.06973C29.6314 7.57364 32.5221 9.51261 35.3227 11.8608C34.7984 12.6428 34.4922 13.5824 34.4922 14.5927C34.4922 17.3056 36.6998 19.5128 39.4127 19.5128C40.423 19.5128 41.3626 19.2066 42.1446 18.6823C44.4928 21.4829 46.4314 24.374 47.9353 27.2307C45.7309 31.4286 42.6464 35.5743 38.8831 39.3383C38.4691 39.752 38.0437 40.1632 37.6139 40.566C36.7563 39.8405 35.6491 39.4018 34.4405 39.4018C33.3357 39.4018 32.2919 39.7597 31.4218 40.4363L32.3759 41.6627C32.9705 41.2002 33.6847 40.9558 34.4405 40.9554C36.2966 40.9554 37.807 42.4657 37.807 44.3219C37.807 46.1784 36.2966 47.6884 34.4405 47.6884C32.5843 47.6884 31.074 46.1784 31.074 44.3219C31.074 43.716 31.2363 43.1222 31.5442 42.6047L30.2087 41.8101C29.7583 42.5679 29.52 43.4364 29.52 44.3219C29.52 45.1015 29.7029 45.8383 30.0269 46.4939C28.9383 47.1887 27.8508 47.8205 26.7707 48.3889ZM48.5756 49.0308C45.4013 52.2054 40.1669 52.9879 33.8366 51.2355C32.0644 50.7447 30.2685 50.0713 28.4737 49.2335C29.2921 48.7763 30.1109 48.2855 30.9273 47.7627C31.8213 48.6749 33.0654 49.2424 34.4405 49.2424C37.1534 49.2424 39.361 47.0352 39.361 44.3223C39.361 43.3775 39.0928 42.4948 38.6295 41.7443C39.0875 41.3157 39.5408 40.8778 39.9815 40.4371C43.5617 36.8565 46.5493 32.9321 48.7812 28.9309C52.6195 37.1275 52.7762 44.8301 48.5756 49.0308Z" fill="white"/>
<path d="M39.5161 35.2584H37.9108V31.3437C37.9108 29.6124 36.7471 28.075 35.0808 27.6048L34.4999 27.4412L34.0781 28.9366L34.659 29.1006C35.6584 29.3826 36.3568 30.3048 36.3568 31.3437V35.2584H33.5599V33.1349H32.0063V35.2584H25.0139V36.812H39.5161V35.2584Z" fill="white"/>
<path d="M29.3446 27.6016L32.5827 28.5153L33.0049 27.0195L29.831 26.1243V24.0609C31.2679 23.0809 32.2135 21.4316 32.2135 19.5649V17.2859C32.2135 14.2873 29.774 11.8475 26.7751 11.8475C23.7766 11.8475 21.3367 14.2873 21.3367 17.2859V19.5649C21.3367 21.4316 22.2824 23.0809 23.7192 24.0609V26.1243L18.4695 27.6048C16.8032 28.075 15.6394 29.6124 15.6394 31.3438V35.2585H14.0341V36.812H23.4603V35.2585H21.5439V33.1349H19.9903V35.2585H17.1934V31.3438C17.1934 30.3048 17.8918 29.3826 18.8912 29.1006L24.2056 27.602C24.86 28.3178 25.7842 28.7326 26.7751 28.7326C27.766 28.7326 28.6907 28.3174 29.3446 27.6016ZM26.7751 13.4015C28.9169 13.4015 30.6595 15.1441 30.6595 17.2863V18.1515L29.0263 15.9912H23.1133C23.6477 14.484 25.087 13.4015 26.7751 13.4015ZM22.8907 19.5649V17.5452H28.2532L30.5306 20.5571C30.0907 22.2201 28.5739 23.4493 26.7751 23.4493C24.6334 23.4493 22.8907 21.7067 22.8907 19.5649ZM25.2732 26.4616V24.7905C25.7503 24.9282 26.254 25.0033 26.7751 25.0033C27.2962 25.0033 27.7995 24.9282 28.277 24.7905V26.4616C27.9118 26.9136 27.3649 27.1786 26.7751 27.1786C26.1853 27.1786 25.638 26.9136 25.2732 26.4616Z" fill="white"/>
<path d="M30.8785 31.263L28.6898 30.6457L29.112 29.1503L31.3002 29.7676L30.8785 31.263Z" fill="white"/>
<path d="M34.2894 30.6081L33.8673 32.1036L32.3719 31.6818L32.794 30.1864L34.2894 30.6081Z" fill="white"/>
<path d="M38.6359 13.8159H40.1895V15.3699H38.6359V13.8159Z" fill="white"/>
<path d="M33.6637 43.5455H35.2173V45.0991H33.6637V43.5455Z" fill="white"/>
<path d="M4.45197 26.4535H6.00597V28.0071H4.45197V26.4535Z" fill="white"/>
</g>
<defs>
<clipPath id="clip0_115_5714">
<rect width="52.9466" height="52.9466" fill="white" transform="translate(0.205261 0.756943)"/>
</clipPath>
</defs>
</svg>
