<svg width="637" height="291" viewBox="0 0 637 291" fill="none" xmlns="http://www.w3.org/2000/svg">
<path d="M1042.54 20.2499C1041.02 20.2499 1039.5 19.1732 1039.29 17.6657L995.11 17.6657L977.136 35.5396L822.95 35.5396L793.282 6.46762L741.309 6.46762L705.578 42L645.16 42L592.321 -10.5449L456.108 -10.5449L417.562 -48.8768L402.187 -48.8768L375.767 -75.1493L327.692 -75.1493L270.089 -132.432C268.79 -131.786 267.057 -131.786 265.975 -133.078C264.675 -134.37 264.675 -136.739 265.975 -138.031C267.274 -139.323 269.656 -139.323 270.955 -138.031C272.038 -136.954 272.255 -135.231 271.605 -133.939L328.775 -77.0875L376.633 -77.0875L403.053 -50.815L418.428 -50.815L456.758 -12.6984L592.97 -12.6984L645.809 39.8466L704.712 39.8466L740.443 4.31414L794.148 4.31414L823.6 33.6015L976.27 33.6015L994.244 15.7276L1039.29 15.7276C1039.72 14.2202 1041.02 13.1434 1042.54 13.1434C1044.48 13.1434 1046 14.6509 1046 16.589C1046 18.7425 1044.48 20.2499 1042.54 20.2499Z" fill="#1661BE"/>
<path d="M1049.54 191.565C1048.02 191.565 1046.5 190.49 1046.07 188.985L974.831 188.985L959.89 174.15L859.634 174.15L840.146 193.5L794.89 193.5L786.879 185.545L717.154 185.545L679.91 222.524L607.804 222.524L575.541 190.49L510.147 190.49L468.139 232.199L425.482 232.199L391.919 198.874L367.884 198.874L318.081 248.323L289.498 248.323L251.604 285.948C252.47 287.238 252.254 288.958 250.955 290.033C249.656 291.322 247.274 291.322 245.974 290.033C244.675 288.743 244.675 286.378 245.974 285.088C247.057 284.013 248.789 283.798 250.089 284.443L288.632 246.173L317.214 246.173L367.017 196.724L392.569 196.724L426.131 230.049L467.273 230.049L509.281 188.34L576.19 188.34L608.454 220.374L679.044 220.374L716.072 183.395L787.312 183.395L795.323 191.35L839.497 191.35L858.985 172L960.756 172L975.697 186.835L1046.07 186.835C1046.5 185.33 1047.8 184.255 1049.54 184.255C1051.48 184.255 1053 185.76 1053 187.695C1053 190.06 1051.27 191.565 1049.54 191.565Z" fill="#1661BE"/>
<path d="M1038.69 90.3443C1037.18 90.3443 1035.66 89.2642 1035.23 87.7522L898.326 87.7522L857.45 128.577L802.516 128.577L770.723 96.8244L690.918 96.8244L655.665 132.033L597.27 132.033L583.861 118.641L532.82 118.641L511.841 139.594L470.533 139.594L448.04 117.129L404.569 117.129L374.29 147.37L319.14 147.37L279.778 186.683L142.875 186.683L112.596 216.924C113.245 218.22 113.245 219.948 111.948 221.028C110.65 222.324 108.271 222.324 106.973 221.028C105.676 219.732 105.676 217.356 106.973 216.06C108.055 214.98 109.785 214.764 111.082 215.412L142.01 184.523L278.912 184.523L318.275 145.21L373.209 145.21L403.487 114.969L448.473 114.969L470.965 137.434L510.76 137.434L531.739 116.481L584.294 116.481L597.703 129.873L654.583 129.873L689.836 94.6644L771.156 94.6644L802.948 126.417L856.369 126.417L897.245 85.5921L1035.01 85.5921C1035.44 84.0801 1036.74 83.0001 1038.47 83.0001C1040.42 83.0001 1041.93 84.5121 1041.93 86.4561C1042.37 88.6162 1040.64 90.3443 1038.69 90.3443Z" fill="#1661BE"/>
<path d="M976.228 54.8067L996.998 33.9105L1035.08 33.9105C1035.51 32.3868 1036.81 31.2984 1038.54 31.2984C1040.49 31.2984 1042 32.8221 1042 34.7811C1042 36.7402 1040.49 38.2639 1038.54 38.2639C1037.02 38.2639 1035.51 37.1755 1035.08 35.6518L997.864 35.6518L977.094 56.5481L891.85 56.5481L847.714 100.953L812.665 100.953L784.755 72.8733L681.338 72.8733L650.399 104L604.532 104L579.651 79.4034L502.413 79.4034L479.263 102.259L384.716 102.259L329.762 46.9706L220.287 46.9706L199.084 25.6389C197.786 26.292 196.055 26.2919 194.974 24.9859C193.675 23.6799 193.675 21.2855 194.974 19.9795C196.272 18.6735 198.652 18.6735 199.95 19.9795C201.031 21.0679 201.248 22.8092 200.599 24.1153L221.369 45.0115L330.844 45.0115L385.798 100.3L478.83 100.3L501.764 77.2267L580.733 77.2267L605.614 102.259L649.966 102.259L680.905 71.1319L785.837 71.1319L813.746 99.2113L847.065 99.2113L891.201 54.8067L976.228 54.8067V54.8067Z" fill="#1661BE"/>
<path d="M861.045 53.7284C862.345 52.4321 864.726 52.4321 866.026 53.7284C867.325 55.0247 867.325 57.4013 866.026 58.6976C864.943 59.7778 863.211 59.9938 861.912 59.3457L838.094 83.1111L815.142 83.1111L787.426 55.4568L684.576 55.4568L652.963 87L611.606 87L580.859 56.321L497.929 56.321C497.496 57.8333 496.197 58.9136 494.464 58.9136C492.516 58.9136 491 57.4012 491 55.4568C491 53.5124 492.516 52 494.464 52C495.98 52 497.496 53.0802 497.929 54.5926L581.508 54.5926L612.255 85.2716L652.096 85.2716L683.709 53.7284L788.076 53.7284L815.791 81.3828L837.227 81.3828L860.612 58.0494C859.746 56.5371 859.963 54.8087 861.045 53.7284Z" fill="#1661BE"/>
<path d="M209.695 -69.3262L256.153 -69.3262L292.239 -32.8707L381.914 -32.8706L426.211 11.8801L583.952 11.8802L631.922 60.342C633.219 59.6871 634.947 59.6871 636.028 60.9969C637.324 62.3067 637.324 64.7079 636.028 66.0177C634.731 67.3275 632.354 67.3275 631.058 66.0177C629.977 64.9262 629.761 63.1799 630.41 61.8701L582.871 13.8448L425.13 13.8448L380.833 -30.906L291.158 -30.906L255.072 -67.3615L208.615 -67.3615L174.689 -101.634L115.915 -101.634C115.483 -100.106 114.186 -99.0145 112.457 -99.0145C110.513 -99.0145 109 -100.543 109 -102.507C109 -104.472 110.513 -106 112.457 -106C113.97 -106 115.483 -104.909 115.915 -103.38L175.554 -103.38L209.695 -69.3262Z" fill="#1661BE"/>
<path d="M482.56 24.5467L569.519 24.5467L611.917 66.4754C613.215 65.8337 614.945 65.8337 616.027 67.1172C617.324 68.4007 617.324 70.7539 616.027 72.0374C614.729 73.3209 612.349 73.3209 611.051 72.0374C609.97 70.9678 609.753 69.2564 610.402 67.9729L568.654 26.472L483.209 26.472L457.251 52.3566L405.119 52.3566L366.615 14.2784L269.922 14.2784C269.489 15.7759 268.192 16.8455 266.461 16.8455C264.514 16.8455 263 15.3481 263 13.4228C263 11.4975 264.514 10 266.461 10C267.975 10 269.489 11.0696 269.922 12.5671L367.264 12.5671L405.768 50.6452L456.386 50.6452L482.56 24.5467Z" fill="#1661BE"/>
<path d="M230.141 -37.5242L259.664 -7.88889L378.843 -7.88888L419.22 32.6419L445.053 32.6419C445.487 31.1165 446.79 30.027 448.527 30.027C450.48 30.027 452 31.5523 452 33.5135C452 35.4747 450.48 37 448.527 37C447.007 37 445.487 35.9105 445.053 34.3851L418.352 34.3851L378.192 -6.14561L259.013 -6.14562L229.49 -35.781L187.593 -35.781L166.101 -57.3538C164.799 -56.7001 163.062 -56.7001 161.977 -58.0075C160.674 -59.315 160.674 -61.712 161.977 -63.0194C163.279 -64.3269 165.667 -64.3269 166.97 -63.0194C168.055 -61.9299 168.272 -60.1866 167.621 -58.8792L188.678 -37.7422L230.141 -37.7422L230.141 -37.5242Z" fill="#1661BE"/>
<path d="M254.915 35.6024L339.194 35.6024L388.68 85.2651L463.234 85.2651L483.764 64.6627L539.301 64.6627C539.733 63.1446 541.03 62.0603 542.542 62.0603C544.487 62.0603 546 63.5783 546 65.5302C546 67.482 544.487 69 542.542 69C541.03 69 539.517 67.9157 539.301 66.3976L484.628 66.3976L464.099 87L388.032 87L338.545 37.3374L254.915 37.3374C254.483 38.8554 253.186 39.9398 251.458 39.9398C249.513 39.9398 248 38.4217 248 36.4699C248 34.5181 249.513 33 251.458 33C253.186 33 254.483 34.0843 254.915 35.6024Z" fill="#1661BE"/>
<path d="M161.688 -22C163.206 -22 164.725 -20.9227 165.159 -19.4145L199.216 -19.4145L242.384 23.4613L352.582 23.4614L397.703 68.2764L458.008 68.2764L484.907 41.5598L556.058 41.5598C556.492 40.0516 557.794 38.9743 559.529 38.9743C561.481 38.9743 563 40.4825 563 42.4216C563 44.3607 561.481 45.8689 559.529 45.8689C558.011 45.8689 556.492 44.7916 556.058 43.2834L485.774 43.2834L458.876 70L396.835 70L351.715 25.185L241.516 25.185L198.348 -17.6909L164.942 -17.6909C164.508 -16.1827 163.206 -15.1054 161.471 -15.1054C159.518 -15.1054 158 -16.6136 158 -18.5527C158 -20.4918 159.735 -22 161.688 -22Z" fill="#1661BE"/>
<path d="M283.193 -93.7949L320.658 -56.4472L379.131 -56.4472L435.437 -0.317634L577.07 -0.317622C577.503 -1.8288 578.802 -2.90821 580.535 -2.90821C582.484 -2.90821 584 -1.39705 584 0.545897C584 2.48884 582.484 4.00004 580.535 4.00004C579.019 4.00003 577.503 2.92063 577.07 1.40945L434.787 1.40943L378.481 -54.7201L320.009 -54.7201L282.326 -92.0678L222.555 -92.0679L185.089 -129.416C183.79 -128.768 182.057 -128.768 180.975 -130.063C179.675 -131.359 179.675 -133.733 180.975 -135.029C182.274 -136.324 184.656 -136.324 185.955 -135.029C187.038 -133.949 187.255 -132.222 186.605 -130.927L223.421 -94.2267L283.193 -94.2267L283.193 -93.7949Z" fill="#1661BE"/>
<path d="M929.895 162.292C928.376 162.292 926.857 161.187 926.64 159.641L847.872 159.641L831.815 175.993L708.998 175.993L677.751 207.813L618.295 207.813L579.02 167.817L492.658 167.817L457.288 203.835L419.098 203.835L393.276 177.539L355.736 177.539L322.537 211.348L148.944 211.348C148.51 212.895 147.208 214 145.472 214C143.519 214 142 212.453 142 210.464C142 208.476 143.519 206.929 145.472 206.929C146.991 206.929 148.51 208.034 148.944 209.581L321.886 209.581L355.085 175.772L394.144 175.772L419.966 201.846L456.42 201.846L491.79 165.828L579.671 165.828L618.729 205.824L676.666 205.824L707.913 174.004L830.73 174.004L846.787 157.652L926.206 157.652C926.64 156.105 927.942 155 929.461 155C931.414 155 932.933 156.547 932.933 158.536C933.367 160.524 931.631 162.292 929.895 162.292Z" fill="#1661BE"/>
<path d="M551.85 137.17L535.812 137.17L518.69 154.277L453.455 154.277L437.85 138.686L402.523 138.686L384.101 157.092L327.102 157.092L283.756 200.401L153.719 200.401C153.285 201.917 151.985 203 150.468 203C148.517 203 147 201.484 147 199.535C147 197.586 148.517 196.071 150.468 196.071C151.985 196.071 153.502 197.153 153.719 198.669L283.106 198.669L326.452 155.36L383.451 155.36L401.873 136.954L438.717 136.954L454.322 152.545L518.04 152.545L535.161 135.438L552.716 135.438L567.021 149.73L654.796 149.73L690.556 114L754.491 114L780.282 139.769L837.065 139.769C837.498 138.253 838.799 137.17 840.532 137.17C842.483 137.17 844 138.686 844 140.635C844 142.584 842.483 144.1 840.532 144.1C839.015 144.1 837.498 143.017 837.065 141.501L779.415 141.501L753.624 115.732L691.206 115.732L655.446 151.462L566.154 151.462L551.85 137.17Z" fill="#1661BE"/>
<path d="M616.768 179.405C616.331 180.919 615.021 182 613.493 182C611.528 182 610 180.486 610 178.541C610 176.595 611.528 175.081 613.493 175.081C615.021 175.081 616.55 176.162 616.768 177.676L645.587 177.676L689.688 134L745.142 134L763.482 152.162L827.014 152.162C827.45 150.649 828.76 149.568 830.507 149.568C832.472 149.568 834 151.081 834 153.027C834 154.973 832.472 156.486 830.507 156.486C828.978 156.486 827.45 155.405 827.014 153.892L762.608 153.892L744.269 135.73L690.343 135.73L646.242 179.405L616.768 179.405Z" fill="#1661BE"/>
<path d="M210.753 74.6711L176.063 39.6369C174.771 40.2897 173.047 40.2897 171.97 38.9841C170.677 37.6785 170.677 35.2848 171.97 33.9792C173.262 32.6736 175.632 32.6736 176.925 33.9792C178.003 35.0672 178.218 36.8081 177.572 38.1137L211.83 72.7127L332.706 72.7127L374.937 115.363C376.229 114.493 377.953 114.71 379.03 116.016C380.323 117.322 380.323 119.715 379.03 121.021C377.738 122.326 375.367 122.326 374.075 121.021C372.997 119.933 372.782 118.192 373.428 116.886L331.628 74.6712L210.753 74.6711Z" fill="#1661BE"/>
<path d="M112.121 160.074L149.048 160.074L166.208 143.037L205.306 143.037L225.073 162.662L274.163 162.662L308.483 128.588L361.049 128.588C361.484 127.078 362.787 126 364.525 126C366.479 126 368 127.51 368 129.451C368 131.391 366.479 132.901 364.525 132.901C363.004 132.901 361.484 131.823 361.049 130.313L309.135 130.313L274.815 164.387L224.204 164.387L204.437 144.762L166.859 144.762L149.699 161.799L112.99 161.799L80.6251 193.932C81.2767 195.226 81.2767 196.951 79.9734 198.03C78.6701 199.323 76.2808 199.323 74.9775 198.03C73.6742 196.736 73.6742 194.363 74.9775 193.069C76.0635 191.991 77.8013 191.775 79.1046 192.422L112.121 160.074Z" fill="#1661BE"/>
<path d="M279.339 94.7483L254.36 120L223.997 120L200.526 96.2721L166.503 96.2721L149.06 78.6394C147.768 79.2925 146.046 79.2925 144.969 77.9864C143.677 76.6802 143.677 74.2857 144.969 72.9796C146.261 71.6735 148.63 71.6735 149.922 72.9796C150.998 74.068 151.214 75.8095 150.568 77.1156L167.579 94.3129L201.602 94.3129L225.074 118.041L253.929 118.041L278.908 92.7891L325.421 92.7891L343.94 111.51C345.232 110.639 346.954 110.857 348.031 112.163C349.323 113.469 349.323 115.864 348.031 117.17C346.739 118.476 344.37 118.476 343.078 117.17C342.002 116.082 341.786 114.34 342.432 113.034L324.344 94.7483L279.339 94.7483Z" fill="#1661BE"/>
<path d="M231.345 83.6659C231.775 82.149 233.063 81.0655 234.565 81.0655C236.497 81.0655 238 82.5824 238 84.5328C238 86.4831 236.497 88 234.565 88C233.063 88 231.56 86.9165 231.345 85.3996L180.47 85.3996L142.045 46.6095C140.757 47.4763 139.039 47.2596 137.966 45.9594C136.678 44.6591 136.678 42.2754 137.966 40.9752C139.254 39.6749 141.615 39.6749 142.903 40.9752C143.977 42.0587 144.191 43.7923 143.547 45.0925L181.543 83.4492L231.345 83.4492L231.345 83.6659Z" fill="#1661BE"/>
<path d="M152.858 112.34L189.844 112.34L207.579 130.253L279.604 130.253L294.528 115.18L323.079 115.18C323.511 113.651 324.809 112.559 326.539 112.559C328.486 112.559 330 114.088 330 116.054C330 118.02 328.486 119.549 326.539 119.549C325.025 119.549 323.511 118.457 323.079 116.928L295.177 116.928L280.253 132L206.714 132L188.978 114.088L151.993 114.088L100.083 61.6624C98.7851 62.3177 97.0548 62.3177 95.9733 61.0071C94.6756 59.6965 94.6756 57.2936 95.9733 55.983C97.2711 54.6723 99.6503 54.6723 100.948 55.983C102.029 57.0752 102.246 58.8227 101.597 60.1334L152.858 112.34Z" fill="#1661BE"/>
<path d="M290.078 129.986C291.37 128.671 293.739 128.671 295.031 129.986C296.323 131.301 296.323 133.712 295.031 135.027C293.954 136.123 292.232 136.342 290.94 135.685L276.512 150.37L236.891 150.37C236.46 151.904 235.168 153 233.445 153C231.507 153 230 151.466 230 149.493C230 147.521 231.507 145.986 233.445 145.986C234.953 145.986 236.46 147.082 236.891 148.616L275.436 148.616L289.432 134.37C288.786 132.836 288.786 131.082 290.078 129.986Z" fill="#1661BE"/>
<path d="M112.463 281.084C113.979 281.084 115.494 282.165 115.927 283.678L163.982 283.678L173.723 273.952L230.652 273.952L273.079 231.593L315.073 231.593C315.506 230.081 316.805 229 318.537 229C320.485 229 322 230.513 322 232.458C322 234.403 320.485 235.916 318.537 235.916C317.021 235.916 315.506 234.835 315.073 233.322L273.729 233.322L231.302 275.681L174.372 275.681L164.631 285.407L115.927 285.407C115.494 286.919 114.195 288 112.463 288C110.515 288 109 286.487 109 284.542C109 282.813 110.515 281.084 112.463 281.084Z" fill="#1661BE"/>
<path d="M79.4731 261.2C80.9926 261.2 82.5121 262.263 82.9462 263.75L161.308 263.75L169.774 255.463L216.878 255.463L253.562 219.55L303.054 219.55C303.488 218.063 304.79 217 306.527 217C308.481 217 310 218.488 310 220.4C310 222.313 308.481 223.8 306.527 223.8C305.007 223.8 303.488 222.738 303.054 221.25L254.43 221.25L217.746 257.163L170.642 257.163L162.176 265.45L82.9462 265.45C82.5121 266.938 81.2096 268 79.4731 268C77.5195 268 76 266.513 76 264.6C76 262.688 77.5195 261.2 79.4731 261.2Z" fill="#1661BE"/>
<path d="M134.971 255.01C133.668 256.33 131.28 256.33 129.977 255.01C128.674 253.691 128.674 251.271 129.977 249.952C131.063 248.852 132.8 248.632 134.103 249.292L156.467 226.639L212.052 226.639C212.486 225.1 213.789 224 215.526 224C217.48 224 219 225.54 219 227.519C219 229.498 217.48 231.038 215.526 231.038C214.006 231.038 212.486 229.938 212.052 228.399L157.118 228.399L135.405 250.392C136.274 251.931 136.057 253.691 134.971 255.01Z" fill="#1661BE"/>
<path d="M891.343 137.538L826.004 137.538L825.788 137.755L825.571 137.538L672.393 137.538L640.156 105.222L540.201 105.222L532.195 113.247C533.277 114.982 533.061 117.368 531.33 119.103C529.383 121.055 526.354 121.055 524.407 119.103C522.46 117.151 522.46 114.114 524.407 112.379C525.921 110.861 528.301 110.644 530.248 111.512L539.119 102.62L637.56 102.62L619.386 84.4013C617.655 85.4857 615.275 85.2689 613.545 83.5338C611.597 81.5819 611.597 78.5455 613.545 76.8104C615.492 74.8585 618.521 74.8585 620.252 76.8104C621.766 78.3286 621.982 80.7143 621.117 82.6663L673.475 135.152L758.502 135.152L735.568 112.162L700.302 112.162C699.653 114.114 697.923 115.633 695.759 115.633C693.163 115.633 690.999 113.464 690.999 110.861C690.999 108.258 693.163 106.09 695.759 106.09C697.923 106.09 699.87 107.608 700.302 109.56L736.65 109.56L762.18 135.152L823.191 135.152L764.776 76.5936L657.032 76.5936L619.819 39.2896L582.39 39.2896L548.855 72.9065L497.579 72.9065L479.838 90.6909L411.254 90.6909C410.605 92.6429 408.874 94.161 406.71 94.161C404.114 94.161 401.95 91.9922 401.95 89.3896C401.95 86.787 404.114 84.6182 406.71 84.6182C408.874 84.6182 410.821 86.1364 411.254 88.0883L478.756 88.0883L494.117 72.6896L390.267 72.6896C389.618 74.6416 387.887 76.1597 385.724 76.1597C383.128 76.1597 380.964 73.9909 380.964 71.3883C380.964 68.7857 383.128 66.6169 385.724 66.6169C387.887 66.6169 389.835 68.1351 390.267 70.087L547.989 70.0871L578.928 39.0728L319.303 39.0727C318.654 41.0247 316.923 42.5428 314.76 42.5428C312.164 42.5428 310 40.374 310 37.7714C310 35.1688 312.164 33 314.76 33C316.923 33 318.871 34.5182 319.303 36.4701L621.117 36.4702L658.33 73.7741L766.074 73.7741L798.96 106.74L832.711 106.74L845.476 93.9442C844.394 92.2092 844.611 89.8234 846.341 88.0883C848.289 86.1364 851.317 86.1364 853.048 88.0883C854.995 90.0403 854.995 93.0767 853.048 94.8117C851.534 96.3299 849.154 96.5468 847.207 95.6793L833.793 109.126L801.34 109.126L826.87 134.718L892.425 134.718L937.643 180.047L980.264 180.047L994.111 193.927L1107.7 193.927C1108.35 191.975 1110.08 190.457 1112.24 190.457C1114.84 190.457 1117 192.626 1117 195.229C1117 197.831 1114.84 200 1112.24 200C1110.08 200 1108.13 198.482 1107.7 196.53L993.029 196.53L979.183 182.649L936.561 182.649L891.343 137.538Z" fill="#1661BE"/>
<path d="M365.824 109.911L345.03 89.0281L224.598 89.028C223.949 90.9656 222.216 92.4726 220.05 92.4726C217.451 92.4726 215.284 90.3198 215.284 87.7363C215.284 85.1529 217.451 83 220.05 83C222.216 83 224.165 84.507 224.598 86.4446L346.113 86.4446L369.506 109.696L369.29 109.911L478.025 109.911L522.428 154.045L581.778 154.045L603.438 132.516C602.355 130.794 602.572 128.426 604.304 126.703C606.254 124.766 609.286 124.766 611.019 126.703C612.969 128.641 612.969 131.655 611.019 133.377C609.503 134.884 607.12 135.099 605.171 134.238L582.861 156.413L525.028 156.413L560.984 192.15L778.887 192.15L836.287 249.417L963 249.417L963 252L835.204 252L777.804 194.949L679.683 194.949L655.64 218.846L528.277 218.846L449 140.051L420.841 140.051L392.25 168.469L208.137 168.469L183.011 193.442C184.094 195.164 183.877 197.532 182.144 199.255C180.195 201.192 177.162 201.192 175.429 199.255C173.48 197.317 173.48 194.303 175.429 192.581C176.946 191.074 179.328 190.859 181.278 191.72L207.054 166.101L391.167 166.101L417.376 140.051L339.182 140.051C338.532 141.989 336.799 143.496 334.633 143.496C332.034 143.496 329.868 141.343 329.868 138.759C329.868 136.176 332.034 134.023 334.633 134.023C336.799 134.023 338.748 135.53 339.182 137.468L450.299 137.468L529.576 216.262L654.773 216.262L676.217 194.949L559.901 194.949L476.942 112.494L171.314 112.494C170.664 114.432 168.931 115.939 166.765 115.939C164.166 115.939 162 113.786 162 111.203C162 108.619 164.166 106.466 166.765 106.466C168.931 106.466 170.881 107.973 171.314 109.911L365.824 109.911Z" fill="#1661BE"/>
<path d="M1125.7 158.244C1124.18 159.756 1121.8 159.972 1119.84 159.108L1096.86 182L1046.33 182L1020.31 156.084L971.736 156.084L928.366 112.891L890.851 112.891C890.2 114.835 888.465 116.347 886.297 116.347C883.695 116.347 881.526 114.187 881.526 111.596C881.526 109.004 883.695 106.844 886.297 106.844C888.465 106.844 890.417 108.356 890.851 110.3L929.45 110.3L972.82 153.493L1017.71 153.493L947.448 83.7363L875.454 83.7363L845.095 53.5012L736.02 53.5012L713.251 31.0409L650.798 31.0409L642.775 23.0502C641.04 24.1301 638.655 23.9141 636.92 22.1864C634.968 20.2427 634.968 17.2192 636.92 15.4915C638.871 13.5478 641.907 13.5478 643.642 15.4915C645.16 17.0032 645.377 19.3788 644.509 21.3225L651.666 28.4493L684.844 28.4494L640.606 -15.6074L609.163 -15.6074L582.057 11.6041L528.061 11.6041C527.411 13.5478 525.676 15.0595 523.507 15.0595C520.905 15.0595 518.737 12.8999 518.737 10.3083C518.737 7.71677 520.905 5.5571 523.507 5.5571C525.676 5.5571 527.628 7.06886 528.061 9.01254L580.973 9.01254L605.693 -15.6074L521.122 -15.6074L493.148 12.252L291.261 12.252L276.082 27.3695C277.166 29.0972 276.949 31.4728 275.215 33.2005C273.263 35.1442 270.227 35.1442 268.492 33.2005C266.541 31.2568 266.541 28.2334 268.492 26.5056C270.01 24.9939 272.396 24.7779 274.347 25.6418L290.394 9.66042L444.357 9.66043L402.072 -32.4526L212.979 -32.4526L181.319 -63.9835C179.584 -62.9036 177.199 -63.1196 175.464 -64.8473C173.512 -66.791 173.512 -69.8145 175.464 -71.5422C177.415 -73.4859 180.451 -73.4859 182.186 -71.5422C183.704 -70.0305 183.921 -67.6549 183.053 -65.7112L214.063 -34.8283L403.156 -34.8283L447.827 9.66043L492.281 9.66044L520.255 -18.199L641.907 -18.199L688.53 28.2334L714.118 28.2334L736.887 50.9096L842.276 50.9097L798.473 7.28484L702.408 7.28483C701.758 9.22851 700.023 10.7403 697.855 10.7403C695.252 10.7403 693.084 8.58064 693.084 5.98907C693.084 3.39749 695.252 1.23782 697.855 1.23782C700.023 1.23782 701.975 2.74959 702.408 4.69327L799.557 4.69328L876.322 81.1447L948.316 81.1447L1047.2 179.409L1095.77 179.409L1118.11 157.164C1117.02 155.436 1117.24 153.061 1118.98 151.333C1120.93 149.389 1123.96 149.389 1125.7 151.333C1127.43 153.493 1127.43 156.516 1125.7 158.244Z" fill="#1661BE"/>
<path d="M207 41C210.314 41 213 43.6863 213 47C213 50.3137 210.314 53 207 53C203.686 53 201 50.3137 201 47C201 43.6863 203.686 41 207 41Z" fill="#1661BE"/>
<path d="M162 92.5C162 91.0714 160.714 90 159 90C157.286 90 156 91.0714 156 92.5C156 93.9286 157.286 95 159 95C160.5 95 162 93.9286 162 92.5Z" fill="#1661BE"/>
<path d="M174 123.5C174 122.6 173.6 122 173 122C172.4 122 172 122.6 172 123.5C172 124.4 172.4 125 173 125C173.6 124.7 174 124.1 174 123.5Z" fill="#1661BE"/>
<path d="M177 149.5C177 149.2 176.4 149 175.5 149C174.6 149 174 149.2 174 149.5C174 149.8 174.6 150 175.5 150C176.4 150 177 149.8 177 149.5Z" fill="#1661BE"/>
<path d="M222 167C225.314 167 228 169.015 228 171.5C228 173.985 225.314 176 222 176C218.686 176 216 173.985 216 171.5C216 169.015 218.686 167 222 167Z" fill="#1661BE"/>
<path d="M255 197C256.105 197 257 198.119 257 199.5C257 200.881 256.105 202 255 202C253.895 202 253 200.881 253 199.5C253 198.119 253.895 197 255 197Z" fill="#1661BE"/>
<path d="M281 112C281 110.8 280.25 110 279.5 110C278.6 110 278 111 278 112C278 113.2 278.75 114 279.5 114C280.4 114 281 113 281 112Z" fill="#1661BE"/>
<path d="M308 91.4873C308 90.661 307.333 90 306.5 90C305.667 90 305 90.661 305 91.4873C305 92.3136 305.667 92.9747 306.5 92.9747C307.333 93.14 308 92.4789 308 91.4873Z" fill="#1661BE"/>
<path d="M348 68.5C348 66.5312 346.469 65 344.5 65C342.531 65 341 66.5312 341 68.5C341 70.4687 342.531 72 344.5 72C346.469 71.7813 348 70.25 348 68.5Z" fill="#1661BE"/>
<path d="M439.5 77C442.538 77 445 79.4624 445 82.5C445 85.5376 442.538 88 439.5 88C436.462 88 434 85.5376 434 82.5C434 79.4624 436.462 77 439.5 77Z" fill="#1661BE"/>
<path d="M415 62.5C415 61.25 413.958 60 412.5 60C411.25 60 410 61.0417 410 62.5C410 63.75 411.042 65 412.5 65C413.958 65 415 63.9583 415 62.5Z" fill="#1661BE"/>
<path d="M424 59C424 56.7391 421.391 55 418 55C414.609 55 412 56.7391 412 59C412 61.2609 414.609 63 418 63C421.391 62.8261 424 61.0869 424 59Z" fill="#1661BE"/>
<path d="M405 12C405 9.77776 403.222 8 401 8C398.778 8 397 9.77776 397 12C397 14.2222 398.778 16 401 16C403.222 16 405 14.2222 405 12Z" fill="#1661BE"/>
<path d="M390 7.48808C390 5.49488 388.714 4 387 4C385.286 4 384 5.49488 384 7.48808C384 9.48128 385.286 10.9762 387 10.9762C388.714 11.2253 390 9.48128 390 7.48808Z" fill="#1661BE"/>
<path d="M226 5.5C226 4.15385 224.385 3 222.5 3C220.615 3 219 4.15385 219 5.5C219 6.84615 220.615 8 222.5 8C224.385 7.80769 226 6.84615 226 5.5Z" fill="#1661BE"/>
<path d="M215 42C217.209 42 219 43.7909 219 46C219 48.2092 217.209 50 215 50C212.791 50 211 48.2092 211 46C211 43.7909 212.791 42 215 42Z" fill="#1661BE"/>
<path d="M147 85C148.657 85 150 86.1193 150 87.5C150 88.8807 148.657 90 147 90C145.343 90 144 88.8807 144 87.5C144 86.1193 145.343 85 147 85Z" fill="#1661BE"/>
<path d="M181 113.5C181 110.521 178.708 108 176 108C173.292 108 171 110.521 171 113.5C171 116.479 173.292 119 176 119C178.917 119 181 116.479 181 113.5Z" fill="#1661BE"/>
<path d="M142 126.5C142 124.556 140.222 123 138 123C135.778 123 134 124.556 134 126.5C134 128.444 135.778 130 138 130C140.222 130 142 128.444 142 126.5Z" fill="#1661BE"/>
<path d="M161 197.5C161 196.643 160.357 196 159.5 196C158.643 196 158 196.643 158 197.5C158 198.357 158.643 199 159.5 199C160.357 199 161 198.357 161 197.5Z" fill="#1661BE"/>
<path d="M141.5 211C144.538 211 147 213.462 147 216.5C147 219.538 144.538 222 141.5 222C138.462 222 136 219.538 136 216.5C136 213.462 138.462 211 141.5 211Z" fill="#1661BE"/>
<path d="M102 240C102 237.882 100.559 236 98.5 236C96.6471 236 95 237.647 95 240C95 242.118 96.4412 244 98.5 244C100.559 244 102 242.118 102 240Z" fill="#1661BE"/>
<path d="M67 163C67 160.75 65.6875 159 64 159C62.3125 159 61 160.75 61 163C61 165.25 62.3125 167 64 167C65.5 167 67 165.25 67 163Z" fill="#1661BE"/>
<path d="M12 125.5C12 121.914 9.31035 119 6 119C2.68965 119 8.81764e-07 121.914 5.68248e-07 125.5C2.54732e-07 129.086 2.68965 132 6 132C9.31035 132 12 129.086 12 125.5Z" fill="#1661BE"/>
<path d="M22.5 107C23.8807 107 25 108.119 25 109.5C25 110.881 23.8807 112 22.5 112C21.1193 112 20 110.881 20 109.5C20 108.119 21.1193 107 22.5 107Z" fill="#1661BE"/>
<path d="M57 58C57 55.2222 54.5556 53 51.5 53C48.4444 53 46 55.2222 46 58C46 60.7778 48.4444 63 51.5 63C54.5556 63 57 60.7778 57 58Z" fill="#1661BE"/>
<path d="M80 12C80 9.74998 78.4687 8 76.5 8C74.5313 8 73 9.74998 73 12C73 14.25 74.5313 16 76.5 16C78.4687 15.75 80 14 80 12Z" fill="#1661BE"/>
<path d="M271 26.5C271 24.5312 269.469 23 267.5 23C265.531 23 264 24.5312 264 26.5C264 28.4687 265.531 30 267.5 30C269.25 30 271 28.4687 271 26.5Z" fill="#1661BE"/>
<path d="M353 38C354.657 38 356 39.567 356 41.5C356 43.433 354.657 45 353 45C351.343 45 350 43.433 350 41.5C350 39.567 351.343 38 353 38Z" fill="#1661BE"/>
<path d="M418 28.5C418 25.42 415.58 23 412.5 23C409.42 23 407 25.42 407 28.5C407 31.58 409.42 34 412.5 34C415.58 34 418 31.58 418 28.5Z" fill="#1661BE"/>
<path d="M471.5 22C472.881 22 474 23.1193 474 24.5C474 25.8807 472.881 27 471.5 27C470.119 27 469 25.8807 469 24.5C469 23.1193 470.119 22 471.5 22Z" fill="#1661BE"/>
<path d="M499 43C499 41.8 497.75 41 496.5 41C495 41 494 42 494 43C494 44.2 495.25 45 496.5 45C497.75 45 499 44 499 43Z" fill="#1661BE"/>
<path d="M524 65C524 63.25 522.75 62 521 62C519.5 62 518 63.25 518 65C518 66.5 519.25 68 521 68C522.75 68 524 66.75 524 65Z" fill="#1661BE"/>
<path d="M560.5 43C561.881 43 563 44.1193 563 45.5C563 46.8807 561.881 48 560.5 48C559.119 48 558 46.8807 558 45.5C558 44.1193 559.119 43 560.5 43Z" fill="#1661BE"/>
<path d="M560 90C564.418 90 568 93.3579 568 97.5C568 101.642 564.418 105 560 105C555.582 105 552 101.642 552 97.5C552 93.3579 555.582 90 560 90Z" fill="#1661BE"/>
<path d="M583 92.5C583 90 581.444 88 579.5 88C577.556 88 576 90 576 92.5C576 95 577.556 97 579.5 97C581.444 97 583 95 583 92.5Z" fill="#1661BE"/>
<path d="M608.5 177C611.538 177 614 179.686 614 183C614 186.314 611.538 189 608.5 189C605.462 189 603 186.314 603 183C603 179.686 605.462 177 608.5 177Z" fill="#1661BE"/>
<path d="M583 92C583 89.2727 580.955 87 578.5 87C576.045 87 574 89.2727 574 92C574 94.7273 576.045 97 578.5 97C580.955 97 583 94.7273 583 92Z" fill="#1661BE"/>
<path d="M534 144C534 142.312 532.687 141 531 141C529.313 141 528 142.312 528 144C528 145.688 529.313 147 531 147C532.687 146.813 534 145.5 534 144Z" fill="#1661BE"/>
<path d="M496.5 55C497.328 55 498 56.1193 498 57.5C498 58.8807 497.328 60 496.5 60C495.672 60 495 58.8807 495 57.5C495 56.1193 495.672 55 496.5 55Z" fill="#1661BE"/>
<path d="M511 139C511 137.909 510.091 137 509 137C507.909 137 507 137.909 507 139C507 140.091 507.909 141 509 141C510.091 141 511 140.091 511 139Z" fill="#1661BE"/>
<path d="M433 104C435.209 104 437 105.791 437 108C437 110.209 435.209 112 433 112C430.791 112 429 110.209 429 108C429 105.791 430.791 104 433 104Z" fill="#1661BE"/>
<path d="M424 214C425.657 214 427 215.791 427 218C427 220.209 425.657 222 424 222C422.343 222 421 220.209 421 218C421 215.791 422.343 214 424 214Z" fill="#1661BE"/>
<path d="M377 182.5C377 177.778 373.889 174 370 174C366.111 174 363 177.778 363 182.5C363 187.222 366.111 191 370 191C373.889 191 377 187.222 377 182.5Z" fill="#1661BE"/>
<path d="M349 118.99C349 116.643 347.118 115 345 115C342.647 115 341 116.878 341 118.99C341 121.337 342.882 122.98 345 122.98C347.118 123.215 349 121.337 349 118.99Z" fill="#1661BE"/>
<path d="M272.5 187C274.433 187 276 188.567 276 190.5C276 192.433 274.433 194 272.5 194C270.567 194 269 192.433 269 190.5C269 188.567 270.567 187 272.5 187Z" fill="#1661BE"/>
<path d="M246 150.981C246 149.743 245.25 149 244.5 149C243.562 149 243 149.99 243 150.981C243 152.219 243.75 152.962 244.5 152.962C245.25 153.209 246 152.219 246 150.981Z" fill="#1661BE"/>
<path d="M218 146C220.761 146 223 148.462 223 151.5C223 154.538 220.761 157 218 157C215.239 157 213 154.538 213 151.5C213 148.462 215.239 146 218 146Z" fill="#1661BE"/>
<path d="M216 162.5C216 161.154 214.385 160 212.5 160C210.615 160 209 161.154 209 162.5C209 163.846 210.615 165 212.5 165C214.385 165 216 163.846 216 162.5Z" fill="#1661BE"/>
<path d="M137.5 146C139.433 146 141 147.567 141 149.5C141 151.433 139.433 153 137.5 153C135.567 153 134 151.433 134 149.5C134 147.567 135.567 146 137.5 146Z" fill="#1661BE"/>
<path d="M134 175.5C134 174.643 133.357 174 132.5 174C131.643 174 131 174.643 131 175.5C131 176.357 131.643 177 132.5 177C133.143 177 134 176.357 134 175.5Z" fill="#1661BE"/>
<path d="M177.5 138C179.433 138 181 139.791 181 142C181 144.209 179.433 146 177.5 146C175.567 146 174 144.209 174 142C174 139.791 175.567 138 177.5 138Z" fill="#1661BE"/>
<path d="M228 134.5C228 132.045 225.727 130 223 130C220.273 130 218 132.045 218 134.5C218 136.955 220.273 139 223 139C225.727 139 228 137.159 228 134.5Z" fill="#1661BE"/>
<path d="M159 56.9894C159 54.7454 157.687 53 156 53C154.313 53 153 54.7454 153 56.9894C153 59.2335 154.313 60.9789 156 60.9789C157.687 61.2282 159 59.2335 159 56.9894Z" fill="#1661BE"/>
<path d="M211 19C211 15.6667 208.778 13 206 13C203.222 13 201 15.6667 201 19C201 22.3333 203.222 25 206 25C208.778 25 211 22.3333 211 19Z" fill="#1661BE"/>
<path d="M437 30C438.657 30 440 30.8954 440 32C440 33.1046 438.657 34 437 34C435.343 34 434 33.1046 434 32C434 30.8954 435.343 30 437 30Z" fill="#1661BE"/>
<path d="M497 17.9831C497 16.8814 495.889 16 494.5 16C493.111 16 492 16.8814 492 17.9831C492 19.0849 493.111 19.9663 494.5 19.9663C495.889 20.1866 497 19.3052 497 17.9831Z" fill="#1661BE"/>
<path d="M561 34.5C561 30.3088 557.691 27 553.5 27C549.309 27 546 30.3088 546 34.5C546 38.6912 549.309 42 553.5 42C557.691 42 561 38.6912 561 34.5Z" fill="#1661BE"/>
<path d="M561.5 63C565.642 63 569 66.134 569 70C569 73.866 565.642 77 561.5 77C557.358 77 554 73.866 554 70C554 66.134 557.358 63 561.5 63Z" fill="#1661BE"/>
<path d="M620 77.5C620 74.8948 617.632 73 615 73C612.105 73 610 75.1316 610 77.5C610 80.1053 612.368 82 615 82C617.632 82 620 80.1053 620 77.5Z" fill="#1661BE"/>
<path d="M632 86.9905C632 85.3956 630.6 84 629 84C627.4 84 626 85.3956 626 86.9905C626 88.5854 627.4 89.981 629 89.981C630.8 90.1804 632 88.7848 632 86.9905Z" fill="#1661BE"/>
<path d="M599 72C599 69.6471 597.588 68 596 68C594.235 68 593 69.8823 593 72C593 74.3529 594.412 76 596 76C597.765 76 599 74.1177 599 72Z" fill="#1661BE"/>
<path d="M537 109.988C537 108.904 536.091 108 535 108C533.909 108 533 108.904 533 109.988C533 111.073 533.909 111.977 535 111.977C535.909 112.158 537 111.254 537 109.988Z" fill="#1661BE"/>
<path d="M528 45C528 43.25 526.75 42 525 42C523.25 42 522 43.25 522 45C522 46.75 523.25 48 525 48C526.5 48 528 46.75 528 45Z" fill="#1661BE"/>
<path d="M484.5 33C485.881 33 487 34.567 487 36.5C487 38.433 485.881 40 484.5 40C483.119 40 482 38.433 482 36.5C482 34.567 483.119 33 484.5 33Z" fill="#1661BE"/>
<path d="M423 30C426.314 30 429 32.6863 429 36C429 39.3137 426.314 42 423 42C419.686 42 417 39.3137 417 36C417 32.6863 419.686 30 423 30Z" fill="#1661BE"/>
<path d="M463.5 72C465.433 72 467 73.1193 467 74.5C467 75.8807 465.433 77 463.5 77C461.567 77 460 75.8807 460 74.5C460 73.1193 461.567 72 463.5 72Z" fill="#1661BE"/>
<path d="M410 70.5C410 66.4286 406.571 63 402.5 63C398.429 63 395 66.4286 395 70.5C395 74.5714 398.429 78 402.5 78C406.571 78 410 74.5714 410 70.5Z" fill="#1661BE"/>
<path d="M365 72.9934C365 70.2886 362.938 68 360.5 68C358.062 68 356 70.2886 356 72.9934C356 75.6982 358.062 77.9869 360.5 77.9869C362.938 78.1949 365 75.9062 365 72.9934Z" fill="#1661BE"/>
<path d="M370 14.5C370 12.0455 368.182 10 366 10C363.818 10 362 12.0455 362 14.5C362 16.9545 363.818 19 366 19C368.182 19 370 16.9545 370 14.5Z" fill="#1661BE"/>
<path d="M320 5.5C320 4.15385 318.846 3 317.5 3C316.154 3 315 4.15385 315 5.5C315 6.84615 316.154 8 317.5 8C318.846 8 320 6.84615 320 5.5Z" fill="#1661BE"/>
<path d="M305 8C306.657 8 308 9.567 308 11.5C308 13.433 306.657 15 305 15C303.343 15 302 13.433 302 11.5C302 9.567 303.343 8 305 8Z" fill="#1661BE"/>
<path d="M302 43.5C302 42.0417 300.75 41 299 41C297.25 41 296 42.0417 296 43.5C296 44.9583 297.25 46 299 46C300.5 46 302 44.9583 302 43.5Z" fill="#1661BE"/>
<path d="M260 29C260 27.9091 259.091 27 258 27C256.909 27 256 27.9091 256 29C256 30.0909 256.909 31 258 31C259.091 31 260 30.0909 260 29Z" fill="#1661BE"/>
<path d="M240 65C243.314 65 246 67.4624 246 70.5C246 73.5376 243.314 76 240 76C236.686 76 234 73.5376 234 70.5C234 67.4624 236.686 65 240 65Z" fill="#1661BE"/>
<path d="M261 76C261 73.8 259.2 72 257 72C254.8 72 253 73.8 253 76C253 78.2 254.8 80 257 80C259.2 80 261 78.2 261 76Z" fill="#1661BE"/>
<path d="M285 92.5C285 91 283.75 90 282.5 90C281 90 280 91.25 280 92.5C280 94 281.25 95 282.5 95C283.75 95 285 94 285 92.5Z" fill="#1661BE"/>
<path d="M335 129C335 125.786 332.214 123 328.5 123C325.018 123 322 125.571 322 129C322 132.214 324.786 135 328.5 135C332.214 135 335 132.214 335 129Z" fill="#1661BE"/>
<path d="M381.5 110C382.881 110 384 111.119 384 112.5C384 113.881 382.881 115 381.5 115C380.119 115 379 113.881 379 112.5C379 111.119 380.119 110 381.5 110Z" fill="#1661BE"/>
<path d="M440 115C440 111.062 436.719 108 432.5 108C428.281 108 425 111.062 425 115C425 118.937 428.281 122 432.5 122C436.484 122 440 118.937 440 115Z" fill="#1661BE"/>
<path d="M479 99.5C479 98.1539 477.846 97 476.5 97C475.154 97 474 98.1539 474 99.5C474 100.846 475.154 102 476.5 102C477.846 102 479 100.846 479 99.5Z" fill="#1661BE"/>
<path d="M477 170.5C477 165.803 473.421 162 469 162C464.579 162 461 165.803 461 170.5C461 175.197 464.579 179 469 179C473.421 179 477 175.197 477 170.5Z" fill="#1661BE"/>
<path d="M402 184C404.209 184 406 185.567 406 187.5C406 189.433 404.209 191 402 191C399.791 191 398 189.433 398 187.5C398 185.567 399.791 184 402 184Z" fill="#1661BE"/>
<path d="M387 180C387 177.895 385.316 176 383 176C380.895 176 379 177.684 379 180C379 182.105 380.684 184 383 184C385.316 184 387 182.105 387 180Z" fill="#1661BE"/>
<path d="M392 104.5C392 103.042 390.958 102 389.5 102C388.042 102 387 103.042 387 104.5C387 105.958 388.042 107 389.5 107C390.75 107 392 105.958 392 104.5Z" fill="#1661BE"/>
<path d="M323 105.5C323 104.6 322.4 104 321.5 104C320.6 104 320 104.6 320 105.5C320 106.4 320.6 107 321.5 107C322.4 107 323 106.4 323 105.5Z" fill="#1661BE"/>
<path d="M313 223C313 219.69 310.534 217 307.5 217C304.466 217 302 219.69 302 223C302 226.31 304.466 229 307.5 229C310.534 229 313 226.31 313 223Z" fill="#1661BE"/>
<path d="M281 201.5C281 200.154 279.846 199 278.5 199C277.154 199 276 200.154 276 201.5C276 202.846 277.154 204 278.5 204C279.846 204 281 202.846 281 201.5Z" fill="#1661BE"/>
<path d="M241 242.476C241 241.492 240.25 241 239.5 241C238.5 241 238 241.738 238 242.476C238 243.46 238.75 243.952 239.5 243.952C240.25 244.198 241 243.46 241 242.476Z" fill="#1661BE"/>
</svg>
