<svg width="39" height="51" viewBox="0 0 39 51" fill="none" xmlns="http://www.w3.org/2000/svg">
<path d="M35.2503 50.5335H3.80265C3.22401 50.5335 2.75439 50.0639 2.75439 49.4853V5.45856C2.75439 4.87993 3.22401 4.41031 3.80265 4.41031H35.2503C35.8289 4.41031 36.2985 4.87993 36.2985 5.45856V49.4853C36.2985 50.0639 35.8289 50.5335 35.2503 50.5335ZM4.8509 48.437H34.202V6.50682H4.8509V48.437Z" fill="white"/>
<path d="M31.0572 6.50686C30.4786 6.50686 30.009 6.03724 30.009 5.4586V2.31384H23.7194V5.4586C23.7194 6.03724 23.2498 6.50686 22.6712 6.50686C22.0925 6.50686 21.6229 6.03724 21.6229 5.4586V1.26559C21.6229 0.686949 22.0925 0.217331 22.6712 0.217331H31.0572C31.6359 0.217331 32.1055 0.686949 32.1055 1.26559V5.4586C32.1055 6.03724 31.6359 6.50686 31.0572 6.50686Z" fill="white"/>
<path d="M37.3466 6.50682H1.70597C1.12733 6.50682 0.657715 6.0372 0.657715 5.45856C0.657715 4.87993 1.12733 4.41031 1.70597 4.41031H37.3466C37.9253 4.41031 38.3949 4.87993 38.3949 5.45856C38.3949 6.0372 37.9253 6.50682 37.3466 6.50682Z" fill="white"/>
<path d="M37.3466 50.5335H1.70597C1.12733 50.5335 0.657715 50.0639 0.657715 49.4853C0.657715 48.9066 1.12733 48.437 1.70597 48.437H37.3466C37.9253 48.437 38.3949 48.9066 38.3949 49.4853C38.3949 50.0639 37.9253 50.5335 37.3466 50.5335Z" fill="white"/>
<path d="M37.3466 16.9894H1.70597C1.12733 16.9894 0.657715 16.5198 0.657715 15.9412C0.657715 15.3625 1.12733 14.8929 1.70597 14.8929H37.3466C37.9253 14.8929 38.3949 15.3625 38.3949 15.9412C38.3949 16.5198 37.9253 16.9894 37.3466 16.9894Z" fill="white"/>
<path d="M37.3466 40.051H1.70597C1.12733 40.051 0.657715 39.5814 0.657715 39.0028C0.657715 38.4241 1.12733 37.9545 1.70597 37.9545H37.3466C37.9253 37.9545 38.3949 38.4241 38.3949 39.0028C38.3949 39.5814 37.9253 40.051 37.3466 40.051Z" fill="white"/>
<path d="M19.5262 35.858C16.501 35.858 13.2367 33.7887 13.2367 30.4427C13.2367 27.604 17.7903 21.6898 18.7023 20.5325C19.0985 20.0293 19.9518 20.0293 20.3481 20.5325C21.2621 21.6898 25.8157 27.6019 25.8157 30.4427C25.8157 33.7887 22.5515 35.858 19.5262 35.858ZM19.5262 22.9079C17.5723 25.5411 15.3332 29.0842 15.3332 30.4427C15.3332 32.4931 17.5094 33.7615 19.5262 33.7615C21.5431 33.7615 23.7192 32.4931 23.7192 30.4427C23.7192 29.0863 21.4802 25.5411 19.5262 22.9079Z" fill="white"/>
</svg>
