<svg width="60" height="60" viewBox="0 0 60 60" fill="none" xmlns="http://www.w3.org/2000/svg">
<g clip-path="url(#clip0_115_5752)">
<mask id="mask0_115_5752" style="mask-type:luminance" maskUnits="userSpaceOnUse" x="0" y="0" width="60" height="60">
<path d="M0.689453 0.881252H59.5463V59.7381H0.689453V0.881252Z" fill="white"/>
</mask>
<g mask="url(#mask0_115_5752)">
<path d="M32.2877 55.2263C33.0648 55.9551 32.6846 57.2258 31.9402 57.9708C31.1007 58.8114 29.7531 58.7785 28.8843 57.9677L26.812 56.0307" stroke="white" stroke-width="2.31933" stroke-miterlimit="10" stroke-linecap="round" stroke-linejoin="round"/>
<path d="M24.9659 52.6522C25.1823 52.4553 25.3988 52.3009 25.615 52.1894C27.6809 51.0864 29.4843 53.6306 27.8939 55.0587L26.3561 56.441C24.133 58.437 21.723 55.5774 23.5034 53.972" stroke="white" stroke-width="2.31933" stroke-miterlimit="10" stroke-linecap="round" stroke-linejoin="round"/>
<path d="M34.3076 39.6251L42.4656 46.8806C45.7444 49.796 42.2558 53.2466 39.4128 50.131" stroke="white" stroke-width="2.31933" stroke-miterlimit="10" stroke-linecap="round" stroke-linejoin="round"/>
<path d="M35.0354 45.8038L39.4129 50.131C40.2589 50.9648 40.2523 52.3503 39.4129 53.1908C38.5735 54.0312 37.075 54.0443 36.252 53.1874L36.0355 52.9642" stroke="white" stroke-width="2.31933" stroke-miterlimit="10" stroke-linecap="round" stroke-linejoin="round"/>
<path d="M32.8649 49.76L36.0651 52.9642C37.58 54.4844 35.4618 58.2073 32.6058 55.5249L31.2353 54.2348" stroke="white" stroke-width="2.31933" stroke-miterlimit="10" stroke-linecap="round" stroke-linejoin="round"/>
<path d="M57.4273 34.8023L47.9774 22.6976C47.2462 21.7585 45.8724 21.5813 44.9247 22.3004L38.7406 27.0147C37.7931 27.737 37.616 29.0931 38.3504 30.0319L47.797 42.1366C48.5315 43.0756 49.9054 43.2529 50.8498 42.5306L57.0371 37.8194C57.9848 37.0972 58.1585 35.7413 57.4273 34.8023Z" stroke="white" stroke-width="2.31933" stroke-miterlimit="10" stroke-linecap="round" stroke-linejoin="round"/>
<path d="M47.3184 41.5261C45.9642 44.0409 45.6003 44.4019 42.4656 46.8807M34.3076 39.6252L31.9566 37.4845L28.189 39.3527C25.0249 40.7511 21.5296 36.8345 26.5693 33.5647L30.2122 31.2008C32.7271 29.5659 35.3143 29.6379 38.3439 30.0255" stroke="white" stroke-width="2.31933" stroke-miterlimit="10" stroke-linecap="round" stroke-linejoin="round"/>
<path d="M12.2174 42.8425L14.152 45.492M29.7336 31.5094L22.005 30.3275" stroke="white" stroke-width="2.31933" stroke-miterlimit="10" stroke-linecap="round" stroke-linejoin="round"/>
<path d="M20.5229 45.4196C22.9985 43.2331 25.6412 46.5457 23.7036 48.2529L20.0377 51.477C18.0441 53.2368 15.4603 50.1079 17.1292 48.4991C17.4342 48.207 17.2538 48.3713 17.3228 48.3089C17.3948 48.2465 20.5229 45.4196 20.5229 45.4196Z" stroke="white" stroke-width="2.31933" stroke-miterlimit="10" stroke-linecap="round" stroke-linejoin="round"/>
<path d="M14.1519 45.4919L18.0669 42.0119C20.5393 39.8188 23.1295 43.0658 21.2146 44.7959L20.5228 45.4196L16.8898 48.6962C14.8405 50.5479 12.2403 47.1893 14.1519 45.4919Z" stroke="white" stroke-width="2.31933" stroke-miterlimit="10" stroke-linecap="round" stroke-linejoin="round"/>
<path d="M23.4608 48.4664C25.9332 46.2765 28.4843 49.4777 26.5693 51.2079L23.1854 54.2611C21.2444 56.0141 18.3294 52.984 20.5197 51.0535L20.9067 50.7153" stroke="white" stroke-width="2.31933" stroke-miterlimit="10" stroke-linecap="round" stroke-linejoin="round"/>
<path d="M17.9063 13.4C17.9063 17.7237 20.3163 21.4862 23.8642 23.4099C25.4708 24.2768 27.307 24.7726 29.2613 24.7726C35.5339 24.7726 40.6194 19.6804 40.6194 13.4C40.6194 8.85937 37.957 4.93619 34.1108 3.11749C32.6419 2.42144 30.9959 2.03082 29.2613 2.03082C22.9886 2.03082 17.9063 7.12275 17.9063 13.4Z" stroke="white" stroke-width="2.31933" stroke-miterlimit="10" stroke-linecap="round" stroke-linejoin="round"/>
<path d="M32.891 15.0809C32.891 15.9772 32.6321 16.6961 32.1141 17.238C31.5992 17.7797 30.9697 18.1375 30.2351 18.3081V19.9399C30.2351 20.4979 29.7598 20.9576 29.199 20.9576C28.6415 20.9576 28.1858 20.4979 28.1858 19.9399V18.318C27.7267 18.2161 27.3137 18.0454 26.943 17.8092C26.5628 17.5662 26.2971 17.3528 26.1495 17.1688L25.9233 16.8767C24.9856 15.6489 26.5332 14.3357 27.4316 15.2811C27.5431 15.3961 27.658 15.534 27.789 15.6817C28.1662 16.102 28.717 16.1676 29.1663 16.1676C30.0154 16.1676 30.4417 15.8162 30.4417 15.1137C30.4417 14.8609 30.281 14.6673 29.9597 14.5293C29.6384 14.3883 29.2481 14.2667 28.7859 14.155C28.3268 14.0467 27.8677 13.899 27.4087 13.7151C26.9465 13.5314 26.5562 13.2159 26.2348 12.7664C25.9135 12.3165 25.7529 11.7487 25.7529 11.0557C25.7529 10.3664 25.9725 9.74925 26.4054 9.19103C26.8349 8.64281 27.4546 8.27185 28.2021 8.12402V6.73215C28.2021 6.17393 28.6613 5.71445 29.2187 5.71445C29.7793 5.71445 30.2351 6.17393 30.2351 6.73215V7.15886V8.14046C30.5564 8.20943 30.8515 8.30473 31.1138 8.43268C31.3795 8.56073 31.5631 8.66258 31.668 8.74455L31.8222 8.88249C33.1566 9.88387 31.8681 11.6567 30.7171 10.6882C29.9368 10.0315 28.1662 9.88386 28.1662 11.0919C28.1662 11.3448 28.2842 11.5483 28.5203 11.706C28.7563 11.8601 29.0449 11.9651 29.3892 12.0146C29.7367 12.067 30.1138 12.1525 30.527 12.2739C30.9435 12.3953 31.3205 12.5363 31.668 12.6974C32.0123 12.8582 32.3009 13.1438 32.537 13.5509C32.7731 13.9614 32.891 14.4702 32.891 15.0809Z" fill="white"/>
<path d="M7.21048 29.6249L7.22467 29.6071" stroke="white" stroke-width="2.31933" stroke-miterlimit="10" stroke-linecap="round" stroke-linejoin="round"/>
<path d="M10.0041 26.0464L12.2567 23.1605C12.9912 22.2216 14.3651 22.0443 15.3094 22.7665L21.4969 27.4777C22.4443 28.2 22.6182 29.5559 21.8871 30.495L12.4371 42.5995C11.7059 43.5385 10.332 43.7157 9.38435 42.9968L3.20024 38.2823C2.25267 37.56 2.07552 36.2041 2.81008 35.2652L4.41681 33.2068" stroke="white" stroke-width="2.31933" stroke-miterlimit="10" stroke-linecap="round" stroke-linejoin="round"/>
</g>
</g>
<defs>
<clipPath id="clip0_115_5752">
<rect width="58.8569" height="58.8569" fill="white" transform="translate(0.689453 0.881393)"/>
</clipPath>
</defs>
</svg>
