<svg width="85" height="85" viewBox="0 0 85 85" fill="none" xmlns="http://www.w3.org/2000/svg">
<g clip-path="url(#clip0_120_942)">
<mask id="mask0_120_942" style="mask-type:luminance" maskUnits="userSpaceOnUse" x="0" y="-1" width="85" height="86">
<path d="M0 -0.000205994H85V84.9998H0V-0.000205994Z" fill="white"/>
</mask>
<g mask="url(#mask0_120_942)">
<path d="M45.6336 78.4839C46.7558 79.5364 46.2067 81.3715 45.1317 82.4475C43.9193 83.6614 41.9731 83.6139 40.7183 82.443L37.7256 79.6456" stroke="#1661BE" stroke-width="2.7657" stroke-miterlimit="10" stroke-linecap="round" stroke-linejoin="round"/>
<path d="M35.0596 74.7665C35.3722 74.4821 35.6848 74.2592 35.9971 74.0981C38.9806 72.5052 41.585 76.1795 39.2882 78.2419L37.0674 80.2382C33.8568 83.1207 30.3763 78.9909 32.9475 76.6725" stroke="#1661BE" stroke-width="2.7657" stroke-miterlimit="10" stroke-linecap="round" stroke-linejoin="round"/>
<path d="M48.5505 55.953L60.3322 66.4312C65.0674 70.6416 60.0292 75.6249 55.9235 71.1253" stroke="#1661BE" stroke-width="2.7657" stroke-miterlimit="10" stroke-linecap="round" stroke-linejoin="round"/>
<path d="M49.6018 64.8761L55.9237 71.1254C57.1454 72.3295 57.1359 74.3304 55.9237 75.5443C54.7114 76.758 52.5473 76.7769 51.3588 75.5393L51.0461 75.2171" stroke="#1661BE" stroke-width="2.7657" stroke-miterlimit="10" stroke-linecap="round" stroke-linejoin="round"/>
<path d="M46.467 70.5895L51.0887 75.217C53.2764 77.4124 50.2174 82.789 46.0928 78.9152L44.1135 77.052" stroke="#1661BE" stroke-width="2.7657" stroke-miterlimit="10" stroke-linecap="round" stroke-linejoin="round"/>
<path d="M81.9398 48.988L68.2924 31.5066C67.2364 30.1504 65.2524 29.8944 63.8837 30.933L54.9528 37.7413C53.5845 38.7843 53.3286 40.7428 54.3893 42.0987L68.032 59.58C69.0926 60.9361 71.0769 61.1921 72.4407 60.1491L81.3763 53.3452C82.7449 52.3022 82.9958 50.344 81.9398 48.988Z" stroke="#1661BE" stroke-width="2.7657" stroke-miterlimit="10" stroke-linecap="round" stroke-linejoin="round"/>
<path d="M67.3406 58.6984C65.3848 62.3301 64.8594 62.8516 60.3323 66.4314M48.5507 55.9531L45.1553 52.8616L39.7143 55.5595C35.1447 57.5791 30.0969 51.9228 37.3752 47.2006L42.6362 43.7867C46.2681 41.4256 50.0045 41.5297 54.3798 42.0893" stroke="#1661BE" stroke-width="2.7657" stroke-miterlimit="10" stroke-linecap="round" stroke-linejoin="round"/>
<path d="M16.6484 60.5994L19.4423 64.4258M41.9449 44.2324L30.7835 42.5255" stroke="#1661BE" stroke-width="2.7657" stroke-miterlimit="10" stroke-linecap="round" stroke-linejoin="round"/>
<path d="M28.6429 64.3213C32.2182 61.1635 36.0348 65.9475 33.2364 68.413L27.9422 73.0693C25.0631 75.6106 21.3316 71.092 23.7418 68.7686C24.1822 68.3468 23.9218 68.584 24.0214 68.4939C24.1255 68.4037 28.6429 64.3213 28.6429 64.3213Z" stroke="#1661BE" stroke-width="2.7657" stroke-miterlimit="10" stroke-linecap="round" stroke-linejoin="round"/>
<path d="M19.4421 64.4257L25.096 59.3999C28.6665 56.2327 32.4074 60.9219 29.6419 63.4205L28.6428 64.3213L23.396 69.0532C20.4365 71.7274 16.6814 66.8771 19.4421 64.4257Z" stroke="#1661BE" stroke-width="2.7657" stroke-miterlimit="10" stroke-linecap="round" stroke-linejoin="round"/>
<path d="M32.886 68.7214C36.4565 65.5588 40.1407 70.1818 37.3752 72.6805L32.4882 77.0899C29.6851 79.6217 25.4752 75.2457 28.6385 72.4576L29.1973 71.9692" stroke="#1661BE" stroke-width="2.7657" stroke-miterlimit="10" stroke-linecap="round" stroke-linejoin="round"/>
<path d="M24.8643 18.0791C24.8643 24.3233 28.3448 29.7571 33.4685 32.5352C35.7887 33.7871 38.4405 34.5032 41.2629 34.5032C50.3218 34.5032 57.6661 27.1492 57.6661 18.0791C57.6661 11.5216 53.821 5.85585 48.2665 3.22932C46.1451 2.22409 43.768 1.65997 41.2629 1.65997C32.204 1.65997 24.8643 9.01363 24.8643 18.0791Z" stroke="#1661BE" stroke-width="2.7657" stroke-miterlimit="10" stroke-linecap="round" stroke-linejoin="round"/>
<path d="M46.5048 20.5066C46.5048 21.801 46.1307 22.8393 45.3827 23.6219C44.6391 24.4042 43.73 24.921 42.6691 25.1673V27.5239C42.6691 28.3298 41.9827 28.9937 41.1728 28.9937C40.3677 28.9937 39.7096 28.3298 39.7096 27.5239V25.1816C39.0465 25.0345 38.45 24.788 37.9148 24.4468C37.3656 24.0959 36.9819 23.7877 36.7688 23.5219L36.4421 23.1001C35.0879 21.3269 37.3229 19.4305 38.6203 20.7958C38.7814 20.9618 38.9472 21.161 39.1365 21.3744C39.6812 21.9813 40.4767 22.0761 41.1255 22.0761C42.3519 22.0761 42.9675 21.5686 42.9675 20.5541C42.9675 20.189 42.7354 19.9093 42.2714 19.7101C41.8074 19.5064 41.2437 19.3309 40.5762 19.1695C39.9131 19.0131 39.2502 18.7998 38.5873 18.5342C37.9198 18.2689 37.3561 17.8133 36.892 17.164C36.4279 16.5144 36.196 15.6943 36.196 14.6936C36.196 13.6981 36.5131 12.8068 37.1383 12.0006C37.7586 11.2089 38.6536 10.6732 39.7332 10.4597V8.44955C39.7332 7.64338 40.3962 6.97982 41.2012 6.97982C42.0109 6.97982 42.6691 7.64338 42.6691 8.44955V9.0658V10.4834C43.1332 10.583 43.5593 10.7206 43.9382 10.9054C44.3218 11.0904 44.587 11.2375 44.7385 11.3558L44.9612 11.555C46.8883 13.0012 45.0274 15.5615 43.3652 14.1628C42.2383 13.2144 39.6812 13.0012 39.6812 14.7459C39.6812 15.1111 39.8517 15.4049 40.1927 15.6327C40.5335 15.8552 40.9502 16.0069 41.4474 16.0783C41.9493 16.154 42.494 16.2775 43.0907 16.4528C43.6921 16.6281 44.2367 16.8318 44.7385 17.0644C45.2357 17.2967 45.6524 17.7091 45.9934 18.2971C46.3344 18.8899 46.5048 19.6247 46.5048 20.5066Z" fill="#1661BE"/>
<path d="M9.41748 41.5108L9.43761 41.4856" stroke="#1661BE" stroke-width="2.7657" stroke-miterlimit="10" stroke-linecap="round" stroke-linejoin="round"/>
<path d="M13.4519 36.3428L16.7052 32.1751C17.7659 30.8191 19.7501 30.5631 21.1137 31.606L30.0497 38.4099C31.4178 39.4531 31.669 41.4113 30.6131 42.7674L16.9657 60.2486C15.9096 61.6046 13.9256 61.8606 12.5569 60.8223L3.62597 54.0137C2.25751 52.9706 2.00167 51.0124 3.06251 49.6564L5.38292 46.6837" stroke="#1661BE" stroke-width="2.7657" stroke-miterlimit="10" stroke-linecap="round" stroke-linejoin="round"/>
</g>
</g>
<defs>
<clipPath id="clip0_120_942">
<rect width="85" height="85" fill="white"/>
</clipPath>
</defs>
</svg>
