<svg width="81" height="70" viewBox="0 0 81 70" fill="none" xmlns="http://www.w3.org/2000/svg">
<path d="M80.8535 56.6709C80.4735 55.09 79.3982 53.7394 77.8254 52.8673C76.2527 51.9957 74.3845 51.7143 72.5627 52.0742L64.1198 53.7448V50.762C65.8131 49.3836 67.5762 47.5839 68.8301 45.939C71.0289 43.0545 72.5849 39.887 73.4551 36.5262C74.4896 32.5277 74.5118 28.2948 73.5187 24.2835C73.3358 23.5454 72.4947 23.0744 71.6407 23.233C70.786 23.3905 70.2422 24.1174 70.4245 24.856C71.323 28.4838 71.3032 32.313 70.367 35.9291C69.5809 38.9658 68.1744 41.8278 66.1876 44.4345C65.5987 45.2073 64.8843 46.018 64.1198 46.7924V31.638C64.1198 30.8828 63.4116 30.2708 62.5378 30.2708H50.0231V15.6707C50.0231 14.9177 49.318 14.3062 48.4466 14.3035L34.3498 14.2624C34.348 14.2624 34.3468 14.2624 34.3449 14.2624C33.9259 14.2624 33.5242 14.4055 33.2282 14.6614C32.9303 14.9177 32.7629 15.2659 32.7629 15.6296V23.2244H20.2463C19.3731 23.2244 18.6643 23.8365 18.6643 24.5916V38.1305H15.1393V36.2736C15.1393 35.519 14.4311 34.9069 13.5573 34.9069H11.9344C11.6582 33.5926 11.4982 32.2575 11.4605 30.9245C11.3678 27.6833 11.9623 24.5121 13.2266 21.4978C13.5214 20.795 13.8564 20.0943 14.2216 19.4161C14.5905 18.7314 14.2469 17.918 13.4553 17.5992C12.663 17.2814 11.7219 17.5773 11.3535 18.262C10.9488 19.0129 10.578 19.7883 10.2523 20.5659C8.85319 23.9011 8.19566 27.4093 8.29701 30.9918C8.33471 32.3013 8.47931 33.6119 8.72465 34.9069H1.58203C0.708206 34.9069 0 35.519 0 36.2741V60.3057C0 61.0608 0.708206 61.6728 1.58203 61.6728H13.5573C14.4311 61.6728 15.1393 61.0608 15.1393 60.3057V59.0058H21.0905L45.1973 67.1768C47.448 67.94 49.8055 68.324 52.1755 68.324C53.7557 68.324 55.3427 68.1531 56.9055 67.8097L75.8003 63.6595C79.3871 62.8718 81.6062 59.802 80.8535 56.6709ZM60.9564 33.0052V54.3707L56.7269 55.2075C56.2721 55.2973 55.8123 55.3683 55.3501 55.4238C53.5876 55.6337 51.7893 55.5894 50.0453 55.2909C50.0379 55.2893 50.0305 55.2882 50.0231 55.2866V53.2134C51.2294 51.6582 51.6292 49.6865 50.997 47.8867C50.8209 47.3847 50.5706 46.9003 50.2523 46.4533C50.18 46.3518 50.1047 46.2525 50.0262 46.1553C50.0256 46.1537 50.0243 46.1526 50.0231 46.151V33.0046H60.9564V33.0052ZM35.9269 17.0016L46.8596 17.0331V43.9795L40.7497 41.7942L35.9269 40.0686V17.0016ZM21.8283 25.9588H32.761V38.9359L30.7989 38.2341C30.6067 38.1652 30.4009 38.13 30.1939 38.13H21.8283V25.9588ZM11.9752 58.9385H3.16406V37.6408H10.628C10.6311 37.6408 10.6348 37.6413 10.6385 37.6413C10.6416 37.6413 10.6441 37.6408 10.6472 37.6408H11.9752V58.9385ZM75.021 61.0095L56.1263 65.1597C52.8646 65.8759 49.4848 65.6927 46.3523 64.6315L21.9674 56.3659C21.7832 56.3034 21.5873 56.2719 21.3896 56.2719H15.1393V40.8649H29.8788L40.115 44.5264L45.7164 46.5302C47.6982 47.2405 48.6468 49.2496 47.8342 50.9602C47.671 51.3036 47.469 51.6299 47.2008 51.921C46.2101 53.0014 44.5793 53.4777 43.0541 53.1573C43.0417 53.1546 43.0294 53.152 43.017 53.1493C42.9256 53.1295 42.8347 53.1066 42.7445 53.0809L32.0998 49.5444C32.0133 49.5156 31.9675 49.5006 31.9675 49.5006C31.1524 49.2293 30.2372 49.5812 29.9233 50.2862C29.6099 50.9906 30.0166 51.7821 30.8323 52.0529C30.8323 52.0529 36.8341 54.047 41.4109 55.5723C41.503 55.6033 41.5944 55.6321 41.6865 55.6588L45.201 56.8268C46.2633 57.1798 47.3206 57.5312 48.4262 57.7753C50.3036 58.1897 52.2521 58.3563 54.1876 58.265C55.279 58.2137 56.3685 58.0834 57.4339 57.873L62.8913 56.7937C62.8969 56.7926 62.9024 56.7905 62.908 56.7894L73.269 54.7397C74.2547 54.5448 75.2664 54.697 76.1167 55.1686C76.9683 55.6407 77.5498 56.3718 77.7556 57.2273C78.1635 58.9219 76.9621 60.5834 75.021 61.0095Z" fill="#1661BE"/>
<path d="M20.2308 11.5013C20.609 11.5013 20.9885 11.3849 21.2907 11.1489C24.1136 8.94534 27.4847 7.18776 31.0412 6.0657C34.8943 4.85019 39.1182 4.33162 43.2568 4.5666C46.2188 4.73483 49.1208 5.28117 51.8819 6.19014C52.6977 6.45877 53.6123 6.10522 53.9231 5.3992C54.2346 4.69371 53.8249 3.90384 53.0079 3.6352C49.9526 2.62904 46.7416 2.02449 43.4644 1.8381C38.8901 1.57855 34.2188 2.15213 29.956 3.49742C26.0213 4.73857 22.2918 6.68307 19.1704 9.11944C18.5215 9.62573 18.4708 10.4904 19.0567 11.0506C19.3687 11.3497 19.7989 11.5013 20.2308 11.5013Z" fill="#1661BE"/>
<path d="M56.1443 21.2586C56.444 21.4834 56.8135 21.5934 57.1812 21.5934C57.6231 21.5934 58.0631 21.4343 58.3764 21.1235L71.3923 8.17525C71.9658 7.60541 71.8954 6.74183 71.236 6.24676C70.576 5.75169 69.5773 5.81204 69.0044 6.38188L55.9879 19.3301C55.4144 19.8999 55.4849 20.7635 56.1443 21.2586Z" fill="#1661BE"/>
<path d="M67.8087 15.4133C65.6186 15.4133 63.8369 16.953 63.8369 18.8457C63.8369 20.7384 65.6186 22.2781 67.8087 22.2781C69.9988 22.2781 71.7804 20.7379 71.7804 18.8457C71.7804 16.953 69.9988 15.4133 67.8087 15.4133ZM67.8087 19.5437C67.3631 19.5437 67.001 19.2308 67.001 18.8457C67.001 18.4612 67.3631 18.1477 67.8087 18.1477C68.2536 18.1477 68.6164 18.4612 68.6164 18.8457C68.6164 19.2308 68.2536 19.5437 67.8087 19.5437Z" fill="#1661BE"/>
<path d="M59.0233 12.3697C61.2134 12.3697 62.995 10.83 62.995 8.93732C62.995 7.04462 61.2134 5.50493 59.0233 5.50493C56.8332 5.50493 55.0515 7.04462 55.0515 8.93732C55.0515 10.83 56.8332 12.3697 59.0233 12.3697ZM59.0233 8.23877C59.4688 8.23877 59.831 8.55226 59.831 8.93732C59.831 9.32184 59.4688 9.63533 59.0233 9.63533C58.5777 9.63533 58.2156 9.32184 58.2156 8.93732C58.2156 8.55226 58.5777 8.23877 59.0233 8.23877Z" fill="#1661BE"/>
<path d="M14.6065 14.7142C14.8599 15.2397 15.4834 15.5869 16.144 15.557C16.7972 15.5276 17.3695 15.1457 17.5716 14.6095C17.7755 14.0685 17.553 13.4522 17.0296 13.1067C16.4963 12.7553 15.7473 12.7334 15.1886 13.0544C14.5688 13.4106 14.3204 14.1209 14.6065 14.7142Z" fill="#1661BE"/>
</svg>
