<svg width="60" height="60" viewBox="0 0 60 60" fill="none" xmlns="http://www.w3.org/2000/svg">
<g clip-path="url(#clip0_115_5752)">
<mask id="mask0_115_5752" style="mask-type:luminance" maskUnits="userSpaceOnUse" x="0" y="0" width="60" height="60">
<path d="M0.689392 0.881237H59.5463V59.7381H0.689392V0.881237Z" fill="white"/>
</mask>
<g mask="url(#mask0_115_5752)">
<path d="M32.2877 55.2263C33.0648 55.9551 32.6845 57.2258 31.9402 57.9708C31.1007 58.8114 29.753 58.7785 28.8842 57.9677L26.8119 56.0307" stroke="white" stroke-width="2.31933" stroke-miterlimit="10" stroke-linecap="round" stroke-linejoin="round"/>
<path d="M24.9658 52.6522C25.1823 52.4553 25.3987 52.3009 25.615 52.1894C27.6808 51.0864 29.4842 53.6306 27.8938 55.0587L26.3561 56.441C24.133 58.437 21.7229 55.5774 23.5034 53.972" stroke="white" stroke-width="2.31933" stroke-miterlimit="10" stroke-linecap="round" stroke-linejoin="round"/>
<path d="M34.3075 39.6251L42.4655 46.8806C45.7444 49.796 42.2557 53.2466 39.4128 50.131" stroke="white" stroke-width="2.31933" stroke-miterlimit="10" stroke-linecap="round" stroke-linejoin="round"/>
<path d="M35.0354 45.8038L39.4129 50.131C40.2588 50.9648 40.2523 52.3502 39.4129 53.1908C38.5735 54.0312 37.0749 54.0443 36.2519 53.1873L36.0355 52.9642" stroke="white" stroke-width="2.31933" stroke-miterlimit="10" stroke-linecap="round" stroke-linejoin="round"/>
<path d="M32.8648 49.7599L36.065 52.9642C37.5799 54.4844 35.4617 58.2073 32.6057 55.5249L31.2352 54.2348" stroke="white" stroke-width="2.31933" stroke-miterlimit="10" stroke-linecap="round" stroke-linejoin="round"/>
<path d="M57.4272 34.8023L47.9773 22.6976C47.2461 21.7585 45.8723 21.5812 44.9246 22.3004L38.7405 27.0147C37.793 27.737 37.6159 29.0931 38.3503 30.0319L47.797 42.1366C48.5314 43.0756 49.9054 43.2529 50.8497 42.5306L57.0371 37.8194C57.9847 37.0972 58.1584 35.7413 57.4272 34.8023Z" stroke="white" stroke-width="2.31933" stroke-miterlimit="10" stroke-linecap="round" stroke-linejoin="round"/>
<path d="M47.3184 41.5261C45.9641 44.0409 45.6003 44.4019 42.4656 46.8807M34.3076 39.6252L31.9565 37.4845L28.189 39.3527C25.0249 40.7511 21.5295 36.8345 26.5693 33.5647L30.2122 31.2008C32.7271 29.5659 35.3142 29.6379 38.3439 30.0255" stroke="white" stroke-width="2.31933" stroke-miterlimit="10" stroke-linecap="round" stroke-linejoin="round"/>
<path d="M12.2174 42.8425L14.152 45.492M29.7335 31.5094L22.005 30.3275" stroke="white" stroke-width="2.31933" stroke-miterlimit="10" stroke-linecap="round" stroke-linejoin="round"/>
<path d="M20.5228 45.4196C22.9985 43.233 25.6412 46.5457 23.7035 48.2529L20.0376 51.477C18.044 53.2368 15.4602 50.1079 17.1291 48.4991C17.4341 48.207 17.2537 48.3713 17.3227 48.3089C17.3948 48.2465 20.5228 45.4196 20.5228 45.4196Z" stroke="white" stroke-width="2.31933" stroke-miterlimit="10" stroke-linecap="round" stroke-linejoin="round"/>
<path d="M14.1519 45.4919L18.0669 42.0119C20.5392 39.8188 23.1295 43.0658 21.2146 44.7959L20.5228 45.4196L16.8897 48.6962C14.8404 50.5479 12.2403 47.1893 14.1519 45.4919Z" stroke="white" stroke-width="2.31933" stroke-miterlimit="10" stroke-linecap="round" stroke-linejoin="round"/>
<path d="M23.4608 48.4664C25.9331 46.2765 28.4842 49.4777 26.5693 51.2079L23.1854 54.2611C21.2443 56.0141 18.3293 52.984 20.5197 51.0535L20.9066 50.7153" stroke="white" stroke-width="2.31933" stroke-miterlimit="10" stroke-linecap="round" stroke-linejoin="round"/>
<path d="M17.9062 13.4C17.9062 17.7236 20.3163 21.4862 23.8641 23.4099C25.4707 24.2768 27.3069 24.7726 29.2613 24.7726C35.5339 24.7726 40.6194 19.6804 40.6194 13.4C40.6194 8.85935 37.9569 4.93617 34.1107 3.11747C32.6419 2.42142 30.9958 2.03081 29.2613 2.03081C22.9885 2.03081 17.9062 7.12273 17.9062 13.4Z" stroke="white" stroke-width="2.31933" stroke-miterlimit="10" stroke-linecap="round" stroke-linejoin="round"/>
<path d="M32.891 15.0809C32.891 15.9772 32.632 16.6961 32.114 17.238C31.5991 17.7797 30.9696 18.1375 30.2351 18.3081V19.9399C30.2351 20.4979 29.7597 20.9576 29.199 20.9576C28.6414 20.9576 28.1858 20.4979 28.1858 19.9399V18.318C27.7266 18.2161 27.3136 18.0454 26.943 17.8092C26.5627 17.5662 26.2971 17.3528 26.1495 17.1688L25.9232 16.8767C24.9855 15.6489 26.5332 14.3357 27.4315 15.2811C27.5431 15.3961 27.6579 15.534 27.7889 15.6817C28.1661 16.102 28.717 16.1676 29.1662 16.1676C30.0154 16.1676 30.4416 15.8162 30.4416 15.1137C30.4416 14.8609 30.2809 14.6673 29.9596 14.5293C29.6383 14.3883 29.2481 14.2667 28.7858 14.155C28.3267 14.0467 27.8677 13.899 27.4087 13.7151C26.9464 13.5314 26.5562 13.2159 26.2348 12.7664C25.9135 12.3165 25.7529 11.7487 25.7529 11.0557C25.7529 10.3664 25.9724 9.74925 26.4053 9.19103C26.8348 8.64281 27.4545 8.27185 28.2021 8.12402V6.73215C28.2021 6.17393 28.6612 5.71445 29.2186 5.71445C29.7793 5.71445 30.2351 6.17393 30.2351 6.73215V7.15886V8.14046C30.5564 8.20943 30.8515 8.30473 31.1138 8.43268C31.3794 8.56073 31.563 8.66258 31.668 8.74455L31.8221 8.88249C33.1565 9.88387 31.868 11.6567 30.7171 10.6882C29.9368 10.0315 28.1661 9.88386 28.1661 11.0919C28.1661 11.3448 28.2842 11.5483 28.5203 11.706C28.7563 11.8601 29.0448 11.9651 29.3891 12.0146C29.7366 12.067 30.1138 12.1525 30.5269 12.2739C30.9434 12.3953 31.3205 12.5363 31.668 12.6974C32.0123 12.8582 32.3008 13.1438 32.5369 13.5509C32.773 13.9614 32.891 14.4702 32.891 15.0809Z" fill="white"/>
<path d="M7.21042 29.6249L7.22461 29.6071" stroke="white" stroke-width="2.31933" stroke-miterlimit="10" stroke-linecap="round" stroke-linejoin="round"/>
<path d="M10.004 26.0463L12.2567 23.1605C12.9911 22.2216 14.3651 22.0443 15.3093 22.7665L21.4969 27.4777C22.4442 28.2 22.6181 29.5559 21.887 30.495L12.437 42.5995C11.7058 43.5385 10.332 43.7157 9.38429 42.9968L3.20018 38.2823C2.2526 37.56 2.07546 36.2041 2.81002 35.2652L4.41674 33.2068" stroke="white" stroke-width="2.31933" stroke-miterlimit="10" stroke-linecap="round" stroke-linejoin="round"/>
</g>
</g>
<defs>
<clipPath id="clip0_115_5752">
<rect width="58.8569" height="58.8569" fill="white" transform="translate(0.689392 0.881378)"/>
</clipPath>
</defs>
</svg>
