<svg width="59" height="59" viewBox="0 0 59 59" fill="none" xmlns="http://www.w3.org/2000/svg">
<g clip-path="url(#clip0_115_5724)">
<path d="M58.1835 47.0319C57.9113 45.7217 57.1411 44.6022 56.0145 43.8794C54.888 43.157 53.5499 42.9237 52.245 43.2221L46.1976 44.6067V42.1345C47.4104 40.992 48.6733 39.5003 49.5714 38.137C51.1463 35.7463 52.2609 33.1209 52.8842 30.3354C53.6251 27.0213 53.6411 23.5129 52.9298 20.1882C52.7987 19.5765 52.1963 19.1861 51.5846 19.3175C50.9724 19.4481 50.5829 20.0505 50.7134 20.6627C51.357 23.6696 51.3429 26.8434 50.6723 29.8405C50.1092 32.3574 49.1018 34.7295 47.6787 36.8901C47.2568 37.5306 46.7451 38.2025 46.1976 38.8443V26.2839C46.1976 25.658 45.6903 25.1507 45.0644 25.1507H36.1004V13.0497C36.1004 12.4255 35.5954 11.9187 34.9712 11.9165L24.8741 11.8824C24.8728 11.8824 24.8719 11.8824 24.8705 11.8824C24.5704 11.8824 24.2827 12.0011 24.0707 12.2131C23.8573 12.4255 23.7374 12.7142 23.7374 13.0156V19.3104H14.7721C14.1466 19.3104 13.6389 19.8177 13.6389 20.4436V31.6651H11.114V30.126C11.114 29.5005 10.6068 28.9933 9.98087 28.9933H8.81849C8.62062 27.9039 8.50598 26.7973 8.47898 25.6925C8.41258 23.0061 8.83841 20.3776 9.74406 17.8794C9.9552 17.2968 10.1951 16.7161 10.4567 16.1539C10.721 15.5865 10.4749 14.9123 9.90783 14.6481C9.34036 14.3847 8.66622 14.6299 8.4024 15.1974C8.11247 15.8197 7.84688 16.4625 7.61361 17.107C6.61146 19.8713 6.14049 22.779 6.21308 25.7483C6.24008 26.8336 6.34366 27.9199 6.51939 28.9933H1.40331C0.777412 28.9933 0.270142 29.5005 0.270142 30.1264V50.0445C0.270142 50.6705 0.777412 51.1777 1.40331 51.1777H9.98087C10.6068 51.1777 11.114 50.6705 11.114 50.0445V48.9672H15.3767L32.6438 55.7396C34.2559 56.3722 35.9446 56.6904 37.6422 56.6904C38.774 56.6904 39.9107 56.5488 41.0302 56.2641L54.564 52.8244C57.1331 52.1715 58.7226 49.6271 58.1835 47.0319ZM43.9317 27.417V45.1254L40.9022 45.8191C40.5764 45.8934 40.2471 45.9523 39.916 45.9983C38.6536 46.1723 37.3655 46.1356 36.1164 45.8881C36.111 45.8868 36.1057 45.8859 36.1004 45.8846V44.1662C36.9645 42.8773 37.2509 41.243 36.798 39.7513C36.6719 39.3352 36.4926 38.9337 36.2646 38.5632C36.2129 38.4791 36.1589 38.3968 36.1026 38.3162C36.1022 38.3149 36.1013 38.314 36.1004 38.3127V27.4166H43.9317V27.417ZM26.0037 14.1527L33.8345 14.1789V36.5129L29.4581 34.7016L26.0037 33.2714V14.1527ZM15.9052 21.5768H23.736V32.3326L22.3306 31.7509C22.193 31.6938 22.0456 31.6646 21.8973 31.6646H15.9052V21.5768ZM8.8477 48.9114H2.53648V31.2592H7.88274C7.88495 31.2592 7.88761 31.2596 7.89026 31.2596C7.89248 31.2596 7.89425 31.2592 7.89646 31.2592H8.8477V48.9114ZM54.0058 50.628L40.472 54.0677C38.1357 54.6613 35.7149 54.5095 33.4711 53.63L16.0048 46.7792C15.8729 46.7274 15.7326 46.7013 15.5909 46.7013H11.114V33.9314H21.6715L29.0035 36.9662L33.0156 38.627C34.4352 39.2157 35.1147 40.8809 34.5326 42.2987C34.4157 42.5833 34.271 42.8538 34.0789 43.095C33.3693 43.9905 32.2012 44.3853 31.1087 44.1198C31.0999 44.1175 31.091 44.1153 31.0822 44.1131C31.0167 44.0967 30.9516 44.0777 30.887 44.0565L23.2624 41.1253C23.2004 41.1014 23.1677 41.089 23.1677 41.089C22.5838 40.8641 21.9283 41.1558 21.7034 41.7401C21.479 42.3239 21.7703 42.9799 22.3545 43.2044C22.3545 43.2044 26.6535 44.8572 29.9317 46.1214C29.9977 46.1471 30.0632 46.171 30.1292 46.1931L32.6465 47.1612C33.4074 47.4538 34.1647 47.745 34.9566 47.9473C36.3014 48.2908 37.697 48.4289 39.0834 48.3532C39.8651 48.3107 40.6455 48.2027 41.4086 48.0283L45.3176 47.1337C45.3216 47.1328 45.3256 47.1311 45.3296 47.1302L52.7509 45.4313C53.4569 45.2697 54.1816 45.3959 54.7906 45.7868C55.4006 46.1781 55.8171 46.784 55.9645 47.4932C56.2567 48.8977 55.3962 50.2747 54.0058 50.628Z" fill="white"/>
<path d="M14.761 9.59395C15.0319 9.59395 15.3037 9.49745 15.5201 9.3018C17.5421 7.47545 19.9567 6.01871 22.5042 5.08871C25.264 4.08125 28.2895 3.65145 31.2539 3.84621C33.3755 3.98564 35.4542 4.43847 37.4319 5.19185C38.0162 5.4145 38.6713 5.12147 38.8939 4.53629C39.117 3.95156 38.8236 3.29689 38.2384 3.07424C36.05 2.2403 33.75 1.73922 31.4026 1.58474C28.1262 1.36962 24.7802 1.84502 21.7269 2.96004C18.9086 3.98874 16.2372 5.60041 14.0014 7.61975C13.5366 8.03938 13.5003 8.75602 13.92 9.22035C14.1435 9.46824 14.4516 9.59395 14.761 9.59395Z" fill="white"/>
<path d="M40.4848 17.6811C40.6995 17.8674 40.9642 17.9586 41.2276 17.9586C41.544 17.9586 41.8592 17.8267 42.0836 17.5691L51.4066 6.83718C51.8174 6.36487 51.7669 5.64912 51.2946 5.23879C50.8219 4.82846 50.1066 4.87848 49.6962 5.35078L40.3728 16.0827C39.962 16.555 40.0125 17.2707 40.4848 17.6811Z" fill="white"/>
<path d="M48.8397 12.8363C47.271 12.8363 45.9948 14.1125 45.9948 15.6812C45.9948 17.2499 47.271 18.5261 48.8397 18.5261C50.4084 18.5261 51.6846 17.2495 51.6846 15.6812C51.6846 14.1125 50.4084 12.8363 48.8397 12.8363ZM48.8397 16.2597C48.5206 16.2597 48.2612 16.0003 48.2612 15.6812C48.2612 15.3625 48.5206 15.1027 48.8397 15.1027C49.1584 15.1027 49.4183 15.3625 49.4183 15.6812C49.4183 16.0003 49.1584 16.2597 48.8397 16.2597Z" fill="white"/>
<path d="M42.5471 10.3137C44.1158 10.3137 45.392 9.03753 45.392 7.4688C45.392 5.90007 44.1158 4.62393 42.5471 4.62393C40.9784 4.62393 39.7022 5.90007 39.7022 7.4688C39.7022 9.03753 40.9784 10.3137 42.5471 10.3137ZM42.5471 6.88982C42.8662 6.88982 43.1256 7.14965 43.1256 7.4688C43.1256 7.78751 42.8662 8.04734 42.5471 8.04734C42.2279 8.04734 41.9685 7.78751 41.9685 7.4688C41.9685 7.14965 42.2279 6.88982 42.5471 6.88982Z" fill="white"/>
<path d="M10.7325 12.2569C10.9139 12.6924 11.3606 12.9802 11.8338 12.9554C12.3016 12.931 12.7115 12.6145 12.8563 12.1701C13.0023 11.7217 12.843 11.2109 12.4681 10.9245C12.0861 10.6333 11.5496 10.6151 11.1494 10.8811C10.7055 11.1764 10.5275 11.7651 10.7325 12.2569Z" fill="white"/>
</g>
<defs>
<clipPath id="clip0_115_5724">
<rect width="58.0183" height="58.0183" fill="white" transform="translate(0.270142 0.061264)"/>
</clipPath>
</defs>
</svg>
