<svg width="52" height="51" viewBox="0 0 52 51" fill="none" xmlns="http://www.w3.org/2000/svg">
<path d="M34.806 15.5034C34.2636 15.5034 33.8232 15.9426 33.8232 16.4858C33.8232 17.0286 34.2636 17.4685 34.806 17.4685C35.3496 17.4685 35.7887 17.0286 35.7887 16.4858C35.7887 15.9426 35.3496 15.5034 34.806 15.5034Z" fill="white"/>
<path d="M16.9501 33.359C16.4066 33.359 15.9674 33.7993 15.9674 34.3417C15.9674 34.8853 16.4066 35.3244 16.9501 35.3244C17.4926 35.3244 17.9329 34.8853 17.9329 34.3417C17.9329 33.7993 17.4926 33.359 16.9501 33.359Z" fill="white"/>
<path d="M49.8143 6.30213C49.4826 6.22497 49.1341 6.32517 48.8945 6.56701L44.8204 10.6734H42.8672L40.7171 8.44573V6.46528L44.7329 2.3896C44.9705 2.14852 45.0672 1.80188 44.9885 1.47212C44.9102 1.14275 44.6676 0.877103 44.3467 0.768848C43.3378 0.428728 42.2821 0.256365 41.2084 0.256365C38.0076 0.256365 35.0997 1.7489 33.2302 4.35124C31.4805 6.78736 30.9411 9.77282 31.7139 12.6301L24.475 19.8689L12.4149 7.78123V5.40884C12.4149 5.06373 12.2337 4.74357 11.9378 4.56622L4.98909 0.396482C4.60214 0.164233 4.10732 0.22527 3.78869 0.544277L1.00938 3.3232C0.69076 3.64221 0.629723 4.13703 0.861588 4.52399L5.03055 11.4726C5.20791 11.7686 5.52768 11.9494 5.87279 11.9498L8.24442 11.9506L20.3056 24.0383L13.0944 31.2495C10.2372 30.4771 7.25016 31.0173 4.81289 32.7682C2.21209 34.6365 0.720703 37.5437 0.720703 40.7445C0.720703 41.8178 0.893066 42.8739 1.23319 43.8823C1.34183 44.2052 1.61016 44.4489 1.94183 44.5257C2.27389 44.6029 2.62207 44.5027 2.862 44.2608L6.93576 40.1548H8.89971L11.1374 42.3925V44.3564L7.03135 48.4302C6.7895 48.6701 6.68931 49.0183 6.76647 49.3503C6.84325 49.682 7.08701 49.9504 7.40986 50.059C8.41832 50.3991 9.47438 50.5715 10.5477 50.5715C13.7485 50.5715 16.6553 49.0797 18.524 46.4789C20.2749 44.0416 20.815 41.055 20.0427 38.1978L25.8343 32.4062L27.161 33.8472L26.5522 34.4557C26.1683 34.8396 26.1683 35.4619 26.5522 35.8457C26.9361 36.2292 27.5579 36.2292 27.9422 35.8457L28.4935 35.2945L40.9412 48.8156C40.9505 48.8256 40.9601 48.8352 40.9697 48.8448C43.2729 51.1481 47.0047 51.1488 49.3091 48.8444C51.607 46.5453 51.607 42.8044 49.3091 40.5053C49.2991 40.4953 49.2888 40.4857 49.2784 40.4761L35.7362 28.0522L36.2813 27.507C36.6652 27.1235 36.6652 26.5013 36.2813 26.1174C35.8974 25.7335 35.2755 25.7335 34.8913 26.1174L34.2866 26.7224L32.8429 25.3972L38.6625 19.5776C39.4898 19.7987 40.3435 19.9108 41.2084 19.9108C46.6273 19.9108 51.0354 15.5023 51.0354 10.0838C51.0354 9.01004 50.8631 7.95436 50.523 6.94552C50.4143 6.62267 50.146 6.37891 49.8143 6.30213ZM9.3477 10.2738C9.16343 10.0891 8.91353 9.99508 8.65249 9.99508L6.42981 9.99432L2.94185 4.17082L4.63592 2.47674L10.4494 5.96547V8.18815C10.4494 8.44842 10.5527 8.69794 10.7366 8.88221L23.0853 21.259L21.6953 22.6486L9.3477 10.2738ZM34.345 29.4433L47.9333 41.9092C49.4512 43.4432 49.4465 45.9269 47.9191 47.4551C46.3882 48.986 43.9098 48.9907 42.3727 47.4686L29.8843 33.9033L34.345 29.4433ZM32.8954 28.1132L28.5518 32.4561L27.2251 31.015L31.4517 26.788L32.8954 28.1132ZM41.2084 17.9453C40.3489 17.9453 39.5036 17.8075 38.6967 17.5357C38.3431 17.4171 37.9523 17.5084 37.6882 17.7722C32.7615 22.6989 22.1456 33.3144 18.2365 37.2239C17.9724 37.488 17.8806 37.8788 18 38.2327C18.8169 40.6585 18.4261 43.2458 16.9275 45.3323C15.433 47.4125 13.1074 48.606 10.5477 48.606C10.2602 48.606 9.9742 48.5903 9.69089 48.5599L12.8122 45.4628C12.998 45.2785 13.1028 45.0274 13.1028 44.7653V41.9852C13.1028 41.7245 12.9992 41.4746 12.8149 41.2904L10.0015 38.4769C9.81719 38.2926 9.56728 38.189 9.30662 38.189H6.52655C6.26435 38.189 6.01329 38.2938 5.82865 38.4796L2.73186 41.6009C2.70115 41.3176 2.6858 41.0316 2.6858 40.7441C2.6858 38.184 3.87891 35.8588 5.95955 34.3643C8.04557 32.8657 10.6333 32.4745 13.0595 33.2918C13.413 33.4112 13.8038 33.3194 14.0679 33.0553C14.122 33.0016 33.5058 13.6174 33.5196 13.6036C33.7838 13.3395 33.8751 12.9491 33.7561 12.5951C32.9388 10.1694 33.3288 7.58277 34.8264 5.4979C36.322 3.41572 38.6479 2.22184 41.208 2.22184C41.5044 2.22184 41.7988 2.23835 42.0906 2.2706L39.0341 5.37275C38.8529 5.55663 38.7516 5.80424 38.7516 6.06221V8.84228C38.7516 9.09718 38.8502 9.34172 39.0272 9.52483L41.7424 12.3383C41.9274 12.5302 42.1827 12.6385 42.4495 12.6385H45.2296C45.4914 12.6385 45.7425 12.5341 45.9271 12.3479L49.0239 9.22693C49.0546 9.51024 49.07 9.79623 49.07 10.0838C49.07 14.4186 45.5432 17.9453 41.2084 17.9453Z" fill="white"/>
<path d="M31.3319 18.5703L19.0342 30.868C18.6507 31.2515 18.6507 31.8738 19.0342 32.2576C19.4181 32.6415 20.0404 32.6415 20.4242 32.2576L32.7219 19.96C33.1058 19.5765 33.1058 18.9542 32.7219 18.5703C32.338 18.1864 31.7158 18.1864 31.3319 18.5703Z" fill="white"/>
<path d="M43.7505 44.6761C44.1344 45.0589 44.7566 45.0589 45.1405 44.6738C45.5236 44.2896 45.5225 43.6673 45.1382 43.2842L36.2801 34.4545C35.8959 34.0714 35.2732 34.0725 34.8905 34.4568C34.507 34.8414 34.5081 35.4633 34.8924 35.8465L43.7505 44.6761Z" fill="white"/>
</svg>
