<svg width="59" height="59" viewBox="0 0 59 59" fill="none" xmlns="http://www.w3.org/2000/svg">
<g clip-path="url(#clip0_1651_200)">
<path d="M57.9134 46.9706C57.6411 45.6604 56.8709 44.541 55.7444 43.8181C54.6179 43.0957 53.2798 42.8625 51.9748 43.1608L45.9274 44.5454V42.0732C47.1403 40.9308 48.4031 39.4391 49.3013 38.0757C50.8762 35.685 51.9908 33.0597 52.614 30.2741C53.355 26.96 53.3709 23.4516 52.6596 20.1269C52.5286 19.5152 51.9262 19.1248 51.3144 19.2562C50.7022 19.3868 50.3127 19.9893 50.4433 20.6014C51.0869 23.6083 51.0727 26.7821 50.4021 29.7792C49.8391 32.2961 48.8316 34.6682 47.4085 36.8288C46.9867 37.4693 46.475 38.1412 45.9274 38.7831V26.2226C45.9274 25.5967 45.4202 25.0894 44.7943 25.0894H35.8303V12.9884C35.8303 12.3643 35.3252 11.8574 34.7011 11.8552L24.6039 11.8212C24.6026 11.8212 24.6017 11.8212 24.6004 11.8212C24.3003 11.8212 24.0126 11.9398 23.8005 12.1518C23.5872 12.3643 23.4672 12.6529 23.4672 12.9543V19.2492H14.5019C13.8765 19.2492 13.3687 19.7564 13.3687 20.3823V31.6038H10.8439V30.0647C10.8439 29.4393 10.3366 28.932 9.71073 28.932H8.54835C8.35048 27.8427 8.23584 26.736 8.20884 25.6312C8.14244 22.9448 8.56826 20.3164 9.47391 17.8181C9.68506 17.2356 9.92497 16.6548 10.1866 16.0927C10.4508 15.5252 10.2047 14.8511 9.63769 14.5868C9.07022 14.3234 8.39608 14.5686 8.13226 15.1361C7.84233 15.7585 7.57674 16.4012 7.34347 17.0457C6.34132 19.81 5.87035 22.7177 5.94294 25.687C5.96994 26.7723 6.07352 27.8586 6.24925 28.932H1.13317C0.50727 28.932 0 29.4393 0 30.0652V49.9833C0 50.6092 0.50727 51.1165 1.13317 51.1165H9.71073C10.3366 51.1165 10.8439 50.6092 10.8439 49.9833V48.9059H15.1066L32.3737 55.6783C33.9858 56.3109 35.6745 56.6291 37.372 56.6291C38.5039 56.6291 39.6406 56.4875 40.76 56.2029L54.2939 52.7631C56.863 52.1102 58.4525 49.5659 57.9134 46.9706ZM43.6615 27.3558V45.0642L40.6321 45.7578C40.3063 45.8322 39.977 45.891 39.6459 45.9371C38.3835 46.111 37.0954 46.0743 35.8462 45.8269C35.8409 45.8255 35.8356 45.8246 35.8303 45.8233V44.105C36.6943 42.816 36.9807 41.1817 36.5279 39.69C36.4017 39.2739 36.2225 38.8725 35.9945 38.502C35.9427 38.4179 35.8887 38.3355 35.8325 38.255C35.8321 38.2537 35.8312 38.2528 35.8303 38.2514V27.3553H43.6615V27.3558ZM25.7336 14.0915L33.5644 14.1176V36.4516L29.188 34.6403L25.7336 33.2102V14.0915ZM15.6351 21.5155H23.4659V32.2713L22.0605 31.6897C21.9228 31.6326 21.7754 31.6034 21.6272 31.6034H15.6351V21.5155ZM8.57756 48.8501H2.26634V31.1979H7.6126C7.61481 31.1979 7.61746 31.1983 7.62012 31.1983C7.62233 31.1983 7.6241 31.1979 7.62632 31.1979H8.57756V48.8501ZM53.7357 50.5667L40.2018 54.0065C37.8656 54.6001 35.4447 54.4482 33.201 53.5687L15.7347 46.7179C15.6028 46.6661 15.4624 46.64 15.3208 46.64H10.8439V33.8701H21.4014L28.7334 36.9049L32.7455 38.5657C34.1651 39.1544 34.8445 40.8197 34.2624 42.2374C34.1456 42.5221 34.0008 42.7925 33.8087 43.0338C33.0992 43.9292 31.931 44.3241 30.8386 44.0585C30.8297 44.0563 30.8209 44.0541 30.812 44.0518C30.7465 44.0355 30.6814 44.0164 30.6168 43.9952L22.9923 41.064C22.9303 41.0401 22.8975 41.0277 22.8975 41.0277C22.3137 40.8028 21.6581 41.0945 21.4333 41.6788C21.2089 42.2627 21.5001 42.9187 22.0844 43.1431C22.0844 43.1431 26.3834 44.7959 29.6616 46.0601C29.7275 46.0858 29.7931 46.1097 29.859 46.1318L32.3763 47.0999C33.1372 47.3925 33.8946 47.6837 34.6865 47.886C36.0312 48.2295 37.4269 48.3676 38.8133 48.2919C39.595 48.2494 40.3754 48.1414 41.1385 47.967L45.0475 47.0725C45.0514 47.0716 45.0554 47.0698 45.0594 47.0689L52.4808 45.37C53.1868 45.2085 53.9114 45.3346 54.5205 45.7255C55.1305 46.1168 55.547 46.7228 55.6944 47.4319C55.9865 48.8364 55.126 50.2135 53.7357 50.5667Z" fill="white"/>
<path d="M14.4908 9.53269C14.7617 9.53269 15.0335 9.43619 15.25 9.24054C17.272 7.41419 19.6866 5.95745 22.234 5.02745C24.9939 4.01999 28.0194 3.59019 30.9838 3.78495C33.1054 3.92438 35.184 4.37721 37.1618 5.13059C37.746 5.35324 38.4012 5.06021 38.6238 4.47503C38.8469 3.8903 38.5534 3.23563 37.9682 3.01298C35.7798 2.17904 33.4798 1.67796 31.1325 1.52348C27.856 1.30836 24.5101 1.78376 21.4567 2.89878C18.6384 3.92748 15.9671 5.53915 13.7313 7.55849C13.2665 7.97812 13.2302 8.69476 13.6498 9.15909C13.8734 9.40698 14.1814 9.53269 14.4908 9.53269Z" fill="white"/>
<path d="M40.2147 17.6198C40.4293 17.8062 40.694 17.8974 40.9574 17.8974C41.2739 17.8974 41.5891 17.7654 41.8135 17.5078L51.1365 6.77591C51.5472 6.30361 51.4968 5.58786 51.0245 5.17753C50.5517 4.7672 49.8364 4.81721 49.4261 5.28952L40.1027 16.0214C39.6919 16.4937 39.7424 17.2095 40.2147 17.6198Z" fill="white"/>
<path d="M48.5696 12.7751C47.0009 12.7751 45.7247 14.0512 45.7247 15.6199C45.7247 17.1887 47.0009 18.4648 48.5696 18.4648C50.1383 18.4648 51.4145 17.1882 51.4145 15.6199C51.4145 14.0512 50.1383 12.7751 48.5696 12.7751ZM48.5696 16.1985C48.2505 16.1985 47.9911 15.9391 47.9911 15.6199C47.9911 15.3012 48.2505 15.0414 48.5696 15.0414C48.8883 15.0414 49.1481 15.3012 49.1481 15.6199C49.1481 15.9391 48.8883 16.1985 48.5696 16.1985Z" fill="white"/>
<path d="M42.277 10.2524C43.8457 10.2524 45.1219 8.97627 45.1219 7.40754C45.1219 5.83881 43.8457 4.56267 42.277 4.56267C40.7083 4.56267 39.4321 5.83881 39.4321 7.40754C39.4321 8.97627 40.7083 10.2524 42.277 10.2524ZM42.277 6.82856C42.5961 6.82856 42.8555 7.0884 42.8555 7.40754C42.8555 7.72625 42.5961 7.98608 42.277 7.98608C41.9579 7.98608 41.6985 7.72625 41.6985 7.40754C41.6985 7.0884 41.9579 6.82856 42.277 6.82856Z" fill="white"/>
<path d="M10.4623 12.1956C10.6438 12.6312 11.0905 12.9189 11.5636 12.8941C12.0315 12.8698 12.4414 12.5533 12.5862 12.1089C12.7322 11.6605 12.5729 11.1496 12.198 10.8633C11.816 10.572 11.2795 10.5538 10.8793 10.8199C10.4353 11.1151 10.2574 11.7038 10.4623 12.1956Z" fill="white"/>
</g>
<defs>
<clipPath id="clip0_1651_200">
<rect width="58.0183" height="58.0183" fill="white"/>
</clipPath>
</defs>
</svg>
