<svg width="65" height="65" viewBox="0 0 65 65" fill="none" xmlns="http://www.w3.org/2000/svg">
<path d="M15.1667 57.4167H13V59.5834H15.1667V57.4167Z" fill="white"/>
<path d="M51.9994 57.4167H49.8328V59.5834H51.9994V57.4167Z" fill="white"/>
<path d="M50.9095 40.8631C48.9979 39.6454 46.7783 38.9991 44.5118 39.0001H33.262C31.1522 39.0007 29.0803 39.5608 27.2576 40.6234L16.7875 46.731C16.5818 46.8509 16.4215 47.0353 16.3311 47.2555C16.2407 47.4758 16.2254 47.7196 16.2875 47.9495C16.3497 48.1793 16.4858 48.3822 16.6748 48.5269C16.8638 48.6716 17.0953 48.7501 17.3333 48.7501H48.6128C49.5387 48.7501 50.4397 48.4497 51.1803 47.8939C51.9209 47.3382 52.4612 46.5572 52.7201 45.6682C52.979 44.7792 52.9424 43.8303 52.6159 42.9638C52.2894 42.0974 51.6906 41.3602 50.9095 40.8631ZM37.9165 46.5834H21.3404L28.3493 42.4949C29.8406 41.6256 31.5358 41.1673 33.262 41.1668H37.9165V46.5834ZM50.6398 45.0624C50.5215 45.5066 50.2573 45.898 49.8897 46.1739C49.522 46.4497 49.0723 46.594 48.6128 46.5834H40.0831V41.1668H44.5118C46.3662 41.1659 48.1823 41.6948 49.7463 42.6911C50.1397 42.9289 50.4416 43.292 50.6037 43.7221C50.7657 44.1521 50.7785 44.6242 50.6398 45.0624Z" fill="white"/>
<path d="M37.9166 50.9167H33.5833V53.0834H37.9166V50.9167Z" fill="white"/>
<path d="M62.3869 41.923L58.8961 41.2248L51.8259 36.9827C49.3004 35.4676 46.4106 34.6672 43.4655 34.667H33.0935C30.391 34.6691 27.7314 35.3431 25.3541 36.6285L6.92751 46.6096C5.47493 47.3983 4.20186 48.48 3.18885 49.7861C2.17583 51.0922 1.44492 52.5943 1.04234 54.1975L0.0323465 58.2374C-0.00758329 58.3971 -0.010586 58.5638 0.0235666 58.7249C0.0577192 58.8859 0.128129 59.0371 0.229446 59.1668C0.330763 59.2966 0.460323 59.4016 0.608283 59.4738C0.756243 59.546 0.918711 59.5835 1.08334 59.5835H7.6753C7.93103 61.098 8.71494 62.473 9.88796 63.4645C11.061 64.4561 12.5473 65.0001 14.0832 65.0001C15.6192 65.0001 17.1055 64.4561 18.2785 63.4645C19.4516 62.473 20.2355 61.098 20.4912 59.5835H44.5084C44.7641 61.098 45.548 62.473 46.721 63.4645C47.8941 64.4561 49.3804 65.0001 50.9163 65.0001C52.4523 65.0001 53.9386 64.4561 55.1116 63.4645C56.2846 62.473 57.0685 61.098 57.3243 59.5835H57.4163C59.4268 59.5812 61.3543 58.7815 62.7759 57.3599C64.1976 55.9382 64.9973 54.0107 64.9995 52.0002V45.1098C64.9979 44.3589 64.737 43.6317 64.2609 43.051C63.7849 42.4703 63.1229 42.0718 62.3869 41.923ZM7.29498 48.9136C7.48063 49.1129 7.58368 49.3753 7.5833 49.6477V49.8335C7.58297 50.1208 7.46873 50.3961 7.26564 50.5992C7.06254 50.8023 6.78719 50.9165 6.49997 50.9169H5.06138C5.69819 50.138 6.45163 49.4622 7.29498 48.9136ZM14.0832 62.8335C13.2262 62.8335 12.3884 62.5793 11.6758 62.1032C10.9632 61.627 10.4078 60.9502 10.0798 60.1584C9.75182 59.3666 9.66601 58.4953 9.83321 57.6548C10.0004 56.8142 10.4131 56.0421 11.0191 55.436C11.6252 54.83 12.3973 54.4173 13.2379 54.2501C14.0784 54.0829 14.9497 54.1687 15.7415 54.4967C16.5333 54.8247 17.2101 55.3801 17.6863 56.0927C18.1624 56.8053 18.4165 57.6431 18.4165 58.5002C18.4153 59.649 17.9583 60.7505 17.1459 61.5628C16.3336 62.3752 15.2321 62.8322 14.0832 62.8335ZM50.9163 62.8335C50.0593 62.8335 49.2215 62.5793 48.5089 62.1032C47.7962 61.627 47.2408 60.9502 46.9129 60.1584C46.5849 59.3666 46.4991 58.4953 46.6663 57.6548C46.8335 56.8142 47.2462 56.0421 47.8522 55.436C48.4582 54.83 49.2304 54.4173 50.0709 54.2501C50.9115 54.0829 51.7828 54.1687 52.5746 54.4967C53.3664 54.8247 54.0432 55.3801 54.5193 56.0927C54.9955 56.8053 55.2496 57.6431 55.2496 58.5002C55.2483 59.649 54.7914 60.7505 53.979 61.5628C53.1666 62.3752 52.0652 62.8322 50.9163 62.8335ZM62.8329 52.0002C62.8313 53.4363 62.2601 54.8131 61.2446 55.8285C60.2291 56.844 58.8523 57.4152 57.4163 57.4168H57.3243C57.0685 55.9023 56.2846 54.5273 55.1116 53.5358C53.9386 52.5442 52.4523 52.0002 50.9163 52.0002C49.3804 52.0002 47.8941 52.5442 46.721 53.5358C45.548 54.5273 44.7641 55.9023 44.5084 57.4168H20.4912C20.2355 55.9023 19.4516 54.5273 18.2785 53.5358C17.1055 52.5442 15.6192 52.0002 14.0832 52.0002C12.5473 52.0002 11.061 52.5442 9.88796 53.5358C8.71494 54.5273 7.93103 55.9023 7.6753 57.4168H2.47083L3.14433 54.723C3.2861 54.1604 3.47805 53.6118 3.71788 53.0835H6.49997C7.36162 53.0826 8.18771 52.7398 8.79699 52.1306C9.40627 51.5213 9.74898 50.6952 9.74995 49.8335V49.6477C9.75165 49.0044 9.56106 48.3754 9.20266 47.8412L26.386 38.5336C28.4464 37.4196 30.7514 36.8354 33.0935 36.8336H43.4655C46.018 36.8338 48.5224 37.5275 50.7113 38.8406L57.9422 43.1792C58.0487 43.2431 58.1654 43.2882 58.2871 43.3126L60.8161 43.8184L59.4515 45.1829C59.1488 45.484 58.9088 45.8422 58.7454 46.2366C58.582 46.6311 58.4984 47.0541 58.4996 47.481V47.6669C58.5006 48.5285 58.8433 49.3546 59.4526 49.9639C60.0618 50.5732 60.8879 50.9159 61.7496 50.9169H62.8329V52.0002ZM62.8329 48.7502H61.7496C61.4624 48.7499 61.187 48.6357 60.9839 48.4326C60.7808 48.2295 60.6666 47.9541 60.6662 47.6669V47.481C60.6659 47.3387 60.6937 47.1977 60.7482 47.0662C60.8026 46.9347 60.8826 46.8153 60.9836 46.715L62.8092 44.8893C62.8247 44.9618 62.8326 45.0357 62.8329 45.1098V48.7502Z" fill="white"/>
<path d="M31.4164 6.31408V32.5002H33.5831V6.31408C34.3059 6.05853 34.9151 5.55568 35.303 4.89441C35.6909 4.23313 35.8326 3.45601 35.7029 2.7004C35.5733 1.94478 35.1807 1.25933 34.5945 0.765176C34.0084 0.271026 33.2664 0 32.4997 0C31.7331 0 30.9911 0.271026 30.405 0.765176C29.8188 1.25933 29.4262 1.94478 29.2966 2.7004C29.1669 3.45601 29.3086 4.23313 29.6965 4.89441C30.0844 5.55568 30.6936 6.05853 31.4164 6.31408ZM32.4997 2.16713C32.714 2.16713 32.9234 2.23066 33.1016 2.3497C33.2798 2.46874 33.4186 2.63793 33.5006 2.83588C33.5826 3.03383 33.604 3.25165 33.5622 3.4618C33.5204 3.67194 33.4173 3.86497 33.2658 4.01648C33.1143 4.16798 32.9212 4.27116 32.7111 4.31296C32.5009 4.35476 32.2831 4.33331 32.0852 4.25131C31.8872 4.16932 31.718 4.03047 31.599 3.85232C31.4799 3.67416 31.4164 3.46471 31.4164 3.25045C31.4167 2.96324 31.531 2.68788 31.7341 2.48479C31.9372 2.2817 32.2125 2.16746 32.4997 2.16713Z" fill="white"/>
<path d="M22.7499 9.56408V21.667C22.7499 21.8093 22.7779 21.9501 22.8324 22.0816C22.8868 22.213 22.9666 22.3324 23.0672 22.433L25.9999 25.3657V33.5836H28.1665V24.917C28.1665 24.7747 28.1385 24.6338 28.0841 24.5024C28.0296 24.371 27.9498 24.2516 27.8492 24.151L24.9166 21.2182V9.56408C25.6394 9.30853 26.2486 8.80568 26.6365 8.14441C27.0244 7.48313 27.166 6.70601 27.0364 5.9504C26.9068 5.19478 26.5142 4.50933 25.928 4.01518C25.3419 3.52103 24.5999 3.25 23.8332 3.25C23.0666 3.25 22.3246 3.52103 21.7385 4.01518C21.1523 4.50933 20.7597 5.19478 20.6301 5.9504C20.5004 6.70601 20.6421 7.48313 21.03 8.14441C21.4179 8.80568 22.0271 9.30853 22.7499 9.56408ZM23.8332 5.41713C24.0475 5.41713 24.2569 5.48066 24.4351 5.5997C24.6132 5.71874 24.7521 5.88793 24.8341 6.08588C24.9161 6.28383 24.9375 6.50165 24.8957 6.7118C24.8539 6.92194 24.7508 7.11497 24.5993 7.26648C24.4478 7.41798 24.2547 7.52116 24.0446 7.56296C23.8344 7.60476 23.6166 7.58331 23.4187 7.50131C23.2207 7.41932 23.0515 7.28047 22.9325 7.10232C22.8134 6.92416 22.7499 6.71471 22.7499 6.50045C22.7502 6.21324 22.8645 5.93788 23.0676 5.73479C23.2707 5.5317 23.546 5.41746 23.8332 5.41713Z" fill="white"/>
<path d="M9.74998 13.0004C10.2347 13.0009 10.7133 12.8924 11.1503 12.6828L18.4166 19.9491V36.8335H20.5832V19.5003C20.5832 19.3581 20.5552 19.2172 20.5008 19.0858C20.4463 18.9543 20.3665 18.8349 20.2659 18.7343L12.6823 11.1508C12.9859 10.515 13.0746 9.79779 12.9351 9.10722C12.7956 8.41666 12.4354 7.79013 11.9089 7.32203C11.3824 6.85393 10.718 6.56961 10.0159 6.5119C9.31374 6.45419 8.61186 6.62623 8.01598 7.00209C7.42011 7.37794 6.96251 7.93727 6.71214 8.59579C6.46177 9.25431 6.43218 9.97636 6.62783 10.6532C6.82348 11.33 7.23377 11.9249 7.7969 12.3482C8.36002 12.7716 9.04547 13.0005 9.74998 13.0004ZM9.74998 8.66709C9.96424 8.66709 10.1737 8.73062 10.3518 8.84966C10.53 8.9687 10.6689 9.13789 10.7508 9.33584C10.8328 9.53379 10.8543 9.75162 10.8125 9.96176C10.7707 10.1719 10.6675 10.3649 10.516 10.5164C10.3645 10.6679 10.1715 10.7711 9.96133 10.8129C9.75118 10.8547 9.53336 10.8333 9.33541 10.7513C9.13746 10.6693 8.96827 10.5304 8.84923 10.3523C8.73019 10.1741 8.66666 9.96468 8.66666 9.75041C8.66699 9.4632 8.78123 9.18784 8.98432 8.98475C9.18741 8.78166 9.46277 8.66742 9.74998 8.66709Z" fill="white"/>
<path d="M5.41673 23.8335C5.90143 23.834 6.38003 23.7255 6.81707 23.5159L11.9167 28.6155V41.1667H14.0833V28.1668C14.0833 28.0246 14.0553 27.8837 14.0009 27.7523C13.9464 27.6208 13.8666 27.5014 13.766 27.4008L8.3491 21.9839C8.65262 21.3481 8.74131 20.6309 8.60182 19.9404C8.46232 19.2498 8.10219 18.6233 7.57567 18.1552C7.04916 17.6871 6.38478 17.4027 5.68264 17.345C4.98049 17.2873 4.27861 17.4594 3.68273 17.8352C3.08686 18.2111 2.62926 18.7704 2.37889 19.4289C2.12852 20.0874 2.09893 20.8095 2.29458 21.4863C2.49023 22.1631 2.90052 22.758 3.46364 23.1813C4.02677 23.6047 4.71222 23.8336 5.41673 23.8335ZM5.41673 19.5002C5.63099 19.5002 5.84044 19.5638 6.01859 19.6828C6.19675 19.8018 6.3356 19.971 6.41759 20.169C6.49959 20.3669 6.52104 20.5847 6.47924 20.7949C6.43744 21.005 6.33426 21.1981 6.18276 21.3496C6.03125 21.5011 5.83822 21.6043 5.62808 21.6461C5.41793 21.6879 5.20011 21.6664 5.00216 21.5844C4.80421 21.5024 4.63502 21.3636 4.51598 21.1854C4.39694 21.0073 4.33341 20.7978 4.33341 20.5835C4.33373 20.2963 4.44798 20.021 4.65107 19.8179C4.85416 19.6148 5.12952 19.5005 5.41673 19.5002Z" fill="white"/>
<path d="M3.24998 38.6247C3.63817 38.6249 4.02324 38.5553 4.38675 38.4191L8.98392 43.0162L10.5159 41.4842L6.0513 37.0195C6.41366 36.4018 6.56174 35.6816 6.47251 34.971C6.38327 34.2603 6.06173 33.5991 5.55788 33.0901C5.05403 32.5811 4.39611 32.2529 3.68644 32.1564C2.97676 32.06 2.25511 32.2007 1.63369 32.5568C1.01227 32.9129 0.525922 33.4643 0.250273 34.1253C-0.0253765 34.7863 -0.0748771 35.5199 0.109469 36.212C0.293814 36.9041 0.701674 37.5158 1.26962 37.9521C1.83757 38.3885 2.53378 38.6249 3.24998 38.6247ZM3.24998 34.2914C3.46424 34.2914 3.67369 34.3549 3.85184 34.4739C4.02999 34.593 4.16885 34.7622 4.25084 34.9601C4.33284 35.1581 4.35429 35.3759 4.31249 35.586C4.27069 35.7962 4.16751 35.9892 4.01601 36.1407C3.8645 36.2922 3.67147 36.3954 3.46133 36.4372C3.25118 36.479 3.03336 36.4575 2.83541 36.3755C2.63746 36.2935 2.46826 36.1547 2.34923 35.9765C2.23019 35.7984 2.16665 35.5889 2.16665 35.3747C2.16698 35.0875 2.28122 34.8121 2.48432 34.609C2.68741 34.4059 2.96276 34.2917 3.24998 34.2914Z" fill="white"/>
<path d="M38.9999 25.3657L41.9326 22.433C42.0332 22.3324 42.113 22.213 42.1674 22.0816C42.2219 21.9501 42.2499 21.8093 42.2499 21.667V9.56408C42.9727 9.30853 43.5819 8.80568 43.9698 8.14441C44.3577 7.48313 44.4994 6.70601 44.3697 5.9504C44.2401 5.19478 43.8475 4.50933 43.2613 4.01518C42.6752 3.52103 41.9332 3.25 41.1666 3.25C40.3999 3.25 39.6579 3.52103 39.0718 4.01518C38.4856 4.50933 38.093 5.19478 37.9634 5.9504C37.8337 6.70601 37.9754 7.48313 38.3633 8.14441C38.7512 8.80568 39.3604 9.30853 40.0832 9.56408V21.2182L37.1506 24.151C37.05 24.2516 36.9702 24.371 36.9157 24.5024C36.8613 24.6338 36.8332 24.7747 36.8333 24.917V32.5003H38.9999V25.3657ZM41.1666 5.41713C41.3808 5.41713 41.5903 5.48066 41.7684 5.5997C41.9466 5.71874 42.0854 5.88793 42.1674 6.08588C42.2494 6.28383 42.2709 6.50165 42.2291 6.7118C42.1873 6.92194 42.0841 7.11497 41.9326 7.26648C41.7811 7.41798 41.588 7.52116 41.3779 7.56296C41.1678 7.60476 40.9499 7.58331 40.752 7.50131C40.554 7.41932 40.3848 7.28047 40.2658 7.10232C40.1468 6.92416 40.0832 6.71471 40.0832 6.50045C40.0836 6.21324 40.1978 5.93788 40.4009 5.73479C40.604 5.5317 40.8793 5.41746 41.1666 5.41713Z" fill="white"/>
<path d="M44.4165 19.5003V32.5002H46.5832V19.949L53.8494 12.6827C54.5415 13.0133 55.3281 13.0887 56.0704 12.8954C56.8126 12.7021 57.4626 12.2526 57.9054 11.6264C58.3483 11.0002 58.5555 10.2376 58.4905 9.47335C58.4254 8.70913 58.0923 7.99252 57.5499 7.45018C57.0076 6.90784 56.291 6.5747 55.5268 6.50965C54.7625 6.44459 53.9999 6.65181 53.3737 7.09467C52.7475 7.53753 52.298 8.18752 52.1047 8.92974C51.9114 9.67196 51.9868 10.4586 52.3174 11.1507L44.7338 18.7343C44.6332 18.8348 44.5534 18.9543 44.499 19.0857C44.4445 19.2171 44.4165 19.358 44.4165 19.5003ZM55.2498 8.66701C55.464 8.66701 55.6735 8.73055 55.8516 8.84958C56.0298 8.96862 56.1686 9.13781 56.2506 9.33577C56.3326 9.53372 56.3541 9.75154 56.3123 9.96168C56.2705 10.1718 56.1673 10.3649 56.0158 10.5164C55.8643 10.6679 55.6712 10.771 55.4611 10.8128C55.251 10.8546 55.0331 10.8332 54.8352 10.7512C54.6372 10.6692 54.468 10.5304 54.349 10.3522C54.23 10.174 54.1664 9.9646 54.1664 9.75034C54.1668 9.46312 54.281 9.18776 54.4841 8.98467C54.6872 8.78158 54.9625 8.66734 55.2498 8.66701Z" fill="white"/>
<path d="M56.3331 20.5837C56.3326 21.0684 56.4412 21.547 56.6507 21.9841L51.2338 27.401C51.1332 27.5016 51.0534 27.621 50.999 27.7524C50.9445 27.8839 50.9165 28.0247 50.9165 28.167V34.667H53.0832V28.6157L58.1828 23.5161C58.8185 23.8196 59.5357 23.9083 60.2263 23.7688C60.9169 23.6293 61.5434 23.2692 62.0115 22.7427C62.4796 22.2161 62.7639 21.5518 62.8216 20.8496C62.8793 20.1475 62.7073 19.4456 62.3314 18.8497C61.9556 18.2538 61.3963 17.7963 60.7377 17.5459C60.0792 17.2955 59.3572 17.2659 58.6804 17.4616C58.0036 17.6572 57.4087 18.0675 56.9853 18.6306C56.562 19.1938 56.3331 19.8792 56.3331 20.5837ZM59.5831 19.5004C59.7974 19.5004 60.0068 19.5639 60.185 19.683C60.3631 19.802 60.502 19.9712 60.584 20.1692C60.666 20.3671 60.6874 20.5849 60.6456 20.7951C60.6038 21.0052 60.5006 21.1982 60.3491 21.3498C60.1976 21.5013 60.0046 21.6044 59.7945 21.6462C59.5843 21.688 59.3665 21.6666 59.1685 21.5846C58.9706 21.5026 58.8014 21.3637 58.6824 21.1856C58.5633 21.0074 58.4998 20.798 58.4998 20.5837C58.5001 20.2965 58.6144 20.0212 58.8174 19.8181C59.0205 19.615 59.2959 19.5007 59.5831 19.5004Z" fill="white"/>
<path d="M58.4995 31.417C58.499 31.974 58.6427 32.5217 58.9165 33.0067L55.6023 36.0337L57.0634 37.6335L60.5596 34.4404C61.206 34.6946 61.917 34.735 62.588 34.5556C63.2591 34.3763 63.8551 33.9865 64.2884 33.4437C64.7218 32.9008 64.9698 32.2333 64.996 31.5392C65.0223 30.845 64.8254 30.1607 64.4342 29.5867C64.0431 29.0126 63.4783 28.579 62.8227 28.3495C62.167 28.12 61.4551 28.1066 60.7913 28.3113C60.1275 28.516 59.5468 28.9281 59.1343 29.487C58.7219 30.0459 58.4994 30.7223 58.4995 31.417ZM62.8328 31.417C62.8328 31.6312 62.7693 31.8407 62.6502 32.0188C62.5312 32.197 62.362 32.3358 62.1641 32.4178C61.9661 32.4998 61.7483 32.5213 61.5381 32.4795C61.328 32.4377 61.135 32.3345 60.9835 32.183C60.832 32.0315 60.7288 31.8385 60.687 31.6283C60.6452 31.4182 60.6666 31.2003 60.7486 31.0024C60.8306 30.8044 60.9695 30.6353 61.1476 30.5162C61.3258 30.3972 61.5352 30.3336 61.7495 30.3336C62.0367 30.334 62.3121 30.4482 62.5152 30.6513C62.7182 30.8544 62.8325 31.1298 62.8328 31.417Z" fill="white"/>
</svg>
