<svg width="69" height="69" viewBox="0 0 69 69" fill="none" xmlns="http://www.w3.org/2000/svg">
<path d="M67.85 19.55H1.15C0.5152 19.55 0 19.0359 0 18.4C0 15.1259 1.2742 12.0485 3.58915 9.73475C4.98295 8.34095 5.75 6.48945 5.75 4.51835V3.3304C5.75 1.495 7.24385 0 9.0804 0H59.9196C61.7561 0 63.25 1.495 63.25 3.3304V4.5172C63.25 6.4883 64.017 8.3398 65.4108 9.7336C67.7258 12.0485 69 15.1259 69 18.4C69 19.0359 68.4848 19.55 67.85 19.55ZM2.36555 17.25H66.6356C66.3814 15.0247 65.3913 12.9662 63.7847 11.3608C61.9562 9.53235 60.95 7.1024 60.95 4.51835V3.3304C60.95 2.7623 60.4877 2.3 59.9196 2.3H9.0804C8.5123 2.3 8.05 2.7623 8.05 3.3304V4.5172C8.05 7.10125 7.04375 9.5312 5.2164 11.3597C3.6087 12.9663 2.6197 15.0247 2.36555 17.25Z" fill="white"/>
<path d="M12.65 19.55C12.0152 19.55 11.5 19.0359 11.5 18.4V17.1523C11.5 14.751 12.1532 12.3924 13.3894 10.3327C14.4106 8.63075 14.95 6.68265 14.95 4.69775V1.15C14.95 0.51405 15.4652 0 16.1 0C16.7348 0 17.25 0.51405 17.25 1.15V4.69775C17.25 7.09895 16.5968 9.4576 15.3606 11.5173C14.3394 13.2192 13.8 15.1685 13.8 17.1523V18.4C13.8 19.0359 13.2848 19.55 12.65 19.55Z" fill="white"/>
<path d="M24.15 19.55C23.5152 19.55 23 19.0359 23 18.4V16.7325C23 14.712 23.2013 12.6822 23.598 10.6996C23.9637 8.86535 24.15 6.9874 24.15 5.1175V1.15C24.15 0.51405 24.6652 0 25.3 0C25.9348 0 26.45 0.51405 26.45 1.15V5.1175C26.45 7.13805 26.2487 9.1678 25.852 11.1504C25.4863 12.9846 25.3 14.8626 25.3 16.7325V18.4C25.3 19.0359 24.7848 19.55 24.15 19.55Z" fill="white"/>
<path d="M34.5001 19.55C33.8653 19.55 33.3501 19.0359 33.3501 18.4V1.15C33.3501 0.51405 33.8653 0 34.5001 0C35.1349 0 35.6501 0.51405 35.6501 1.15V18.4C35.6501 19.0359 35.1349 19.55 34.5001 19.55Z" fill="white"/>
<path d="M44.85 19.55C44.2152 19.55 43.7 19.0359 43.7 18.4V16.7325C43.7 14.8626 43.5137 12.9846 43.148 11.1504C42.7513 9.16895 42.55 7.13805 42.55 5.1175V1.15C42.55 0.51405 43.0652 0 43.7 0C44.3348 0 44.85 0.51405 44.85 1.15V5.1175C44.85 6.9874 45.0363 8.86535 45.402 10.6996C45.7988 12.681 46 14.712 46 16.7325V18.4C46 19.0359 45.4848 19.55 44.85 19.55Z" fill="white"/>
<path d="M56.35 19.55C55.7152 19.55 55.2 19.0359 55.2 18.4V17.1523C55.2 15.1673 54.6607 13.2192 53.6395 11.5173C52.4032 9.4576 51.75 7.09895 51.75 4.69775V1.15C51.75 0.51405 52.2652 0 52.9 0C53.5348 0 54.05 0.51405 54.05 1.15V4.69775C54.05 6.68265 54.5893 8.63075 55.6105 10.3327C56.8468 12.3924 57.5 14.751 57.5 17.1523V18.4C57.5 19.0359 56.9848 19.55 56.35 19.55Z" fill="white"/>
<path d="M7.475 26.45H6.325C2.83705 26.45 0 23.6118 0 20.125V18.4C0 17.764 0.5152 17.25 1.15 17.25H12.65C13.2848 17.25 13.8 17.764 13.8 18.4V20.125C13.8 23.6118 10.9629 26.45 7.475 26.45ZM2.3 19.55V20.125C2.3 22.3445 4.1055 24.15 6.325 24.15H7.475C9.6945 24.15 11.5 22.3445 11.5 20.125V19.55H2.3Z" fill="white"/>
<path d="M18.975 26.45H17.825C14.337 26.45 11.5 23.6118 11.5 20.125V18.4C11.5 17.764 12.0152 17.25 12.65 17.25H24.15C24.7848 17.25 25.3 17.764 25.3 18.4V20.125C25.3 23.6118 22.4629 26.45 18.975 26.45ZM13.8 19.55V20.125C13.8 22.3445 15.6055 24.15 17.825 24.15H18.975C21.1945 24.15 23 22.3445 23 20.125V19.55H13.8Z" fill="white"/>
<path d="M51.175 26.45H50.025C46.537 26.45 43.7 23.6118 43.7 20.125V18.4C43.7 17.764 44.2152 17.25 44.85 17.25H56.35C56.9848 17.25 57.5 17.764 57.5 18.4V20.125C57.5 23.6118 54.6629 26.45 51.175 26.45ZM46 19.55V20.125C46 22.3445 47.8055 24.15 50.025 24.15H51.175C53.3945 24.15 55.2 22.3445 55.2 20.125V19.55H46Z" fill="white"/>
<path d="M62.675 26.45H61.525C58.037 26.45 55.2 23.6118 55.2 20.125V18.4C55.2 17.764 55.7152 17.25 56.35 17.25H67.85C68.4848 17.25 69 17.764 69 18.4V20.125C69 23.6118 66.1629 26.45 62.675 26.45ZM57.5 19.55V20.125C57.5 22.3445 59.3055 24.15 61.525 24.15H62.675C64.8945 24.15 66.7 22.3445 66.7 20.125V19.55H57.5Z" fill="white"/>
<path d="M29.325 26.45C25.837 26.45 23 23.6118 23 20.125V18.4C23 17.764 23.5152 17.25 24.15 17.25H34.5C35.1348 17.25 35.65 17.764 35.65 18.4V20.125C35.65 23.6118 32.8129 26.45 29.325 26.45ZM25.3 19.55V20.125C25.3 22.3445 27.1055 24.15 29.325 24.15C31.5445 24.15 33.35 22.3445 33.35 20.125V19.55H25.3Z" fill="white"/>
<path d="M39.6751 26.45C36.1871 26.45 33.3501 23.6118 33.3501 20.125V18.4C33.3501 17.764 33.8653 17.25 34.5001 17.25H44.8501C45.4849 17.25 46.0001 17.764 46.0001 18.4V20.125C46.0001 23.6118 43.163 26.45 39.6751 26.45ZM35.6501 19.55V20.125C35.6501 22.3445 37.4556 24.15 39.6751 24.15C41.8946 24.15 43.7001 22.3445 43.7001 20.125V19.55H35.6501Z" fill="white"/>
<path d="M64.3999 69H4.59995C3.96515 69 3.44995 68.4859 3.44995 67.8499V24.9837C3.44995 24.61 3.63165 24.2604 3.9364 24.0453C4.2423 23.8291 4.63215 23.7751 4.98405 23.9004C5.46015 24.0683 5.8983 24.15 6.32495 24.15H7.47495C9.162 24.15 10.6788 23.0713 11.2492 21.4647C11.4125 21.007 11.8461 20.7 12.3326 20.7H12.9662C13.4526 20.7 13.8874 21.007 14.0495 21.4647C14.621 23.0713 16.1379 24.15 17.8249 24.15H18.9749C20.662 24.15 22.1788 23.0713 22.7492 21.4647C22.9125 21.007 23.3461 20.7 23.8326 20.7H24.4662C24.9526 20.7 25.3873 21.007 25.5495 21.4647C26.121 23.0713 27.6379 24.15 29.3249 24.15C31.012 24.15 32.5288 23.0713 33.0992 21.4647C33.2625 21.007 33.6961 20.7 34.1825 20.7H34.8162C35.3026 20.7 35.7373 21.007 35.8995 21.4647C36.471 23.0713 37.9879 24.15 39.6749 24.15C41.362 24.15 42.8788 23.0713 43.4492 21.4647C43.6125 21.007 44.0461 20.7 44.5325 20.7H45.1662C45.6526 20.7 46.0873 21.007 46.2495 21.4647C46.821 23.0713 48.3379 24.15 50.0249 24.15H51.1749C52.862 24.15 54.3788 23.0713 54.9492 21.4647C55.1125 21.007 55.5461 20.7 56.0325 20.7H56.6662C57.1526 20.7 57.5873 21.007 57.7495 21.4647C58.321 23.0713 59.8379 24.15 61.5249 24.15H62.6749C63.1016 24.15 63.5397 24.0683 64.0158 23.8993C64.3677 23.7728 64.7587 23.828 65.0635 24.0442C65.3682 24.2604 65.5499 24.6088 65.5499 24.9837V67.8499C65.5499 68.4859 65.0347 69 64.3999 69ZM5.74995 66.7H63.2499V26.4212C63.0579 26.4396 62.867 26.45 62.6749 26.45H61.5249C59.4354 26.45 57.5114 25.4023 56.3499 23.7291C55.1884 25.4023 53.2645 26.45 51.1749 26.45H50.0249C47.9354 26.45 46.0114 25.4023 44.8499 23.7291C43.6884 25.4023 41.7645 26.45 39.6749 26.45C37.5854 26.45 35.6614 25.4023 34.4999 23.7291C33.3384 25.4023 31.4145 26.45 29.3249 26.45C27.2354 26.45 25.3114 25.4023 24.1499 23.7291C22.9884 25.4023 21.0645 26.45 18.9749 26.45H17.8249C15.7354 26.45 13.8115 25.4023 12.65 23.7291C11.4885 25.4023 9.5645 26.45 7.47495 26.45H6.32495C6.1329 26.45 5.942 26.4396 5.74995 26.4212V66.7Z" fill="white"/>
<path d="M27.6 69H9.20005C8.56525 69 8.05005 68.486 8.05005 67.85V31.05C8.05005 30.4141 8.56525 29.9 9.20005 29.9H27.6C28.2348 29.9 28.75 30.4141 28.75 31.05V67.85C28.75 68.486 28.2348 69 27.6 69ZM10.35 66.7H26.45V32.2H10.35V66.7Z" fill="white"/>
<path d="M11.5 40.25H9.20005C8.56525 40.25 8.05005 39.7359 8.05005 39.1C8.05005 38.464 8.56525 37.95 9.20005 37.95H11.5C12.1348 37.95 12.65 38.464 12.65 39.1C12.65 39.7359 12.1348 40.25 11.5 40.25Z" fill="white"/>
<path d="M11.5 60.95H9.20005C8.56525 60.95 8.05005 60.436 8.05005 59.8C8.05005 59.1641 8.56525 58.65 9.20005 58.65H11.5C12.1348 58.65 12.65 59.1641 12.65 59.8C12.65 60.436 12.1348 60.95 11.5 60.95Z" fill="white"/>
<path d="M59.8 64.4H32.2C31.5652 64.4 31.05 63.8859 31.05 63.25V29.9C31.05 29.2641 31.5652 28.75 32.2 28.75H59.8C60.4348 28.75 60.95 29.2641 60.95 29.9V63.25C60.95 63.8859 60.4348 64.4 59.8 64.4ZM33.35 62.1H58.65V31.05H33.35V62.1Z" fill="white"/>
<path d="M22.9999 52.9C22.3651 52.9 21.8499 52.386 21.8499 51.75V49.45H19.5499C18.9151 49.45 18.3999 48.936 18.3999 48.3C18.3999 47.6641 18.9151 47.15 19.5499 47.15H22.9999C23.6347 47.15 24.1499 47.6641 24.1499 48.3V51.75C24.1499 52.386 23.6347 52.9 22.9999 52.9Z" fill="white"/>
<path d="M67.85 69H1.15C0.5152 69 0 68.4859 0 67.85C0 67.214 0.5152 66.7 1.15 66.7H67.85C68.4848 66.7 69 67.214 69 67.85C69 68.4859 68.4848 69 67.85 69Z" fill="white"/>
<path d="M45.9998 59.8C42.8132 59.8 40.6305 59.1434 39.3298 57.791C37.8417 56.2431 37.9199 54.2007 37.9717 52.8483L37.9866 52.3825C38.0188 50.8841 38.5697 49.4569 39.5805 48.254C41.3377 46.1622 41.9116 44.2014 41.2388 42.5845C40.389 40.541 40.3154 38.4974 41.0249 36.6758C41.7747 34.753 42.8178 33.7594 42.9339 33.6525C43.2697 33.3443 43.7573 33.2638 44.1748 33.4455C44.5922 33.6295 44.8625 34.0435 44.8625 34.4989C44.8625 36.639 45.518 37.7591 46.001 38.2927C46.4771 37.7637 47.1349 36.6436 47.1349 34.4989C47.1349 34.0435 47.4051 33.6295 47.8226 33.4455C48.24 33.2626 48.7265 33.3431 49.0634 33.6525C49.1796 33.7594 50.2226 34.753 50.9724 36.6758C51.6831 38.4974 51.6095 40.5398 50.7585 42.5845C50.0869 44.2003 50.6608 46.161 52.418 48.254C53.4277 49.4569 53.9797 50.8841 54.0107 52.3825L54.0257 52.8483C54.0774 54.2007 54.1568 56.2431 52.6675 57.791C51.3692 59.1434 49.1865 59.8 45.9998 59.8ZM43.0834 37.7511C42.5889 39.2564 42.9546 40.7181 43.364 41.7025C44.0782 43.4183 44.3059 46.2047 41.3423 49.7341C40.6719 50.5299 40.3073 51.4637 40.2878 52.432L40.2717 52.9368C40.2257 54.1248 40.1785 55.3541 40.9881 56.1959C41.8196 57.0607 43.5066 57.5 45.9998 57.5C48.493 57.5 50.1801 57.0607 51.0127 56.1959C51.8223 55.3541 51.7751 54.1248 51.7291 52.9368L51.713 52.432C51.6923 51.4637 51.3278 50.531 50.6585 49.7341C47.6949 46.2047 47.9226 43.4183 48.6368 41.7025C49.045 40.7192 49.4119 39.2564 48.9174 37.7511C48.0928 40.0258 46.5691 40.7549 46.4817 40.7951C46.1769 40.9343 45.8262 40.9343 45.5214 40.7951C45.4317 40.7549 43.908 40.0258 43.0834 37.7511Z" fill="white"/>
<path d="M46.0001 64.4C45.3653 64.4 44.8501 63.8859 44.8501 63.25V58.65C44.8501 58.0141 45.3653 57.5 46.0001 57.5C46.6349 57.5 47.1501 58.0141 47.1501 58.65V63.25C47.1501 63.8859 46.6349 64.4 46.0001 64.4Z" fill="white"/>
</svg>
