<svg width="70" height="70" viewBox="0 0 70 70" fill="none" xmlns="http://www.w3.org/2000/svg">
<g clip-path="url(#clip0_120_980)">
<path d="M46.7515 44.8924C45.0929 44.8924 43.7436 43.7246 43.7436 42.2892C43.7436 40.8536 45.0929 39.6858 46.7515 39.6858C48.41 39.6858 49.7593 40.8536 49.7593 42.2892C49.7593 43.0442 50.3715 43.6564 51.1264 43.6564C51.8814 43.6564 52.4936 43.0442 52.4936 42.2892C52.4936 39.7838 50.6269 37.6773 48.1186 37.1055V36.3944C48.1186 35.6395 47.5064 35.0273 46.7515 35.0273C45.9965 35.0273 45.3843 35.6395 45.3843 36.3944V37.1055C42.876 37.6773 41.0093 39.7838 41.0093 42.2892C41.0093 45.2323 43.5852 47.6268 46.7515 47.6268C48.41 47.6268 49.7593 48.7947 49.7593 50.2302C49.7593 51.6658 48.41 52.8336 46.7515 52.8336C45.0929 52.8336 43.7436 51.6658 43.7436 50.2302C43.7436 49.4753 43.1314 48.863 42.3765 48.863C41.6215 48.863 41.0093 49.4753 41.0093 50.2302C41.0093 52.7356 42.876 54.8421 45.3843 55.4139V56.0045C45.3843 56.7595 45.9965 57.3717 46.7515 57.3717C47.5064 57.3717 48.1186 56.7595 48.1186 56.0045V55.4139C50.6269 54.8421 52.4936 52.7356 52.4936 50.2302C52.4936 47.2869 49.9177 44.8924 46.7515 44.8924Z" fill="#1661BE"/>
<path d="M61.7259 36.7601C59.9399 33.9772 57.4238 31.7504 54.4495 30.3206C53.7687 29.9933 52.9519 30.2798 52.6248 30.9604C52.2977 31.641 52.5841 32.4577 53.2647 32.7849C58.4478 35.2765 61.7967 40.6002 61.7967 46.3475C61.7967 48.8068 61.1905 51.2457 60.0438 53.401C59.6892 54.0675 59.942 54.8954 60.6086 55.2501C60.8132 55.3589 61.033 55.4106 61.2496 55.4106C61.7387 55.4106 62.2119 55.1473 62.4578 54.6853C63.8141 52.1363 64.5311 49.2531 64.5311 46.3475C64.5311 42.935 63.5611 39.6197 61.7259 36.7601Z" fill="#1661BE"/>
<path d="M48.9006 28.5743L48.8086 28.5741C48.0536 28.5741 47.4414 29.1862 47.4414 29.9413C47.4414 30.6964 48.0536 31.3085 48.8086 31.3085L48.8878 31.3086C48.8899 31.3086 48.892 31.3086 48.8943 31.3086C49.6464 31.3086 50.2578 30.7008 50.2614 29.9479C50.2648 29.1928 49.6556 28.5778 48.9006 28.5743Z" fill="#1661BE"/>
<path d="M40.2509 59.9102C35.0679 57.4185 31.719 52.0948 31.719 46.3476C31.719 43.8883 32.3252 41.4493 33.4719 39.2941C33.8265 38.6276 33.5737 37.7996 32.9071 37.445C32.2407 37.0903 31.4125 37.3431 31.058 38.0098C29.7016 40.5589 28.9846 43.442 28.9846 46.3476C28.9846 49.76 29.9546 53.0752 31.7898 55.9349C33.5758 58.7178 36.0919 60.9447 39.0662 62.3747C39.2572 62.4665 39.459 62.5099 39.6577 62.5099C40.1668 62.5099 40.6555 62.2243 40.8909 61.7348C41.2178 61.0542 40.9315 60.2373 40.2509 59.9102Z" fill="#1661BE"/>
<path d="M44.7072 61.3866L44.628 61.3863C43.8695 61.385 43.2581 61.9919 43.2547 62.7471C43.2511 63.5022 43.8606 64.1171 44.6156 64.1207L44.7072 64.121C45.4621 64.121 46.0743 63.5087 46.0743 62.7538C46.0743 61.9988 45.4621 61.3866 44.7072 61.3866Z" fill="#1661BE"/>
<path d="M52.966 23.9485C52.7996 23.552 52.5957 23.1784 52.3585 22.8318H55.9179C59.3856 22.8318 62.2069 20.0105 62.2069 16.5428C62.2069 13.075 59.3856 10.2537 55.9179 10.2537H44.9694C45.6655 9.24171 46.0741 8.0174 46.0741 6.69902C46.0741 3.2313 43.2528 0.409973 39.7851 0.409973H6.28905C2.82132 0.409973 0 3.2313 0 6.69902C0 10.1668 2.82132 12.9881 6.28905 12.9881H17.2375C16.5414 14.0001 16.1328 15.2244 16.1328 16.5428C16.1328 17.8611 16.5413 19.0854 17.2375 20.0974H13.6718C10.2041 20.0974 7.3828 22.9188 7.3828 26.3865C7.3828 28.3781 8.3144 30.1553 9.76375 31.3084C8.3144 32.4614 7.3828 34.2386 7.3828 36.2302C7.3828 38.2218 8.3144 39.999 9.76375 41.1521C8.3144 42.3052 7.3828 44.0824 7.3828 46.074C7.3828 48.0655 8.3144 49.8427 9.76375 50.9958C8.3144 52.1489 7.3828 53.9261 7.3828 55.9177C7.3828 59.3854 10.2041 62.2067 13.6718 62.2067H29.7841C34.0287 66.7467 40.067 69.5897 46.7579 69.5897C59.5736 69.5897 70 59.1632 70 46.3475C70 35.6812 62.7772 26.6713 52.966 23.9485ZM55.9179 12.9881C57.878 12.9881 59.4725 14.5828 59.4725 16.5428C59.4725 18.5028 57.878 20.0974 55.9179 20.0974H47.1679H22.4218C20.4617 20.0974 18.8672 18.5028 18.8672 16.5428C18.8672 14.5828 20.4617 12.9881 22.4218 12.9881H55.9179ZM6.28905 10.2537C4.32892 10.2537 2.73437 8.65902 2.73437 6.69902C2.73437 4.73903 4.32892 3.14434 6.28905 3.14434H39.7851C41.7452 3.14434 43.3398 4.73903 43.3398 6.69902C43.3398 8.65902 41.7452 10.2537 39.7851 10.2537H6.28905ZM13.6718 22.8318H47.1679C47.7186 22.8318 48.2459 22.9598 48.719 23.1889C48.0723 23.1346 47.4185 23.1054 46.7579 23.1054C40.3396 23.1054 34.5209 25.7207 30.3108 29.9412H13.6718C11.7119 29.9412 10.1172 28.3465 10.1172 26.3865C10.1172 24.4265 11.7119 22.8318 13.6718 22.8318ZM13.6718 32.6755H27.9747C26.4226 34.8019 25.2226 37.2002 24.4606 39.7849H13.6718C11.7117 39.7849 10.1172 38.1904 10.1172 36.2302C10.1172 34.2702 11.7117 32.6755 13.6718 32.6755ZM13.6718 42.5193H23.8328C23.6254 43.7652 23.5157 45.0436 23.5157 46.3475C23.5157 47.4612 23.5962 48.5563 23.7484 49.6286H13.6718C11.7117 49.6286 10.1172 48.0341 10.1172 46.074C10.1172 44.1138 11.7117 42.5193 13.6718 42.5193ZM13.6718 59.4724C11.7117 59.4724 10.1172 57.8778 10.1172 55.9177C10.1172 53.9576 11.7117 52.363 13.6718 52.363H24.3066C24.9965 54.9351 26.1172 57.3322 27.5869 59.4724H13.6718ZM46.7579 66.8553C35.4499 66.8553 26.2501 57.6555 26.2501 46.3475C26.2501 35.0395 35.4499 25.8398 46.7579 25.8398C58.0658 25.8398 67.2656 35.0395 67.2656 46.3475C67.2656 57.6555 58.0658 66.8553 46.7579 66.8553Z" fill="#1661BE"/>
</g>
<defs>
<clipPath id="clip0_120_980">
<rect width="70" height="70" fill="white"/>
</clipPath>
</defs>
</svg>
