<svg width="80" height="67" viewBox="0 0 80 67" fill="none" xmlns="http://www.w3.org/2000/svg">
<path d="M74.5423 0H4.89485C2.19569 0 0 2.19569 0 4.8947V52.1556C0 54.8546 2.19569 57.0503 4.89485 57.0503H28.4508L27.498 64.6727H23.5503C22.9075 64.6727 22.3867 65.1937 22.3867 65.8364C22.3867 66.479 22.9075 67 23.5503 67H55.8869C56.5296 67 57.0505 66.479 57.0505 65.8364C57.0505 65.1937 56.5296 64.6727 55.8869 64.6727H51.9394L50.9864 57.0503H74.5423C77.2413 57.0503 79.4372 54.8546 79.4372 52.1556V4.8947C79.4372 2.19569 77.2415 0 74.5423 0ZM29.8434 64.6727L30.7963 57.0503H35.079L35.4991 58.7306C35.9841 60.6705 37.7193 62.0251 39.7188 62.0251C41.7182 62.0251 43.4534 60.6705 43.9384 58.7306L44.3585 57.0503H48.6412L49.5938 64.6727H29.8434ZM37.4778 57.0503H41.9593L41.6803 58.1662C41.4549 59.0681 40.6483 59.6978 39.7184 59.6978C38.7886 59.6978 37.9822 59.0679 37.7566 58.1662L37.4778 57.0503ZM77.1099 52.1556C77.1099 53.5714 75.9581 54.7231 74.5423 54.7231H4.89485C3.4791 54.7231 2.32726 53.5714 2.32726 52.1556V4.8947C2.32726 3.47895 3.4791 2.32726 4.89485 2.32726H74.5423C75.9581 2.32726 77.1099 3.47895 77.1099 4.8947V52.1556Z" fill="white"/>
<path d="M65.8357 4.97491H6.13775C5.49496 4.97491 4.97412 5.49576 4.97412 6.13855V50.912C4.97412 51.5547 5.49496 52.0756 6.13775 52.0756H8.62528C9.26807 52.0756 9.78892 51.5547 9.78892 50.912C9.78907 50.2693 9.26807 49.7483 8.62544 49.7483H7.30154V7.30218H65.8357C66.4785 7.30218 66.9994 6.78118 66.9994 6.13855C66.9994 5.49576 66.4785 4.97491 65.8357 4.97491Z" fill="white"/>
<path d="M73.2981 4.97491H70.8106C70.1678 4.97491 69.647 5.49576 69.647 6.13855C69.647 6.78118 70.1678 7.30218 70.8106 7.30218H72.1345V49.7483H13.6002C12.9574 49.7483 12.4365 50.2693 12.4365 50.912C12.4365 51.5547 12.9574 52.0756 13.6002 52.0756H73.298C73.9408 52.0756 74.4616 51.5547 74.4616 50.912V6.13855C74.4618 5.49576 73.9408 4.97491 73.2981 4.97491Z" fill="white"/>
<path d="M55.5592 17.8583C55.3501 17.591 55.0347 17.4284 54.6958 17.413L27.3344 16.1692C27.313 16.1683 27.292 16.1678 27.2704 16.1681C27.1085 15.6364 26.7662 15.1753 26.3029 14.8662L22.9521 12.6324C22.4175 12.276 21.6949 12.4204 21.3386 12.9552C20.9822 13.4901 21.1266 14.2124 21.6613 14.5688L25.0119 16.8024C25.0277 16.8129 25.0394 16.8289 25.0447 16.8472L29.3127 31.7853C29.4458 32.251 29.6649 32.6696 29.9462 33.0311L28.3846 36.1543C28.0087 36.906 28.0481 37.7815 28.4899 38.4965C28.6502 38.7557 28.8534 38.9765 29.087 39.1534C28.7813 39.6869 28.6055 40.3041 28.6055 40.962C28.6055 42.9752 30.2434 44.613 32.2565 44.613C34.2696 44.613 35.9075 42.9751 35.9075 40.962C35.9075 40.4951 35.8185 40.0489 35.6581 39.6382H46.2668C46.1064 40.0489 46.0173 40.4951 46.0173 40.962C46.0173 42.9752 47.6552 44.613 49.6683 44.613C51.6814 44.613 53.3193 42.9751 53.3193 40.962C53.3193 40.378 53.1808 39.8261 52.936 39.3362C53.1708 39.1233 53.3193 38.8167 53.3193 38.4746C53.3193 37.832 52.7985 37.311 52.1557 37.311H30.5373C30.5207 37.311 30.4926 37.311 30.4692 37.273C30.4458 37.2351 30.4583 37.2101 30.4658 37.1951L31.9043 34.3181C32.1971 34.3934 32.5021 34.434 32.8143 34.434C32.9581 34.434 33.1033 34.4255 33.2495 34.4084L49.6002 32.4849C51.712 32.2363 53.411 30.6687 53.8281 28.5834L55.7839 18.8037C55.8505 18.4709 55.7684 18.1256 55.5592 17.8583ZM49.668 39.6385C50.398 39.6385 50.9918 40.2325 50.9918 40.9623C50.9918 41.6923 50.398 42.286 49.668 42.286C48.938 42.286 48.3443 41.6923 48.3443 40.9623C48.3443 40.2323 48.938 39.6385 49.668 39.6385ZM32.2562 39.6385C32.9862 39.6385 33.58 40.2323 33.58 40.9623C33.58 41.6923 32.9862 42.286 32.2562 42.286C31.5262 42.286 30.9325 41.6923 30.9325 40.9623C30.9325 40.2323 31.5262 39.6385 32.2562 39.6385ZM29.4027 23.6304L27.9444 18.5267L32.5966 18.7382L33.4032 23.6304H29.4027ZM32.9777 32.0971C32.3288 32.1735 31.7292 31.7733 31.5501 31.1461L30.0677 25.9577H33.7869L34.7645 31.8869L32.9777 32.0971ZM39.7986 31.2947L37.0785 31.6148L36.1458 25.9578H39.7986V31.2947ZM39.7986 23.6304H35.762L34.9732 18.8463L39.7986 19.0657V23.6304ZM45.6915 30.6013L42.1258 31.0208V25.9577H46.1118L45.6915 30.6013ZM46.3225 23.6304H42.1258V19.1714L46.7073 19.3796L46.3225 23.6304ZM51.5458 28.1273C51.327 29.2208 50.4359 30.0432 49.3282 30.1736L48.0534 30.3236L48.4485 25.9578H51.9796L51.5458 28.1273ZM52.4452 23.6304H48.6594L49.0345 19.4854L53.236 19.6764L52.4452 23.6304Z" fill="white"/>
</svg>
