<svg width="60" height="66" viewBox="0 0 60 66" fill="none" xmlns="http://www.w3.org/2000/svg">
<path d="M50.5653 34.2891C51.1171 36.0787 52.7862 37.3828 54.7543 37.3828C57.1711 37.3828 59.1371 35.4167 59.1371 33C59.1371 30.5833 57.1709 28.6172 54.7543 28.6172C52.7861 28.6172 51.117 29.9213 50.5653 31.7109H42.6332V21.6562C42.6332 20.9444 42.056 20.3672 41.3441 20.3672H39.2816V12.6289H46.5032C47.2151 12.6289 47.7922 12.0517 47.7922 11.3399C47.7922 10.6281 47.2151 10.0508 46.5032 10.0508H37.9925C37.2806 10.0508 36.7035 10.6281 36.7035 11.3399V20.3672H31.2894V12.4352C33.0789 11.8834 34.3832 10.2144 34.3832 8.24613C34.3832 5.8294 32.4171 3.86332 30.0003 3.86332C27.5836 3.86332 25.6175 5.8294 25.6175 8.24613C25.6175 10.2144 26.9218 11.8835 28.7113 12.4352V20.3672H18.6566C17.9446 20.3672 17.3675 20.9444 17.3675 21.6562V23.7188H9.62915V8.57304C11.4207 8.02248 12.7269 6.3525 12.7269 4.38281C12.7269 1.96608 10.7608 0 8.34408 0C5.92735 0 3.96127 1.96608 3.96127 4.38281C3.96127 6.34966 5.26361 8.01771 7.05103 8.57072V25.0078C7.05103 25.7196 7.62814 26.2969 8.34009 26.2969H17.3675V31.7109H9.43541C8.88356 29.9213 7.21448 28.6172 5.24634 28.6172C2.8296 28.6172 0.863525 30.5833 0.863525 33C0.863525 35.4167 2.8296 37.3828 5.24634 37.3828C7.21461 37.3828 8.88369 36.0787 9.43541 34.2891H17.3675V44.3438C17.3675 45.0556 17.9446 45.6328 18.6566 45.6328H20.7191V53.3711H13.4975C12.7855 53.3711 12.2084 53.9483 12.2084 54.6601C12.2084 55.3719 12.7855 55.9492 13.4975 55.9492H22.0082C22.7201 55.9492 23.2972 55.3719 23.2972 54.6601V45.6328H28.7113V53.5648C26.9218 54.1166 25.6175 55.7856 25.6175 57.7539C25.6175 60.1706 27.5836 62.1367 30.0003 62.1367C32.4171 62.1367 34.3832 60.1706 34.3832 57.7539C34.3832 55.7856 33.0789 54.1165 31.2894 53.5648V45.6328H41.3441C42.056 45.6328 42.6332 45.0556 42.6332 44.3438V42.2812H50.3715V57.427C48.58 57.9775 47.2738 59.6475 47.2738 61.6172C47.2738 64.0339 49.2399 66 51.6566 66C54.0733 66 56.0394 64.0339 56.0394 61.6172C56.0394 59.6503 54.7371 57.9823 52.9496 57.4293V40.9922C52.9496 40.2804 52.3725 39.7031 51.6606 39.7031H42.6332V34.2891H50.5653ZM54.7543 31.1953C55.7495 31.1953 56.559 32.0048 56.559 33C56.559 33.9952 55.7494 34.8047 54.7543 34.8047C53.7592 34.8047 52.9496 33.9952 52.9496 33C52.9496 32.0048 53.7592 31.1953 54.7543 31.1953ZM8.34408 6.1875C7.34893 6.1875 6.5394 5.37797 6.5394 4.38281C6.5394 3.38766 7.34893 2.57812 8.34408 2.57812C9.33924 2.57812 10.1488 3.38766 10.1488 4.38281C10.1488 5.37797 9.33924 6.1875 8.34408 6.1875ZM5.24634 34.8047C4.25118 34.8047 3.44165 33.9952 3.44165 33C3.44165 32.0048 4.25118 31.1953 5.24634 31.1953C6.24149 31.1953 7.05103 32.0048 7.05103 33C7.05103 33.9952 6.24149 34.8047 5.24634 34.8047ZM28.1957 8.24613C28.1957 7.25098 29.0052 6.44145 30.0003 6.44145C30.9955 6.44145 31.805 7.25098 31.805 8.24613C31.805 9.24129 30.9955 10.0508 30.0003 10.0508C29.0052 10.0508 28.1957 9.24129 28.1957 8.24613ZM31.805 57.7539C31.805 58.749 30.9955 59.5586 30.0003 59.5586C29.0052 59.5586 28.1957 58.749 28.1957 57.7539C28.1957 56.7587 29.0052 55.9492 30.0003 55.9492C30.9955 55.9492 31.805 56.7587 31.805 57.7539ZM40.055 43.0547H19.9457V22.9453H40.055V43.0547ZM51.6566 59.8125C52.6517 59.8125 53.4613 60.622 53.4613 61.6172C53.4613 62.6123 52.6517 63.4219 51.6566 63.4219C50.6614 63.4219 49.8519 62.6123 49.8519 61.6172C49.8519 60.622 50.6614 59.8125 51.6566 59.8125Z" fill="white"/>
</svg>
