<svg width="252" height="310" viewBox="0 0 252 310" fill="none" xmlns="http://www.w3.org/2000/svg">
<g clip-path="url(#clip0_1964_2419)">
<g filter="url(#filter0_d_1964_2419)">
<rect x="134.177" width="117.405" height="92.2464" fill="#1661BE" fill-opacity="0.4"/>
<rect x="135.015" y="0.838604" width="115.727" height="90.5692" stroke="#1661BE" stroke-width="1.67721"/>
</g>
<g clip-path="url(#clip1_1964_2419)">
<mask id="mask0_1964_2419" style="mask-type:luminance" maskUnits="userSpaceOnUse" x="167" y="7" width="51" height="51">
<path d="M167 7.00001H217.775V57.7754H167V7.00001Z" fill="white"/>
</mask>
<g mask="url(#mask0_1964_2419)">
<path d="M194.26 53.883C194.93 54.5118 194.602 55.608 193.96 56.2507C193.236 56.9759 192.073 56.9475 191.324 56.2481L189.536 54.577" stroke="white" stroke-width="1.5" stroke-miterlimit="10" stroke-linecap="round" stroke-linejoin="round"/>
<path d="M187.944 51.6626C188.13 51.4927 188.317 51.3595 188.504 51.2633C190.286 50.3118 191.842 52.5066 190.47 53.7386L189.143 54.9312C187.225 56.6531 185.146 54.1861 186.682 52.8012" stroke="white" stroke-width="1.5" stroke-miterlimit="10" stroke-linecap="round" stroke-linejoin="round"/>
<path d="M196.003 40.4241L203.041 46.6834C205.869 49.1984 202.86 52.1752 200.407 49.4874" stroke="white" stroke-width="1.5" stroke-miterlimit="10" stroke-linecap="round" stroke-linejoin="round"/>
<path d="M196.63 45.7544L200.406 49.4875C201.136 50.2068 201.13 51.402 200.406 52.1272C199.682 52.8522 198.389 52.8635 197.679 52.1242L197.493 51.9317" stroke="white" stroke-width="1.5" stroke-miterlimit="10" stroke-linecap="round" stroke-linejoin="round"/>
<path d="M194.757 49.1671L197.518 51.9314C198.825 53.2428 196.998 56.4546 194.534 54.1405L193.352 53.0275" stroke="white" stroke-width="1.5" stroke-miterlimit="10" stroke-linecap="round" stroke-linejoin="round"/>
<path d="M215.947 36.2635L207.795 25.8209C207.164 25.0107 205.979 24.8578 205.161 25.4782L199.826 29.5452C199.009 30.1683 198.856 31.3382 199.49 32.1481L207.639 42.5907C208.273 43.4008 209.458 43.5538 210.273 42.9307L215.611 38.8664C216.428 38.2433 216.578 37.0736 215.947 36.2635Z" stroke="white" stroke-width="1.5" stroke-miterlimit="10" stroke-linecap="round" stroke-linejoin="round"/>
<path d="M207.227 42.0642C206.058 44.2337 205.744 44.5452 203.04 46.6836M196.002 40.4243L193.974 38.5776L190.724 40.1892C187.994 41.3956 184.979 38.0168 189.327 35.196L192.469 33.1566C194.639 31.7462 196.871 31.8084 199.484 32.1427" stroke="white" stroke-width="1.5" stroke-miterlimit="10" stroke-linecap="round" stroke-linejoin="round"/>
<path d="M176.945 43.1997L178.614 45.4854M192.056 33.4227L185.389 32.4031" stroke="white" stroke-width="1.5" stroke-miterlimit="10" stroke-linecap="round" stroke-linejoin="round"/>
<path d="M184.111 45.4228C186.246 43.5364 188.526 46.3942 186.855 47.867L183.692 50.6485C181.972 52.1666 179.743 49.4673 181.183 48.0795C181.446 47.8275 181.29 47.9692 181.35 47.9153C181.412 47.8615 184.111 45.4228 184.111 45.4228Z" stroke="white" stroke-width="1.5" stroke-miterlimit="10" stroke-linecap="round" stroke-linejoin="round"/>
<path d="M178.614 45.4852L181.992 42.483C184.125 40.591 186.359 43.3922 184.707 44.8847L184.111 45.4228L180.976 48.2495C179.209 49.8469 176.965 46.9496 178.614 45.4852Z" stroke="white" stroke-width="1.5" stroke-miterlimit="10" stroke-linecap="round" stroke-linejoin="round"/>
<path d="M186.645 48.0515C188.778 46.1623 190.979 48.9239 189.327 50.4166L186.408 53.0505C184.733 54.5629 182.218 51.9488 184.108 50.2834L184.442 49.9916" stroke="white" stroke-width="1.5" stroke-miterlimit="10" stroke-linecap="round" stroke-linejoin="round"/>
<path d="M181.854 17.7998C181.854 21.5298 183.933 24.7757 186.993 26.4353C188.379 27.1831 189.963 27.6108 191.649 27.6108C197.061 27.6108 201.448 23.2179 201.448 17.7998C201.448 13.8826 199.151 10.4981 195.833 8.92917C194.566 8.32869 193.146 7.99171 191.649 7.99171C186.238 7.99171 181.854 12.3845 181.854 17.7998Z" stroke="white" stroke-width="1.5" stroke-miterlimit="10" stroke-linecap="round" stroke-linejoin="round"/>
<path d="M194.78 19.25C194.78 20.0233 194.557 20.6435 194.11 21.111C193.666 21.5783 193.122 21.887 192.489 22.0341V23.4419C192.489 23.9232 192.079 24.3198 191.595 24.3198C191.114 24.3198 190.721 23.9232 190.721 23.4419V22.0427C190.325 21.9548 189.968 21.8075 189.649 21.6037C189.321 21.3941 189.091 21.21 188.964 21.0513L188.769 20.7993C187.96 19.74 189.295 18.6072 190.07 19.4228C190.166 19.5219 190.265 19.641 190.378 19.7684C190.704 20.131 191.179 20.1876 191.567 20.1876C192.299 20.1876 192.667 19.8844 192.667 19.2784C192.667 19.0603 192.528 18.8932 192.251 18.7742C191.974 18.6525 191.637 18.5477 191.239 18.4513C190.842 18.3579 190.446 18.2304 190.05 18.0718C189.652 17.9133 189.315 17.6412 189.038 17.2533C188.761 16.8653 188.622 16.3754 188.622 15.7776C188.622 15.1829 188.811 14.6505 189.185 14.1689C189.555 13.696 190.09 13.3759 190.735 13.2484V12.0477C190.735 11.5661 191.131 11.1697 191.612 11.1697C192.096 11.1697 192.489 11.5661 192.489 12.0477V12.4158V13.2626C192.766 13.3221 193.021 13.4043 193.247 13.5147C193.476 13.6252 193.634 13.713 193.725 13.7837L193.858 13.9027C195.009 14.7666 193.897 16.296 192.905 15.4605C192.231 14.8939 190.704 14.7666 190.704 15.8088C190.704 16.027 190.806 16.2025 191.009 16.3386C191.213 16.4715 191.462 16.5621 191.759 16.6047C192.059 16.65 192.384 16.7237 192.741 16.8285C193.1 16.9332 193.425 17.0549 193.725 17.1938C194.022 17.3326 194.271 17.5789 194.475 17.9302C194.678 18.2843 194.78 18.7232 194.78 19.25Z" fill="white"/>
<path d="M172.626 31.7969L172.638 31.7815" stroke="white" stroke-width="1.5" stroke-miterlimit="10" stroke-linecap="round" stroke-linejoin="round"/>
<path d="M175.036 28.7099L176.979 26.2203C177.613 25.4102 178.798 25.2573 179.613 25.8803L184.951 29.9446C185.768 30.5678 185.918 31.7375 185.287 32.5477L177.135 42.9901C176.504 43.8002 175.319 43.9531 174.501 43.3329L169.166 39.2657C168.349 38.6426 168.196 37.4729 168.83 36.6628L170.216 34.8871" stroke="white" stroke-width="1.5" stroke-miterlimit="10" stroke-linecap="round" stroke-linejoin="round"/>
</g>
</g>
<path d="M163.092 72.084C162.54 72.084 162.044 71.988 161.604 71.796C161.172 71.596 160.832 71.324 160.584 70.98C160.336 70.628 160.208 70.224 160.2 69.768H161.364C161.404 70.16 161.564 70.492 161.844 70.764C162.132 71.028 162.548 71.16 163.092 71.16C163.612 71.16 164.02 71.032 164.316 70.776C164.62 70.512 164.772 70.176 164.772 69.768C164.772 69.448 164.684 69.188 164.508 68.988C164.332 68.788 164.112 68.636 163.848 68.532C163.584 68.428 163.228 68.316 162.78 68.196C162.228 68.052 161.784 67.908 161.448 67.764C161.12 67.62 160.836 67.396 160.596 67.092C160.364 66.78 160.248 66.364 160.248 65.844C160.248 65.388 160.364 64.984 160.596 64.632C160.828 64.28 161.152 64.008 161.568 63.816C161.992 63.624 162.476 63.528 163.02 63.528C163.804 63.528 164.444 63.724 164.94 64.116C165.444 64.508 165.728 65.028 165.792 65.676H164.592C164.552 65.356 164.384 65.076 164.088 64.836C163.792 64.588 163.4 64.464 162.912 64.464C162.456 64.464 162.084 64.584 161.796 64.824C161.508 65.056 161.364 65.384 161.364 65.808C161.364 66.112 161.448 66.36 161.616 66.552C161.792 66.744 162.004 66.892 162.252 66.996C162.508 67.092 162.864 67.204 163.32 67.332C163.872 67.484 164.316 67.636 164.652 67.788C164.988 67.932 165.276 68.16 165.516 68.472C165.756 68.776 165.876 69.192 165.876 69.72C165.876 70.128 165.768 70.512 165.552 70.872C165.336 71.232 165.016 71.524 164.592 71.748C164.168 71.972 163.668 72.084 163.092 72.084ZM170.351 72.108C169.735 72.108 169.175 71.968 168.671 71.688C168.175 71.408 167.783 71.012 167.495 70.5C167.215 69.98 167.075 69.38 167.075 68.7C167.075 68.028 167.219 67.436 167.507 66.924C167.803 66.404 168.203 66.008 168.707 65.736C169.211 65.456 169.775 65.316 170.399 65.316C171.023 65.316 171.587 65.456 172.091 65.736C172.595 66.008 172.991 66.4 173.279 66.912C173.575 67.424 173.723 68.02 173.723 68.7C173.723 69.38 173.571 69.98 173.267 70.5C172.971 71.012 172.567 71.408 172.055 71.688C171.543 71.968 170.975 72.108 170.351 72.108ZM170.351 71.148C170.743 71.148 171.111 71.056 171.455 70.872C171.799 70.688 172.075 70.412 172.283 70.044C172.499 69.676 172.607 69.228 172.607 68.7C172.607 68.172 172.503 67.724 172.295 67.356C172.087 66.988 171.815 66.716 171.479 66.54C171.143 66.356 170.779 66.264 170.387 66.264C169.987 66.264 169.619 66.356 169.283 66.54C168.955 66.716 168.691 66.988 168.491 67.356C168.291 67.724 168.191 68.172 168.191 68.7C168.191 69.236 168.287 69.688 168.479 70.056C168.679 70.424 168.943 70.7 169.271 70.884C169.599 71.06 169.959 71.148 170.351 71.148ZM180.99 65.424V72H179.898V71.028C179.69 71.364 179.398 71.628 179.022 71.82C178.654 72.004 178.246 72.096 177.798 72.096C177.286 72.096 176.826 71.992 176.418 71.784C176.01 71.568 175.686 71.248 175.446 70.824C175.214 70.4 175.098 69.884 175.098 69.276V65.424H176.178V69.132C176.178 69.78 176.342 70.28 176.67 70.632C176.998 70.976 177.446 71.148 178.014 71.148C178.598 71.148 179.058 70.968 179.394 70.608C179.73 70.248 179.898 69.724 179.898 69.036V65.424H180.99ZM183.926 66.492C184.118 66.116 184.39 65.824 184.742 65.616C185.102 65.408 185.538 65.304 186.05 65.304V66.432H185.762C184.538 66.432 183.926 67.096 183.926 68.424V72H182.834V65.424H183.926V66.492ZM186.903 68.7C186.903 68.02 187.039 67.428 187.311 66.924C187.583 66.412 187.959 66.016 188.439 65.736C188.927 65.456 189.483 65.316 190.107 65.316C190.915 65.316 191.579 65.512 192.099 65.904C192.627 66.296 192.975 66.84 193.143 67.536H191.967C191.855 67.136 191.635 66.82 191.307 66.588C190.987 66.356 190.587 66.24 190.107 66.24C189.483 66.24 188.979 66.456 188.595 66.888C188.211 67.312 188.019 67.916 188.019 68.7C188.019 69.492 188.211 70.104 188.595 70.536C188.979 70.968 189.483 71.184 190.107 71.184C190.587 71.184 190.987 71.072 191.307 70.848C191.627 70.624 191.847 70.304 191.967 69.888H193.143C192.967 70.56 192.615 71.1 192.087 71.508C191.559 71.908 190.899 72.108 190.107 72.108C189.483 72.108 188.927 71.968 188.439 71.688C187.959 71.408 187.583 71.012 187.311 70.5C187.039 69.988 186.903 69.388 186.903 68.7ZM195.164 64.356C194.956 64.356 194.78 64.284 194.636 64.14C194.492 63.996 194.42 63.82 194.42 63.612C194.42 63.404 194.492 63.228 194.636 63.084C194.78 62.94 194.956 62.868 195.164 62.868C195.364 62.868 195.532 62.94 195.668 63.084C195.812 63.228 195.884 63.404 195.884 63.612C195.884 63.82 195.812 63.996 195.668 64.14C195.532 64.284 195.364 64.356 195.164 64.356ZM195.692 65.424V72H194.6V65.424H195.692ZM200.757 65.304C201.557 65.304 202.205 65.548 202.701 66.036C203.197 66.516 203.445 67.212 203.445 68.124V72H202.365V68.28C202.365 67.624 202.201 67.124 201.873 66.78C201.545 66.428 201.097 66.252 200.529 66.252C199.953 66.252 199.493 66.432 199.149 66.792C198.813 67.152 198.645 67.676 198.645 68.364V72H197.553V65.424H198.645V66.36C198.861 66.024 199.153 65.764 199.521 65.58C199.897 65.396 200.309 65.304 200.757 65.304ZM207.941 65.316C208.509 65.316 209.005 65.44 209.429 65.688C209.861 65.936 210.181 66.248 210.389 66.624V65.424H211.493V72.144C211.493 72.744 211.365 73.276 211.109 73.74C210.853 74.212 210.485 74.58 210.005 74.844C209.533 75.108 208.981 75.24 208.349 75.24C207.485 75.24 206.765 75.036 206.189 74.628C205.613 74.22 205.273 73.664 205.169 72.96H206.249C206.369 73.36 206.617 73.68 206.993 73.92C207.369 74.168 207.821 74.292 208.349 74.292C208.949 74.292 209.437 74.104 209.813 73.728C210.197 73.352 210.389 72.824 210.389 72.144V70.764C210.173 71.148 209.853 71.468 209.429 71.724C209.005 71.98 208.509 72.108 207.941 72.108C207.357 72.108 206.825 71.964 206.345 71.676C205.873 71.388 205.501 70.984 205.229 70.464C204.957 69.944 204.821 69.352 204.821 68.688C204.821 68.016 204.957 67.428 205.229 66.924C205.501 66.412 205.873 66.016 206.345 65.736C206.825 65.456 207.357 65.316 207.941 65.316ZM210.389 68.7C210.389 68.204 210.289 67.772 210.089 67.404C209.889 67.036 209.617 66.756 209.273 66.564C208.937 66.364 208.565 66.264 208.157 66.264C207.749 66.264 207.377 66.36 207.041 66.552C206.705 66.744 206.437 67.024 206.237 67.392C206.037 67.76 205.937 68.192 205.937 68.688C205.937 69.192 206.037 69.632 206.237 70.008C206.437 70.376 206.705 70.66 207.041 70.86C207.377 71.052 207.749 71.148 208.157 71.148C208.565 71.148 208.937 71.052 209.273 70.86C209.617 70.66 209.889 70.376 210.089 70.008C210.289 69.632 210.389 69.196 210.389 68.7ZM222.957 72L221.865 70.896C221.457 71.32 221.021 71.636 220.557 71.844C220.093 72.044 219.569 72.144 218.985 72.144C218.409 72.144 217.897 72.04 217.449 71.832C217.009 71.624 216.665 71.328 216.417 70.944C216.177 70.56 216.057 70.112 216.057 69.6C216.057 69.016 216.221 68.504 216.549 68.064C216.885 67.616 217.377 67.264 218.025 67.008C217.769 66.704 217.585 66.424 217.473 66.168C217.361 65.912 217.305 65.632 217.305 65.328C217.305 64.976 217.393 64.66 217.569 64.38C217.753 64.092 218.013 63.868 218.349 63.708C218.685 63.548 219.073 63.468 219.513 63.468C219.945 63.468 220.321 63.552 220.641 63.72C220.961 63.888 221.201 64.124 221.361 64.428C221.521 64.724 221.593 65.056 221.577 65.424H220.485C220.493 65.096 220.401 64.84 220.209 64.656C220.017 64.464 219.769 64.368 219.465 64.368C219.145 64.368 218.885 64.46 218.685 64.644C218.493 64.82 218.397 65.048 218.397 65.328C218.397 65.568 218.461 65.8 218.589 66.024C218.725 66.248 218.949 66.524 219.261 66.852L221.757 69.36L221.973 69.024L222.789 67.656H223.965L222.981 69.36C222.845 69.6 222.685 69.852 222.501 70.116L224.385 72H222.957ZM218.985 71.208C219.417 71.208 219.805 71.124 220.149 70.956C220.501 70.788 220.833 70.528 221.145 70.176L218.685 67.704C217.661 68.096 217.149 68.716 217.149 69.564C217.149 70.036 217.317 70.428 217.653 70.74C217.997 71.052 218.441 71.208 218.985 71.208ZM159.598 80.084C159.598 80.78 159.358 81.36 158.878 81.824C158.406 82.28 157.682 82.508 156.706 82.508H155.098V86H154.006V77.636H156.706C157.65 77.636 158.366 77.864 158.854 78.32C159.35 78.776 159.598 79.364 159.598 80.084ZM156.706 81.608C157.314 81.608 157.762 81.476 158.05 81.212C158.338 80.948 158.482 80.572 158.482 80.084C158.482 79.052 157.89 78.536 156.706 78.536H155.098V81.608H156.706ZM162.047 80.492C162.239 80.116 162.511 79.824 162.863 79.616C163.223 79.408 163.659 79.304 164.171 79.304V80.432H163.883C162.659 80.432 162.047 81.096 162.047 82.424V86H160.955V79.424H162.047V80.492ZM168.3 86.108C167.684 86.108 167.124 85.968 166.62 85.688C166.124 85.408 165.732 85.012 165.444 84.5C165.164 83.98 165.024 83.38 165.024 82.7C165.024 82.028 165.168 81.436 165.456 80.924C165.752 80.404 166.152 80.008 166.656 79.736C167.16 79.456 167.724 79.316 168.348 79.316C168.972 79.316 169.536 79.456 170.04 79.736C170.544 80.008 170.94 80.4 171.228 80.912C171.524 81.424 171.672 82.02 171.672 82.7C171.672 83.38 171.52 83.98 171.216 84.5C170.92 85.012 170.516 85.408 170.004 85.688C169.492 85.968 168.924 86.108 168.3 86.108ZM168.3 85.148C168.692 85.148 169.06 85.056 169.404 84.872C169.748 84.688 170.024 84.412 170.232 84.044C170.448 83.676 170.556 83.228 170.556 82.7C170.556 82.172 170.452 81.724 170.244 81.356C170.036 80.988 169.764 80.716 169.428 80.54C169.092 80.356 168.728 80.264 168.336 80.264C167.936 80.264 167.568 80.356 167.232 80.54C166.904 80.716 166.64 80.988 166.44 81.356C166.24 81.724 166.14 82.172 166.14 82.7C166.14 83.236 166.236 83.688 166.428 84.056C166.628 84.424 166.892 84.7 167.22 84.884C167.548 85.06 167.908 85.148 168.3 85.148ZM172.7 82.7C172.7 82.02 172.836 81.428 173.108 80.924C173.38 80.412 173.756 80.016 174.236 79.736C174.724 79.456 175.28 79.316 175.904 79.316C176.712 79.316 177.376 79.512 177.896 79.904C178.424 80.296 178.772 80.84 178.94 81.536H177.764C177.652 81.136 177.432 80.82 177.104 80.588C176.784 80.356 176.384 80.24 175.904 80.24C175.28 80.24 174.776 80.456 174.392 80.888C174.008 81.312 173.816 81.916 173.816 82.7C173.816 83.492 174.008 84.104 174.392 84.536C174.776 84.968 175.28 85.184 175.904 85.184C176.384 85.184 176.784 85.072 177.104 84.848C177.424 84.624 177.644 84.304 177.764 83.888H178.94C178.764 84.56 178.412 85.1 177.884 85.508C177.356 85.908 176.696 86.108 175.904 86.108C175.28 86.108 174.724 85.968 174.236 85.688C173.756 85.408 173.38 85.012 173.108 84.5C172.836 83.988 172.7 83.388 172.7 82.7ZM186.229 79.424V86H185.137V85.028C184.929 85.364 184.637 85.628 184.261 85.82C183.893 86.004 183.485 86.096 183.037 86.096C182.525 86.096 182.065 85.992 181.657 85.784C181.249 85.568 180.925 85.248 180.685 84.824C180.453 84.4 180.337 83.884 180.337 83.276V79.424H181.417V83.132C181.417 83.78 181.581 84.28 181.909 84.632C182.237 84.976 182.685 85.148 183.253 85.148C183.837 85.148 184.297 84.968 184.633 84.608C184.969 84.248 185.137 83.724 185.137 83.036V79.424H186.229ZM189.164 80.492C189.356 80.116 189.628 79.824 189.98 79.616C190.34 79.408 190.776 79.304 191.288 79.304V80.432H191C189.776 80.432 189.164 81.096 189.164 82.424V86H188.072V79.424H189.164V80.492ZM198.549 82.46C198.549 82.668 198.537 82.888 198.513 83.12H193.257C193.297 83.768 193.517 84.276 193.917 84.644C194.325 85.004 194.817 85.184 195.393 85.184C195.865 85.184 196.257 85.076 196.569 84.86C196.889 84.636 197.113 84.34 197.241 83.972H198.417C198.241 84.604 197.889 85.12 197.361 85.52C196.833 85.912 196.177 86.108 195.393 86.108C194.769 86.108 194.209 85.968 193.713 85.688C193.225 85.408 192.841 85.012 192.561 84.5C192.281 83.98 192.141 83.38 192.141 82.7C192.141 82.02 192.277 81.424 192.549 80.912C192.821 80.4 193.201 80.008 193.689 79.736C194.185 79.456 194.753 79.316 195.393 79.316C196.017 79.316 196.569 79.452 197.049 79.724C197.529 79.996 197.897 80.372 198.153 80.852C198.417 81.324 198.549 81.86 198.549 82.46ZM197.421 82.232C197.421 81.816 197.329 81.46 197.145 81.164C196.961 80.86 196.709 80.632 196.389 80.48C196.077 80.32 195.729 80.24 195.345 80.24C194.793 80.24 194.321 80.416 193.929 80.768C193.545 81.12 193.325 81.608 193.269 82.232H197.421ZM207.898 79.304C208.41 79.304 208.866 79.412 209.266 79.628C209.666 79.836 209.982 80.152 210.214 80.576C210.446 81 210.562 81.516 210.562 82.124V86H209.482V82.28C209.482 81.624 209.318 81.124 208.99 80.78C208.67 80.428 208.234 80.252 207.682 80.252C207.114 80.252 206.662 80.436 206.326 80.804C205.99 81.164 205.822 81.688 205.822 82.376V86H204.742V82.28C204.742 81.624 204.578 81.124 204.25 80.78C203.93 80.428 203.494 80.252 202.942 80.252C202.374 80.252 201.922 80.436 201.586 80.804C201.25 81.164 201.082 81.688 201.082 82.376V86H199.99V79.424H201.082V80.372C201.298 80.028 201.586 79.764 201.946 79.58C202.314 79.396 202.718 79.304 203.158 79.304C203.71 79.304 204.198 79.428 204.622 79.676C205.046 79.924 205.362 80.288 205.57 80.768C205.754 80.304 206.058 79.944 206.482 79.688C206.906 79.432 207.378 79.304 207.898 79.304ZM218.354 82.46C218.354 82.668 218.342 82.888 218.318 83.12H213.062C213.102 83.768 213.322 84.276 213.722 84.644C214.13 85.004 214.622 85.184 215.198 85.184C215.67 85.184 216.062 85.076 216.374 84.86C216.694 84.636 216.918 84.34 217.046 83.972H218.222C218.046 84.604 217.694 85.12 217.166 85.52C216.638 85.912 215.982 86.108 215.198 86.108C214.574 86.108 214.014 85.968 213.518 85.688C213.03 85.408 212.646 85.012 212.366 84.5C212.086 83.98 211.946 83.38 211.946 82.7C211.946 82.02 212.082 81.424 212.354 80.912C212.626 80.4 213.006 80.008 213.494 79.736C213.99 79.456 214.558 79.316 215.198 79.316C215.822 79.316 216.374 79.452 216.854 79.724C217.334 79.996 217.702 80.372 217.958 80.852C218.222 81.324 218.354 81.86 218.354 82.46ZM217.226 82.232C217.226 81.816 217.134 81.46 216.95 81.164C216.766 80.86 216.514 80.632 216.194 80.48C215.882 80.32 215.534 80.24 215.15 80.24C214.598 80.24 214.126 80.416 213.734 80.768C213.35 81.12 213.13 81.608 213.074 82.232H217.226ZM222.999 79.304C223.799 79.304 224.447 79.548 224.943 80.036C225.439 80.516 225.687 81.212 225.687 82.124V86H224.607V82.28C224.607 81.624 224.443 81.124 224.115 80.78C223.787 80.428 223.339 80.252 222.771 80.252C222.195 80.252 221.735 80.432 221.391 80.792C221.055 81.152 220.887 81.676 220.887 82.364V86H219.795V79.424H220.887V80.36C221.103 80.024 221.395 79.764 221.763 79.58C222.139 79.396 222.551 79.304 222.999 79.304ZM228.803 80.324V84.2C228.803 84.52 228.871 84.748 229.007 84.884C229.143 85.012 229.379 85.076 229.715 85.076H230.519V86H229.535C228.927 86 228.471 85.86 228.167 85.58C227.863 85.3 227.711 84.84 227.711 84.2V80.324H226.859V79.424H227.711V77.768H228.803V79.424H230.519V80.324H228.803Z" fill="white"/>
<g filter="url(#filter1_d_1964_2419)">
<rect width="117.405" height="92.2464" fill="#1661BE" fill-opacity="0.4"/>
<rect x="0.838604" y="0.838604" width="115.727" height="90.5692" stroke="#1661BE" stroke-width="1.67721"/>
</g>
<path d="M21.1864 82.0108C20.6344 82.0108 20.1384 81.9148 19.6984 81.7228C19.2664 81.5228 18.9264 81.2508 18.6784 80.9068C18.4304 80.5548 18.3024 80.1508 18.2944 79.6948H19.4584C19.4984 80.0868 19.6584 80.4188 19.9384 80.6908C20.2264 80.9548 20.6424 81.0868 21.1864 81.0868C21.7064 81.0868 22.1144 80.9588 22.4104 80.7028C22.7144 80.4388 22.8664 80.1028 22.8664 79.6948C22.8664 79.3748 22.7784 79.1148 22.6024 78.9148C22.4264 78.7148 22.2064 78.5628 21.9424 78.4588C21.6784 78.3548 21.3224 78.2428 20.8744 78.1228C20.3224 77.9788 19.8784 77.8348 19.5424 77.6908C19.2144 77.5468 18.9304 77.3228 18.6904 77.0188C18.4584 76.7068 18.3424 76.2908 18.3424 75.7708C18.3424 75.3148 18.4584 74.9108 18.6904 74.5588C18.9224 74.2068 19.2464 73.9348 19.6624 73.7428C20.0864 73.5508 20.5704 73.4548 21.1144 73.4548C21.8984 73.4548 22.5384 73.6508 23.0344 74.0428C23.5384 74.4348 23.8224 74.9548 23.8864 75.6028H22.6864C22.6464 75.2828 22.4784 75.0028 22.1824 74.7628C21.8864 74.5148 21.4944 74.3908 21.0064 74.3908C20.5504 74.3908 20.1784 74.5108 19.8904 74.7508C19.6024 74.9828 19.4584 75.3108 19.4584 75.7348C19.4584 76.0388 19.5424 76.2868 19.7104 76.4788C19.8864 76.6708 20.0984 76.8188 20.3464 76.9228C20.6024 77.0188 20.9584 77.1308 21.4144 77.2588C21.9664 77.4108 22.4104 77.5628 22.7464 77.7148C23.0824 77.8588 23.3704 78.0868 23.6104 78.3988C23.8504 78.7028 23.9704 79.1188 23.9704 79.6468C23.9704 80.0548 23.8624 80.4388 23.6464 80.7988C23.4304 81.1588 23.1104 81.4508 22.6864 81.6748C22.2624 81.8988 21.7624 82.0108 21.1864 82.0108ZM31.4093 75.3508V81.9268H30.3173V80.9548C30.1093 81.2908 29.8173 81.5548 29.4413 81.7468C29.0733 81.9308 28.6653 82.0228 28.2173 82.0228C27.7053 82.0228 27.2453 81.9188 26.8373 81.7108C26.4293 81.4948 26.1053 81.1748 25.8653 80.7508C25.6333 80.3268 25.5173 79.8108 25.5173 79.2028V75.3508H26.5973V79.0588C26.5973 79.7068 26.7613 80.2068 27.0893 80.5588C27.4173 80.9028 27.8653 81.0748 28.4333 81.0748C29.0173 81.0748 29.4773 80.8948 29.8133 80.5348C30.1493 80.1748 30.3173 79.6508 30.3173 78.9628V75.3508H31.4093ZM34.3451 76.5628C34.5611 76.1868 34.8811 75.8748 35.3051 75.6268C35.7371 75.3708 36.2371 75.2428 36.8051 75.2428C37.3891 75.2428 37.9171 75.3828 38.3891 75.6628C38.8691 75.9428 39.2451 76.3388 39.5171 76.8508C39.7891 77.3548 39.9251 77.9428 39.9251 78.6148C39.9251 79.2788 39.7891 79.8708 39.5171 80.3908C39.2451 80.9108 38.8691 81.3148 38.3891 81.6028C37.9171 81.8908 37.3891 82.0348 36.8051 82.0348C36.2451 82.0348 35.7491 81.9108 35.3171 81.6628C34.8931 81.4068 34.5691 81.0908 34.3451 80.7148V85.0468H33.2531V75.3508H34.3451V76.5628ZM38.8091 78.6148C38.8091 78.1188 38.7091 77.6868 38.5091 77.3188C38.3091 76.9508 38.0371 76.6708 37.6931 76.4788C37.3571 76.2868 36.9851 76.1908 36.5771 76.1908C36.1771 76.1908 35.8051 76.2908 35.4611 76.4908C35.1251 76.6828 34.8531 76.9668 34.6451 77.3428C34.4451 77.7108 34.3451 78.1388 34.3451 78.6268C34.3451 79.1228 34.4451 79.5588 34.6451 79.9348C34.8531 80.3028 35.1251 80.5868 35.4611 80.7868C35.8051 80.9788 36.1771 81.0748 36.5771 81.0748C36.9851 81.0748 37.3571 80.9788 37.6931 80.7868C38.0371 80.5868 38.3091 80.3028 38.5091 79.9348C38.7091 79.5588 38.8091 79.1188 38.8091 78.6148ZM42.4545 76.5628C42.6705 76.1868 42.9905 75.8748 43.4145 75.6268C43.8465 75.3708 44.3465 75.2428 44.9145 75.2428C45.4985 75.2428 46.0265 75.3828 46.4985 75.6628C46.9785 75.9428 47.3545 76.3388 47.6265 76.8508C47.8985 77.3548 48.0345 77.9428 48.0345 78.6148C48.0345 79.2788 47.8985 79.8708 47.6265 80.3908C47.3545 80.9108 46.9785 81.3148 46.4985 81.6028C46.0265 81.8908 45.4985 82.0348 44.9145 82.0348C44.3545 82.0348 43.8585 81.9108 43.4265 81.6628C43.0025 81.4068 42.6785 81.0908 42.4545 80.7148V85.0468H41.3625V75.3508H42.4545V76.5628ZM46.9185 78.6148C46.9185 78.1188 46.8185 77.6868 46.6185 77.3188C46.4185 76.9508 46.1465 76.6708 45.8025 76.4788C45.4665 76.2868 45.0945 76.1908 44.6865 76.1908C44.2865 76.1908 43.9145 76.2908 43.5705 76.4908C43.2345 76.6828 42.9625 76.9668 42.7545 77.3428C42.5545 77.7108 42.4545 78.1388 42.4545 78.6268C42.4545 79.1228 42.5545 79.5588 42.7545 79.9348C42.9625 80.3028 43.2345 80.5868 43.5705 80.7868C43.9145 80.9788 44.2865 81.0748 44.6865 81.0748C45.0945 81.0748 45.4665 80.9788 45.8025 80.7868C46.1465 80.5868 46.4185 80.3028 46.6185 79.9348C46.8185 79.5588 46.9185 79.1188 46.9185 78.6148ZM50.5639 73.0468V81.9268H49.4719V73.0468H50.5639ZM58.089 75.3508L54.129 85.0228H53.001L54.297 81.8548L51.645 75.3508H52.857L54.921 80.6788L56.961 75.3508H58.089ZM61.9779 77.7388C61.9779 76.9228 62.1619 76.1908 62.5299 75.5428C62.8979 74.8868 63.3979 74.3748 64.0299 74.0068C64.6699 73.6388 65.3779 73.4548 66.1539 73.4548C67.0659 73.4548 67.8619 73.6748 68.5419 74.1148C69.2219 74.5548 69.7179 75.1788 70.0299 75.9868H68.7219C68.4899 75.4828 68.1539 75.0948 67.7139 74.8228C67.2819 74.5508 66.7619 74.4148 66.1539 74.4148C65.5699 74.4148 65.0459 74.5508 64.5819 74.8228C64.1179 75.0948 63.7539 75.4828 63.4899 75.9868C63.2259 76.4828 63.0939 77.0668 63.0939 77.7388C63.0939 78.4028 63.2259 78.9868 63.4899 79.4908C63.7539 79.9868 64.1179 80.3708 64.5819 80.6428C65.0459 80.9148 65.5699 81.0508 66.1539 81.0508C66.7619 81.0508 67.2819 80.9188 67.7139 80.6548C68.1539 80.3828 68.4899 79.9948 68.7219 79.4908H70.0299C69.7179 80.2908 69.2219 80.9108 68.5419 81.3508C67.8619 81.7828 67.0659 81.9988 66.1539 81.9988C65.3779 81.9988 64.6699 81.8188 64.0299 81.4588C63.3979 81.0908 62.8979 80.5828 62.5299 79.9348C62.1619 79.2868 61.9779 78.5548 61.9779 77.7388ZM74.9194 75.2308C75.4154 75.2308 75.8634 75.3388 76.2634 75.5548C76.6634 75.7628 76.9754 76.0788 77.1994 76.5028C77.4314 76.9268 77.5474 77.4428 77.5474 78.0508V81.9268H76.4674V78.2068C76.4674 77.5508 76.3034 77.0508 75.9754 76.7068C75.6474 76.3548 75.1994 76.1788 74.6314 76.1788C74.0554 76.1788 73.5954 76.3588 73.2514 76.7188C72.9154 77.0788 72.7474 77.6028 72.7474 78.2908V81.9268H71.6554V73.0468H72.7474V76.2868C72.9634 75.9508 73.2594 75.6908 73.6354 75.5068C74.0194 75.3228 74.4474 75.2308 74.9194 75.2308ZM78.9232 78.6148C78.9232 77.9428 79.0592 77.3548 79.3312 76.8508C79.6032 76.3388 79.9752 75.9428 80.4472 75.6628C80.9272 75.3828 81.4592 75.2428 82.0432 75.2428C82.6192 75.2428 83.1192 75.3668 83.5432 75.6148C83.9672 75.8628 84.2832 76.1748 84.4912 76.5508V75.3508H85.5952V81.9268H84.4912V80.7028C84.2752 81.0868 83.9512 81.4068 83.5192 81.6628C83.0952 81.9108 82.5992 82.0348 82.0312 82.0348C81.4472 82.0348 80.9192 81.8908 80.4472 81.6028C79.9752 81.3148 79.6032 80.9108 79.3312 80.3908C79.0592 79.8708 78.9232 79.2788 78.9232 78.6148ZM84.4912 78.6268C84.4912 78.1308 84.3912 77.6988 84.1912 77.3308C83.9912 76.9628 83.7192 76.6828 83.3752 76.4908C83.0392 76.2908 82.6672 76.1908 82.2592 76.1908C81.8512 76.1908 81.4792 76.2868 81.1432 76.4788C80.8072 76.6708 80.5392 76.9508 80.3392 77.3188C80.1392 77.6868 80.0392 78.1188 80.0392 78.6148C80.0392 79.1188 80.1392 79.5588 80.3392 79.9348C80.5392 80.3028 80.8072 80.5868 81.1432 80.7868C81.4792 80.9788 81.8512 81.0748 82.2592 81.0748C82.6672 81.0748 83.0392 80.9788 83.3752 80.7868C83.7192 80.5868 83.9912 80.3028 84.1912 79.9348C84.3912 79.5588 84.4912 79.1228 84.4912 78.6268ZM88.0046 74.2828C87.7966 74.2828 87.6206 74.2108 87.4766 74.0668C87.3326 73.9228 87.2606 73.7468 87.2606 73.5388C87.2606 73.3308 87.3326 73.1548 87.4766 73.0108C87.6206 72.8668 87.7966 72.7948 88.0046 72.7948C88.2046 72.7948 88.3726 72.8668 88.5086 73.0108C88.6526 73.1548 88.7246 73.3308 88.7246 73.5388C88.7246 73.7468 88.6526 73.9228 88.5086 74.0668C88.3726 74.2108 88.2046 74.2828 88.0046 74.2828ZM88.5326 75.3508V81.9268H87.4406V75.3508H88.5326ZM93.5977 75.2308C94.3977 75.2308 95.0457 75.4748 95.5417 75.9628C96.0377 76.4428 96.2857 77.1388 96.2857 78.0508V81.9268H95.2057V78.2068C95.2057 77.5508 95.0417 77.0508 94.7137 76.7068C94.3857 76.3548 93.9377 76.1788 93.3697 76.1788C92.7937 76.1788 92.3337 76.3588 91.9897 76.7188C91.6537 77.0788 91.4857 77.6028 91.4857 78.2908V81.9268H90.3937V75.3508H91.4857V76.2868C91.7017 75.9508 91.9937 75.6908 92.3617 75.5068C92.7377 75.3228 93.1497 75.2308 93.5977 75.2308Z" fill="white"/>
<g filter="url(#filter2_d_1964_2419)">
<rect y="109.019" width="117.405" height="92.2464" fill="#1661BE" fill-opacity="0.4"/>
<rect x="0.838604" y="109.857" width="115.727" height="90.5692" stroke="#1661BE" stroke-width="1.67721"/>
</g>
<g clip-path="url(#clip2_1964_2419)">
<path d="M67.9199 150.391V150.551L68.0755 150.586C69.886 150.999 71.2161 152.514 71.2161 154.297C71.2161 154.755 70.8443 155.127 70.386 155.127C69.9277 155.127 69.556 154.755 69.556 154.297C69.556 153.079 68.4218 152.135 67.0899 152.135C65.7579 152.135 64.6238 153.079 64.6238 154.297C64.6238 155.515 65.758 156.458 67.0899 156.458C69.3789 156.458 71.2161 158.186 71.2161 160.28C71.2161 162.062 69.886 163.577 68.0755 163.99L67.9199 164.026V164.185V164.63C67.9199 165.088 67.5482 165.46 67.0899 165.46C66.6315 165.46 66.2598 165.088 66.2598 164.63V164.185V164.026L66.1043 163.99C64.2937 163.577 62.9637 162.062 62.9637 160.28C62.9637 159.821 63.3354 159.45 63.7937 159.45C64.2521 159.45 64.6238 159.821 64.6238 160.28C64.6238 161.498 65.7579 162.441 67.0899 162.441C68.4218 162.441 69.556 161.498 69.556 160.28C69.556 159.062 68.4218 158.118 67.0899 158.118C64.8008 158.118 62.9637 156.39 62.9637 154.297C62.9637 152.514 64.2937 150.999 66.1043 150.586L66.2598 150.551V150.391V149.856C66.2598 149.397 66.6315 149.026 67.0899 149.026C67.5482 149.026 67.9199 149.397 67.9199 149.856V150.391Z" fill="white" stroke="#1A385D" stroke-width="0.4"/>
<path d="M72.8031 145.46L72.8031 145.46C75.0105 146.521 76.8779 148.174 78.2035 150.239C79.5654 152.361 80.2853 154.822 80.2853 157.355C80.2853 159.511 79.7531 161.651 78.7467 163.542C78.5976 163.823 78.3105 163.983 78.013 163.983C77.8818 163.983 77.7485 163.951 77.624 163.885L77.624 163.885C77.2193 163.67 77.0658 163.167 77.2811 162.763L77.1046 162.669L77.2811 162.763C78.1605 161.11 78.6252 159.24 78.6252 157.355C78.6252 152.948 76.058 148.867 72.0837 146.956C71.6705 146.758 71.4967 146.262 71.6953 145.848L71.6953 145.848C71.8938 145.435 72.3898 145.261 72.8031 145.46Z" fill="white" stroke="#1A385D" stroke-width="0.4"/>
<path d="M68.7087 143.964L68.6394 143.964C68.0706 143.964 67.6094 144.425 67.6094 144.994C67.6094 145.563 68.0706 146.024 68.6394 146.024L68.6991 146.024C68.7007 146.024 68.7023 146.024 68.704 146.024C69.2706 146.024 69.7313 145.566 69.7339 144.999C69.7365 144.43 69.2775 143.967 68.7087 143.964Z" fill="white"/>
<path d="M56.9083 151.946L56.9083 151.946C56.0288 153.599 55.5642 155.469 55.5642 157.355C55.5642 161.761 58.1314 165.842 62.1055 167.753C62.5187 167.952 62.6926 168.448 62.4941 168.861C62.3512 169.158 62.0548 169.331 61.7453 169.331C61.6248 169.331 61.5025 169.305 61.3864 169.249L61.3863 169.249C59.1789 168.188 57.3115 166.535 55.9859 164.47C54.624 162.348 53.9041 159.887 53.9041 157.355C53.9041 155.198 54.4363 153.058 55.4427 151.167L55.4428 151.167C55.6579 150.762 56.1608 150.609 56.5653 150.824L56.5654 150.824C56.9701 151.039 57.1236 151.542 56.9083 151.946Z" fill="white" stroke="#1A385D" stroke-width="0.4"/>
<path d="M65.5494 168.685L65.4898 168.685C64.9183 168.684 64.4577 169.141 64.4551 169.71C64.4524 170.279 64.9116 170.742 65.4804 170.745L65.5494 170.745C66.1182 170.745 66.5795 170.284 66.5795 169.715C66.5795 169.147 66.1182 168.685 65.5494 168.685Z" fill="white"/>
<path d="M71.6799 140.518L71.6987 140.563L71.7454 140.576C79.0951 142.615 84.5057 149.365 84.5057 157.355C84.5057 166.955 76.6951 174.766 67.0949 174.766C62.0829 174.766 57.5596 172.636 54.3798 169.235L54.3501 169.203H54.3067H42.1676C39.6103 169.203 37.5294 167.122 37.5294 164.565C37.5294 163.096 38.2163 161.786 39.2855 160.935L39.3839 160.857L39.2855 160.779C38.2163 159.928 37.5294 158.617 37.5294 157.149C37.5294 155.68 38.2163 154.369 39.2855 153.519L39.3839 153.44L39.2855 153.362C38.2163 152.512 37.5294 151.201 37.5294 149.732C37.5294 148.264 38.2163 146.953 39.2855 146.102L39.3839 146.024L39.2855 145.946C38.2163 145.095 37.5294 143.785 37.5294 142.316C37.5294 139.759 39.6103 137.678 42.1676 137.678H44.854H45.0442L44.9364 137.521C44.4229 136.775 44.1217 135.872 44.1217 134.9C44.1217 133.927 44.423 133.025 44.9364 132.278L45.0442 132.122H44.854H36.6054C34.048 132.122 31.9672 130.041 31.9672 127.483C31.9672 124.926 34.048 122.845 36.6054 122.845H61.8415C64.3989 122.845 66.4797 124.926 66.4797 127.483C66.4797 128.456 66.1784 129.358 65.6651 130.105L65.5573 130.261H65.7475H73.9961C76.5535 130.261 78.6343 132.342 78.6343 134.9C78.6343 137.457 76.5535 139.538 73.9961 139.538H71.3145H71.1248L71.2319 139.694C71.4068 139.95 71.5571 140.225 71.6799 140.518ZM68.564 140.007L68.616 139.817C68.2464 139.638 67.8343 139.538 67.4038 139.538H42.1676C40.6357 139.538 39.3895 140.784 39.3895 142.316C39.3895 143.848 40.6357 145.094 42.1676 145.094H54.7035H54.745L54.7743 145.065C57.9283 141.903 62.287 139.944 67.0949 139.944C67.5896 139.944 68.0794 139.966 68.564 140.007ZM53.0243 147.113L53.1403 146.954H52.9435H42.1676C40.6356 146.954 39.3895 148.2 39.3895 149.732C39.3895 151.264 40.6356 152.51 42.1676 152.51H50.2959H50.3707L50.3919 152.439C50.9627 150.503 51.8616 148.706 53.0243 147.113ZM49.9216 154.487L49.941 154.371H49.823H42.1676C40.6356 154.371 39.3895 155.617 39.3895 157.149C39.3895 158.681 40.6356 159.927 42.1676 159.927H49.7594H49.8746L49.8584 159.813C49.7444 159.009 49.6841 158.189 49.6841 157.355C49.6841 156.378 49.7662 155.42 49.9216 154.487ZM50.2766 161.861L50.2567 161.787H50.18H42.1676C40.6356 161.787 39.3895 163.033 39.3895 164.565C39.3895 166.097 40.6356 167.343 42.1676 167.343H52.6514H52.8413L52.7338 167.187C51.6328 165.583 50.7933 163.788 50.2766 161.861ZM76.7742 134.9C76.7742 133.368 75.5281 132.122 73.9961 132.122H48.7599C47.2279 132.122 45.9818 133.368 45.9818 134.9C45.9818 136.432 47.2279 137.678 48.7599 137.678H67.4038H73.9961C75.5281 137.678 76.7742 136.432 76.7742 134.9ZM33.8273 127.483C33.8273 129.015 35.0734 130.261 36.6054 130.261H61.8415C63.3735 130.261 64.6197 129.015 64.6197 127.483C64.6197 125.951 63.3735 124.705 61.8415 124.705H36.6054C35.0734 124.705 33.8273 125.951 33.8273 127.483ZM51.5442 157.355C51.5442 165.93 58.5201 172.905 67.0949 172.905C75.6696 172.905 82.6456 165.93 82.6456 157.355C82.6456 148.78 75.6696 141.804 67.0949 141.804C58.5201 141.804 51.5442 148.78 51.5442 157.355Z" fill="white" stroke="#1A385D" stroke-width="0.2"/>
</g>
<path d="M40.652 182.581V183.469H37.016V186.289H39.968V187.177H37.016V190.945H35.924V182.581H40.652ZM42.5349 183.301C42.3269 183.301 42.1509 183.229 42.0069 183.085C41.8629 182.941 41.7909 182.765 41.7909 182.557C41.7909 182.349 41.8629 182.173 42.0069 182.029C42.1509 181.885 42.3269 181.813 42.5349 181.813C42.7349 181.813 42.9029 181.885 43.0389 182.029C43.1829 182.173 43.2549 182.349 43.2549 182.557C43.2549 182.765 43.1829 182.941 43.0389 183.085C42.9029 183.229 42.7349 183.301 42.5349 183.301ZM43.0629 184.369V190.945H41.9709V184.369H43.0629ZM48.128 184.249C48.928 184.249 49.576 184.493 50.072 184.981C50.568 185.461 50.816 186.157 50.816 187.069V190.945H49.736V187.225C49.736 186.569 49.572 186.069 49.244 185.725C48.916 185.373 48.468 185.197 47.9 185.197C47.324 185.197 46.864 185.377 46.52 185.737C46.184 186.097 46.016 186.621 46.016 187.309V190.945H44.924V184.369H46.016V185.305C46.232 184.969 46.524 184.709 46.892 184.525C47.268 184.341 47.68 184.249 48.128 184.249ZM52.1918 187.633C52.1918 186.961 52.3278 186.373 52.5998 185.869C52.8718 185.357 53.2438 184.961 53.7158 184.681C54.1958 184.401 54.7278 184.261 55.3118 184.261C55.8878 184.261 56.3878 184.385 56.8118 184.633C57.2358 184.881 57.5518 185.193 57.7598 185.569V184.369H58.8638V190.945H57.7598V189.721C57.5438 190.105 57.2198 190.425 56.7878 190.681C56.3638 190.929 55.8678 191.053 55.2998 191.053C54.7158 191.053 54.1878 190.909 53.7158 190.621C53.2438 190.333 52.8718 189.929 52.5998 189.409C52.3278 188.889 52.1918 188.297 52.1918 187.633ZM57.7598 187.645C57.7598 187.149 57.6598 186.717 57.4598 186.349C57.2598 185.981 56.9878 185.701 56.6438 185.509C56.3078 185.309 55.9358 185.209 55.5278 185.209C55.1198 185.209 54.7478 185.305 54.4118 185.497C54.0758 185.689 53.8078 185.969 53.6078 186.337C53.4078 186.705 53.3078 187.137 53.3078 187.633C53.3078 188.137 53.4078 188.577 53.6078 188.953C53.8078 189.321 54.0758 189.605 54.4118 189.805C54.7478 189.997 55.1198 190.093 55.5278 190.093C55.9358 190.093 56.3078 189.997 56.6438 189.805C56.9878 189.605 57.2598 189.321 57.4598 188.953C57.6598 188.577 57.7598 188.141 57.7598 187.645ZM63.9132 184.249C64.7132 184.249 65.3612 184.493 65.8572 184.981C66.3532 185.461 66.6012 186.157 66.6012 187.069V190.945H65.5212V187.225C65.5212 186.569 65.3572 186.069 65.0292 185.725C64.7012 185.373 64.2532 185.197 63.6852 185.197C63.1092 185.197 62.6492 185.377 62.3052 185.737C61.9692 186.097 61.8012 186.621 61.8012 187.309V190.945H60.7092V184.369H61.8012V185.305C62.0172 184.969 62.3092 184.709 62.6772 184.525C63.0532 184.341 63.4652 184.249 63.9132 184.249ZM67.9769 187.645C67.9769 186.965 68.1129 186.373 68.3849 185.869C68.6569 185.357 69.0329 184.961 69.5129 184.681C70.0009 184.401 70.5569 184.261 71.1809 184.261C71.9889 184.261 72.6529 184.457 73.1729 184.849C73.7009 185.241 74.0489 185.785 74.2169 186.481H73.0409C72.9289 186.081 72.7089 185.765 72.3809 185.533C72.0609 185.301 71.6609 185.185 71.1809 185.185C70.5569 185.185 70.0529 185.401 69.6689 185.833C69.2849 186.257 69.0929 186.861 69.0929 187.645C69.0929 188.437 69.2849 189.049 69.6689 189.481C70.0529 189.913 70.5569 190.129 71.1809 190.129C71.6609 190.129 72.0609 190.017 72.3809 189.793C72.7009 189.569 72.9209 189.249 73.0409 188.833H74.2169C74.0409 189.505 73.6889 190.045 73.1609 190.453C72.6329 190.853 71.9729 191.053 71.1809 191.053C70.5569 191.053 70.0009 190.913 69.5129 190.633C69.0329 190.353 68.6569 189.957 68.3849 189.445C68.1129 188.933 67.9769 188.333 67.9769 187.645ZM81.674 187.405C81.674 187.613 81.662 187.833 81.638 188.065H76.382C76.422 188.713 76.642 189.221 77.042 189.589C77.45 189.949 77.942 190.129 78.518 190.129C78.99 190.129 79.382 190.021 79.694 189.805C80.014 189.581 80.238 189.285 80.366 188.917H81.542C81.366 189.549 81.014 190.065 80.486 190.465C79.958 190.857 79.302 191.053 78.518 191.053C77.894 191.053 77.334 190.913 76.838 190.633C76.35 190.353 75.966 189.957 75.686 189.445C75.406 188.925 75.266 188.325 75.266 187.645C75.266 186.965 75.402 186.369 75.674 185.857C75.946 185.345 76.326 184.953 76.814 184.681C77.31 184.401 77.878 184.261 78.518 184.261C79.142 184.261 79.694 184.397 80.174 184.669C80.654 184.941 81.022 185.317 81.278 185.797C81.542 186.269 81.674 186.805 81.674 187.405ZM80.546 187.177C80.546 186.761 80.454 186.405 80.27 186.109C80.086 185.805 79.834 185.577 79.514 185.425C79.202 185.265 78.854 185.185 78.47 185.185C77.918 185.185 77.446 185.361 77.054 185.713C76.67 186.065 76.45 186.553 76.394 187.177H80.546Z" fill="white"/>
<g filter="url(#filter3_d_1964_2419)">
<rect x="67" y="217" width="117.405" height="92.2464" fill="#1661BE" fill-opacity="0.4"/>
<rect x="67.8386" y="217.839" width="115.727" height="90.5692" stroke="#1661BE" stroke-width="1.67721"/>
</g>
<mask id="mask1_1964_2419" style="mask-type:luminance" maskUnits="userSpaceOnUse" x="94" y="220" width="64" height="63">
<path d="M94.6738 220.032H157.294V282.652H94.6738V220.032Z" fill="white"/>
</mask>
<g mask="url(#mask1_1964_2419)">
<path d="M126.657 269.688C126.657 269.316 126.355 269.015 125.984 269.015C125.612 269.015 125.311 269.316 125.311 269.688C125.311 270.059 125.612 270.361 125.984 270.361C126.355 270.361 126.657 270.059 126.657 269.688Z" fill="white" stroke="#1A385D" stroke-width="1.1"/>
<path fill-rule="evenodd" clip-rule="evenodd" d="M138.582 258.68C138.582 262.733 141.868 266.019 145.92 266.019C149.973 266.019 153.259 262.733 153.259 258.68C153.259 254.628 149.973 251.342 145.92 251.342C141.868 251.342 138.582 254.628 138.582 258.68ZM145.92 263.572C143.219 263.572 141.028 261.382 141.028 258.68C141.028 255.979 143.219 253.788 145.92 253.788C148.622 253.788 150.813 255.979 150.813 258.68C150.813 261.382 148.622 263.572 145.92 263.572Z" fill="white" stroke="#1A385D" stroke-width="1.1" stroke-miterlimit="10" stroke-linecap="round" stroke-linejoin="round"/>
<path fill-rule="evenodd" clip-rule="evenodd" d="M94.6738 279.472C94.6738 280.148 95.2214 280.695 95.8969 280.695H112.53C113.206 280.695 113.754 280.148 113.754 279.472C113.754 278.797 113.206 278.249 112.53 278.249H97.1199V277.026C97.1199 272.356 101.261 268.465 106.048 268.465C108.987 268.465 111.888 269.934 113.411 272.091C113.801 272.643 114.564 272.774 115.116 272.384C115.668 271.995 115.799 271.232 115.409 270.68C113.391 267.822 109.717 266.019 106.048 266.019C100.028 266.019 94.6738 270.89 94.6738 277.026V279.472Z" fill="white" stroke="#1A385D" stroke-width="1.1" stroke-miterlimit="10" stroke-linecap="round" stroke-linejoin="round"/>
<path fill-rule="evenodd" clip-rule="evenodd" d="M138.215 279.472C138.215 280.148 138.762 280.695 139.438 280.695H156.072C156.747 280.695 157.295 280.148 157.295 279.472V277.026C157.295 270.89 151.94 266.019 145.92 266.019C142.252 266.019 138.577 267.822 136.559 270.68C136.169 271.232 136.301 271.995 136.852 272.384C137.404 272.774 138.167 272.643 138.557 272.091C140.081 269.934 142.982 268.465 145.92 268.465C150.707 268.465 154.848 272.356 154.848 277.026V278.249H139.438C138.762 278.249 138.215 278.797 138.215 279.472Z" fill="white" stroke="#1A385D" stroke-width="1.1" stroke-miterlimit="10" stroke-linecap="round" stroke-linejoin="round"/>
<path fill-rule="evenodd" clip-rule="evenodd" d="M98.71 258.68C98.71 262.733 101.996 266.019 106.048 266.019C110.101 266.019 113.387 262.733 113.387 258.68C113.387 254.628 110.101 251.342 106.048 251.342C101.996 251.342 98.71 254.628 98.71 258.68ZM106.048 263.572C103.347 263.572 101.156 261.382 101.156 258.68C101.156 255.979 103.347 253.788 106.048 253.788C108.75 253.788 110.941 255.979 110.941 258.68C110.941 261.382 108.75 263.572 106.048 263.572Z" fill="white" stroke="#1A385D" stroke-width="1.1" stroke-miterlimit="10" stroke-linecap="round" stroke-linejoin="round"/>
<path fill-rule="evenodd" clip-rule="evenodd" d="M116.199 253.788C116.199 259.192 120.58 263.572 125.984 263.572C131.387 263.572 135.768 259.192 135.768 253.788C135.768 248.384 131.387 244.003 125.984 244.003C120.58 244.003 116.199 248.384 116.199 253.788ZM125.984 261.126C121.931 261.126 118.645 257.841 118.645 253.788C118.645 249.735 121.931 246.449 125.984 246.449C130.037 246.449 133.322 249.735 133.322 253.788C133.322 257.841 130.037 261.126 125.984 261.126Z" fill="white" stroke="#1A385D" stroke-width="1.1" stroke-miterlimit="10" stroke-linecap="round" stroke-linejoin="round"/>
<path fill-rule="evenodd" clip-rule="evenodd" d="M119.932 240.533C120.309 240.806 120.808 240.842 121.22 240.626L125.941 238.144C127.003 238.702 127.905 239.176 128.859 239.678C129.427 239.976 130.013 240.284 130.662 240.626C131.075 240.842 131.574 240.806 131.951 240.532C132.327 240.259 132.516 239.795 132.437 239.336L131.534 234.079L135.354 230.356C135.688 230.031 135.808 229.545 135.664 229.102C135.52 228.659 135.137 228.336 134.676 228.269L129.401 227.504L127.039 222.674C126.834 222.255 126.408 221.989 125.94 221.989C125.473 221.989 125.047 222.255 124.842 222.674L122.48 227.504L117.205 228.269C116.744 228.336 116.361 228.659 116.217 229.102C116.073 229.545 116.193 230.031 116.527 230.356L120.347 234.079L119.445 239.336C119.367 239.795 119.555 240.259 119.932 240.533ZM129.607 237.307C128.628 236.793 127.674 236.291 126.509 235.679C126.153 235.492 125.728 235.492 125.371 235.679L122.275 237.307L122.866 233.858C122.935 233.462 122.803 233.057 122.515 232.776L120.009 230.334L123.471 229.832C123.871 229.773 124.216 229.522 124.394 229.158L125.94 225.996L127.487 229.158C127.665 229.522 128.01 229.773 128.41 229.832L131.872 230.334L129.366 232.776C129.078 233.057 128.946 233.462 129.015 233.859L129.607 237.307Z" fill="white" stroke="#1A385D" stroke-width="1.1" stroke-miterlimit="10" stroke-linecap="round" stroke-linejoin="round"/>
<path fill-rule="evenodd" clip-rule="evenodd" d="M142.202 246.799C142.578 247.073 143.077 247.109 143.489 246.892L146.688 245.212L149.885 246.892C150.297 247.109 150.796 247.073 151.172 246.799C151.549 246.525 151.738 246.062 151.659 245.603L151.048 242.044L153.635 239.522C153.968 239.197 154.088 238.711 153.944 238.268C153.8 237.825 153.417 237.503 152.957 237.436L149.382 236.917L147.785 233.678C147.579 233.26 147.153 232.996 146.688 232.996C146.222 232.996 145.797 233.26 145.591 233.677L143.992 236.917L140.417 237.436C139.957 237.503 139.574 237.825 139.43 238.268C139.286 238.711 139.406 239.197 139.739 239.522L142.326 242.044L141.715 245.603C141.637 246.062 141.825 246.525 142.202 246.799ZM144.545 243.575L144.845 241.824C144.913 241.427 144.782 241.022 144.494 240.741L143.221 239.5L144.98 239.245C145.378 239.187 145.723 238.937 145.901 238.576L146.687 236.983L147.473 238.576C147.651 238.937 147.996 239.187 148.394 239.245L150.153 239.5L148.88 240.741C148.592 241.022 148.461 241.427 148.529 241.824L148.829 243.574L147.257 242.748C146.9 242.561 146.475 242.561 146.119 242.748L144.545 243.575Z" fill="white" stroke="#1A385D" stroke-width="1.1" stroke-miterlimit="10" stroke-linecap="round" stroke-linejoin="round"/>
<path fill-rule="evenodd" clip-rule="evenodd" d="M100.618 246.799C100.994 247.073 101.493 247.109 101.905 246.892L105.104 245.212L108.301 246.892C108.713 247.109 109.212 247.073 109.589 246.799C109.965 246.525 110.154 246.062 110.075 245.603L109.464 242.044L112.051 239.522C112.384 239.197 112.504 238.711 112.36 238.268C112.216 237.825 111.833 237.503 111.373 237.436L107.798 236.917L106.201 233.678C105.995 233.26 105.569 232.996 105.104 232.996C104.638 232.996 104.213 233.26 104.007 233.677L102.408 236.917L98.8335 237.436C98.3728 237.503 97.99 237.825 97.8461 238.268C97.7022 238.711 97.8221 239.197 98.1554 239.522L100.742 242.044L100.131 245.603C100.053 246.062 100.241 246.525 100.618 246.799ZM102.961 243.575L103.261 241.824C103.329 241.427 103.198 241.022 102.91 240.741L101.637 239.5L103.396 239.245C103.794 239.187 104.139 238.937 104.317 238.576L105.103 236.983L105.889 238.576C106.067 238.937 106.412 239.187 106.81 239.245L108.569 239.5L107.296 240.741C107.008 241.022 106.877 241.427 106.945 241.824L107.245 243.574L105.673 242.748C105.317 242.561 104.891 242.561 104.535 242.748L102.961 243.575Z" fill="white" stroke="#1A385D" stroke-width="1.1" stroke-miterlimit="10" stroke-linecap="round" stroke-linejoin="round"/>
<path fill-rule="evenodd" clip-rule="evenodd" d="M111.308 279.472C111.308 280.148 111.855 280.695 112.531 280.695H139.438C140.113 280.695 140.661 280.148 140.661 279.472V278.249C140.661 275.516 139.912 272.954 138.61 270.761L138.609 270.76C137.981 269.704 137.225 268.734 136.362 267.872C133.708 265.216 130.037 263.573 125.984 263.573C120.612 263.573 115.916 266.459 113.359 270.76L113.359 270.761C112.056 272.954 111.308 275.516 111.308 278.249V279.472ZM113.754 278.249C113.754 275.968 114.377 273.836 115.462 272.01C115.462 272.01 115.462 272.01 115.462 272.01C117.597 268.42 121.511 266.019 125.984 266.019C129.363 266.019 132.418 267.386 134.632 269.601L134.632 269.601C135.352 270.321 135.983 271.13 136.507 272.011C137.591 273.836 138.215 275.968 138.215 278.249H113.754Z" fill="white" stroke="#1A385D" stroke-width="1.1" stroke-miterlimit="10" stroke-linecap="round" stroke-linejoin="round"/>
<path fill-rule="evenodd" clip-rule="evenodd" d="M134.245 275.684C134.855 275.394 135.114 274.664 134.823 274.054C134.049 272.427 132.838 271.047 131.344 270.066C130.779 269.695 130.021 269.852 129.65 270.416C129.279 270.981 129.436 271.739 130.001 272.11C131.124 272.848 132.034 273.886 132.615 275.105C132.905 275.715 133.635 275.975 134.245 275.684Z" fill="white" stroke="#1A385D" stroke-width="1.1" stroke-miterlimit="10" stroke-linecap="round" stroke-linejoin="round"/>
</g>
<path d="M97.2445 287.812C97.2445 286.996 97.4285 286.264 97.7965 285.616C98.1645 284.96 98.6645 284.448 99.2965 284.08C99.9365 283.712 100.645 283.528 101.421 283.528C102.333 283.528 103.129 283.748 103.809 284.188C104.489 284.628 104.985 285.252 105.297 286.06H103.989C103.757 285.556 103.421 285.168 102.981 284.896C102.549 284.624 102.029 284.488 101.421 284.488C100.837 284.488 100.313 284.624 99.8485 284.896C99.3845 285.168 99.0205 285.556 98.7565 286.06C98.4925 286.556 98.3605 287.14 98.3605 287.812C98.3605 288.476 98.4925 289.06 98.7565 289.564C99.0205 290.06 99.3845 290.444 99.8485 290.716C100.313 290.988 100.837 291.124 101.421 291.124C102.029 291.124 102.549 290.992 102.981 290.728C103.421 290.456 103.757 290.068 103.989 289.564H105.297C104.985 290.364 104.489 290.984 103.809 291.424C103.129 291.856 102.333 292.072 101.421 292.072C100.645 292.072 99.9365 291.892 99.2965 291.532C98.6645 291.164 98.1645 290.656 97.7965 290.008C97.4285 289.36 97.2445 288.628 97.2445 287.812ZM112.754 285.424V292H111.662V291.028C111.454 291.364 111.162 291.628 110.786 291.82C110.418 292.004 110.01 292.096 109.562 292.096C109.05 292.096 108.59 291.992 108.182 291.784C107.774 291.568 107.45 291.248 107.21 290.824C106.978 290.4 106.862 289.884 106.862 289.276V285.424H107.942V289.132C107.942 289.78 108.106 290.28 108.434 290.632C108.762 290.976 109.21 291.148 109.778 291.148C110.362 291.148 110.822 290.968 111.158 290.608C111.494 290.248 111.662 289.724 111.662 289.036V285.424H112.754ZM116.926 292.108C116.422 292.108 115.97 292.024 115.57 291.856C115.17 291.68 114.854 291.44 114.622 291.136C114.39 290.824 114.262 290.468 114.238 290.068H115.366C115.398 290.396 115.55 290.664 115.822 290.872C116.102 291.08 116.466 291.184 116.914 291.184C117.33 291.184 117.658 291.092 117.898 290.908C118.138 290.724 118.258 290.492 118.258 290.212C118.258 289.924 118.13 289.712 117.874 289.576C117.618 289.432 117.222 289.292 116.686 289.156C116.198 289.028 115.798 288.9 115.486 288.772C115.182 288.636 114.918 288.44 114.694 288.184C114.478 287.92 114.37 287.576 114.37 287.152C114.37 286.816 114.47 286.508 114.67 286.228C114.87 285.948 115.154 285.728 115.522 285.568C115.89 285.4 116.31 285.316 116.782 285.316C117.51 285.316 118.098 285.5 118.546 285.868C118.994 286.236 119.234 286.74 119.266 287.38H118.174C118.15 287.036 118.01 286.76 117.754 286.552C117.506 286.344 117.17 286.24 116.746 286.24C116.354 286.24 116.042 286.324 115.81 286.492C115.578 286.66 115.462 286.88 115.462 287.152C115.462 287.368 115.53 287.548 115.666 287.692C115.81 287.828 115.986 287.94 116.194 288.028C116.41 288.108 116.706 288.2 117.082 288.304C117.554 288.432 117.938 288.56 118.234 288.688C118.53 288.808 118.782 288.992 118.99 289.24C119.206 289.488 119.318 289.812 119.326 290.212C119.326 290.572 119.226 290.896 119.026 291.184C118.826 291.472 118.542 291.7 118.174 291.868C117.814 292.028 117.398 292.108 116.926 292.108ZM122.199 286.324V290.2C122.199 290.52 122.267 290.748 122.403 290.884C122.539 291.012 122.775 291.076 123.111 291.076H123.915V292H122.931C122.323 292 121.867 291.86 121.563 291.58C121.259 291.3 121.107 290.84 121.107 290.2V286.324H120.255V285.424H121.107V283.768H122.199V285.424H123.915V286.324H122.199ZM128.106 292.108C127.49 292.108 126.93 291.968 126.426 291.688C125.93 291.408 125.538 291.012 125.25 290.5C124.97 289.98 124.83 289.38 124.83 288.7C124.83 288.028 124.974 287.436 125.262 286.924C125.558 286.404 125.958 286.008 126.462 285.736C126.966 285.456 127.53 285.316 128.154 285.316C128.778 285.316 129.342 285.456 129.846 285.736C130.35 286.008 130.746 286.4 131.034 286.912C131.33 287.424 131.478 288.02 131.478 288.7C131.478 289.38 131.326 289.98 131.022 290.5C130.726 291.012 130.322 291.408 129.81 291.688C129.298 291.968 128.73 292.108 128.106 292.108ZM128.106 291.148C128.498 291.148 128.866 291.056 129.21 290.872C129.554 290.688 129.83 290.412 130.038 290.044C130.254 289.676 130.362 289.228 130.362 288.7C130.362 288.172 130.258 287.724 130.05 287.356C129.842 286.988 129.57 286.716 129.234 286.54C128.898 286.356 128.534 286.264 128.142 286.264C127.742 286.264 127.374 286.356 127.038 286.54C126.71 286.716 126.446 286.988 126.246 287.356C126.046 287.724 125.946 288.172 125.946 288.7C125.946 289.236 126.042 289.688 126.234 290.056C126.434 290.424 126.698 290.7 127.026 290.884C127.354 291.06 127.714 291.148 128.106 291.148ZM140.822 285.304C141.334 285.304 141.79 285.412 142.19 285.628C142.59 285.836 142.906 286.152 143.138 286.576C143.37 287 143.486 287.516 143.486 288.124V292H142.406V288.28C142.406 287.624 142.242 287.124 141.914 286.78C141.594 286.428 141.158 286.252 140.606 286.252C140.038 286.252 139.586 286.436 139.25 286.804C138.914 287.164 138.746 287.688 138.746 288.376V292H137.666V288.28C137.666 287.624 137.502 287.124 137.174 286.78C136.854 286.428 136.418 286.252 135.866 286.252C135.298 286.252 134.846 286.436 134.51 286.804C134.174 287.164 134.006 287.688 134.006 288.376V292H132.914V285.424H134.006V286.372C134.222 286.028 134.51 285.764 134.87 285.58C135.238 285.396 135.642 285.304 136.082 285.304C136.634 285.304 137.122 285.428 137.546 285.676C137.97 285.924 138.286 286.288 138.494 286.768C138.678 286.304 138.982 285.944 139.406 285.688C139.83 285.432 140.302 285.304 140.822 285.304ZM151.278 288.46C151.278 288.668 151.266 288.888 151.242 289.12H145.986C146.026 289.768 146.246 290.276 146.646 290.644C147.054 291.004 147.546 291.184 148.122 291.184C148.594 291.184 148.986 291.076 149.298 290.86C149.618 290.636 149.842 290.34 149.97 289.972H151.146C150.97 290.604 150.618 291.12 150.09 291.52C149.562 291.912 148.906 292.108 148.122 292.108C147.498 292.108 146.938 291.968 146.442 291.688C145.954 291.408 145.57 291.012 145.29 290.5C145.01 289.98 144.87 289.38 144.87 288.7C144.87 288.02 145.006 287.424 145.278 286.912C145.55 286.4 145.93 286.008 146.418 285.736C146.914 285.456 147.482 285.316 148.122 285.316C148.746 285.316 149.298 285.452 149.778 285.724C150.258 285.996 150.626 286.372 150.882 286.852C151.146 287.324 151.278 287.86 151.278 288.46ZM150.15 288.232C150.15 287.816 150.058 287.46 149.874 287.164C149.69 286.86 149.438 286.632 149.118 286.48C148.806 286.32 148.458 286.24 148.074 286.24C147.522 286.24 147.05 286.416 146.658 286.768C146.274 287.12 146.054 287.608 145.998 288.232H150.15ZM153.811 286.492C154.003 286.116 154.275 285.824 154.627 285.616C154.987 285.408 155.423 285.304 155.935 285.304V286.432H155.647C154.423 286.432 153.811 287.096 153.811 288.424V292H152.719V285.424H153.811V286.492ZM96.1547 296.524V299.32H99.2027V300.22H96.1547V303.1H99.5627V304H95.0627V295.624H99.5627V296.524H96.1547ZM104.647 304L103.087 301.552L101.587 304H100.447L102.571 300.736L100.447 297.424H101.683L103.243 299.86L104.731 297.424H105.871L103.759 300.676L105.883 304H104.647ZM108.049 298.636C108.265 298.26 108.585 297.948 109.009 297.7C109.441 297.444 109.941 297.316 110.509 297.316C111.093 297.316 111.621 297.456 112.093 297.736C112.573 298.016 112.949 298.412 113.221 298.924C113.493 299.428 113.629 300.016 113.629 300.688C113.629 301.352 113.493 301.944 113.221 302.464C112.949 302.984 112.573 303.388 112.093 303.676C111.621 303.964 111.093 304.108 110.509 304.108C109.949 304.108 109.453 303.984 109.021 303.736C108.597 303.48 108.273 303.164 108.049 302.788V307.12H106.957V297.424H108.049V298.636ZM112.513 300.688C112.513 300.192 112.413 299.76 112.213 299.392C112.013 299.024 111.741 298.744 111.397 298.552C111.061 298.36 110.689 298.264 110.281 298.264C109.881 298.264 109.509 298.364 109.165 298.564C108.829 298.756 108.557 299.04 108.349 299.416C108.149 299.784 108.049 300.212 108.049 300.7C108.049 301.196 108.149 301.632 108.349 302.008C108.557 302.376 108.829 302.66 109.165 302.86C109.509 303.052 109.881 303.148 110.281 303.148C110.689 303.148 111.061 303.052 111.397 302.86C111.741 302.66 112.013 302.376 112.213 302.008C112.413 301.632 112.513 301.192 112.513 300.688ZM121.067 300.46C121.067 300.668 121.055 300.888 121.031 301.12H115.775C115.815 301.768 116.035 302.276 116.435 302.644C116.843 303.004 117.335 303.184 117.911 303.184C118.383 303.184 118.775 303.076 119.087 302.86C119.407 302.636 119.631 302.34 119.759 301.972H120.935C120.759 302.604 120.407 303.12 119.879 303.52C119.351 303.912 118.695 304.108 117.911 304.108C117.287 304.108 116.727 303.968 116.231 303.688C115.743 303.408 115.359 303.012 115.079 302.5C114.799 301.98 114.659 301.38 114.659 300.7C114.659 300.02 114.795 299.424 115.067 298.912C115.339 298.4 115.719 298.008 116.207 297.736C116.703 297.456 117.271 297.316 117.911 297.316C118.535 297.316 119.087 297.452 119.567 297.724C120.047 297.996 120.415 298.372 120.671 298.852C120.935 299.324 121.067 299.86 121.067 300.46ZM119.939 300.232C119.939 299.816 119.847 299.46 119.663 299.164C119.479 298.86 119.227 298.632 118.907 298.48C118.595 298.32 118.247 298.24 117.863 298.24C117.311 298.24 116.839 298.416 116.447 298.768C116.063 299.12 115.843 299.608 115.787 300.232H119.939ZM123.6 298.492C123.792 298.116 124.064 297.824 124.416 297.616C124.776 297.408 125.212 297.304 125.724 297.304V298.432H125.436C124.212 298.432 123.6 299.096 123.6 300.424V304H122.508V297.424H123.6V298.492ZM127.549 296.356C127.341 296.356 127.165 296.284 127.021 296.14C126.877 295.996 126.805 295.82 126.805 295.612C126.805 295.404 126.877 295.228 127.021 295.084C127.165 294.94 127.341 294.868 127.549 294.868C127.749 294.868 127.917 294.94 128.053 295.084C128.197 295.228 128.269 295.404 128.269 295.612C128.269 295.82 128.197 295.996 128.053 296.14C127.917 296.284 127.749 296.356 127.549 296.356ZM128.077 297.424V304H126.985V297.424H128.077ZM135.938 300.46C135.938 300.668 135.926 300.888 135.902 301.12H130.646C130.686 301.768 130.906 302.276 131.306 302.644C131.714 303.004 132.206 303.184 132.782 303.184C133.254 303.184 133.646 303.076 133.958 302.86C134.278 302.636 134.502 302.34 134.63 301.972H135.806C135.63 302.604 135.278 303.12 134.75 303.52C134.222 303.912 133.566 304.108 132.782 304.108C132.158 304.108 131.598 303.968 131.102 303.688C130.614 303.408 130.23 303.012 129.95 302.5C129.67 301.98 129.53 301.38 129.53 300.7C129.53 300.02 129.666 299.424 129.938 298.912C130.21 298.4 130.59 298.008 131.078 297.736C131.574 297.456 132.142 297.316 132.782 297.316C133.406 297.316 133.958 297.452 134.438 297.724C134.918 297.996 135.286 298.372 135.542 298.852C135.806 299.324 135.938 299.86 135.938 300.46ZM134.81 300.232C134.81 299.816 134.718 299.46 134.534 299.164C134.35 298.86 134.098 298.632 133.778 298.48C133.466 298.32 133.118 298.24 132.734 298.24C132.182 298.24 131.71 298.416 131.318 298.768C130.934 299.12 130.714 299.608 130.658 300.232H134.81ZM140.583 297.304C141.383 297.304 142.031 297.548 142.527 298.036C143.023 298.516 143.271 299.212 143.271 300.124V304H142.191V300.28C142.191 299.624 142.027 299.124 141.699 298.78C141.371 298.428 140.923 298.252 140.355 298.252C139.779 298.252 139.319 298.432 138.975 298.792C138.639 299.152 138.471 299.676 138.471 300.364V304H137.379V297.424H138.471V298.36C138.687 298.024 138.979 297.764 139.347 297.58C139.723 297.396 140.135 297.304 140.583 297.304ZM144.647 300.7C144.647 300.02 144.783 299.428 145.055 298.924C145.327 298.412 145.703 298.016 146.183 297.736C146.671 297.456 147.227 297.316 147.851 297.316C148.659 297.316 149.323 297.512 149.843 297.904C150.371 298.296 150.719 298.84 150.887 299.536H149.711C149.599 299.136 149.379 298.82 149.051 298.588C148.731 298.356 148.331 298.24 147.851 298.24C147.227 298.24 146.723 298.456 146.339 298.888C145.955 299.312 145.763 299.916 145.763 300.7C145.763 301.492 145.955 302.104 146.339 302.536C146.723 302.968 147.227 303.184 147.851 303.184C148.331 303.184 148.731 303.072 149.051 302.848C149.371 302.624 149.591 302.304 149.711 301.888H150.887C150.711 302.56 150.359 303.1 149.831 303.508C149.303 303.908 148.643 304.108 147.851 304.108C147.227 304.108 146.671 303.968 146.183 303.688C145.703 303.408 145.327 303.012 145.055 302.5C144.783 301.988 144.647 301.388 144.647 300.7ZM158.344 300.46C158.344 300.668 158.332 300.888 158.308 301.12H153.052C153.092 301.768 153.312 302.276 153.712 302.644C154.12 303.004 154.612 303.184 155.188 303.184C155.66 303.184 156.052 303.076 156.364 302.86C156.684 302.636 156.908 302.34 157.036 301.972H158.212C158.036 302.604 157.684 303.12 157.156 303.52C156.628 303.912 155.972 304.108 155.188 304.108C154.564 304.108 154.004 303.968 153.508 303.688C153.02 303.408 152.636 303.012 152.356 302.5C152.076 301.98 151.936 301.38 151.936 300.7C151.936 300.02 152.072 299.424 152.344 298.912C152.616 298.4 152.996 298.008 153.484 297.736C153.98 297.456 154.548 297.316 155.188 297.316C155.812 297.316 156.364 297.452 156.844 297.724C157.324 297.996 157.692 298.372 157.948 298.852C158.212 299.324 158.344 299.86 158.344 300.46ZM157.216 300.232C157.216 299.816 157.124 299.46 156.94 299.164C156.756 298.86 156.504 298.632 156.184 298.48C155.872 298.32 155.524 298.24 155.14 298.24C154.588 298.24 154.116 298.416 153.724 298.768C153.34 299.12 153.12 299.608 153.064 300.232H157.216Z" fill="white"/>
<g filter="url(#filter4_d_1964_2419)">
<rect x="134.419" y="109.343" width="117.405" height="92.2464" fill="#1661BE" fill-opacity="0.4"/>
<rect x="135.258" y="110.182" width="115.727" height="90.5692" stroke="#1661BE" stroke-width="1.67721"/>
</g>
<g clip-path="url(#clip3_1964_2419)">
<path d="M211.71 141.709C212.648 139.838 213.387 137.958 213.9 136.105C215.507 130.299 214.729 125.438 211.707 122.417C208.686 119.396 203.825 118.617 198.019 120.225C196.166 120.737 194.286 121.476 192.415 122.414C190.088 121.246 187.758 120.392 185.512 119.899C180.297 118.756 175.901 119.65 173.134 122.417C171.359 124.193 170.329 126.687 170.157 129.632C170.002 132.281 170.539 135.321 171.709 138.452C170.748 139.212 170.13 140.386 170.13 141.703C170.13 143.02 170.748 144.195 171.709 144.954C170.539 148.086 170.002 151.126 170.157 153.775C170.329 156.719 171.359 159.214 173.134 160.99C175.117 162.973 177.899 163.995 181.26 163.995C181.934 163.995 182.632 163.954 183.352 163.871C186.234 163.539 189.312 162.557 192.42 160.994C194.289 161.932 196.168 162.67 198.019 163.182C199.995 163.729 201.861 164 203.583 164C206.92 164 209.714 162.983 211.707 160.99C214.474 158.223 215.368 153.827 214.225 148.611C213.732 146.366 212.878 144.036 211.71 141.709ZM198.368 121.486C203.7 120.009 208.108 120.669 210.782 123.342C213.455 126.016 214.115 130.424 212.638 135.756C212.225 137.249 211.657 138.763 210.951 140.276C209.685 138.006 208.129 135.758 206.325 133.613C206.878 132.908 207.208 132.022 207.208 131.06C207.208 130.129 206.907 129.25 206.337 128.517L205.304 129.32C205.694 129.821 205.9 130.423 205.9 131.06C205.9 132.623 204.628 133.895 203.065 133.895C201.501 133.895 200.229 132.623 200.229 131.06C200.229 129.496 201.501 128.224 203.065 128.224C203.575 128.224 204.075 128.361 204.511 128.62L205.18 127.495C204.542 127.116 203.81 126.915 203.065 126.915C202.102 126.915 201.216 127.246 200.512 127.799C198.366 125.995 196.118 124.439 193.848 123.173C195.361 122.467 196.875 121.899 198.368 121.486ZM174.06 123.342C177.598 119.804 184.085 119.936 190.988 123.169C187.618 125.048 184.313 127.565 181.298 130.58C179.062 132.816 177.094 135.218 175.441 137.725C175.068 137.617 174.676 137.559 174.274 137.559C173.779 137.559 173.304 137.647 172.864 137.806C170.597 131.627 171.021 126.38 174.06 123.342ZM181.294 162.682C178.333 162.682 175.817 161.821 174.059 160.064C171.021 157.026 170.596 151.78 172.864 145.6C173.304 145.76 173.779 145.848 174.274 145.848C174.679 145.848 175.069 145.788 175.439 145.679C177.092 148.188 179.061 150.59 181.298 152.826C184.312 155.84 187.616 158.356 190.985 160.236C187.525 161.855 184.196 162.682 181.294 162.682ZM192.417 159.524C188.882 157.667 185.392 155.07 182.223 151.901C180.094 149.771 178.215 147.489 176.631 145.109C177.71 144.36 178.418 143.113 178.418 141.704C178.418 141.581 178.413 141.457 178.402 141.334L177.098 141.45C177.106 141.534 177.109 141.619 177.109 141.703C177.109 143.267 175.837 144.539 174.274 144.539C172.711 144.539 171.439 143.267 171.439 141.703C171.439 140.14 172.711 138.868 174.274 138.868C175.354 138.868 176.326 139.468 176.81 140.434L177.98 139.847C177.66 139.209 177.194 138.681 176.634 138.293C178.218 135.915 180.095 133.634 182.223 131.506C185.393 128.336 188.885 125.738 192.42 123.881C194.826 125.148 197.261 126.781 199.62 128.759C199.178 129.417 198.92 130.209 198.92 131.06C198.92 133.344 200.78 135.203 203.065 135.203C203.915 135.203 204.707 134.945 205.365 134.504C207.343 136.863 208.976 139.298 210.243 141.704C208.386 145.239 205.788 148.731 202.619 151.901C202.27 152.249 201.912 152.596 201.55 152.935C200.827 152.324 199.895 151.954 198.877 151.954C197.946 151.954 197.067 152.256 196.334 152.826L197.138 153.859C197.639 153.469 198.24 153.263 198.877 153.263C200.44 153.263 201.712 154.535 201.712 156.098C201.712 157.662 200.44 158.934 198.877 158.934C197.313 158.934 196.041 157.662 196.041 156.098C196.041 155.588 196.178 155.088 196.437 154.652L195.313 153.983C194.933 154.621 194.733 155.353 194.733 156.098C194.733 156.755 194.887 157.376 195.16 157.928C194.243 158.513 193.327 159.045 192.417 159.524ZM210.782 160.064C208.108 162.738 203.7 163.397 198.368 161.921C196.876 161.508 195.363 160.941 193.851 160.235C194.541 159.85 195.23 159.437 195.918 158.996C196.671 159.765 197.719 160.243 198.877 160.243C201.162 160.243 203.021 158.384 203.021 156.099C203.021 155.303 202.795 154.56 202.405 153.927C202.791 153.566 203.172 153.198 203.544 152.826C206.559 149.811 209.075 146.505 210.955 143.136C214.188 150.039 214.32 156.526 210.782 160.064Z" fill="white"/>
<path d="M203.152 148.465H201.8V145.168C201.8 143.71 200.82 142.415 199.416 142.019L198.927 141.881L198.572 143.14L199.061 143.278C199.903 143.516 200.491 144.293 200.491 145.168V148.465H198.135V146.676H196.827V148.465H190.938V149.773H203.152V148.465Z" fill="white"/>
<path d="M194.585 142.016L197.313 142.786L197.668 141.526L194.995 140.772V139.034C196.205 138.209 197.002 136.82 197.002 135.247V133.328C197.002 130.802 194.947 128.748 192.421 128.748C189.896 128.748 187.841 130.802 187.841 133.328V135.247C187.841 136.82 188.637 138.209 189.848 139.034V140.772L185.426 142.019C184.023 142.415 183.042 143.71 183.042 145.168V148.465H181.69V149.773H189.629V148.465H188.015V146.676H186.707V148.465H184.351V145.168C184.351 144.293 184.94 143.516 185.781 143.279L190.257 142.016C190.808 142.619 191.587 142.969 192.421 142.969C193.256 142.969 194.035 142.619 194.585 142.016ZM192.421 130.056C194.225 130.056 195.693 131.524 195.693 133.328V134.057L194.317 132.238H189.337C189.787 130.968 191 130.056 192.421 130.056ZM189.15 135.247V133.546H193.666L195.584 136.083C195.214 137.484 193.936 138.519 192.421 138.519C190.617 138.519 189.15 137.051 189.15 135.247ZM191.156 141.056V139.649C191.558 139.765 191.982 139.828 192.421 139.828C192.86 139.828 193.284 139.765 193.686 139.649V141.056C193.379 141.437 192.918 141.66 192.421 141.66C191.925 141.66 191.464 141.437 191.156 141.056Z" fill="white"/>
<path d="M195.877 145.1L194.033 144.58L194.389 143.32L196.232 143.84L195.877 145.1Z" fill="white"/>
<path d="M198.75 144.549L198.394 145.808L197.135 145.453L197.49 144.193L198.75 144.549Z" fill="white"/>
<path d="M202.41 130.405H203.719V131.714H202.41V130.405Z" fill="white"/>
<path d="M198.223 155.444H199.531V156.753H198.223V155.444Z" fill="white"/>
<path d="M173.62 141.049H174.929V142.358H173.62V141.049Z" fill="white"/>
</g>
<path d="M179.302 171.636V180H178.21V176.208H173.95V180H172.858V171.636H173.95V175.308H178.21V171.636H179.302ZM186.998 173.424V180H185.906V179.028C185.698 179.364 185.406 179.628 185.03 179.82C184.662 180.004 184.254 180.096 183.806 180.096C183.294 180.096 182.834 179.992 182.426 179.784C182.018 179.568 181.694 179.248 181.454 178.824C181.222 178.4 181.106 177.884 181.106 177.276V173.424H182.186V177.132C182.186 177.78 182.35 178.28 182.678 178.632C183.006 178.976 183.454 179.148 184.022 179.148C184.606 179.148 185.066 178.968 185.402 178.608C185.738 178.248 185.906 177.724 185.906 177.036V173.424H186.998ZM196.75 173.304C197.262 173.304 197.718 173.412 198.118 173.628C198.518 173.836 198.834 174.152 199.066 174.576C199.298 175 199.414 175.516 199.414 176.124V180H198.334V176.28C198.334 175.624 198.17 175.124 197.842 174.78C197.522 174.428 197.086 174.252 196.534 174.252C195.966 174.252 195.514 174.436 195.178 174.804C194.842 175.164 194.674 175.688 194.674 176.376V180H193.594V176.28C193.594 175.624 193.43 175.124 193.102 174.78C192.782 174.428 192.346 174.252 191.794 174.252C191.226 174.252 190.774 174.436 190.438 174.804C190.102 175.164 189.934 175.688 189.934 176.376V180H188.842V173.424H189.934V174.372C190.15 174.028 190.438 173.764 190.798 173.58C191.166 173.396 191.57 173.304 192.01 173.304C192.562 173.304 193.05 173.428 193.474 173.676C193.898 173.924 194.214 174.288 194.422 174.768C194.606 174.304 194.91 173.944 195.334 173.688C195.758 173.432 196.23 173.304 196.75 173.304ZM200.797 176.688C200.797 176.016 200.933 175.428 201.205 174.924C201.477 174.412 201.849 174.016 202.321 173.736C202.801 173.456 203.333 173.316 203.917 173.316C204.493 173.316 204.993 173.44 205.417 173.688C205.841 173.936 206.157 174.248 206.365 174.624V173.424H207.469V180H206.365V178.776C206.149 179.16 205.825 179.48 205.393 179.736C204.969 179.984 204.473 180.108 203.905 180.108C203.321 180.108 202.793 179.964 202.321 179.676C201.849 179.388 201.477 178.984 201.205 178.464C200.933 177.944 200.797 177.352 200.797 176.688ZM206.365 176.7C206.365 176.204 206.265 175.772 206.065 175.404C205.865 175.036 205.593 174.756 205.249 174.564C204.913 174.364 204.541 174.264 204.133 174.264C203.725 174.264 203.353 174.36 203.017 174.552C202.681 174.744 202.413 175.024 202.213 175.392C202.013 175.76 201.913 176.192 201.913 176.688C201.913 177.192 202.013 177.632 202.213 178.008C202.413 178.376 202.681 178.66 203.017 178.86C203.353 179.052 203.725 179.148 204.133 179.148C204.541 179.148 204.913 179.052 205.249 178.86C205.593 178.66 205.865 178.376 206.065 178.008C206.265 177.632 206.365 177.196 206.365 176.7ZM212.519 173.304C213.319 173.304 213.967 173.548 214.463 174.036C214.959 174.516 215.207 175.212 215.207 176.124V180H214.127V176.28C214.127 175.624 213.963 175.124 213.635 174.78C213.307 174.428 212.859 174.252 212.291 174.252C211.715 174.252 211.255 174.432 210.911 174.792C210.575 175.152 210.407 175.676 210.407 176.364V180H209.315V173.424H210.407V174.36C210.623 174.024 210.915 173.764 211.283 173.58C211.659 173.396 212.071 173.304 212.519 173.304ZM146.809 186.524V189.32H149.857V190.22H146.809V193.1H150.217V194H145.717V185.624H150.217V186.524H146.809ZM155.301 194L153.741 191.552L152.241 194H151.101L153.225 190.736L151.101 187.424H152.337L153.897 189.86L155.385 187.424H156.525L154.413 190.676L156.537 194H155.301ZM158.704 188.636C158.92 188.26 159.24 187.948 159.664 187.7C160.096 187.444 160.596 187.316 161.164 187.316C161.748 187.316 162.276 187.456 162.747 187.736C163.227 188.016 163.604 188.412 163.876 188.924C164.148 189.428 164.284 190.016 164.284 190.688C164.284 191.352 164.148 191.944 163.876 192.464C163.604 192.984 163.227 193.388 162.747 193.676C162.276 193.964 161.748 194.108 161.164 194.108C160.604 194.108 160.108 193.984 159.676 193.736C159.252 193.48 158.928 193.164 158.704 192.788V197.12H157.612V187.424H158.704V188.636ZM163.168 190.688C163.168 190.192 163.068 189.76 162.868 189.392C162.668 189.024 162.396 188.744 162.052 188.552C161.716 188.36 161.344 188.264 160.936 188.264C160.536 188.264 160.164 188.364 159.82 188.564C159.484 188.756 159.212 189.04 159.004 189.416C158.804 189.784 158.704 190.212 158.704 190.7C158.704 191.196 158.804 191.632 159.004 192.008C159.212 192.376 159.484 192.66 159.82 192.86C160.164 193.052 160.536 193.148 160.936 193.148C161.344 193.148 161.716 193.052 162.052 192.86C162.396 192.66 162.668 192.376 162.868 192.008C163.068 191.632 163.168 191.192 163.168 190.688ZM171.721 190.46C171.721 190.668 171.709 190.888 171.685 191.12H166.429C166.469 191.768 166.689 192.276 167.089 192.644C167.497 193.004 167.989 193.184 168.565 193.184C169.037 193.184 169.429 193.076 169.741 192.86C170.061 192.636 170.285 192.34 170.413 191.972H171.589C171.413 192.604 171.061 193.12 170.533 193.52C170.005 193.912 169.349 194.108 168.565 194.108C167.941 194.108 167.381 193.968 166.885 193.688C166.397 193.408 166.013 193.012 165.733 192.5C165.453 191.98 165.313 191.38 165.313 190.7C165.313 190.02 165.449 189.424 165.721 188.912C165.993 188.4 166.373 188.008 166.861 187.736C167.357 187.456 167.925 187.316 168.565 187.316C169.189 187.316 169.741 187.452 170.221 187.724C170.701 187.996 171.069 188.372 171.325 188.852C171.589 189.324 171.721 189.86 171.721 190.46ZM170.593 190.232C170.593 189.816 170.501 189.46 170.317 189.164C170.133 188.86 169.881 188.632 169.561 188.48C169.249 188.32 168.901 188.24 168.517 188.24C167.965 188.24 167.493 188.416 167.101 188.768C166.717 189.12 166.497 189.608 166.441 190.232H170.593ZM174.254 188.492C174.446 188.116 174.718 187.824 175.07 187.616C175.43 187.408 175.866 187.304 176.378 187.304V188.432H176.09C174.866 188.432 174.254 189.096 174.254 190.424V194H173.162V187.424H174.254V188.492ZM178.203 186.356C177.995 186.356 177.819 186.284 177.675 186.14C177.531 185.996 177.459 185.82 177.459 185.612C177.459 185.404 177.531 185.228 177.675 185.084C177.819 184.94 177.995 184.868 178.203 184.868C178.403 184.868 178.571 184.94 178.707 185.084C178.851 185.228 178.923 185.404 178.923 185.612C178.923 185.82 178.851 185.996 178.707 186.14C178.571 186.284 178.403 186.356 178.203 186.356ZM178.731 187.424V194H177.639V187.424H178.731ZM186.592 190.46C186.592 190.668 186.58 190.888 186.556 191.12H181.3C181.34 191.768 181.56 192.276 181.96 192.644C182.368 193.004 182.86 193.184 183.436 193.184C183.908 193.184 184.3 193.076 184.612 192.86C184.932 192.636 185.156 192.34 185.284 191.972H186.46C186.284 192.604 185.932 193.12 185.404 193.52C184.876 193.912 184.22 194.108 183.436 194.108C182.812 194.108 182.252 193.968 181.756 193.688C181.268 193.408 180.884 193.012 180.604 192.5C180.324 191.98 180.184 191.38 180.184 190.7C180.184 190.02 180.32 189.424 180.592 188.912C180.864 188.4 181.244 188.008 181.732 187.736C182.228 187.456 182.796 187.316 183.436 187.316C184.06 187.316 184.612 187.452 185.092 187.724C185.572 187.996 185.94 188.372 186.196 188.852C186.46 189.324 186.592 189.86 186.592 190.46ZM185.464 190.232C185.464 189.816 185.372 189.46 185.188 189.164C185.004 188.86 184.752 188.632 184.432 188.48C184.12 188.32 183.772 188.24 183.388 188.24C182.836 188.24 182.364 188.416 181.972 188.768C181.588 189.12 181.368 189.608 181.312 190.232H185.464ZM191.237 187.304C192.037 187.304 192.685 187.548 193.181 188.036C193.677 188.516 193.925 189.212 193.925 190.124V194H192.845V190.28C192.845 189.624 192.681 189.124 192.353 188.78C192.025 188.428 191.577 188.252 191.009 188.252C190.433 188.252 189.973 188.432 189.629 188.792C189.293 189.152 189.125 189.676 189.125 190.364V194H188.033V187.424H189.125V188.36C189.341 188.024 189.633 187.764 190.001 187.58C190.377 187.396 190.789 187.304 191.237 187.304ZM195.301 190.7C195.301 190.02 195.437 189.428 195.709 188.924C195.981 188.412 196.357 188.016 196.837 187.736C197.325 187.456 197.881 187.316 198.505 187.316C199.313 187.316 199.977 187.512 200.497 187.904C201.025 188.296 201.373 188.84 201.541 189.536H200.365C200.253 189.136 200.033 188.82 199.705 188.588C199.385 188.356 198.985 188.24 198.505 188.24C197.881 188.24 197.377 188.456 196.993 188.888C196.609 189.312 196.417 189.916 196.417 190.7C196.417 191.492 196.609 192.104 196.993 192.536C197.377 192.968 197.881 193.184 198.505 193.184C198.985 193.184 199.385 193.072 199.705 192.848C200.025 192.624 200.245 192.304 200.365 191.888H201.541C201.365 192.56 201.013 193.1 200.485 193.508C199.957 193.908 199.297 194.108 198.505 194.108C197.881 194.108 197.325 193.968 196.837 193.688C196.357 193.408 195.981 193.012 195.709 192.5C195.437 191.988 195.301 191.388 195.301 190.7ZM208.998 190.46C208.998 190.668 208.986 190.888 208.962 191.12H203.706C203.746 191.768 203.966 192.276 204.366 192.644C204.774 193.004 205.266 193.184 205.842 193.184C206.314 193.184 206.706 193.076 207.018 192.86C207.338 192.636 207.562 192.34 207.69 191.972H208.866C208.69 192.604 208.338 193.12 207.81 193.52C207.282 193.912 206.626 194.108 205.842 194.108C205.218 194.108 204.658 193.968 204.162 193.688C203.674 193.408 203.29 193.012 203.01 192.5C202.73 191.98 202.59 191.38 202.59 190.7C202.59 190.02 202.726 189.424 202.998 188.912C203.27 188.4 203.65 188.008 204.138 187.736C204.634 187.456 205.202 187.316 205.842 187.316C206.466 187.316 207.018 187.452 207.498 187.724C207.978 187.996 208.346 188.372 208.602 188.852C208.866 189.324 208.998 189.86 208.998 190.46ZM207.87 190.232C207.87 189.816 207.778 189.46 207.594 189.164C207.41 188.86 207.158 188.632 206.838 188.48C206.526 188.32 206.178 188.24 205.794 188.24C205.242 188.24 204.77 188.416 204.378 188.768C203.994 189.12 203.774 189.608 203.718 190.232H207.87ZM222.123 185.696V194H221.031V187.808L218.271 194H217.503L214.731 187.796V194H213.639V185.696H214.815L217.887 192.56L220.959 185.696H222.123ZM227.179 187.304C227.979 187.304 228.627 187.548 229.123 188.036C229.619 188.516 229.867 189.212 229.867 190.124V194H228.787V190.28C228.787 189.624 228.623 189.124 228.295 188.78C227.967 188.428 227.519 188.252 226.951 188.252C226.375 188.252 225.915 188.432 225.571 188.792C225.235 189.152 225.067 189.676 225.067 190.364V194H223.975V187.424H225.067V188.36C225.283 188.024 225.575 187.764 225.943 187.58C226.319 187.396 226.731 187.304 227.179 187.304ZM234.363 187.316C234.931 187.316 235.427 187.44 235.851 187.688C236.283 187.936 236.603 188.248 236.811 188.624V187.424H237.915V194.144C237.915 194.744 237.787 195.276 237.531 195.74C237.275 196.212 236.907 196.58 236.427 196.844C235.955 197.108 235.403 197.24 234.771 197.24C233.907 197.24 233.187 197.036 232.611 196.628C232.035 196.22 231.695 195.664 231.591 194.96H232.671C232.791 195.36 233.039 195.68 233.415 195.92C233.791 196.168 234.243 196.292 234.771 196.292C235.371 196.292 235.859 196.104 236.235 195.728C236.619 195.352 236.811 194.824 236.811 194.144V192.764C236.595 193.148 236.275 193.468 235.851 193.724C235.427 193.98 234.931 194.108 234.363 194.108C233.779 194.108 233.247 193.964 232.767 193.676C232.295 193.388 231.923 192.984 231.651 192.464C231.379 191.944 231.243 191.352 231.243 190.688C231.243 190.016 231.379 189.428 231.651 188.924C231.923 188.412 232.295 188.016 232.767 187.736C233.247 187.456 233.779 187.316 234.363 187.316ZM236.811 190.7C236.811 190.204 236.711 189.772 236.511 189.404C236.311 189.036 236.039 188.756 235.695 188.564C235.359 188.364 234.987 188.264 234.579 188.264C234.171 188.264 233.799 188.36 233.463 188.552C233.127 188.744 232.859 189.024 232.659 189.392C232.459 189.76 232.359 190.192 232.359 190.688C232.359 191.192 232.459 191.632 232.659 192.008C232.859 192.376 233.127 192.66 233.463 192.86C233.799 193.052 234.171 193.148 234.579 193.148C234.987 193.148 235.359 193.052 235.695 192.86C236.039 192.66 236.311 192.376 236.511 192.008C236.711 191.632 236.811 191.196 236.811 190.7ZM241.092 188.324V192.2C241.092 192.52 241.16 192.748 241.296 192.884C241.432 193.012 241.668 193.076 242.004 193.076H242.808V194H241.824C241.216 194 240.76 193.86 240.456 193.58C240.152 193.3 240 192.84 240 192.2V188.324H239.148V187.424H240V185.768H241.092V187.424H242.808V188.324H241.092Z" fill="white"/>
<g clip-path="url(#clip4_1964_2419)">
<mask id="mask2_1964_2419" style="mask-type:luminance" maskUnits="userSpaceOnUse" x="28" y="9" width="60" height="60">
<path d="M28.5127 9.22467H87.3696V68.0815H28.5127V9.22467Z" fill="white"/>
</mask>
<g mask="url(#mask2_1964_2419)">
<path d="M61.7918 13.9376C61.7918 11.8108 60.0677 10.0866 57.9408 10.0866C55.8141 10.0866 54.0898 11.8108 54.0898 13.9376C54.0898 16.0644 55.8141 17.7886 57.9408 17.7886C60.0677 17.7886 61.7918 16.0644 61.7918 13.9376Z" stroke="white" stroke-width="1.72432" stroke-miterlimit="10" stroke-linecap="round" stroke-linejoin="round"/>
<path d="M61.7918 63.3683C61.7918 61.2415 60.0677 59.5173 57.9408 59.5173C55.8141 59.5173 54.0898 61.2415 54.0898 63.3683C54.0898 65.495 55.8141 67.2192 57.9408 67.2192C60.0677 67.2192 61.7918 65.495 61.7918 63.3683Z" stroke="white" stroke-width="1.72432" stroke-miterlimit="10" stroke-linecap="round" stroke-linejoin="round"/>
<path d="M38.4627 22.9603C36.6208 21.8969 34.2656 22.528 33.2021 24.3699C32.1387 26.2118 32.7698 28.567 34.6117 29.6304C36.4535 30.6938 38.8088 30.0628 39.8723 28.2209C40.9357 26.379 40.3045 24.0237 38.4627 22.9603Z" stroke="white" stroke-width="1.72432" stroke-miterlimit="10" stroke-linecap="round" stroke-linejoin="round"/>
<path d="M34.6117 47.6757C32.7698 48.739 32.1387 51.0943 33.2021 52.9362C34.2656 54.7781 36.6208 55.4091 38.4627 54.3457C40.3045 53.2824 40.9357 50.9272 39.8723 49.0852C38.8088 47.2433 36.4535 46.6122 34.6117 47.6757Z" stroke="white" stroke-width="1.72432" stroke-miterlimit="10" stroke-linecap="round" stroke-linejoin="round"/>
<path d="M77.4203 22.9603C75.5785 24.0237 74.9473 26.379 76.0107 28.2209C77.0742 30.0628 79.4295 30.6938 81.2713 29.6304C83.1132 28.567 83.7443 26.2118 82.6808 24.3699C81.6175 22.528 79.2622 21.8969 77.4203 22.9603Z" stroke="white" stroke-width="1.72432" stroke-miterlimit="10" stroke-linecap="round" stroke-linejoin="round"/>
<path d="M76.0112 24.3701L61.2764 15.863" stroke="white" stroke-width="1.72432" stroke-miterlimit="10" stroke-linecap="round" stroke-linejoin="round"/>
<path d="M79.3457 47.1602V30.1459" stroke="white" stroke-width="1.72432" stroke-miterlimit="10" stroke-linecap="round" stroke-linejoin="round"/>
<path d="M61.2764 61.4429L76.0112 52.9358" stroke="white" stroke-width="1.72432" stroke-miterlimit="10" stroke-linecap="round" stroke-linejoin="round"/>
<path d="M39.8721 52.9358L54.6069 61.4429" stroke="white" stroke-width="1.72432" stroke-miterlimit="10" stroke-linecap="round" stroke-linejoin="round"/>
<path d="M36.5371 30.1459V47.1602" stroke="white" stroke-width="1.72432" stroke-miterlimit="10" stroke-linecap="round" stroke-linejoin="round"/>
<path d="M54.6069 15.863L39.8721 24.3701" stroke="white" stroke-width="1.72432" stroke-miterlimit="10" stroke-linecap="round" stroke-linejoin="round"/>
<path d="M57.1547 38.199C57.6415 38.4799 58.2412 38.4799 58.7278 38.199L71.2712 30.957C71.1361 30.7229 70.9402 30.5237 70.698 30.3838L58.7244 23.4707C58.2398 23.191 57.6428 23.191 57.1582 23.4707L45.1846 30.3838C44.9423 30.5237 44.7465 30.7229 44.6113 30.957L57.1547 38.199Z" stroke="white" stroke-width="1.72432" stroke-miterlimit="10" stroke-linecap="round" stroke-linejoin="round"/>
<path d="M49.502 27.8907L63.0231 35.7173V35.7188L66.7747 33.5525L53.2525 25.7254L49.502 27.8907Z" stroke="white" stroke-width="1.72432" stroke-miterlimit="10" stroke-linecap="round" stroke-linejoin="round"/>
<path d="M57.1546 38.1987L44.6112 30.9568C44.476 31.191 44.4014 31.4601 44.4014 31.7399V45.5657C44.4014 46.1253 44.6999 46.6424 45.1844 46.9221L57.158 53.8351C57.4003 53.975 57.6707 54.0449 57.9411 54.0449V38.4095C57.6695 38.4095 57.3979 38.3392 57.1546 38.1987Z" stroke="white" stroke-width="1.72432" stroke-miterlimit="10" stroke-linecap="round" stroke-linejoin="round"/>
<path d="M63.0234 35.7187V41.4955C63.0234 41.8105 63.3643 42.0073 63.637 41.8498L66.3883 40.2614C66.6284 40.1228 66.7764 39.8665 66.7764 39.5892V33.5533L66.7752 33.5526L63.0234 35.7187Z" stroke="white" stroke-width="1.72432" stroke-miterlimit="10" stroke-linecap="round" stroke-linejoin="round"/>
<path d="M81.3572 54.2949C81.888 53.9705 82.3476 53.5125 82.6806 52.9359C83.744 51.094 83.1129 48.7388 81.271 47.6754C79.4292 46.6119 77.0739 47.243 76.0105 49.0849C74.964 50.8974 75.5594 53.2062 77.3338 54.2927" stroke="white" stroke-width="1.72432" stroke-miterlimit="10" stroke-linecap="round" stroke-linejoin="round"/>
<path d="M71.4808 37.7736V31.7398C71.4808 31.1803 71.1823 30.6633 70.6977 30.3835L58.7242 23.4706C58.2395 23.1908 57.6426 23.1908 57.158 23.4706L45.1844 30.3835C44.6998 30.6633 44.4014 31.1803 44.4014 31.7398V45.5658C44.4014 46.1253 44.6998 46.6423 45.1844 46.9221L57.158 53.8351C57.6426 54.1149 58.2395 54.1149 58.7242 53.8351L70.6977 46.9221C71.1823 46.6423 71.4808 46.1253 71.4808 45.5658V41.797" stroke="white" stroke-width="1.72432" stroke-miterlimit="10" stroke-linecap="round" stroke-linejoin="round"/>
</g>
</g>
</g>
<defs>
<filter id="filter0_d_1964_2419" x="117.405" y="-13.4177" width="150.948" height="125.791" filterUnits="userSpaceOnUse" color-interpolation-filters="sRGB">
<feFlood flood-opacity="0" result="BackgroundImageFix"/>
<feColorMatrix in="SourceAlpha" type="matrix" values="0 0 0 0 0 0 0 0 0 0 0 0 0 0 0 0 0 0 127 0" result="hardAlpha"/>
<feOffset dy="3.35441"/>
<feGaussianBlur stdDeviation="8.38604"/>
<feColorMatrix type="matrix" values="0 0 0 0 0 0 0 0 0 0 0 0 0 0 0 0 0 0 0.1 0"/>
<feBlend mode="normal" in2="BackgroundImageFix" result="effect1_dropShadow_1964_2419"/>
<feBlend mode="normal" in="SourceGraphic" in2="effect1_dropShadow_1964_2419" result="shape"/>
</filter>
<filter id="filter1_d_1964_2419" x="-16.7721" y="-13.4177" width="150.948" height="125.791" filterUnits="userSpaceOnUse" color-interpolation-filters="sRGB">
<feFlood flood-opacity="0" result="BackgroundImageFix"/>
<feColorMatrix in="SourceAlpha" type="matrix" values="0 0 0 0 0 0 0 0 0 0 0 0 0 0 0 0 0 0 127 0" result="hardAlpha"/>
<feOffset dy="3.35441"/>
<feGaussianBlur stdDeviation="8.38604"/>
<feColorMatrix type="matrix" values="0 0 0 0 0 0 0 0 0 0 0 0 0 0 0 0 0 0 0.1 0"/>
<feBlend mode="normal" in2="BackgroundImageFix" result="effect1_dropShadow_1964_2419"/>
<feBlend mode="normal" in="SourceGraphic" in2="effect1_dropShadow_1964_2419" result="shape"/>
</filter>
<filter id="filter2_d_1964_2419" x="-16.7721" y="95.6009" width="150.948" height="125.791" filterUnits="userSpaceOnUse" color-interpolation-filters="sRGB">
<feFlood flood-opacity="0" result="BackgroundImageFix"/>
<feColorMatrix in="SourceAlpha" type="matrix" values="0 0 0 0 0 0 0 0 0 0 0 0 0 0 0 0 0 0 127 0" result="hardAlpha"/>
<feOffset dy="3.35441"/>
<feGaussianBlur stdDeviation="8.38604"/>
<feColorMatrix type="matrix" values="0 0 0 0 0 0 0 0 0 0 0 0 0 0 0 0 0 0 0.1 0"/>
<feBlend mode="normal" in2="BackgroundImageFix" result="effect1_dropShadow_1964_2419"/>
<feBlend mode="normal" in="SourceGraphic" in2="effect1_dropShadow_1964_2419" result="shape"/>
</filter>
<filter id="filter3_d_1964_2419" x="50.2279" y="203.582" width="150.948" height="125.791" filterUnits="userSpaceOnUse" color-interpolation-filters="sRGB">
<feFlood flood-opacity="0" result="BackgroundImageFix"/>
<feColorMatrix in="SourceAlpha" type="matrix" values="0 0 0 0 0 0 0 0 0 0 0 0 0 0 0 0 0 0 127 0" result="hardAlpha"/>
<feOffset dy="3.35441"/>
<feGaussianBlur stdDeviation="8.38604"/>
<feColorMatrix type="matrix" values="0 0 0 0 0 0 0 0 0 0 0 0 0 0 0 0 0 0 0.1 0"/>
<feBlend mode="normal" in2="BackgroundImageFix" result="effect1_dropShadow_1964_2419"/>
<feBlend mode="normal" in="SourceGraphic" in2="effect1_dropShadow_1964_2419" result="shape"/>
</filter>
<filter id="filter4_d_1964_2419" x="117.647" y="95.9256" width="150.948" height="125.791" filterUnits="userSpaceOnUse" color-interpolation-filters="sRGB">
<feFlood flood-opacity="0" result="BackgroundImageFix"/>
<feColorMatrix in="SourceAlpha" type="matrix" values="0 0 0 0 0 0 0 0 0 0 0 0 0 0 0 0 0 0 127 0" result="hardAlpha"/>
<feOffset dy="3.35441"/>
<feGaussianBlur stdDeviation="8.38604"/>
<feColorMatrix type="matrix" values="0 0 0 0 0 0 0 0 0 0 0 0 0 0 0 0 0 0 0.1 0"/>
<feBlend mode="normal" in2="BackgroundImageFix" result="effect1_dropShadow_1964_2419"/>
<feBlend mode="normal" in="SourceGraphic" in2="effect1_dropShadow_1964_2419" result="shape"/>
</filter>
<clipPath id="clip0_1964_2419">
<rect width="251.823" height="309.246" fill="white"/>
</clipPath>
<clipPath id="clip1_1964_2419">
<rect width="50.7754" height="50.7754" fill="white" transform="translate(167 7)"/>
</clipPath>
<clipPath id="clip2_1964_2419">
<rect width="52.7385" height="52.7385" fill="white" transform="translate(31.8672 122.436)"/>
</clipPath>
<clipPath id="clip3_1964_2419">
<rect width="44.5933" height="44.5933" fill="white" transform="translate(170.043 119.407)"/>
</clipPath>
<clipPath id="clip4_1964_2419">
<rect width="58.8569" height="58.8569" fill="white" transform="translate(28.5127 9.22461)"/>
</clipPath>
</defs>
</svg>
