<svg width="69" height="69" viewBox="0 0 69 69" fill="none" xmlns="http://www.w3.org/2000/svg">
<path d="M63.25 28.75C61.4447 28.7455 59.7444 29.5996 58.6697 31.05H53.7243C53.2302 28.28 52.1391 25.651 50.5276 23.3448L54.0281 19.8454C56.478 20.1952 58.8774 18.9385 59.9842 16.7244C61.0909 14.5109 60.6569 11.8375 58.9066 10.0872C57.1569 8.3375 54.4835 7.90344 52.2694 9.01021C50.0559 10.117 48.7986 12.5158 49.1485 14.9663L45.6552 18.4679C43.349 16.8564 40.72 15.7653 37.95 15.2706V10.3259C39.3993 9.25166 40.2528 7.55361 40.25 5.75C40.25 2.57458 37.6754 0 34.5 0C31.3246 0 28.75 2.57458 28.75 5.75C28.7455 7.5553 29.5996 9.25559 31.05 10.3303V15.2757C28.28 15.7698 25.651 16.8609 23.3448 18.4724L19.8454 14.9719C20.1952 12.522 18.9385 10.1226 16.7244 9.01582C14.5109 7.90906 11.8375 8.34311 10.0872 10.0934C8.3375 11.8431 7.90344 14.5165 9.01021 16.7306C10.117 18.9441 12.5158 20.2014 14.9663 19.8515L18.4679 23.3448C16.8564 25.651 15.7653 28.28 15.2706 31.05H10.3259C9.25166 29.6007 7.55361 28.7472 5.75 28.75C2.57458 28.75 0 31.3246 0 34.5C0 37.6754 2.57458 40.25 5.75 40.25C7.5553 40.2545 9.25559 39.4004 10.3303 37.95H15.2757C15.7698 40.72 16.8609 43.349 18.4724 45.6552L14.9719 49.1546C12.522 48.8048 10.1226 50.0615 9.01582 52.2756C7.90906 54.4891 8.34311 57.1625 10.0934 58.9128C11.8431 60.6625 14.5165 61.0966 16.7306 59.9898C18.9441 58.883 20.2014 56.4842 19.8515 54.0337L23.3448 50.5321C25.651 52.1436 28.28 53.2347 31.05 53.7294V58.6741C29.6007 59.7483 28.7472 61.4464 28.75 63.25C28.75 66.4254 31.3246 69 34.5 69C37.6754 69 40.25 66.4254 40.25 63.25C40.2545 61.4447 39.4004 59.7444 37.95 58.6697V53.7243C40.72 53.2302 43.349 52.1391 45.6552 50.5276L49.1546 54.0281C48.8048 56.478 50.0615 58.8774 52.2756 59.9842C54.4891 61.0909 57.1625 60.6569 58.9128 58.9066C60.6625 57.1569 61.0966 54.4835 59.9898 52.2694C58.883 50.0559 56.4842 48.7986 54.0337 49.1485L50.5321 45.6552C52.1436 43.349 53.2347 40.72 53.7294 37.95H58.6741C59.7483 39.3993 61.4464 40.2528 63.25 40.25C66.4254 40.25 69 37.6754 69 34.5C69 31.3246 66.4254 28.75 63.25 28.75ZM63.25 37.95C62.0191 37.9466 60.8843 37.2857 60.2739 36.2171C60.0673 35.8656 59.6899 35.65 59.2823 35.65H52.7388C52.1582 35.6506 51.6691 36.0835 51.5984 36.6596C51.2705 39.2836 50.3383 41.7953 48.875 43.9976L47.1719 42.2945L45.5446 43.9207L52.8388 51.2143C53.1285 51.5035 53.5497 51.6175 53.9456 51.513C55.451 51.1048 57.0429 51.7612 57.8234 53.1123C58.6034 54.4633 58.3765 56.1698 57.2698 57.2698C55.9047 58.5731 53.7569 58.5731 52.3918 57.2698C51.5226 56.4017 51.1874 55.1332 51.5142 53.9489C51.6186 53.5531 51.5046 53.1319 51.2154 52.8427L43.9218 45.548L42.2956 47.1753L43.9976 48.875C41.7953 50.3378 39.2836 51.2688 36.6596 51.5961C36.0824 51.6669 35.6489 52.1577 35.65 52.7388V59.2823C35.65 59.6899 35.8656 60.0673 36.2171 60.2739C37.5727 61.0516 38.2364 62.6441 37.8338 64.1546C37.4312 65.6651 36.0633 66.7163 34.5 66.7163C32.9367 66.7163 31.5688 65.6651 31.1662 64.1546C30.7636 62.6441 31.4273 61.0516 32.7829 60.2739C33.1344 60.0673 33.35 59.6899 33.35 59.2823V52.7388C33.3494 52.1582 32.9165 51.6691 32.3404 51.5984C29.7164 51.2705 27.2047 50.3383 25.0024 48.875L26.7055 47.1719L25.0793 45.5446L17.7857 52.8388C17.4965 53.1285 17.3825 53.5497 17.487 53.9456C17.8138 55.1298 17.4785 56.3983 16.6093 57.2664C15.2442 58.5697 13.0964 58.5697 11.7313 57.2664C10.6235 56.1681 10.3944 54.4605 11.1743 53.1094C11.9543 51.7579 13.5468 51.1014 15.0522 51.5108C15.4481 51.6152 15.8692 51.5012 16.1584 51.2121L23.4531 43.9184L21.8259 42.2923L20.125 43.9976C18.6622 41.7953 17.7312 39.2836 17.4039 36.6596C17.3331 36.0824 16.8423 35.6489 16.2612 35.65H9.71772C9.31006 35.65 8.93271 35.8656 8.72607 36.2171C7.94836 37.5727 6.35588 38.2364 4.84539 37.8338C3.33489 37.4312 2.28372 36.0633 2.28372 34.5C2.28372 32.9367 3.33489 31.5688 4.84539 31.1662C6.35588 30.7636 7.94836 31.4273 8.72607 32.7829C8.93271 33.1344 9.31006 33.35 9.71772 33.35H16.2612C16.8418 33.3494 17.3309 32.9165 17.4016 32.3404C17.7295 29.7164 18.6617 27.2047 20.125 25.0024L21.8281 26.7055L23.4554 25.0793L16.1612 17.7857C15.8715 17.4965 15.4503 17.3825 15.0544 17.487C13.5524 17.8873 11.9689 17.2303 11.1912 15.8844C10.4135 14.5384 10.6358 12.8381 11.7336 11.737C13.0987 10.4342 15.2465 10.4342 16.6115 11.737C17.4808 12.6051 17.816 13.8736 17.4892 15.0584C17.3848 15.4537 17.4988 15.8748 17.7879 16.1646L25.0816 23.4588L26.7077 21.8315L25.0024 20.125C27.2047 18.6622 29.7164 17.7312 32.3404 17.4039C32.9176 17.3331 33.3511 16.8423 33.35 16.2612V9.71772C33.35 9.31006 33.1344 8.93271 32.7829 8.72607C31.4273 7.94836 30.7636 6.35588 31.1662 4.84539C31.5688 3.33489 32.9367 2.28372 34.5 2.28372C36.0633 2.28372 37.4312 3.33489 37.8338 4.84539C38.2364 6.35588 37.5727 7.94836 36.2171 8.72607C35.8656 8.93271 35.65 9.31006 35.65 9.71772V16.2612C35.6506 16.8418 36.0835 17.3309 36.6596 17.4016C39.2836 17.7295 41.7953 18.6617 43.9976 20.125L42.2945 21.8281L43.9207 23.4554L51.2143 16.1612C51.5035 15.8715 51.6175 15.4503 51.513 15.0544C51.1862 13.8702 51.5215 12.6017 52.3907 11.7336C53.7558 10.4303 55.9036 10.4303 57.2687 11.7336C58.3709 12.8331 58.5955 14.5362 57.8167 15.8844C57.0384 17.232 55.451 17.8885 53.9478 17.4836C53.5519 17.3775 53.1297 17.4915 52.8416 17.7823L45.5468 25.076L47.1741 26.7021L48.875 25.0024C50.3378 27.2047 51.2688 29.7164 51.5961 32.3404C51.6669 32.9176 52.1577 33.3511 52.7388 33.35H59.2823C59.6899 33.35 60.0673 33.1344 60.2739 32.7829C61.11 31.3353 62.8659 30.6968 64.4365 31.2701C66.0076 31.8434 66.9398 33.4617 66.6472 35.1081C66.3552 36.7545 64.9222 37.9528 63.25 37.95Z" fill="white"/>
<path d="M34.4999 20.7C31.9596 20.7 29.8999 22.7596 29.8999 25.3C29.8999 27.8403 31.9596 29.9 34.4999 29.9C37.0402 29.9 39.0999 27.8403 39.0999 25.3C39.0999 22.7596 37.0402 20.7 34.4999 20.7ZM34.4999 27.6C33.2297 27.6 32.1999 26.5701 32.1999 25.3C32.1999 24.0298 33.2297 23 34.4999 23C35.7701 23 36.7999 24.0298 36.7999 25.3C36.7999 26.5701 35.7701 27.6 34.4999 27.6Z" fill="white"/>
<path d="M34.4999 39.1C31.9596 39.1 29.8999 41.1596 29.8999 43.7C29.8999 46.2403 31.9596 48.3 34.4999 48.3C37.0402 48.3 39.0999 46.2403 39.0999 43.7C39.0999 41.1596 37.0402 39.1 34.4999 39.1ZM34.4999 46C33.2297 46 32.1999 44.9701 32.1999 43.7C32.1999 42.4298 33.2297 41.4 34.4999 41.4C35.7701 41.4 36.7999 42.4298 36.7999 43.7C36.7999 44.9701 35.7701 46 34.4999 46Z" fill="white"/>
<path d="M24.15 29.9C21.6097 29.9 19.55 31.9597 19.55 34.5C19.55 37.0404 21.6097 39.1 24.15 39.1C26.6904 39.1 28.75 37.0404 28.75 34.5C28.75 31.9597 26.6904 29.9 24.15 29.9ZM24.15 36.8C22.8799 36.8 21.85 35.7702 21.85 34.5C21.85 33.2299 22.8799 32.2 24.15 32.2C25.4202 32.2 26.45 33.2299 26.45 34.5C26.45 35.7702 25.4202 36.8 24.15 36.8Z" fill="white"/>
<path d="M44.85 29.9C42.3097 29.9 40.25 31.9597 40.25 34.5C40.25 37.0404 42.3097 39.1 44.85 39.1C47.3903 39.1 49.45 37.0404 49.45 34.5C49.45 31.9597 47.3903 29.9 44.85 29.9ZM44.85 36.8C43.5798 36.8 42.55 35.7702 42.55 34.5C42.55 33.2299 43.5798 32.2 44.85 32.2C46.1202 32.2 47.15 33.2299 47.15 34.5C47.15 35.7702 46.1202 36.8 44.85 36.8Z" fill="white"/>
</svg>
