<svg width="72" height="71" viewBox="0 0 72 71" fill="none" xmlns="http://www.w3.org/2000/svg">
<path d="M68.7825 34.7043C66.4085 32.7476 62.6561 32.5798 60.1933 35.2229L54.0794 41.7862C53.2889 39.2457 50.9162 37.3959 48.1194 37.3959H37.2088C36.3809 37.3959 36.1037 37.0797 34.6656 35.9718C29.1825 31.1918 20.9469 31.207 15.4804 36.0175L11.4701 39.548C9.66745 38.5939 7.56244 38.5703 5.74991 39.4759L1.1502 41.7751C0.122593 42.2896 -0.293305 43.5389 0.219668 44.5665L12.7001 69.5272C13.2146 70.5548 14.4639 70.9707 15.4915 70.4578L20.0912 68.1572C22.3585 67.0243 23.6203 64.7112 23.5385 62.3567H48.1192C52.6773 62.3567 57.0329 60.1796 59.7676 56.5326L69.7533 43.2175C71.6905 40.6367 71.384 36.8522 68.7825 34.7043ZM18.2302 64.4366L15.4914 65.8066L4.87068 44.5665L7.61084 43.1965C8.63845 42.6834 9.88642 43.0981 10.4009 44.1271L19.1607 61.6467C19.6738 62.6741 19.2578 63.9221 18.2302 64.4366ZM66.4251 40.7213L56.4395 54.0364C54.4857 56.642 51.3753 58.1965 48.1194 58.1965H22.0867L14.292 42.6058L18.2288 39.1405C22.1462 35.6944 28.0536 35.6944 31.971 39.1405C34.2785 41.172 35.7137 41.5561 37.2087 41.5561H48.1192C49.2661 41.5561 50.1993 42.4894 50.1993 43.6361C50.1993 44.7829 49.266 45.7162 48.1192 45.7162H37.4957C36.3475 45.7162 35.4157 46.6481 35.4157 47.7962C35.4157 48.9444 36.3476 49.8763 37.4957 49.8763H49.5129C51.2394 49.8763 52.9035 49.1524 54.0794 47.8891L63.2372 38.0588C64.0748 37.1601 65.3588 37.235 66.1465 37.9242C66.9701 38.6452 67.059 39.8781 66.4251 40.7213Z" fill="white"/>
<path d="M43.7373 14.1943C45.1614 12.7009 46.0392 10.6819 46.0392 8.45886C46.0392 3.87996 42.3395 0 37.719 0C33.1332 0 29.2602 3.87302 29.2602 8.45886C29.2602 10.6138 30.1047 12.6481 31.6384 14.211C27.8347 16.3437 25.1001 20.4372 25.1001 25.238V27.3181C25.1001 28.4662 26.032 29.3981 27.1801 29.3981H48.1194C49.2675 29.3981 50.1995 28.4662 50.1995 27.3181V25.238C50.1993 20.5316 47.6106 16.3742 43.7373 14.1943ZM37.719 4.16023C39.9738 4.16023 41.8791 6.12933 41.8791 8.459C41.8791 10.7526 40.0127 12.6191 37.719 12.6191C35.3894 12.6191 33.4203 10.7138 33.4203 8.459C33.4203 6.16955 35.4296 4.16023 37.719 4.16023ZM29.2602 25.238C29.2602 20.6522 33.1332 16.7792 37.719 16.7792C42.3063 16.7792 46.0392 20.5732 46.0392 25.238H29.2602Z" fill="white"/>
</svg>
