<svg width="60" height="60" viewBox="0 0 60 60" fill="none" xmlns="http://www.w3.org/2000/svg">
<g clip-path="url(#clip0_1744_1439)">
<mask id="mask0_1744_1439" style="mask-type:luminance" maskUnits="userSpaceOnUse" x="0" y="0" width="60" height="60">
<path d="M0.689453 0.242962H59.5463V59.0998H0.689453V0.242962Z" fill="white"/>
</mask>
<g mask="url(#mask0_1744_1439)">
<path d="M32.2876 54.588C33.0647 55.3168 32.6845 56.5875 31.9401 57.3325C31.1006 58.1731 29.753 58.1402 28.8842 57.3294L26.8119 55.3924" stroke="#1661BE" stroke-width="2.31933" stroke-miterlimit="10" stroke-linecap="round" stroke-linejoin="round"/>
<path d="M24.9658 52.014C25.1822 51.817 25.3987 51.6626 25.6149 51.5511C27.6808 50.4482 29.4842 52.9923 27.8938 54.4204L26.356 55.8027C24.1329 57.7987 21.7229 54.9391 23.5033 53.3337" stroke="#1661BE" stroke-width="2.31933" stroke-miterlimit="10" stroke-linecap="round" stroke-linejoin="round"/>
<path d="M34.3075 38.9869L42.4655 46.2423C45.7444 49.1577 42.2557 52.6083 39.4128 49.4927" stroke="#1661BE" stroke-width="2.31933" stroke-miterlimit="10" stroke-linecap="round" stroke-linejoin="round"/>
<path d="M35.0354 45.1655L39.4129 49.4928C40.2588 50.3265 40.2523 51.712 39.4129 52.5525C38.5735 53.3929 37.0749 53.406 36.252 52.5491L36.0355 52.3259" stroke="#1661BE" stroke-width="2.31933" stroke-miterlimit="10" stroke-linecap="round" stroke-linejoin="round"/>
<path d="M32.8648 49.1217L36.0651 52.3259C37.5799 53.8461 35.4618 57.569 32.6057 54.8867L31.2352 53.5965" stroke="#1661BE" stroke-width="2.31933" stroke-miterlimit="10" stroke-linecap="round" stroke-linejoin="round"/>
<path d="M57.4272 34.164L47.9773 22.0593C47.2461 21.1202 45.8723 20.943 44.9246 21.6621L38.7405 26.3764C37.793 27.0987 37.6159 28.4548 38.3503 29.3936L47.797 41.4983C48.5314 42.4373 49.9054 42.6146 50.8497 41.8923L57.0371 37.1811C57.9847 36.4589 58.1584 35.103 57.4272 34.164Z" stroke="#1661BE" stroke-width="2.31933" stroke-miterlimit="10" stroke-linecap="round" stroke-linejoin="round"/>
<path d="M47.3184 40.8878C45.9641 43.4026 45.6003 43.7637 42.4656 46.2424M34.3076 38.9869L31.9565 36.8462L28.189 38.7144C25.0249 40.1128 21.5296 36.1962 26.5693 32.9264L30.2122 30.5625C32.7271 28.9276 35.3143 28.9997 38.3439 29.3872" stroke="#1661BE" stroke-width="2.31933" stroke-miterlimit="10" stroke-linecap="round" stroke-linejoin="round"/>
<path d="M12.2173 42.2042L14.1519 44.8537M29.7334 30.8711L22.0049 29.6892" stroke="#1661BE" stroke-width="2.31933" stroke-miterlimit="10" stroke-linecap="round" stroke-linejoin="round"/>
<path d="M20.5228 44.7813C22.9984 42.5948 25.6411 45.9074 23.7034 47.6146L20.0375 50.8388C18.044 52.5985 15.4601 49.4696 17.1291 47.8608C17.434 47.5687 17.2537 47.733 17.3226 47.6706C17.3947 47.6082 20.5228 44.7813 20.5228 44.7813Z" stroke="#1661BE" stroke-width="2.31933" stroke-miterlimit="10" stroke-linecap="round" stroke-linejoin="round"/>
<path d="M14.1519 44.8536L18.0669 41.3736C20.5392 39.1805 23.1295 42.4275 21.2146 44.1576L20.5228 44.7813L16.8898 48.0579C14.8405 49.9096 12.2403 46.5511 14.1519 44.8536Z" stroke="#1661BE" stroke-width="2.31933" stroke-miterlimit="10" stroke-linecap="round" stroke-linejoin="round"/>
<path d="M23.4608 47.8281C25.9331 45.6382 28.4842 48.8394 26.5693 50.5696L23.1854 53.6228C21.2444 55.3758 18.3293 52.3457 20.5197 50.4152L20.9066 50.077" stroke="#1661BE" stroke-width="2.31933" stroke-miterlimit="10" stroke-linecap="round" stroke-linejoin="round"/>
<path d="M17.9062 12.7617C17.9062 17.0854 20.3163 20.8479 23.8641 22.7716C25.4707 23.6385 27.3069 24.1343 29.2613 24.1343C35.5339 24.1343 40.6194 19.0421 40.6194 12.7617C40.6194 8.22108 37.9569 4.2979 34.1107 2.4792C32.6419 1.78315 30.9958 1.39253 29.2613 1.39253C22.9885 1.39253 17.9062 6.48446 17.9062 12.7617Z" stroke="#1661BE" stroke-width="2.31933" stroke-miterlimit="10" stroke-linecap="round" stroke-linejoin="round"/>
<path d="M32.891 14.4426C32.891 15.3389 32.632 16.0578 32.114 16.5997C31.5991 17.1414 30.9696 17.4992 30.2351 17.6698V19.3016C30.2351 19.8596 29.7597 20.3193 29.199 20.3193C28.6414 20.3193 28.1858 19.8596 28.1858 19.3016V17.6797C27.7266 17.5779 27.3136 17.4071 26.943 17.1709C26.5627 16.9279 26.2971 16.7145 26.1495 16.5305L25.9232 16.2384C24.9855 15.0106 26.5332 13.6974 27.4315 14.6428C27.5431 14.7578 27.6579 14.8957 27.7889 15.0434C28.1661 15.4637 28.717 15.5294 29.1662 15.5294C30.0154 15.5294 30.4416 15.1779 30.4416 14.4755C30.4416 14.2227 30.2809 14.029 29.9596 13.891C29.6383 13.75 29.2481 13.6285 28.7858 13.5167C28.3267 13.4084 27.8677 13.2607 27.4087 13.0768C26.9464 12.8931 26.5562 12.5777 26.2348 12.1281C25.9135 11.6783 25.7529 11.1104 25.7529 10.4174C25.7529 9.72816 25.9724 9.11097 26.4053 8.55275C26.8348 8.00453 27.4545 7.63357 28.2021 7.48574V6.09387C28.2021 5.53564 28.6612 5.07617 29.2186 5.07617C29.7793 5.07617 30.2351 5.53564 30.2351 6.09387V6.52058V7.50218C30.5564 7.57115 30.8515 7.66645 31.1138 7.79439C31.3794 7.92245 31.563 8.0243 31.668 8.10626L31.8221 8.24421C33.1565 9.24558 31.868 11.0184 30.7171 10.0499C29.9368 9.39318 28.1661 9.24558 28.1661 10.4536C28.1661 10.7065 28.2842 10.91 28.5203 11.0677C28.7563 11.2218 29.0448 11.3268 29.3891 11.3763C29.7366 11.4287 30.1138 11.5142 30.5269 11.6356C30.9434 11.757 31.3205 11.8981 31.668 12.0591C32.0123 12.2199 32.3008 12.5055 32.5369 12.9126C32.773 13.3231 32.891 13.8319 32.891 14.4426Z" fill="#1661BE"/>
<path d="M7.21045 28.9866L7.22464 28.9688" stroke="#1661BE" stroke-width="2.31933" stroke-miterlimit="10" stroke-linecap="round" stroke-linejoin="round"/>
<path d="M10.004 25.4081L12.2567 22.5223C12.9911 21.5833 14.3651 21.406 15.3093 22.1282L21.4969 26.8394C22.4442 27.5618 22.6181 28.9176 21.887 29.8567L12.437 41.9612C11.7058 42.9002 10.332 43.0774 9.38429 42.3585L3.20018 37.644C2.2526 36.9217 2.07546 35.5658 2.81002 34.6269L4.41674 32.5685" stroke="#1661BE" stroke-width="2.31933" stroke-miterlimit="10" stroke-linecap="round" stroke-linejoin="round"/>
</g>
</g>
<defs>
<clipPath id="clip0_1744_1439">
<rect width="58.8569" height="58.8569" fill="white" transform="translate(0.689453 0.243103)"/>
</clipPath>
</defs>
</svg>
