<svg width="70" height="70" viewBox="0 0 70 70" fill="none" xmlns="http://www.w3.org/2000/svg">
<path d="M47.4194 21.2119C46.6648 21.2119 46.0522 21.8229 46.0522 22.5786C46.0522 23.3337 46.6648 23.9458 47.4194 23.9458C48.1757 23.9458 48.7866 23.3337 48.7866 22.5786C48.7866 21.8229 48.1757 21.2119 47.4194 21.2119Z" fill="#1661BE"/>
<path d="M22.5786 46.0525C21.8224 46.0525 21.2114 46.6651 21.2114 47.4197C21.2114 48.1759 21.8224 48.7869 22.5786 48.7869C23.3332 48.7869 23.9458 48.1759 23.9458 47.4197C23.9458 46.6651 23.3332 46.0525 22.5786 46.0525Z" fill="#1661BE"/>
<path d="M68.2991 8.41101C67.8377 8.30367 67.3527 8.44305 67.0195 8.77951L61.3515 14.4923H58.6342L55.643 11.3932V8.63799L61.2298 2.96789C61.5603 2.6325 61.6949 2.15025 61.5854 1.69149C61.4765 1.23327 61.139 0.863702 60.6925 0.713097C59.289 0.239922 57.8203 0.000129708 56.3266 0.000129708C51.8736 0.000129708 47.8281 2.07655 45.2272 5.69693C42.793 9.08606 42.0427 13.2394 43.1177 17.2144L33.047 27.2852L16.269 10.4687V7.16826C16.269 6.68814 16.0169 6.24274 15.6052 5.996L5.93819 0.195061C5.39986 -0.128044 4.71146 -0.043129 4.26819 0.400673L0.401612 4.26672C-0.0416566 4.71052 -0.126572 5.39892 0.195999 5.93725L5.99587 15.6042C6.24261 16.016 6.68748 16.2675 7.16759 16.2681L10.467 16.2691L27.2466 33.0856L17.2143 43.1178C13.2393 42.0433 9.08379 42.7947 5.69306 45.2306C2.07482 47.8298 0 51.8743 0 56.3272C0 57.8205 0.239792 59.2897 0.712968 60.6926C0.864106 61.1418 1.23741 61.4809 1.69884 61.5877C2.1608 61.6951 2.64519 61.5557 2.97898 61.2192L8.6464 55.5069H11.3786L14.4917 58.62V61.3522L8.77938 67.0196C8.44293 67.3534 8.30354 67.8378 8.41088 68.2998C8.51769 68.7612 8.85682 69.1345 9.30596 69.2856C10.7089 69.7588 12.1781 69.9986 13.6714 69.9986C18.1243 69.9986 22.1682 67.9232 24.768 64.305C27.2039 60.9143 27.9553 56.7593 26.8807 52.7843L34.9381 44.727L36.7838 46.7318L35.9368 47.5783C35.4027 48.1124 35.4027 48.9781 35.9368 49.5121C36.4708 50.0457 37.336 50.0457 37.8706 49.5121L38.6375 48.7452L55.9549 67.5558C55.9677 67.5697 55.981 67.5831 55.9944 67.5964C59.1987 70.8008 64.3903 70.8018 67.5963 67.5959C70.7931 64.3974 70.7931 59.193 67.5963 55.9945C67.5824 55.9806 67.568 55.9673 67.5536 55.9539L48.7136 38.6697L49.4719 37.9113C50.006 37.3778 50.006 36.5121 49.4719 35.978C48.9379 35.444 48.0727 35.444 47.5381 35.978L46.697 36.8197L44.6884 34.9761L52.7847 26.8798C53.9356 27.1874 55.1233 27.3434 56.3266 27.3434C63.8653 27.3434 69.9979 21.2102 69.9979 13.672C69.9979 12.1783 69.7581 10.7096 69.285 9.30609C69.1338 8.85695 68.7605 8.51782 68.2991 8.41101ZM12.0019 13.9364C11.7455 13.6795 11.3979 13.5487 11.0347 13.5487L7.94251 13.5476L3.09006 5.44592L5.44686 3.08912L13.5346 7.94264V11.0348C13.5346 11.3969 13.6783 11.7441 13.9341 12.0004L31.1137 29.219L29.1799 31.1523L12.0019 13.9364ZM46.7782 40.6051L65.6822 57.9476C67.7939 60.0817 67.7875 63.537 65.6624 65.6631C63.5326 67.7929 60.0847 67.7993 57.9464 65.6818L40.5724 46.8098L46.7782 40.6051ZM44.7616 38.7546L38.7187 44.7964L36.873 42.7915L42.753 36.911L44.7616 38.7546ZM56.3266 24.609C55.1308 24.609 53.9548 24.4173 52.8322 24.0392C52.3404 23.8741 51.7967 24.0012 51.4293 24.3681C44.5752 31.2222 29.8063 45.9905 24.368 51.4294C24.0006 51.7968 23.8729 52.3405 24.039 52.8329C25.1755 56.2076 24.6318 59.8072 22.5469 62.7098C20.4678 65.6038 17.2325 67.2642 13.6714 67.2642C13.2713 67.2642 12.8735 67.2423 12.4793 67.2001L16.8218 62.8913C17.0802 62.635 17.226 62.2857 17.226 61.921V58.0533C17.226 57.6907 17.0819 57.343 16.8255 57.0867L12.9114 53.1726C12.655 52.9162 12.3074 52.772 11.9447 52.772H8.0771C7.71233 52.772 7.36306 52.9178 7.10618 53.1763L2.79793 57.5187C2.75521 57.1246 2.73384 56.7267 2.73384 56.3267C2.73384 52.7651 4.3937 49.5303 7.28829 47.4512C10.1904 45.3662 13.7904 44.822 17.1657 45.959C17.6576 46.1251 18.2012 45.9975 18.5687 45.6301C18.644 45.5553 45.6107 18.588 45.6299 18.5688C45.9974 18.2014 46.1245 17.6582 45.9589 17.1658C44.8219 13.7911 45.3645 10.1926 47.4479 7.29216C49.5286 4.39543 52.7644 2.73451 56.326 2.73451C56.7383 2.73451 57.148 2.75747 57.5538 2.80233L53.3017 7.11806C53.0496 7.37387 52.9086 7.71834 52.9086 8.07722V11.9449C52.9086 12.2995 53.0459 12.6397 53.2921 12.8944L57.0695 16.8085C57.3269 17.0756 57.682 17.2262 58.0532 17.2262H61.9208C62.2851 17.2262 62.6343 17.0809 62.8912 16.8219L67.1995 12.48C67.2422 12.8741 67.2636 13.272 67.2636 13.672C67.2636 19.7026 62.3572 24.609 56.3266 24.609Z" fill="#1661BE"/>
<path d="M42.5866 25.4785L25.478 42.587C24.9445 43.1206 24.9445 43.9863 25.478 44.5203C26.0121 45.0544 26.8778 45.0544 27.4118 44.5203L44.5204 27.4118C45.0545 26.8783 45.0545 26.0125 44.5204 25.4785C43.9863 24.9444 43.1206 24.9444 42.5866 25.4785Z" fill="#1661BE"/>
<path d="M59.863 61.797C60.397 62.3295 61.2627 62.3295 61.7968 61.7938C62.3298 61.2592 62.3282 60.3935 61.7936 59.8605L49.4702 47.5767C48.9356 47.0437 48.0694 47.0453 47.5369 47.5799C47.0034 48.115 47.005 48.9802 47.5396 49.5132L59.863 61.797Z" fill="#1661BE"/>
</svg>
