<svg width="66" height="66" viewBox="0 0 66 66" fill="none" xmlns="http://www.w3.org/2000/svg">
<path d="M44.71 19.9998C43.9985 19.9998 43.4209 20.5758 43.4209 21.2883C43.4209 22.0003 43.9985 22.5774 44.71 22.5774C45.423 22.5774 45.999 22.0003 45.999 21.2883C45.999 20.5758 45.423 19.9998 44.71 19.9998Z" fill="white"/>
<path d="M21.2883 43.421C20.5753 43.421 19.9993 43.9986 19.9993 44.7101C19.9993 45.4231 20.5753 45.9991 21.2883 45.9991C21.9998 45.9991 22.5774 45.4231 22.5774 44.7101C22.5774 43.9986 21.9998 43.421 21.2883 43.421Z" fill="white"/>
<path d="M64.3963 7.93038C63.9612 7.82917 63.504 7.96059 63.1898 8.27783L57.8457 13.6642H55.2837L52.4634 10.7422V8.14439L57.7309 2.7983C58.0426 2.48207 58.1695 2.02738 58.0663 1.59484C57.9636 1.1628 57.6453 0.814347 57.2244 0.672349C55.9011 0.226212 54.5163 0.000122296 53.1079 0.000122296C48.9094 0.000122296 45.0951 1.95789 42.6428 5.37139C40.3477 8.56686 39.6402 12.4829 40.6539 16.2307L31.1586 25.726L15.3394 9.87052V6.75864C15.3394 6.30596 15.1017 5.88601 14.7135 5.65337L5.59887 0.183915C5.0913 -0.120727 4.44223 -0.0406645 4.0243 0.377778L0.378662 4.02291C-0.0392762 4.44135 -0.119339 5.09041 0.184799 5.59798L5.65325 14.7126C5.88589 15.1008 6.30534 15.338 6.75802 15.3385L9.86889 15.3395L25.6896 31.195L16.2306 40.654C12.4828 39.6409 8.56472 40.3493 5.36774 42.646C1.95626 45.0967 0 48.91 0 53.1085C0 54.5164 0.22609 55.9017 0.672227 57.2245C0.814729 57.648 1.1667 57.9677 1.60176 58.0684C2.03733 58.1696 2.49404 58.0382 2.80875 57.721L8.15232 52.3351H10.7284L13.6636 55.2702V57.8464L8.2777 63.1899C7.96047 63.5046 7.82905 63.9614 7.93026 64.3969C8.03097 64.832 8.35072 65.184 8.77419 65.3265C10.097 65.7726 11.4822 65.9987 12.8901 65.9987C17.0887 65.9987 20.9015 64.0419 23.3527 60.6304C25.6493 57.4335 26.3578 53.5159 25.3447 49.7681L32.9416 42.1711L34.6819 44.0614L33.8832 44.8595C33.3797 45.3631 33.3797 46.1793 33.8832 46.6829C34.3868 47.1859 35.2025 47.1859 35.7066 46.6829L36.4296 45.9598L52.7575 63.6955C52.7695 63.7086 52.7821 63.7212 52.7947 63.7338C55.816 66.755 60.7109 66.756 63.7336 63.7332C66.7478 60.7175 66.7478 55.8105 63.7336 52.7948C63.7205 52.7817 63.7069 52.7692 63.6933 52.7566L45.93 36.46L46.645 35.745C47.1485 35.2419 47.1485 34.4257 46.645 33.9221C46.1414 33.4186 45.3257 33.4186 44.8217 33.9221L44.0286 34.7157L42.1348 32.9775L49.7684 25.3438C50.8536 25.6339 51.9734 25.7809 53.1079 25.7809C60.2159 25.7809 65.9981 19.9982 65.9981 12.8908C65.9981 11.4824 65.772 10.0976 65.3258 8.77432C65.1833 8.35084 64.8314 8.03109 64.3963 7.93038ZM11.3161 13.14C11.0744 12.8978 10.7466 12.7744 10.4042 12.7744L7.48866 12.7734L2.91349 5.13473L5.13561 2.9126L12.7612 7.48878V10.4043C12.7612 10.7457 12.8967 11.073 13.1379 11.3147L29.3358 27.5493L27.5124 29.3721L11.3161 13.14ZM44.1051 38.2848L61.9289 54.6363C63.9199 56.6484 63.9139 59.9063 61.9103 61.9109C59.9022 63.9191 56.6513 63.9251 54.6352 61.9286L38.254 44.1349L44.1051 38.2848ZM42.2038 36.54L36.5062 42.2366L34.7659 40.3463L40.3099 34.8018L42.2038 36.54ZM53.1079 23.2028C51.9805 23.2028 50.8717 23.022 49.8133 22.6655C49.3495 22.5099 48.8369 22.6297 48.4905 22.9757C42.028 29.4381 28.1031 43.3625 22.9755 48.4906C22.6291 48.837 22.5088 49.3496 22.6654 49.8139C23.7369 52.9958 23.2243 56.3896 21.2585 59.1264C19.2982 61.855 16.2477 63.4206 12.8901 63.4206C12.513 63.4206 12.1378 63.3999 11.7662 63.3601L15.8605 59.2976C16.1042 59.0559 16.2417 58.7265 16.2417 58.3826V54.736C16.2417 54.3941 16.1057 54.0663 15.864 53.8246L12.1736 50.1341C11.9319 49.8924 11.6041 49.7565 11.2622 49.7565H7.61555C7.27163 49.7565 6.94231 49.8939 6.70011 50.1377L2.63805 54.2319C2.59777 53.8603 2.57762 53.4852 2.57762 53.108C2.57762 49.7499 4.14263 46.7 6.87182 44.7397C9.60806 42.7739 13.0024 42.2608 16.1848 43.3328C16.6486 43.4894 17.1612 43.3691 17.5076 43.0226C17.5786 42.9521 43.0044 17.5259 43.0225 17.5077C43.3689 17.1613 43.4888 16.6492 43.3327 16.1849C42.2607 13.003 42.7722 9.61019 44.7366 6.87547C46.6984 4.14426 49.7493 2.57825 53.1074 2.57825C53.4962 2.57825 53.8824 2.5999 54.2651 2.6422L50.2559 6.71131C50.0182 6.95251 49.8853 7.27729 49.8853 7.61567V11.2623C49.8853 11.5967 50.0147 11.9174 50.2468 12.1576L53.8083 15.8481C54.0511 16.0998 54.3859 16.2418 54.7359 16.2418H58.3825C58.7259 16.2418 59.0552 16.1049 59.2974 15.8606L63.3595 11.7669C63.3998 12.1385 63.4199 12.5136 63.4199 12.8908C63.4199 18.5767 58.7939 23.2028 53.1079 23.2028Z" fill="white"/>
<path d="M40.153 24.0226L24.0221 40.1535C23.519 40.6565 23.519 41.4728 24.0221 41.9763C24.5256 42.4798 25.3418 42.4798 25.8454 41.9763L41.9763 25.8454C42.4798 25.3423 42.4798 24.5261 41.9763 24.0226C41.4728 23.519 40.6565 23.519 40.153 24.0226Z" fill="white"/>
<path d="M56.4425 58.2658C56.946 58.7678 57.7622 58.7678 58.2658 58.2628C58.7683 57.7587 58.7668 56.9425 58.2627 56.4399L46.6436 44.858C46.1395 44.3555 45.3228 44.357 44.8207 44.861C44.3177 45.3656 44.3192 46.1813 44.8233 46.6839L56.4425 58.2658Z" fill="white"/>
</svg>
