<svg width="150" height="118" viewBox="0 0 150 118" fill="none" xmlns="http://www.w3.org/2000/svg">
<path d="M126.294 37.9263H24V48.5196H126.294V37.9263Z" fill="#F99400"/>
<g filter="url(#filter0_biii_1925_200)">
<path d="M41.6357 99H108.658C118.403 99 126.294 91.0976 126.294 81.3387V35.6613C126.294 25.9024 118.403 18 108.658 18H41.6357C31.891 18 24 25.9024 24 35.6613V81.3217C24 91.0805 31.891 99 41.6357 99Z" fill="#3680FF" fill-opacity="0.14"/>
</g>
<path d="M126.294 37.9263H24V48.5196H126.294V37.9263Z" fill="#F99400"/>
<path d="M40.5126 32.8063H63.1822C65.138 32.8063 66.7026 31.2224 66.7026 29.2808C66.7026 27.3222 65.121 25.7554 63.1822 25.7554H40.5126C38.5569 25.7554 36.9923 27.3393 36.9923 29.2808C36.9923 31.2224 38.5569 32.8063 40.5126 32.8063Z" fill="#F99400"/>
<defs>
<filter id="filter0_biii_1925_200" x="10" y="4" width="130.294" height="109" filterUnits="userSpaceOnUse" color-interpolation-filters="sRGB">
<feFlood flood-opacity="0" result="BackgroundImageFix"/>
<feGaussianBlur in="BackgroundImageFix" stdDeviation="7"/>
<feComposite in2="SourceAlpha" operator="in" result="effect1_backgroundBlur_1925_200"/>
<feBlend mode="normal" in="SourceGraphic" in2="effect1_backgroundBlur_1925_200" result="shape"/>
<feColorMatrix in="SourceAlpha" type="matrix" values="0 0 0 0 0 0 0 0 0 0 0 0 0 0 0 0 0 0 127 0" result="hardAlpha"/>
<feOffset dy="4"/>
<feGaussianBlur stdDeviation="18"/>
<feComposite in2="hardAlpha" operator="arithmetic" k2="-1" k3="1"/>
<feColorMatrix type="matrix" values="0 0 0 0 1 0 0 0 0 1 0 0 0 0 1 0 0 0 0.36 0"/>
<feBlend mode="normal" in2="shape" result="effect2_innerShadow_1925_200"/>
<feColorMatrix in="SourceAlpha" type="matrix" values="0 0 0 0 0 0 0 0 0 0 0 0 0 0 0 0 0 0 127 0" result="hardAlpha"/>
<feOffset dy="4"/>
<feGaussianBlur stdDeviation="2"/>
<feComposite in2="hardAlpha" operator="arithmetic" k2="-1" k3="1"/>
<feColorMatrix type="matrix" values="0 0 0 0 1 0 0 0 0 1 0 0 0 0 1 0 0 0 0.1 0"/>
<feBlend mode="normal" in2="effect2_innerShadow_1925_200" result="effect3_innerShadow_1925_200"/>
<feColorMatrix in="SourceAlpha" type="matrix" values="0 0 0 0 0 0 0 0 0 0 0 0 0 0 0 0 0 0 127 0" result="hardAlpha"/>
<feOffset dy="1"/>
<feGaussianBlur stdDeviation="0.5"/>
<feComposite in2="hardAlpha" operator="arithmetic" k2="-1" k3="1"/>
<feColorMatrix type="matrix" values="0 0 0 0 1 0 0 0 0 1 0 0 0 0 1 0 0 0 0.15 0"/>
<feBlend mode="normal" in2="effect3_innerShadow_1925_200" result="effect4_innerShadow_1925_200"/>
</filter>
</defs>
</svg>
